<svg width="314" height="352" viewBox="0 0 314 352" fill="none" xmlns="http://www.w3.org/2000/svg">
<path d="M179.593 1.07715H6.54932V36.1541H179.593V1.07715Z" fill="#EB5B8C"/>
<path d="M34.4109 149.875V126.21H37.2867V135.946C37.9615 135.164 38.7327 134.537 39.6003 134.066C40.4786 133.584 41.4801 133.343 42.6047 133.343C43.5473 133.343 44.3988 133.52 45.1593 133.873C45.9198 134.227 46.5678 134.757 47.1033 135.464C47.6389 136.16 48.0513 137.028 48.3405 138.067C48.6297 139.095 48.7743 140.284 48.7743 141.633C48.7743 142.833 48.6136 143.952 48.2923 144.991C47.9709 146.02 47.505 146.914 46.8945 147.674C46.2947 148.424 45.5556 149.019 44.6773 149.458C43.8097 149.886 42.8297 150.1 41.7372 150.1C40.6875 150.1 39.7931 149.897 39.0541 149.49C38.3257 149.083 37.6884 148.515 37.1421 147.787L36.9975 149.265C36.9119 149.672 36.6655 149.875 36.2585 149.875H34.4109ZM41.6729 135.625C40.741 135.625 39.9216 135.839 39.2147 136.267C38.5185 136.696 37.8758 137.301 37.2867 138.083V145.955C37.8009 146.662 38.3686 147.16 38.9898 147.449C39.6217 147.739 40.3233 147.883 41.0945 147.883C42.6155 147.883 43.7829 147.342 44.597 146.261C45.411 145.179 45.818 143.636 45.818 141.633C45.818 140.573 45.7216 139.663 45.5288 138.902C45.3467 138.142 45.079 137.52 44.7255 137.038C44.3721 136.546 43.9383 136.187 43.4241 135.962C42.91 135.737 42.3263 135.625 41.6729 135.625ZM58.8509 133.343C60.0399 133.343 61.1109 133.541 62.0642 133.938C63.0282 134.334 63.8422 134.896 64.5063 135.625C65.1811 136.353 65.6952 137.237 66.0487 138.276C66.4129 139.304 66.595 140.455 66.595 141.73C66.595 143.015 66.4129 144.172 66.0487 145.2C65.6952 146.228 65.1811 147.107 64.5063 147.835C63.8422 148.563 63.0282 149.126 62.0642 149.522C61.1109 149.908 60.0399 150.1 58.8509 150.1C57.662 150.1 56.5856 149.908 55.6216 149.522C54.6683 149.126 53.8543 148.563 53.1795 147.835C52.5047 147.107 51.9852 146.228 51.621 145.2C51.2569 144.172 51.0748 143.015 51.0748 141.73C51.0748 140.455 51.2569 139.304 51.621 138.276C51.9852 137.237 52.5047 136.353 53.1795 135.625C53.8543 134.896 54.6683 134.334 55.6216 133.938C56.5856 133.541 57.662 133.343 58.8509 133.343ZM58.8509 147.867C60.4576 147.867 61.6572 147.332 62.4498 146.261C63.2424 145.179 63.6387 143.674 63.6387 141.746C63.6387 139.807 63.2424 138.297 62.4498 137.215C61.6572 136.133 60.4576 135.592 58.8509 135.592C58.0369 135.592 57.33 135.732 56.7302 136.01C56.1303 136.289 55.6269 136.69 55.2199 137.215C54.8236 137.74 54.5237 138.388 54.3202 139.159C54.1274 139.92 54.031 140.782 54.031 141.746C54.031 142.71 54.1274 143.572 54.3202 144.333C54.5237 145.093 54.8236 145.736 55.2199 146.261C55.6269 146.775 56.1303 147.171 56.7302 147.449C57.33 147.728 58.0369 147.867 58.8509 147.867ZM81.5742 149.875C81.1672 149.875 80.9101 149.677 80.803 149.281L80.5459 147.305C79.8497 148.151 79.0517 148.831 78.152 149.345C77.263 149.849 76.2401 150.1 75.0833 150.1C74.1515 150.1 73.3053 149.924 72.5448 149.57C71.7843 149.206 71.1363 148.676 70.6008 147.98C70.0652 147.283 69.6529 146.416 69.3637 145.377C69.0745 144.338 68.9299 143.144 68.9299 141.794C68.9299 140.594 69.0905 139.48 69.4119 138.452C69.7332 137.413 70.1938 136.514 70.7936 135.753C71.4041 134.993 72.1432 134.398 73.0107 133.97C73.8783 133.531 74.8637 133.311 75.967 133.311C76.9631 133.311 77.8146 133.482 78.5215 133.825C79.2285 134.157 79.8604 134.628 80.4174 135.239V126.21H83.2772V149.875H81.5742ZM76.0312 147.787C76.9631 147.787 77.7771 147.573 78.4733 147.144C79.1803 146.716 79.8283 146.111 80.4174 145.329V137.456C79.8925 136.749 79.3142 136.256 78.6822 135.978C78.061 135.689 77.3701 135.544 76.6096 135.544C75.0887 135.544 73.9212 136.085 73.1071 137.167C72.2931 138.249 71.8861 139.791 71.8861 141.794C71.8861 142.854 71.9771 143.765 72.1592 144.525C72.3413 145.275 72.6091 145.896 72.9626 146.389C73.316 146.871 73.7498 147.225 74.2639 147.449C74.7781 147.674 75.3672 147.787 76.0312 147.787ZM92.8398 154.679C92.7434 154.894 92.6202 155.065 92.4702 155.193C92.331 155.322 92.1114 155.386 91.8115 155.386H89.6907L92.663 148.928L85.9473 133.6H88.4215C88.6678 133.6 88.8606 133.664 88.9999 133.793C89.1391 133.911 89.2409 134.045 89.3051 134.195L93.6592 144.445C93.7555 144.681 93.8359 144.916 93.9001 145.152C93.9751 145.388 94.0394 145.629 94.0929 145.875C94.1679 145.629 94.2429 145.388 94.3179 145.152C94.3929 144.916 94.4785 144.675 94.5749 144.429L98.8004 134.195C98.8647 134.023 98.9718 133.884 99.1217 133.777C99.2824 133.659 99.4538 133.6 99.6359 133.6H101.917L92.8398 154.679ZM111.287 143.047C111.287 142.372 111.099 141.821 110.724 141.392C110.349 140.953 109.803 140.734 109.085 140.734V139.015C109.803 139.015 110.349 138.8 110.724 138.372C111.099 137.943 111.287 137.387 111.287 136.701C111.287 136.165 111.244 135.635 111.158 135.11C111.072 134.586 110.976 134.061 110.869 133.536C110.772 133.011 110.681 132.481 110.596 131.945C110.51 131.41 110.467 130.864 110.467 130.307C110.467 129.567 110.574 128.887 110.789 128.266C111.013 127.645 111.345 127.109 111.785 126.659C112.234 126.21 112.786 125.861 113.439 125.615C114.104 125.369 114.875 125.246 115.753 125.246H116.605V126.515C116.605 126.729 116.53 126.884 116.38 126.981C116.23 127.077 116.09 127.125 115.962 127.125H115.641C114.816 127.125 114.162 127.399 113.68 127.945C113.209 128.48 112.974 129.209 112.974 130.13C112.974 130.73 113.011 131.308 113.086 131.865C113.161 132.422 113.247 132.968 113.343 133.504C113.439 134.029 113.525 134.553 113.6 135.078C113.675 135.603 113.713 136.133 113.713 136.669C113.713 137.076 113.654 137.456 113.536 137.81C113.418 138.152 113.247 138.463 113.022 138.741C112.808 139.009 112.55 139.245 112.251 139.448C111.961 139.641 111.64 139.786 111.287 139.882C111.64 139.979 111.961 140.129 112.251 140.332C112.55 140.525 112.808 140.76 113.022 141.039C113.247 141.317 113.418 141.628 113.536 141.971C113.654 142.314 113.713 142.683 113.713 143.079C113.713 143.615 113.675 144.145 113.6 144.67C113.525 145.195 113.439 145.725 113.343 146.261C113.247 146.785 113.161 147.326 113.086 147.883C113.011 148.44 112.974 149.019 112.974 149.618C112.974 150.55 113.209 151.284 113.68 151.82C114.162 152.355 114.816 152.623 115.641 152.623H115.962C116.09 152.623 116.23 152.671 116.38 152.767C116.53 152.864 116.605 153.019 116.605 153.233V154.519H115.753C114.875 154.519 114.104 154.39 113.439 154.133C112.786 153.887 112.234 153.539 111.785 153.089C111.345 152.639 111.013 152.103 110.789 151.482C110.574 150.861 110.467 150.181 110.467 149.442C110.467 148.885 110.51 148.344 110.596 147.819C110.681 147.283 110.772 146.753 110.869 146.228C110.976 145.693 111.072 145.163 111.158 144.638C111.244 144.113 111.287 143.583 111.287 143.047ZM72.2363 188.875V175.042L70.4369 174.833C70.2119 174.78 70.0245 174.7 69.8745 174.592C69.7353 174.475 69.6657 174.309 69.6657 174.094V172.922H72.2363V171.347C72.2363 170.415 72.3648 169.59 72.6219 168.873C72.8897 168.144 73.2645 167.534 73.7465 167.041C74.2392 166.538 74.8284 166.158 75.5139 165.9C76.1994 165.643 76.9705 165.515 77.8274 165.515C78.5558 165.515 79.2306 165.622 79.8518 165.836L79.7875 167.266C79.7768 167.48 79.6858 167.609 79.5144 167.652C79.343 167.695 79.102 167.716 78.7914 167.716H78.2933C77.8006 167.716 77.3508 167.78 76.9438 167.909C76.5475 168.037 76.2047 168.246 75.9155 168.535C75.6263 168.825 75.4014 169.205 75.2407 169.676C75.0908 170.147 75.0158 170.731 75.0158 171.427V172.922H79.7233V174.994H75.1122V188.875H72.2363ZM89.0069 172.343C90.1958 172.343 91.2669 172.541 92.2202 172.938C93.1842 173.334 93.9982 173.896 94.6623 174.625C95.3371 175.353 95.8512 176.237 96.2047 177.276C96.5689 178.304 96.7509 179.455 96.7509 180.73C96.7509 182.015 96.5689 183.172 96.2047 184.2C95.8512 185.228 95.3371 186.107 94.6623 186.835C93.9982 187.563 93.1842 188.126 92.2202 188.522C91.2669 188.908 90.1958 189.1 89.0069 189.1C87.818 189.1 86.7415 188.908 85.7776 188.522C84.8243 188.126 84.0102 187.563 83.3355 186.835C82.6607 186.107 82.1412 185.228 81.777 184.2C81.4128 183.172 81.2307 182.015 81.2307 180.73C81.2307 179.455 81.4128 178.304 81.777 177.276C82.1412 176.237 82.6607 175.353 83.3355 174.625C84.0102 173.896 84.8243 173.334 85.7776 172.938C86.7415 172.541 87.818 172.343 89.0069 172.343ZM89.0069 186.867C90.6136 186.867 91.8132 186.332 92.6058 185.261C93.3984 184.179 93.7947 182.674 93.7947 180.746C93.7947 178.807 93.3984 177.297 92.6058 176.215C91.8132 175.133 90.6136 174.592 89.0069 174.592C88.1929 174.592 87.486 174.732 86.8861 175.01C86.2863 175.289 85.7829 175.69 85.3759 176.215C84.9796 176.74 84.6797 177.388 84.4762 178.159C84.2834 178.92 84.187 179.782 84.187 180.746C84.187 181.71 84.2834 182.572 84.4762 183.333C84.6797 184.093 84.9796 184.736 85.3759 185.261C85.7829 185.775 86.2863 186.171 86.8861 186.449C87.486 186.728 88.1929 186.867 89.0069 186.867ZM100.275 188.875V172.6H101.978C102.385 172.6 102.642 172.798 102.749 173.195L102.974 174.962C103.681 174.18 104.468 173.548 105.336 173.066C106.214 172.584 107.226 172.343 108.372 172.343C109.261 172.343 110.043 172.493 110.718 172.793C111.403 173.082 111.971 173.5 112.421 174.046C112.882 174.582 113.23 175.23 113.465 175.99C113.701 176.751 113.819 177.591 113.819 178.513V188.875H110.959V178.513C110.959 177.281 110.675 176.328 110.107 175.653C109.55 174.967 108.694 174.625 107.537 174.625C106.691 174.625 105.898 174.828 105.159 175.235C104.431 175.642 103.756 176.194 103.135 176.89V188.875H100.275ZM123.062 189.133C121.777 189.133 120.786 188.774 120.09 188.056C119.404 187.338 119.062 186.305 119.062 184.955V174.994H117.102C116.93 174.994 116.786 174.946 116.668 174.849C116.55 174.742 116.491 174.582 116.491 174.367V173.227L119.158 172.889L119.817 167.861C119.838 167.7 119.908 167.571 120.026 167.475C120.144 167.368 120.293 167.314 120.476 167.314H121.922V172.922H126.581V174.994H121.922V184.762C121.922 185.448 122.088 185.957 122.42 186.289C122.752 186.621 123.18 186.787 123.705 186.787C124.005 186.787 124.262 186.749 124.476 186.674C124.701 186.589 124.894 186.498 125.054 186.401C125.215 186.305 125.349 186.219 125.456 186.144C125.574 186.059 125.676 186.016 125.761 186.016C125.911 186.016 126.045 186.107 126.163 186.289L126.999 187.654C126.506 188.115 125.911 188.479 125.215 188.747C124.519 189.004 123.801 189.133 123.062 189.133ZM129.378 178.031H137.315V180.457H129.378V178.031ZM141.899 188.875V175.042L140.1 174.833C139.875 174.78 139.688 174.7 139.538 174.592C139.398 174.475 139.329 174.309 139.329 174.094V172.922H141.899V171.347C141.899 170.415 142.028 169.59 142.285 168.873C142.553 168.144 142.928 167.534 143.41 167.041C143.902 166.538 144.491 166.158 145.177 165.9C145.862 165.643 146.634 165.515 147.491 165.515C148.219 165.515 148.894 165.622 149.515 165.836L149.451 167.266C149.44 167.48 149.349 167.609 149.178 167.652C149.006 167.695 148.765 167.716 148.455 167.716H147.956C147.464 167.716 147.014 167.78 146.607 167.909C146.211 168.037 145.868 168.246 145.579 168.535C145.289 168.825 145.065 169.205 144.904 169.676C144.754 170.147 144.679 170.731 144.679 171.427V172.922H149.386V174.994H144.775V188.875H141.899ZM164.036 188.875H162.767C162.488 188.875 162.264 188.833 162.092 188.747C161.921 188.661 161.808 188.479 161.755 188.201L161.433 186.69C161.005 187.076 160.587 187.424 160.18 187.735C159.773 188.035 159.345 188.292 158.895 188.506C158.445 188.709 157.963 188.865 157.449 188.972C156.946 189.079 156.383 189.133 155.762 189.133C155.13 189.133 154.536 189.047 153.979 188.875C153.432 188.693 152.956 188.426 152.549 188.072C152.142 187.719 151.815 187.274 151.569 186.739C151.333 186.192 151.215 185.55 151.215 184.811C151.215 184.168 151.392 183.552 151.745 182.963C152.099 182.363 152.667 181.833 153.448 181.372C154.241 180.912 155.275 180.537 156.549 180.248C157.824 179.948 159.382 179.777 161.225 179.734V178.464C161.225 177.201 160.951 176.247 160.405 175.605C159.87 174.951 159.072 174.625 158.011 174.625C157.315 174.625 156.726 174.716 156.244 174.898C155.773 175.069 155.36 175.267 155.007 175.492C154.664 175.706 154.364 175.905 154.107 176.087C153.861 176.258 153.614 176.344 153.368 176.344C153.175 176.344 153.004 176.295 152.854 176.199C152.715 176.092 152.602 175.963 152.517 175.813L152.002 174.898C152.902 174.03 153.872 173.382 154.91 172.954C155.949 172.525 157.101 172.311 158.365 172.311C159.275 172.311 160.084 172.461 160.791 172.761C161.498 173.061 162.092 173.478 162.574 174.014C163.056 174.55 163.42 175.198 163.667 175.958C163.913 176.719 164.036 177.554 164.036 178.464V188.875ZM156.614 187.124C157.117 187.124 157.578 187.076 157.995 186.98C158.413 186.873 158.804 186.728 159.168 186.546C159.543 186.353 159.896 186.123 160.228 185.855C160.571 185.587 160.903 185.282 161.225 184.939V181.549C159.907 181.592 158.788 181.699 157.867 181.871C156.946 182.031 156.196 182.245 155.617 182.513C155.039 182.781 154.616 183.097 154.348 183.461C154.091 183.825 153.963 184.232 153.963 184.682C153.963 185.111 154.032 185.48 154.171 185.791C154.311 186.101 154.498 186.358 154.734 186.562C154.969 186.755 155.248 186.899 155.569 186.996C155.891 187.081 156.239 187.124 156.614 187.124ZM168.369 188.875V172.6H170.072C170.479 172.6 170.736 172.798 170.843 173.195L171.052 174.866C171.652 174.126 172.321 173.521 173.06 173.05C173.81 172.579 174.678 172.343 175.663 172.343C176.766 172.343 177.655 172.648 178.33 173.259C179.016 173.869 179.508 174.694 179.808 175.733C180.033 175.144 180.328 174.635 180.692 174.207C181.067 173.778 181.484 173.425 181.945 173.146C182.406 172.868 182.893 172.664 183.407 172.536C183.932 172.407 184.462 172.343 184.998 172.343C185.855 172.343 186.615 172.482 187.279 172.761C187.954 173.029 188.522 173.425 188.982 173.95C189.453 174.475 189.812 175.123 190.059 175.894C190.305 176.654 190.428 177.527 190.428 178.513V188.875H187.568V178.513C187.568 177.238 187.29 176.274 186.733 175.621C186.176 174.957 185.367 174.625 184.307 174.625C183.836 174.625 183.386 174.71 182.957 174.882C182.54 175.042 182.17 175.283 181.849 175.605C181.527 175.926 181.27 176.333 181.077 176.826C180.895 177.308 180.804 177.87 180.804 178.513V188.875H177.945V178.513C177.945 177.206 177.682 176.231 177.157 175.589C176.632 174.946 175.867 174.625 174.86 174.625C174.153 174.625 173.494 174.817 172.884 175.203C172.284 175.578 171.732 176.092 171.229 176.745V188.875H168.369ZM197.94 172.6V188.875H195.081V172.6H197.94ZM198.583 167.491C198.583 167.77 198.524 168.032 198.406 168.278C198.299 168.514 198.149 168.728 197.957 168.921C197.774 169.103 197.56 169.248 197.314 169.355C197.068 169.462 196.805 169.515 196.527 169.515C196.248 169.515 195.986 169.462 195.739 169.355C195.504 169.248 195.289 169.103 195.097 168.921C194.915 168.728 194.77 168.514 194.663 168.278C194.556 168.032 194.502 167.77 194.502 167.491C194.502 167.213 194.556 166.95 194.663 166.704C194.77 166.447 194.915 166.227 195.097 166.045C195.289 165.852 195.504 165.702 195.739 165.595C195.986 165.488 196.248 165.435 196.527 165.435C196.805 165.435 197.068 165.488 197.314 165.595C197.56 165.702 197.774 165.852 197.957 166.045C198.149 166.227 198.299 166.447 198.406 166.704C198.524 166.95 198.583 167.213 198.583 167.491ZM206.162 165.21V188.875H203.302V165.21H206.162ZM215.974 193.679C215.878 193.894 215.754 194.065 215.605 194.193C215.465 194.322 215.246 194.386 214.946 194.386H212.825L215.797 187.928L209.082 172.6H211.556C211.802 172.6 211.995 172.664 212.134 172.793C212.273 172.911 212.375 173.045 212.439 173.195L216.793 183.445C216.89 183.681 216.97 183.916 217.034 184.152C217.109 184.388 217.174 184.629 217.227 184.875C217.302 184.629 217.377 184.388 217.452 184.152C217.527 183.916 217.613 183.675 217.709 183.429L221.935 173.195C221.999 173.023 222.106 172.884 222.256 172.777C222.417 172.659 222.588 172.6 222.77 172.6H225.052L215.974 193.679ZM227.356 187.108C227.356 186.83 227.404 186.567 227.501 186.321C227.608 186.075 227.747 185.86 227.918 185.678C228.101 185.496 228.315 185.352 228.561 185.244C228.807 185.137 229.07 185.084 229.348 185.084C229.627 185.084 229.889 185.137 230.136 185.244C230.382 185.352 230.596 185.496 230.778 185.678C230.96 185.86 231.1 186.075 231.196 186.321C231.303 186.567 231.357 186.83 231.357 187.108C231.357 187.397 231.303 187.665 231.196 187.912C231.1 188.147 230.96 188.356 230.778 188.538C230.596 188.72 230.382 188.859 230.136 188.956C229.889 189.063 229.627 189.116 229.348 189.116C229.07 189.116 228.807 189.063 228.561 188.956C228.315 188.859 228.101 188.72 227.918 188.538C227.747 188.356 227.608 188.147 227.501 187.912C227.404 187.665 227.356 187.397 227.356 187.108ZM227.356 175.058C227.356 174.78 227.404 174.517 227.501 174.271C227.608 174.025 227.747 173.811 227.918 173.628C228.101 173.446 228.315 173.302 228.561 173.195C228.807 173.088 229.07 173.034 229.348 173.034C229.627 173.034 229.889 173.088 230.136 173.195C230.382 173.302 230.596 173.446 230.778 173.628C230.96 173.811 231.1 174.025 231.196 174.271C231.303 174.517 231.357 174.78 231.357 175.058C231.357 175.348 231.303 175.615 231.196 175.862C231.1 176.097 230.96 176.306 230.778 176.488C230.596 176.67 230.382 176.815 230.136 176.922C229.889 177.018 229.627 177.067 229.348 177.067C229.07 177.067 228.807 177.018 228.561 176.922C228.315 176.815 228.101 176.67 227.918 176.488C227.747 176.306 227.608 176.097 227.501 175.862C227.404 175.615 227.356 175.348 227.356 175.058ZM261.347 188.875H258.937C258.658 188.875 258.433 188.806 258.262 188.667C258.091 188.527 257.962 188.351 257.876 188.136L255.723 182.577H245.393L243.24 188.136C243.165 188.329 243.036 188.501 242.854 188.651C242.672 188.801 242.447 188.875 242.179 188.875H239.769L248.976 165.852H252.141L261.347 188.875ZM246.26 180.328H254.856L251.241 170.961C251.005 170.383 250.775 169.66 250.55 168.792C250.432 169.232 250.314 169.639 250.197 170.013C250.089 170.378 249.982 170.699 249.875 170.977L246.26 180.328ZM263.795 188.875V172.6H265.434C265.744 172.6 265.958 172.659 266.076 172.777C266.194 172.895 266.274 173.098 266.317 173.387L266.51 175.926C267.067 174.791 267.753 173.907 268.567 173.275C269.391 172.632 270.355 172.311 271.459 172.311C271.908 172.311 272.315 172.365 272.68 172.472C273.044 172.568 273.381 172.707 273.692 172.889L273.322 175.026C273.247 175.294 273.081 175.428 272.824 175.428C272.674 175.428 272.444 175.38 272.133 175.283C271.823 175.176 271.389 175.123 270.832 175.123C269.836 175.123 269 175.412 268.326 175.99C267.661 176.569 267.105 177.409 266.655 178.513V188.875H263.795ZM279.936 172.6V188.875H277.076V172.6H279.936ZM280.578 167.491C280.578 167.77 280.52 168.032 280.402 168.278C280.295 168.514 280.145 168.728 279.952 168.921C279.77 169.103 279.556 169.248 279.309 169.355C279.063 169.462 278.8 169.515 278.522 169.515C278.244 169.515 277.981 169.462 277.735 169.355C277.499 169.248 277.285 169.103 277.092 168.921C276.91 168.728 276.765 168.514 276.658 168.278C276.551 168.032 276.498 167.77 276.498 167.491C276.498 167.213 276.551 166.95 276.658 166.704C276.765 166.447 276.91 166.227 277.092 166.045C277.285 165.852 277.499 165.702 277.735 165.595C277.981 165.488 278.244 165.435 278.522 165.435C278.8 165.435 279.063 165.488 279.309 165.595C279.556 165.702 279.77 165.852 279.952 166.045C280.145 166.227 280.295 166.447 280.402 166.704C280.52 166.95 280.578 167.213 280.578 167.491ZM296.93 188.875H295.66C295.382 188.875 295.157 188.833 294.986 188.747C294.814 188.661 294.702 188.479 294.648 188.201L294.327 186.69C293.898 187.076 293.481 187.424 293.074 187.735C292.667 188.035 292.238 188.292 291.788 188.506C291.338 188.709 290.857 188.865 290.342 188.972C289.839 189.079 289.277 189.133 288.655 189.133C288.023 189.133 287.429 189.047 286.872 188.875C286.326 188.693 285.849 188.426 285.442 188.072C285.035 187.719 284.708 187.274 284.462 186.739C284.226 186.192 284.109 185.55 284.109 184.811C284.109 184.168 284.285 183.552 284.639 182.963C284.992 182.363 285.56 181.833 286.342 181.372C287.134 180.912 288.168 180.537 289.443 180.248C290.717 179.948 292.276 179.777 294.118 179.734V178.464C294.118 177.201 293.845 176.247 293.299 175.605C292.763 174.951 291.965 174.625 290.905 174.625C290.208 174.625 289.619 174.716 289.137 174.898C288.666 175.069 288.254 175.267 287.9 175.492C287.558 175.706 287.258 175.905 287.001 176.087C286.754 176.258 286.508 176.344 286.261 176.344C286.069 176.344 285.897 176.295 285.747 176.199C285.608 176.092 285.496 175.963 285.41 175.813L284.896 174.898C285.796 174.03 286.765 173.382 287.804 172.954C288.843 172.525 289.994 172.311 291.258 172.311C292.169 172.311 292.977 172.461 293.684 172.761C294.391 173.061 294.986 173.478 295.468 174.014C295.95 174.55 296.314 175.198 296.56 175.958C296.806 176.719 296.93 177.554 296.93 178.464V188.875ZM289.507 187.124C290.01 187.124 290.471 187.076 290.889 186.98C291.306 186.873 291.697 186.728 292.061 186.546C292.436 186.353 292.79 186.123 293.122 185.855C293.465 185.587 293.797 185.282 294.118 184.939V181.549C292.801 181.592 291.681 181.699 290.76 181.871C289.839 182.031 289.089 182.245 288.511 182.513C287.932 182.781 287.509 183.097 287.242 183.461C286.984 183.825 286.856 184.232 286.856 184.682C286.856 185.111 286.926 185.48 287.065 185.791C287.204 186.101 287.392 186.358 287.627 186.562C287.863 186.755 288.141 186.899 288.463 186.996C288.784 187.081 289.132 187.124 289.507 187.124ZM304.443 165.21V188.875H301.584V165.21H304.443ZM308.648 186.899C308.648 186.653 308.691 186.423 308.777 186.208C308.873 185.984 309.002 185.791 309.162 185.63C309.334 185.459 309.537 185.325 309.773 185.228C310.009 185.132 310.266 185.084 310.544 185.084C310.866 185.084 311.149 185.143 311.396 185.261C311.653 185.378 311.862 185.544 312.022 185.759C312.194 185.962 312.322 186.203 312.408 186.482C312.494 186.749 312.536 187.044 312.536 187.365C312.536 187.847 312.467 188.351 312.328 188.875C312.188 189.39 311.99 189.898 311.733 190.402C311.476 190.916 311.155 191.414 310.769 191.896C310.394 192.378 309.966 192.822 309.484 193.229L309.002 192.764C308.863 192.635 308.793 192.485 308.793 192.314C308.793 192.174 308.868 192.03 309.018 191.88C309.125 191.762 309.259 191.601 309.42 191.398C309.591 191.205 309.762 190.98 309.934 190.723C310.105 190.466 310.26 190.182 310.4 189.872C310.55 189.561 310.657 189.229 310.721 188.875H310.512C310.234 188.875 309.982 188.827 309.757 188.731C309.532 188.634 309.334 188.501 309.162 188.329C309.002 188.147 308.873 187.938 308.777 187.703C308.691 187.456 308.648 187.189 308.648 186.899ZM80.9122 214.283C80.7836 214.519 80.5855 214.637 80.3177 214.637C80.1571 214.637 79.975 214.578 79.7715 214.46C79.568 214.342 79.3162 214.214 79.0163 214.074C78.7271 213.924 78.379 213.791 77.972 213.673C77.565 213.544 77.083 213.48 76.526 213.48C76.044 213.48 75.6103 213.544 75.2247 213.673C74.8391 213.791 74.507 213.957 74.2285 214.171C73.9608 214.385 73.7519 214.637 73.6019 214.926C73.4627 215.204 73.3931 215.51 73.3931 215.842C73.3931 216.259 73.5109 216.608 73.7465 216.886C73.9929 217.165 74.3142 217.406 74.7105 217.609C75.1068 217.813 75.5567 217.995 76.0601 218.155C76.5635 218.305 77.0777 218.471 77.6025 218.653C78.138 218.825 78.6575 219.018 79.1609 219.232C79.6644 219.446 80.1142 219.714 80.5105 220.035C80.9068 220.356 81.2228 220.753 81.4584 221.224C81.7048 221.685 81.828 222.242 81.828 222.895C81.828 223.645 81.6941 224.341 81.4263 224.984C81.1585 225.615 80.7622 226.167 80.2374 226.638C79.7126 227.099 79.0699 227.463 78.3094 227.731C77.5489 227.999 76.6706 228.133 75.6745 228.133C74.5392 228.133 73.5109 227.95 72.5898 227.586C71.6686 227.211 70.8867 226.735 70.2441 226.156L70.9188 225.064C71.0045 224.925 71.1063 224.818 71.2241 224.743C71.3419 224.668 71.4972 224.63 71.69 224.63C71.8828 224.63 72.0863 224.705 72.3006 224.855C72.5148 225.005 72.7718 225.171 73.0718 225.353C73.3824 225.535 73.7519 225.701 74.1803 225.851C74.6195 226.001 75.1657 226.076 75.8191 226.076C76.3761 226.076 76.8634 226.006 77.2812 225.867C77.6989 225.717 78.047 225.519 78.3255 225.273C78.604 225.026 78.8075 224.743 78.936 224.421C79.0752 224.1 79.1449 223.757 79.1449 223.393C79.1449 222.943 79.0217 222.574 78.7753 222.284C78.5397 221.984 78.2237 221.733 77.8274 221.529C77.4311 221.315 76.9759 221.133 76.4618 220.983C75.9584 220.822 75.4389 220.656 74.9033 220.485C74.3785 220.314 73.859 220.121 73.3449 219.907C72.8415 219.682 72.3916 219.403 71.9953 219.071C71.599 218.739 71.2777 218.332 71.0313 217.85C70.7957 217.357 70.6779 216.763 70.6779 216.067C70.6779 215.445 70.8064 214.851 71.0634 214.283C71.3205 213.705 71.6954 213.201 72.1881 212.773C72.6808 212.334 73.286 211.986 74.0036 211.729C74.7212 211.472 75.5406 211.343 76.4618 211.343C77.5329 211.343 78.4915 211.514 79.3377 211.857C80.1945 212.189 80.9336 212.65 81.5548 213.239L80.9122 214.283ZM97.4797 227.875H96.2105C95.932 227.875 95.707 227.833 95.5357 227.747C95.3643 227.661 95.2518 227.479 95.1983 227.201L94.8769 225.69C94.4485 226.076 94.0308 226.424 93.6238 226.735C93.2167 227.035 92.7883 227.292 92.3384 227.506C91.8886 227.709 91.4066 227.865 90.8925 227.972C90.389 228.079 89.8267 228.133 89.2055 228.133C88.5735 228.133 87.9791 228.047 87.4221 227.875C86.8758 227.693 86.3992 227.426 85.9922 227.072C85.5852 226.719 85.2585 226.274 85.0121 225.739C84.7765 225.192 84.6587 224.55 84.6587 223.811C84.6587 223.168 84.8354 222.552 85.1889 221.963C85.5423 221.363 86.11 220.833 86.8919 220.372C87.6845 219.912 88.7181 219.537 89.9927 219.248C91.2673 218.948 92.8258 218.777 94.6681 218.734V217.464C94.6681 216.201 94.3949 215.247 93.8487 214.605C93.3131 213.951 92.5152 213.625 91.4548 213.625C90.7586 213.625 90.1695 213.716 89.6875 213.898C89.2162 214.069 88.8038 214.267 88.4504 214.492C88.1076 214.706 87.8077 214.905 87.5506 215.087C87.3043 215.258 87.0579 215.344 86.8116 215.344C86.6188 215.344 86.4474 215.295 86.2975 215.199C86.1582 215.092 86.0457 214.963 85.9601 214.813L85.4459 213.898C86.3457 213.03 87.315 212.382 88.354 211.954C89.3929 211.525 90.5444 211.311 91.8082 211.311C92.7187 211.311 93.5274 211.461 94.2343 211.761C94.9412 212.061 95.5357 212.478 96.0177 213.014C96.4996 213.55 96.8638 214.198 97.1102 214.958C97.3565 215.719 97.4797 216.554 97.4797 217.464V227.875ZM90.057 226.124C90.5604 226.124 91.021 226.076 91.4387 225.98C91.8564 225.873 92.2474 225.728 92.6116 225.546C92.9865 225.353 93.3399 225.123 93.672 224.855C94.0147 224.587 94.3467 224.282 94.6681 223.939V220.549C93.3506 220.592 92.2313 220.699 91.3102 220.871C90.389 221.031 89.6393 221.245 89.0609 221.513C88.4825 221.781 88.0594 222.097 87.7916 222.461C87.5346 222.825 87.406 223.232 87.406 223.682C87.406 224.111 87.4757 224.48 87.6149 224.791C87.7541 225.101 87.9416 225.358 88.1772 225.562C88.4129 225.755 88.6914 225.899 89.0127 225.996C89.334 226.081 89.6821 226.124 90.057 226.124ZM101.812 227.875V211.6H103.515C103.922 211.6 104.179 211.798 104.287 212.195L104.512 213.962C105.218 213.18 106.006 212.548 106.873 212.066C107.752 211.584 108.764 211.343 109.91 211.343C110.799 211.343 111.581 211.493 112.256 211.793C112.941 212.082 113.509 212.5 113.959 213.046C114.419 213.582 114.767 214.23 115.003 214.99C115.239 215.751 115.356 216.591 115.356 217.513V227.875H112.497V217.513C112.497 216.281 112.213 215.328 111.645 214.653C111.088 213.967 110.231 213.625 109.074 213.625C108.228 213.625 107.436 213.828 106.697 214.235C105.968 214.642 105.293 215.194 104.672 215.89V227.875H101.812ZM128.986 214.283C128.857 214.519 128.659 214.637 128.392 214.637C128.231 214.637 128.049 214.578 127.845 214.46C127.642 214.342 127.39 214.214 127.09 214.074C126.801 213.924 126.453 213.791 126.046 213.673C125.639 213.544 125.157 213.48 124.6 213.48C124.118 213.48 123.684 213.544 123.298 213.673C122.913 213.791 122.581 213.957 122.302 214.171C122.035 214.385 121.826 214.637 121.676 214.926C121.537 215.204 121.467 215.51 121.467 215.842C121.467 216.259 121.585 216.608 121.82 216.886C122.067 217.165 122.388 217.406 122.784 217.609C123.181 217.813 123.631 217.995 124.134 218.155C124.637 218.305 125.151 218.471 125.676 218.653C126.212 218.825 126.731 219.018 127.235 219.232C127.738 219.446 128.188 219.714 128.584 220.035C128.981 220.356 129.297 220.753 129.532 221.224C129.779 221.685 129.902 222.242 129.902 222.895C129.902 223.645 129.768 224.341 129.5 224.984C129.232 225.615 128.836 226.167 128.311 226.638C127.786 227.099 127.144 227.463 126.383 227.731C125.623 227.999 124.744 228.133 123.748 228.133C122.613 228.133 121.585 227.95 120.664 227.586C119.742 227.211 118.961 226.735 118.318 226.156L118.993 225.064C119.078 224.925 119.18 224.818 119.298 224.743C119.416 224.668 119.571 224.63 119.764 224.63C119.957 224.63 120.16 224.705 120.374 224.855C120.589 225.005 120.846 225.171 121.146 225.353C121.456 225.535 121.826 225.701 122.254 225.851C122.693 226.001 123.24 226.076 123.893 226.076C124.45 226.076 124.937 226.006 125.355 225.867C125.773 225.717 126.121 225.519 126.399 225.273C126.678 225.026 126.881 224.743 127.01 224.421C127.149 224.1 127.219 223.757 127.219 223.393C127.219 222.943 127.096 222.574 126.849 222.284C126.614 221.984 126.298 221.733 125.901 221.529C125.505 221.315 125.05 221.133 124.536 220.983C124.032 220.822 123.513 220.656 122.977 220.485C122.452 220.314 121.933 220.121 121.419 219.907C120.915 219.682 120.465 219.403 120.069 219.071C119.673 218.739 119.351 218.332 119.105 217.85C118.87 217.357 118.752 216.763 118.752 216.067C118.752 215.445 118.88 214.851 119.137 214.283C119.394 213.705 119.769 213.201 120.262 212.773C120.755 212.334 121.36 211.986 122.077 211.729C122.795 211.472 123.614 211.343 124.536 211.343C125.607 211.343 126.565 211.514 127.412 211.857C128.268 212.189 129.007 212.65 129.629 213.239L128.986 214.283ZM132.861 217.031H140.798V219.457H132.861V217.031ZM154.058 214.283C153.93 214.519 153.732 214.637 153.464 214.637C153.303 214.637 153.121 214.578 152.918 214.46C152.714 214.342 152.463 214.214 152.163 214.074C151.873 213.924 151.525 213.791 151.118 213.673C150.711 213.544 150.229 213.48 149.672 213.48C149.19 213.48 148.757 213.544 148.371 213.673C147.985 213.791 147.653 213.957 147.375 214.171C147.107 214.385 146.898 214.637 146.748 214.926C146.609 215.204 146.539 215.51 146.539 215.842C146.539 216.259 146.657 216.608 146.893 216.886C147.139 217.165 147.461 217.406 147.857 217.609C148.253 217.813 148.703 217.995 149.206 218.155C149.71 218.305 150.224 218.471 150.749 218.653C151.284 218.825 151.804 219.018 152.307 219.232C152.811 219.446 153.26 219.714 153.657 220.035C154.053 220.356 154.369 220.753 154.605 221.224C154.851 221.685 154.974 222.242 154.974 222.895C154.974 223.645 154.84 224.341 154.573 224.984C154.305 225.615 153.909 226.167 153.384 226.638C152.859 227.099 152.216 227.463 151.456 227.731C150.695 227.999 149.817 228.133 148.821 228.133C147.685 228.133 146.657 227.95 145.736 227.586C144.815 227.211 144.033 226.735 143.39 226.156L144.065 225.064C144.151 224.925 144.253 224.818 144.37 224.743C144.488 224.668 144.644 224.63 144.836 224.63C145.029 224.63 145.233 224.705 145.447 224.855C145.661 225.005 145.918 225.171 146.218 225.353C146.529 225.535 146.898 225.701 147.327 225.851C147.766 226.001 148.312 226.076 148.965 226.076C149.522 226.076 150.01 226.006 150.427 225.867C150.845 225.717 151.193 225.519 151.472 225.273C151.75 225.026 151.954 224.743 152.082 224.421C152.222 224.1 152.291 223.757 152.291 223.393C152.291 222.943 152.168 222.574 151.922 222.284C151.686 221.984 151.37 221.733 150.974 221.529C150.577 221.315 150.122 221.133 149.608 220.983C149.105 220.822 148.585 220.656 148.05 220.485C147.525 220.314 147.005 220.121 146.491 219.907C145.988 219.682 145.538 219.403 145.142 219.071C144.745 218.739 144.424 218.332 144.178 217.85C143.942 217.357 143.824 216.763 143.824 216.067C143.824 215.445 143.953 214.851 144.21 214.283C144.467 213.705 144.842 213.201 145.334 212.773C145.827 212.334 146.432 211.986 147.15 211.729C147.868 211.472 148.687 211.343 149.608 211.343C150.679 211.343 151.638 211.514 152.484 211.857C153.341 212.189 154.08 212.65 154.701 213.239L154.058 214.283ZM165.115 211.343C166.09 211.343 166.99 211.509 167.814 211.841C168.639 212.162 169.351 212.634 169.951 213.255C170.551 213.866 171.017 214.626 171.349 215.536C171.692 216.436 171.863 217.464 171.863 218.621C171.863 219.071 171.815 219.371 171.719 219.521C171.622 219.671 171.44 219.746 171.172 219.746H160.343C160.365 220.774 160.504 221.668 160.761 222.429C161.018 223.189 161.372 223.827 161.822 224.341C162.271 224.844 162.807 225.225 163.428 225.482C164.049 225.728 164.746 225.851 165.517 225.851C166.234 225.851 166.85 225.771 167.364 225.61C167.889 225.439 168.339 225.257 168.714 225.064C169.089 224.871 169.4 224.694 169.646 224.534C169.903 224.362 170.123 224.277 170.305 224.277C170.54 224.277 170.722 224.368 170.851 224.55L171.654 225.594C171.301 226.022 170.878 226.397 170.385 226.719C169.892 227.029 169.362 227.286 168.794 227.49C168.237 227.693 167.659 227.843 167.059 227.94C166.459 228.047 165.865 228.1 165.276 228.1C164.151 228.1 163.112 227.913 162.159 227.538C161.216 227.152 160.397 226.596 159.701 225.867C159.015 225.128 158.48 224.218 158.094 223.136C157.709 222.054 157.516 220.812 157.516 219.408C157.516 218.273 157.687 217.213 158.03 216.227C158.383 215.242 158.887 214.39 159.54 213.673C160.194 212.944 160.991 212.377 161.934 211.97C162.877 211.552 163.937 211.343 165.115 211.343ZM165.179 213.448C163.798 213.448 162.711 213.849 161.918 214.653C161.125 215.445 160.633 216.549 160.44 217.962H169.292C169.292 217.298 169.201 216.693 169.019 216.147C168.837 215.59 168.569 215.113 168.216 214.717C167.863 214.31 167.429 213.999 166.915 213.785C166.411 213.56 165.833 213.448 165.179 213.448ZM175.523 227.875V211.6H177.162C177.473 211.6 177.687 211.659 177.805 211.777C177.923 211.895 178.003 212.098 178.046 212.387L178.239 214.926C178.796 213.791 179.481 212.907 180.295 212.275C181.12 211.632 182.084 211.311 183.187 211.311C183.637 211.311 184.044 211.365 184.408 211.472C184.772 211.568 185.11 211.707 185.42 211.889L185.051 214.026C184.976 214.294 184.81 214.428 184.553 214.428C184.403 214.428 184.173 214.38 183.862 214.283C183.551 214.176 183.118 214.123 182.561 214.123C181.564 214.123 180.729 214.412 180.054 214.99C179.39 215.569 178.833 216.409 178.383 217.513V227.875H175.523ZM191.664 211.6V227.875H188.805V211.6H191.664ZM192.307 206.491C192.307 206.77 192.248 207.032 192.13 207.278C192.023 207.514 191.873 207.728 191.681 207.921C191.498 208.103 191.284 208.248 191.038 208.355C190.792 208.462 190.529 208.515 190.251 208.515C189.972 208.515 189.71 208.462 189.463 208.355C189.228 208.248 189.014 208.103 188.821 207.921C188.639 207.728 188.494 207.514 188.387 207.278C188.28 207.032 188.226 206.77 188.226 206.491C188.226 206.213 188.28 205.95 188.387 205.704C188.494 205.447 188.639 205.227 188.821 205.045C189.014 204.852 189.228 204.702 189.463 204.595C189.71 204.488 189.972 204.435 190.251 204.435C190.529 204.435 190.792 204.488 191.038 204.595C191.284 204.702 191.498 204.852 191.681 205.045C191.873 205.227 192.023 205.447 192.13 205.704C192.248 205.95 192.307 206.213 192.307 206.491ZM197.348 227.875V214.042L195.548 213.833C195.323 213.78 195.136 213.7 194.986 213.592C194.846 213.475 194.777 213.309 194.777 213.094V211.922H197.348V210.347C197.348 209.415 197.476 208.59 197.733 207.873C198.001 207.144 198.376 206.534 198.858 206.041C199.35 205.538 199.94 205.158 200.625 204.9C201.311 204.643 202.082 204.515 202.939 204.515C203.667 204.515 204.342 204.622 204.963 204.836L204.899 206.266C204.888 206.48 204.797 206.609 204.626 206.652C204.454 206.695 204.213 206.716 203.903 206.716H203.405C202.912 206.716 202.462 206.78 202.055 206.909C201.659 207.037 201.316 207.246 201.027 207.535C200.738 207.825 200.513 208.205 200.352 208.676C200.202 209.147 200.127 209.731 200.127 210.427V211.922H204.834V213.994H200.223V227.875H197.348ZM207.338 225.899C207.338 225.653 207.381 225.423 207.467 225.208C207.563 224.984 207.692 224.791 207.852 224.63C208.024 224.459 208.227 224.325 208.463 224.228C208.698 224.132 208.955 224.084 209.234 224.084C209.555 224.084 209.839 224.143 210.085 224.261C210.342 224.378 210.551 224.544 210.712 224.759C210.883 224.962 211.012 225.203 211.098 225.482C211.183 225.749 211.226 226.044 211.226 226.365C211.226 226.847 211.157 227.351 211.017 227.875C210.878 228.39 210.68 228.898 210.423 229.402C210.166 229.916 209.844 230.414 209.459 230.896C209.084 231.378 208.656 231.822 208.174 232.229L207.692 231.764C207.552 231.635 207.483 231.485 207.483 231.314C207.483 231.174 207.558 231.03 207.708 230.88C207.815 230.762 207.949 230.601 208.109 230.398C208.281 230.205 208.452 229.98 208.623 229.723C208.795 229.466 208.95 229.182 209.089 228.872C209.239 228.561 209.346 228.229 209.411 227.875H209.202C208.923 227.875 208.672 227.827 208.447 227.731C208.222 227.634 208.024 227.501 207.852 227.329C207.692 227.147 207.563 226.938 207.467 226.703C207.381 226.456 207.338 226.189 207.338 225.899ZM207.242 214.058C207.242 213.78 207.29 213.517 207.386 213.271C207.493 213.025 207.633 212.811 207.804 212.628C207.986 212.446 208.2 212.302 208.447 212.195C208.693 212.088 208.955 212.034 209.234 212.034C209.512 212.034 209.775 212.088 210.021 212.195C210.268 212.302 210.482 212.446 210.664 212.628C210.846 212.811 210.985 213.025 211.082 213.271C211.189 213.517 211.242 213.78 211.242 214.058C211.242 214.348 211.189 214.615 211.082 214.862C210.985 215.097 210.846 215.306 210.664 215.488C210.482 215.67 210.268 215.815 210.021 215.922C209.775 216.018 209.512 216.067 209.234 216.067C208.955 216.067 208.693 216.018 208.447 215.922C208.2 215.815 207.986 215.67 207.804 215.488C207.633 215.306 207.493 215.097 207.386 214.862C207.29 214.615 207.242 214.348 207.242 214.058ZM82.6956 253.492C82.6099 253.61 82.5242 253.701 82.4385 253.765C82.3528 253.83 82.2296 253.862 82.069 253.862C81.9083 253.862 81.7316 253.797 81.5388 253.669C81.3567 253.53 81.121 253.38 80.8318 253.219C80.5427 253.058 80.1892 252.914 79.7715 252.785C79.3644 252.646 78.861 252.576 78.2612 252.576C77.4686 252.576 76.767 252.721 76.1565 253.01C75.546 253.289 75.0319 253.696 74.6141 254.231C74.2071 254.767 73.8965 255.415 73.6823 256.175C73.4788 256.936 73.377 257.787 73.377 258.73C73.377 259.715 73.4895 260.594 73.7144 261.365C73.9393 262.125 74.2553 262.768 74.6623 263.293C75.0693 263.807 75.5621 264.203 76.1404 264.482C76.7295 264.749 77.3883 264.883 78.1166 264.883C78.8128 264.883 79.3859 264.803 79.8357 264.642C80.2856 264.471 80.6605 264.283 80.9604 264.08C81.2603 263.876 81.5066 263.694 81.6994 263.534C81.8922 263.362 82.085 263.277 82.2778 263.277C82.5242 263.277 82.7063 263.368 82.8241 263.55L83.6274 264.594C82.9205 265.462 82.0368 266.099 80.9764 266.506C79.9161 266.902 78.7968 267.1 77.6186 267.1C76.601 267.1 75.6531 266.913 74.7748 266.538C73.9072 266.163 73.1521 265.622 72.5094 264.915C71.8668 264.198 71.358 263.319 70.9831 262.28C70.6189 261.242 70.4369 260.058 70.4369 258.73C70.4369 257.519 70.6029 256.4 70.9349 255.372C71.2777 254.344 71.7704 253.46 72.413 252.721C73.0664 251.971 73.8697 251.387 74.823 250.97C75.7763 250.552 76.8688 250.343 78.1006 250.343C79.2359 250.343 80.2427 250.531 81.121 250.905C81.9993 251.27 82.7759 251.789 83.4507 252.464L82.6956 253.492ZM93.1804 250.343C94.3693 250.343 95.4404 250.541 96.3937 250.938C97.3577 251.334 98.1717 251.896 98.8358 252.625C99.5106 253.353 100.025 254.237 100.378 255.276C100.742 256.304 100.924 257.455 100.924 258.73C100.924 260.015 100.742 261.172 100.378 262.2C100.025 263.228 99.5106 264.107 98.8358 264.835C98.1717 265.563 97.3577 266.126 96.3937 266.522C95.4404 266.908 94.3693 267.1 93.1804 267.1C91.9915 267.1 90.9151 266.908 89.9511 266.522C88.9978 266.126 88.1838 265.563 87.509 264.835C86.8342 264.107 86.3147 263.228 85.9505 262.2C85.5863 261.172 85.4043 260.015 85.4043 258.73C85.4043 257.455 85.5863 256.304 85.9505 255.276C86.3147 254.237 86.8342 253.353 87.509 252.625C88.1838 251.896 88.9978 251.334 89.9511 250.938C90.9151 250.541 91.9915 250.343 93.1804 250.343ZM93.1804 264.867C94.7871 264.867 95.9867 264.332 96.7793 263.261C97.5719 262.179 97.9682 260.674 97.9682 258.746C97.9682 256.807 97.5719 255.297 96.7793 254.215C95.9867 253.133 94.7871 252.592 93.1804 252.592C92.3664 252.592 91.6595 252.732 91.0596 253.01C90.4598 253.289 89.9564 253.69 89.5494 254.215C89.1531 254.74 88.8532 255.388 88.6497 256.159C88.4569 256.92 88.3605 257.782 88.3605 258.746C88.3605 259.71 88.4569 260.572 88.6497 261.333C88.8532 262.093 89.1531 262.736 89.5494 263.261C89.9564 263.775 90.4598 264.171 91.0596 264.449C91.6595 264.728 92.3664 264.867 93.1804 264.867ZM107.629 243.21V266.875H104.77V243.21H107.629ZM119.257 250.343C120.446 250.343 121.517 250.541 122.47 250.938C123.434 251.334 124.248 251.896 124.912 252.625C125.587 253.353 126.101 254.237 126.455 255.276C126.819 256.304 127.001 257.455 127.001 258.73C127.001 260.015 126.819 261.172 126.455 262.2C126.101 263.228 125.587 264.107 124.912 264.835C124.248 265.563 123.434 266.126 122.47 266.522C121.517 266.908 120.446 267.1 119.257 267.1C118.068 267.1 116.992 266.908 116.028 266.522C115.074 266.126 114.26 265.563 113.586 264.835C112.911 264.107 112.391 263.228 112.027 262.2C111.663 261.172 111.481 260.015 111.481 258.73C111.481 257.455 111.663 256.304 112.027 255.276C112.391 254.237 112.911 253.353 113.586 252.625C114.26 251.896 115.074 251.334 116.028 250.938C116.992 250.541 118.068 250.343 119.257 250.343ZM119.257 264.867C120.864 264.867 122.063 264.332 122.856 263.261C123.649 262.179 124.045 260.674 124.045 258.746C124.045 256.807 123.649 255.297 122.856 254.215C122.063 253.133 120.864 252.592 119.257 252.592C118.443 252.592 117.736 252.732 117.136 253.01C116.536 253.289 116.033 253.69 115.626 254.215C115.23 254.74 114.93 255.388 114.726 256.159C114.533 256.92 114.437 257.782 114.437 258.746C114.437 259.71 114.533 260.572 114.726 261.333C114.93 262.093 115.23 262.736 115.626 263.261C116.033 263.775 116.536 264.171 117.136 264.449C117.736 264.728 118.443 264.867 119.257 264.867ZM130.525 266.875V250.6H132.164C132.474 250.6 132.688 250.659 132.806 250.777C132.924 250.895 133.004 251.098 133.047 251.387L133.24 253.926C133.797 252.791 134.483 251.907 135.297 251.275C136.121 250.632 137.085 250.311 138.189 250.311C138.638 250.311 139.045 250.365 139.41 250.472C139.774 250.568 140.111 250.707 140.422 250.889L140.052 253.026C139.977 253.294 139.811 253.428 139.554 253.428C139.404 253.428 139.174 253.38 138.863 253.283C138.553 253.176 138.119 253.123 137.562 253.123C136.566 253.123 135.73 253.412 135.056 253.99C134.392 254.569 133.835 255.409 133.385 256.513V266.875H130.525ZM143.196 265.108C143.196 264.83 143.244 264.567 143.34 264.321C143.447 264.075 143.586 263.86 143.758 263.678C143.94 263.496 144.154 263.352 144.401 263.244C144.647 263.137 144.909 263.084 145.188 263.084C145.466 263.084 145.729 263.137 145.975 263.244C146.221 263.352 146.436 263.496 146.618 263.678C146.8 263.86 146.939 264.075 147.035 264.321C147.143 264.567 147.196 264.83 147.196 265.108C147.196 265.397 147.143 265.665 147.035 265.912C146.939 266.147 146.8 266.356 146.618 266.538C146.436 266.72 146.221 266.859 145.975 266.956C145.729 267.063 145.466 267.116 145.188 267.116C144.909 267.116 144.647 267.063 144.401 266.956C144.154 266.859 143.94 266.72 143.758 266.538C143.586 266.356 143.447 266.147 143.34 265.912C143.244 265.665 143.196 265.397 143.196 265.108ZM143.196 253.058C143.196 252.78 143.244 252.517 143.34 252.271C143.447 252.025 143.586 251.811 143.758 251.628C143.94 251.446 144.154 251.302 144.401 251.195C144.647 251.088 144.909 251.034 145.188 251.034C145.466 251.034 145.729 251.088 145.975 251.195C146.221 251.302 146.436 251.446 146.618 251.628C146.8 251.811 146.939 252.025 147.035 252.271C147.143 252.517 147.196 252.78 147.196 253.058C147.196 253.348 147.143 253.615 147.035 253.862C146.939 254.097 146.8 254.306 146.618 254.488C146.436 254.67 146.221 254.815 145.975 254.922C145.729 255.018 145.466 255.067 145.188 255.067C144.909 255.067 144.647 255.018 144.401 254.922C144.154 254.815 143.94 254.67 143.758 254.488C143.586 254.306 143.447 254.097 143.34 253.862C143.244 253.615 143.196 253.348 143.196 253.058ZM168.141 260.079L166.791 266.875H165.49C165.243 266.875 165.035 266.784 164.863 266.602C164.692 266.42 164.606 266.185 164.606 265.895C164.606 265.853 164.606 265.815 164.606 265.783C164.617 265.74 164.628 265.692 164.638 265.638L165.779 260.079H161.811L160.67 265.783C160.584 266.179 160.418 266.463 160.172 266.634C159.936 266.795 159.663 266.875 159.352 266.875H158.083L159.449 260.079H157.103C156.857 260.079 156.664 260.02 156.525 259.903C156.385 259.774 156.316 259.56 156.316 259.26C156.316 259.206 156.316 259.148 156.316 259.083C156.327 259.019 156.337 258.955 156.348 258.89L156.476 257.975H159.754L160.798 252.737H157.071L157.28 251.548C157.333 251.237 157.457 251.007 157.649 250.857C157.842 250.707 158.147 250.632 158.565 250.632H161.104L162.26 244.881C162.325 244.559 162.469 244.307 162.694 244.125C162.93 243.943 163.208 243.852 163.53 243.852H164.815L163.465 250.632H167.434L168.783 243.852H170.053C170.32 243.852 170.54 243.933 170.711 244.093C170.893 244.254 170.984 244.463 170.984 244.72C170.984 244.806 170.979 244.875 170.968 244.929L169.796 250.632H173.202L172.993 251.837C172.939 252.148 172.811 252.378 172.607 252.528C172.414 252.667 172.114 252.737 171.707 252.737H169.49L168.446 257.975H171.322C171.579 257.975 171.777 258.039 171.916 258.167C172.056 258.285 172.125 258.5 172.125 258.81C172.125 258.864 172.12 258.923 172.109 258.987C172.109 259.04 172.104 259.099 172.093 259.164L171.948 260.079H168.141ZM162.116 257.975H166.084L167.129 252.737H163.16L162.116 257.975ZM184.049 243.595C185.024 243.595 185.923 243.734 186.748 244.013C187.573 244.291 188.28 244.688 188.869 245.202C189.469 245.716 189.935 246.337 190.267 247.066C190.599 247.794 190.765 248.603 190.765 249.492C190.765 250.22 190.668 250.873 190.476 251.452C190.293 252.019 190.026 252.523 189.672 252.962C189.33 253.39 188.912 253.755 188.419 254.054C187.926 254.354 187.375 254.595 186.764 254.777C188.264 255.174 189.388 255.838 190.138 256.77C190.899 257.702 191.279 258.869 191.279 260.272C191.279 261.333 191.075 262.286 190.668 263.132C190.272 263.978 189.726 264.701 189.03 265.301C188.333 265.89 187.519 266.345 186.587 266.667C185.666 266.977 184.676 267.133 183.615 267.133C182.394 267.133 181.35 266.983 180.482 266.683C179.615 266.372 178.881 265.949 178.281 265.413C177.681 264.878 177.189 264.246 176.803 263.518C176.417 262.779 176.091 261.981 175.823 261.124L177.044 260.61C177.269 260.513 177.494 260.465 177.719 260.465C177.933 260.465 178.12 260.513 178.281 260.61C178.453 260.695 178.581 260.835 178.667 261.027C178.688 261.07 178.71 261.118 178.731 261.172C178.752 261.215 178.774 261.263 178.795 261.316C178.945 261.627 179.127 261.981 179.342 262.377C179.556 262.762 179.845 263.127 180.209 263.469C180.573 263.812 181.023 264.101 181.559 264.337C182.105 264.573 182.78 264.69 183.583 264.69C184.386 264.69 185.088 264.562 185.688 264.305C186.298 264.037 186.802 263.694 187.198 263.277C187.605 262.859 187.91 262.393 188.114 261.879C188.317 261.365 188.419 260.856 188.419 260.353C188.419 259.731 188.333 259.164 188.162 258.649C188.001 258.135 187.701 257.691 187.262 257.316C186.834 256.941 186.234 256.647 185.463 256.432C184.702 256.218 183.722 256.111 182.523 256.111V254.038C183.497 254.028 184.327 253.921 185.013 253.717C185.709 253.514 186.277 253.235 186.716 252.882C187.155 252.528 187.471 252.105 187.664 251.612C187.867 251.12 187.969 250.573 187.969 249.974C187.969 249.31 187.862 248.731 187.648 248.238C187.444 247.746 187.161 247.339 186.796 247.017C186.432 246.696 185.998 246.455 185.495 246.294C185.002 246.134 184.467 246.053 183.888 246.053C183.31 246.053 182.774 246.139 182.282 246.31C181.789 246.482 181.35 246.723 180.964 247.033C180.589 247.333 180.273 247.698 180.016 248.126C179.759 248.544 179.566 248.999 179.438 249.492C179.352 249.802 179.224 250.027 179.052 250.166C178.881 250.306 178.661 250.375 178.394 250.375C178.34 250.375 178.281 250.375 178.217 250.375C178.163 250.365 178.099 250.354 178.024 250.343L176.53 250.086C176.68 249.036 176.969 248.11 177.397 247.307C177.826 246.493 178.367 245.812 179.02 245.266C179.684 244.72 180.439 244.307 181.286 244.029C182.142 243.74 183.064 243.595 184.049 243.595ZM202.689 243.595C203.663 243.595 204.563 243.734 205.388 244.013C206.213 244.291 206.919 244.688 207.509 245.202C208.108 245.716 208.574 246.337 208.906 247.066C209.238 247.794 209.404 248.603 209.404 249.492C209.404 250.22 209.308 250.873 209.115 251.452C208.933 252.019 208.665 252.523 208.312 252.962C207.969 253.39 207.551 253.755 207.059 254.054C206.566 254.354 206.014 254.595 205.404 254.777C206.903 255.174 208.028 255.838 208.778 256.77C209.538 257.702 209.919 258.869 209.919 260.272C209.919 261.333 209.715 262.286 209.308 263.132C208.912 263.978 208.365 264.701 207.669 265.301C206.973 265.89 206.159 266.345 205.227 266.667C204.306 266.977 203.315 267.133 202.255 267.133C201.034 267.133 199.989 266.983 199.122 266.683C198.254 266.372 197.521 265.949 196.921 265.413C196.321 264.878 195.828 264.246 195.443 263.518C195.057 262.779 194.73 261.981 194.463 261.124L195.684 260.61C195.909 260.513 196.133 260.465 196.358 260.465C196.573 260.465 196.76 260.513 196.921 260.61C197.092 260.695 197.221 260.835 197.306 261.027C197.328 261.07 197.349 261.118 197.371 261.172C197.392 261.215 197.413 261.263 197.435 261.316C197.585 261.627 197.767 261.981 197.981 262.377C198.195 262.762 198.485 263.127 198.849 263.469C199.213 263.812 199.663 264.101 200.198 264.337C200.745 264.573 201.419 264.69 202.223 264.69C203.026 264.69 203.728 264.562 204.327 264.305C204.938 264.037 205.441 263.694 205.838 263.277C206.245 262.859 206.55 262.393 206.753 261.879C206.957 261.365 207.059 260.856 207.059 260.353C207.059 259.731 206.973 259.164 206.802 258.649C206.641 258.135 206.341 257.691 205.902 257.316C205.473 256.941 204.874 256.647 204.102 256.432C203.342 256.218 202.362 256.111 201.162 256.111V254.038C202.137 254.028 202.967 253.921 203.653 253.717C204.349 253.514 204.916 253.235 205.356 252.882C205.795 252.528 206.111 252.105 206.304 251.612C206.507 251.12 206.609 250.573 206.609 249.974C206.609 249.31 206.502 248.731 206.287 248.238C206.084 247.746 205.8 247.339 205.436 247.017C205.072 246.696 204.638 246.455 204.135 246.294C203.642 246.134 203.106 246.053 202.528 246.053C201.95 246.053 201.414 246.139 200.921 246.31C200.429 246.482 199.989 246.723 199.604 247.033C199.229 247.333 198.913 247.698 198.656 248.126C198.399 248.544 198.206 248.999 198.078 249.492C197.992 249.802 197.863 250.027 197.692 250.166C197.521 250.306 197.301 250.375 197.033 250.375C196.98 250.375 196.921 250.375 196.856 250.375C196.803 250.365 196.739 250.354 196.664 250.343L195.17 250.086C195.319 249.036 195.609 248.11 196.037 247.307C196.466 246.493 197.006 245.812 197.66 245.266C198.324 244.72 199.079 244.307 199.925 244.029C200.782 243.74 201.703 243.595 202.689 243.595ZM221.328 243.595C222.303 243.595 223.203 243.734 224.027 244.013C224.852 244.291 225.559 244.688 226.148 245.202C226.748 245.716 227.214 246.337 227.546 247.066C227.878 247.794 228.044 248.603 228.044 249.492C228.044 250.22 227.948 250.873 227.755 251.452C227.573 252.019 227.305 252.523 226.951 252.962C226.609 253.39 226.191 253.755 225.698 254.054C225.206 254.354 224.654 254.595 224.043 254.777C225.543 255.174 226.668 255.838 227.417 256.77C228.178 257.702 228.558 258.869 228.558 260.272C228.558 261.333 228.355 262.286 227.948 263.132C227.551 263.978 227.005 264.701 226.309 265.301C225.613 265.89 224.799 266.345 223.867 266.667C222.946 266.977 221.955 267.133 220.894 267.133C219.673 267.133 218.629 266.983 217.761 266.683C216.894 266.372 216.16 265.949 215.56 265.413C214.961 264.878 214.468 264.246 214.082 263.518C213.697 262.779 213.37 261.981 213.102 261.124L214.323 260.61C214.548 260.513 214.773 260.465 214.998 260.465C215.212 260.465 215.4 260.513 215.56 260.61C215.732 260.695 215.86 260.835 215.946 261.027C215.967 261.07 215.989 261.118 216.01 261.172C216.032 261.215 216.053 261.263 216.074 261.316C216.224 261.627 216.406 261.981 216.621 262.377C216.835 262.762 217.124 263.127 217.488 263.469C217.852 263.812 218.302 264.101 218.838 264.337C219.384 264.573 220.059 264.69 220.862 264.69C221.666 264.69 222.367 264.562 222.967 264.305C223.577 264.037 224.081 263.694 224.477 263.277C224.884 262.859 225.189 262.393 225.393 261.879C225.597 261.365 225.698 260.856 225.698 260.353C225.698 259.731 225.613 259.164 225.441 258.649C225.281 258.135 224.981 257.691 224.541 257.316C224.113 256.941 223.513 256.647 222.742 256.432C221.982 256.218 221.002 256.111 219.802 256.111V254.038C220.777 254.028 221.607 253.921 222.292 253.717C222.988 253.514 223.556 253.235 223.995 252.882C224.434 252.528 224.75 252.105 224.943 251.612C225.147 251.12 225.248 250.573 225.248 249.974C225.248 249.31 225.141 248.731 224.927 248.238C224.724 247.746 224.44 247.339 224.076 247.017C223.711 246.696 223.278 246.455 222.774 246.294C222.281 246.134 221.746 246.053 221.168 246.053C220.589 246.053 220.054 246.139 219.561 246.31C219.068 246.482 218.629 246.723 218.243 247.033C217.869 247.333 217.553 247.698 217.296 248.126C217.038 248.544 216.846 248.999 216.717 249.492C216.631 249.802 216.503 250.027 216.332 250.166C216.16 250.306 215.941 250.375 215.673 250.375C215.619 250.375 215.56 250.375 215.496 250.375C215.443 250.365 215.378 250.354 215.303 250.343L213.809 250.086C213.959 249.036 214.248 248.11 214.677 247.307C215.105 246.493 215.646 245.812 216.299 245.266C216.963 244.72 217.719 244.307 218.565 244.029C219.422 243.74 220.343 243.595 221.328 243.595ZM232.159 264.899C232.159 264.653 232.202 264.423 232.288 264.208C232.384 263.984 232.513 263.791 232.674 263.63C232.845 263.459 233.048 263.325 233.284 263.228C233.52 263.132 233.777 263.084 234.055 263.084C234.377 263.084 234.66 263.143 234.907 263.261C235.164 263.378 235.373 263.544 235.533 263.759C235.705 263.962 235.833 264.203 235.919 264.482C236.005 264.749 236.048 265.044 236.048 265.365C236.048 265.847 235.978 266.351 235.839 266.875C235.699 267.39 235.501 267.898 235.244 268.402C234.987 268.916 234.666 269.414 234.28 269.896C233.905 270.378 233.477 270.822 232.995 271.229L232.513 270.764C232.374 270.635 232.304 270.485 232.304 270.314C232.304 270.174 232.379 270.03 232.529 269.88C232.636 269.762 232.77 269.601 232.931 269.398C233.102 269.205 233.273 268.98 233.445 268.723C233.616 268.466 233.771 268.182 233.911 267.872C234.061 267.561 234.168 267.229 234.232 266.875H234.023C233.745 266.875 233.493 266.827 233.268 266.731C233.043 266.634 232.845 266.501 232.674 266.329C232.513 266.147 232.384 265.938 232.288 265.703C232.202 265.456 232.159 265.189 232.159 264.899ZM232.063 253.058C232.063 252.78 232.111 252.517 232.208 252.271C232.315 252.025 232.454 251.811 232.625 251.628C232.807 251.446 233.022 251.302 233.268 251.195C233.514 251.088 233.777 251.034 234.055 251.034C234.334 251.034 234.596 251.088 234.843 251.195C235.089 251.302 235.303 251.446 235.485 251.628C235.667 251.811 235.807 252.025 235.903 252.271C236.01 252.517 236.064 252.78 236.064 253.058C236.064 253.348 236.01 253.615 235.903 253.862C235.807 254.097 235.667 254.306 235.485 254.488C235.303 254.67 235.089 254.815 234.843 254.922C234.596 255.018 234.334 255.067 234.055 255.067C233.777 255.067 233.514 255.018 233.268 254.922C233.022 254.815 232.807 254.67 232.625 254.488C232.454 254.306 232.315 254.097 232.208 253.862C232.111 253.615 232.063 253.348 232.063 253.058ZM71.5936 305.875V289.6H73.2967C73.7037 289.6 73.9608 289.798 74.0679 290.195L74.2767 291.866C74.8765 291.126 75.546 290.521 76.285 290.05C77.0348 289.579 77.9024 289.343 78.8878 289.343C79.991 289.343 80.88 289.648 81.5548 290.259C82.2403 290.869 82.733 291.694 83.033 292.733C83.2579 292.144 83.5524 291.635 83.9166 291.207C84.2915 290.778 84.7092 290.425 85.1698 290.146C85.6304 289.868 86.1177 289.664 86.6318 289.536C87.1567 289.407 87.6869 289.343 88.2224 289.343C89.0793 289.343 89.8398 289.482 90.5039 289.761C91.1786 290.029 91.7463 290.425 92.2069 290.95C92.6782 291.475 93.037 292.123 93.2833 292.894C93.5297 293.654 93.6529 294.527 93.6529 295.513V305.875H90.793V295.513C90.793 294.238 90.5146 293.274 89.9576 292.621C89.4006 291.957 88.5919 291.625 87.5316 291.625C87.0603 291.625 86.6104 291.71 86.182 291.882C85.7642 292.042 85.3947 292.283 85.0734 292.605C84.7521 292.926 84.495 293.333 84.3022 293.826C84.1201 294.308 84.0291 294.87 84.0291 295.513V305.875H81.1692V295.513C81.1692 294.206 80.9068 293.231 80.382 292.589C79.8571 291.946 79.0913 291.625 78.0845 291.625C77.3776 291.625 76.7188 291.817 76.1083 292.203C75.5085 292.578 74.9569 293.092 74.4535 293.745V305.875H71.5936ZM109.937 305.875H108.668C108.39 305.875 108.165 305.833 107.993 305.747C107.822 305.661 107.71 305.479 107.656 305.201L107.335 303.69C106.906 304.076 106.489 304.424 106.082 304.735C105.675 305.035 105.246 305.292 104.796 305.506C104.346 305.709 103.864 305.865 103.35 305.972C102.847 306.079 102.284 306.133 101.663 306.133C101.031 306.133 100.437 306.047 99.8799 305.875C99.3336 305.693 98.857 305.426 98.45 305.072C98.0429 304.719 97.7163 304.274 97.4699 303.739C97.2343 303.192 97.1164 302.55 97.1164 301.811C97.1164 301.168 97.2932 300.552 97.6466 299.963C98.0001 299.363 98.5678 298.833 99.3497 298.372C100.142 297.912 101.176 297.537 102.451 297.248C103.725 296.948 105.284 296.777 107.126 296.734V295.464C107.126 294.201 106.853 293.247 106.306 292.605C105.771 291.951 104.973 291.625 103.913 291.625C103.216 291.625 102.627 291.716 102.145 291.898C101.674 292.069 101.262 292.267 100.908 292.492C100.565 292.706 100.265 292.905 100.008 293.087C99.7621 293.258 99.5157 293.344 99.2694 293.344C99.0766 293.344 98.9052 293.295 98.7552 293.199C98.616 293.092 98.5035 292.963 98.4178 292.813L97.9037 291.898C98.8034 291.03 99.7728 290.382 100.812 289.954C101.851 289.525 103.002 289.311 104.266 289.311C105.176 289.311 105.985 289.461 106.692 289.761C107.399 290.061 107.993 290.478 108.475 291.014C108.957 291.55 109.322 292.198 109.568 292.958C109.814 293.719 109.937 294.554 109.937 295.464V305.875ZM102.515 304.124C103.018 304.124 103.479 304.076 103.896 303.98C104.314 303.873 104.705 303.728 105.069 303.546C105.444 303.353 105.798 303.123 106.13 302.855C106.472 302.587 106.805 302.282 107.126 301.939V298.549C105.808 298.592 104.689 298.699 103.768 298.871C102.847 299.031 102.097 299.245 101.519 299.513C100.94 299.781 100.517 300.097 100.249 300.461C99.9923 300.825 99.8638 301.232 99.8638 301.682C99.8638 302.111 99.9334 302.48 100.073 302.791C100.212 303.101 100.399 303.358 100.635 303.562C100.871 303.755 101.149 303.899 101.47 303.996C101.792 304.081 102.14 304.124 102.515 304.124ZM114.27 305.875V289.6H115.909C116.22 289.6 116.434 289.659 116.552 289.777C116.669 289.895 116.75 290.098 116.793 290.387L116.985 292.926C117.542 291.791 118.228 290.907 119.042 290.275C119.867 289.632 120.831 289.311 121.934 289.311C122.384 289.311 122.791 289.365 123.155 289.472C123.519 289.568 123.856 289.707 124.167 289.889L123.798 292.026C123.723 292.294 123.557 292.428 123.299 292.428C123.15 292.428 122.919 292.38 122.609 292.283C122.298 292.176 121.864 292.123 121.307 292.123C120.311 292.123 119.476 292.412 118.801 292.99C118.137 293.569 117.58 294.409 117.13 295.513V305.875H114.27ZM132.709 289.327C133.416 289.327 134.074 289.407 134.685 289.568C135.306 289.718 135.868 289.943 136.372 290.243H140.79V291.303C140.79 291.657 140.565 291.882 140.115 291.978L138.268 292.235C138.632 292.931 138.814 293.708 138.814 294.565C138.814 295.357 138.659 296.08 138.348 296.734C138.048 297.376 137.625 297.928 137.079 298.389C136.543 298.849 135.901 299.203 135.151 299.449C134.412 299.695 133.598 299.818 132.709 299.818C131.948 299.818 131.231 299.727 130.556 299.545C130.213 299.76 129.951 299.99 129.768 300.236C129.597 300.483 129.511 300.724 129.511 300.959C129.511 301.345 129.667 301.639 129.977 301.843C130.288 302.036 130.7 302.175 131.214 302.261C131.729 302.346 132.312 302.4 132.966 302.421C133.619 302.443 134.283 302.48 134.958 302.534C135.643 302.577 136.313 302.657 136.966 302.775C137.62 302.892 138.203 303.085 138.718 303.353C139.232 303.621 139.644 303.99 139.955 304.462C140.265 304.933 140.421 305.543 140.421 306.293C140.421 306.989 140.244 307.664 139.89 308.318C139.548 308.971 139.05 309.549 138.396 310.053C137.743 310.567 136.945 310.974 136.002 311.274C135.06 311.584 133.994 311.74 132.805 311.74C131.616 311.74 130.572 311.622 129.672 311.386C128.783 311.151 128.044 310.835 127.455 310.438C126.866 310.042 126.421 309.581 126.121 309.057C125.832 308.543 125.688 308.002 125.688 307.434C125.688 306.631 125.939 305.95 126.443 305.393C126.957 304.826 127.658 304.376 128.547 304.044C128.087 303.83 127.717 303.546 127.439 303.192C127.171 302.828 127.037 302.346 127.037 301.746C127.037 301.511 127.08 301.27 127.166 301.023C127.251 300.766 127.38 300.515 127.551 300.268C127.733 300.022 127.953 299.786 128.21 299.561C128.467 299.336 128.767 299.138 129.11 298.967C128.306 298.517 127.674 297.923 127.214 297.184C126.764 296.434 126.539 295.561 126.539 294.565C126.539 293.772 126.689 293.054 126.989 292.412C127.3 291.758 127.728 291.207 128.274 290.757C128.821 290.296 129.469 289.943 130.218 289.697C130.979 289.45 131.809 289.327 132.709 289.327ZM137.786 306.759C137.786 306.352 137.673 306.025 137.448 305.779C137.223 305.533 136.918 305.345 136.532 305.217C136.147 305.078 135.702 304.976 135.199 304.912C134.696 304.847 134.165 304.804 133.608 304.783C133.051 304.751 132.484 304.719 131.905 304.687C131.327 304.654 130.775 304.596 130.25 304.51C129.64 304.799 129.142 305.152 128.756 305.57C128.381 305.988 128.194 306.486 128.194 307.064C128.194 307.429 128.285 307.766 128.467 308.077C128.66 308.398 128.949 308.671 129.335 308.896C129.72 309.132 130.202 309.314 130.781 309.442C131.37 309.581 132.061 309.651 132.853 309.651C133.624 309.651 134.315 309.581 134.926 309.442C135.536 309.303 136.05 309.105 136.468 308.848C136.897 308.591 137.223 308.285 137.448 307.932C137.673 307.579 137.786 307.188 137.786 306.759ZM132.709 297.923C133.287 297.923 133.796 297.842 134.235 297.682C134.685 297.521 135.06 297.296 135.36 297.007C135.66 296.718 135.884 296.375 136.034 295.979C136.184 295.572 136.259 295.127 136.259 294.645C136.259 293.649 135.954 292.856 135.344 292.267C134.744 291.678 133.865 291.384 132.709 291.384C131.563 291.384 130.684 291.678 130.074 292.267C129.474 292.856 129.174 293.649 129.174 294.645C129.174 295.127 129.249 295.572 129.399 295.979C129.56 296.375 129.79 296.718 130.09 297.007C130.39 297.296 130.759 297.521 131.198 297.682C131.638 297.842 132.141 297.923 132.709 297.923ZM146.823 289.6V305.875H143.963V289.6H146.823ZM147.465 284.491C147.465 284.77 147.407 285.032 147.289 285.278C147.182 285.514 147.032 285.728 146.839 285.921C146.657 286.103 146.443 286.248 146.196 286.355C145.95 286.462 145.687 286.515 145.409 286.515C145.13 286.515 144.868 286.462 144.622 286.355C144.386 286.248 144.172 286.103 143.979 285.921C143.797 285.728 143.652 285.514 143.545 285.278C143.438 285.032 143.385 284.77 143.385 284.491C143.385 284.213 143.438 283.95 143.545 283.704C143.652 283.447 143.797 283.227 143.979 283.045C144.172 282.852 144.386 282.702 144.622 282.595C144.868 282.488 145.13 282.435 145.409 282.435C145.687 282.435 145.95 282.488 146.196 282.595C146.443 282.702 146.657 282.852 146.839 283.045C147.032 283.227 147.182 283.447 147.289 283.704C147.407 283.95 147.465 284.213 147.465 284.491ZM151.863 305.875V289.6H153.566C153.973 289.6 154.23 289.798 154.337 290.195L154.562 291.962C155.269 291.18 156.056 290.548 156.924 290.066C157.802 289.584 158.815 289.343 159.961 289.343C160.85 289.343 161.632 289.493 162.306 289.793C162.992 290.082 163.56 290.5 164.009 291.046C164.47 291.582 164.818 292.23 165.054 292.99C165.289 293.751 165.407 294.591 165.407 295.513V305.875H162.547V295.513C162.547 294.281 162.263 293.328 161.696 292.653C161.139 291.967 160.282 291.625 159.125 291.625C158.279 291.625 157.486 291.828 156.747 292.235C156.019 292.642 155.344 293.194 154.723 293.89V305.875H151.863ZM169.429 304.108C169.429 303.83 169.477 303.567 169.574 303.321C169.681 303.075 169.82 302.86 169.991 302.678C170.173 302.496 170.388 302.352 170.634 302.244C170.88 302.137 171.143 302.084 171.421 302.084C171.7 302.084 171.962 302.137 172.209 302.244C172.455 302.352 172.669 302.496 172.851 302.678C173.033 302.86 173.173 303.075 173.269 303.321C173.376 303.567 173.43 303.83 173.43 304.108C173.43 304.397 173.376 304.665 173.269 304.912C173.173 305.147 173.033 305.356 172.851 305.538C172.669 305.72 172.455 305.859 172.209 305.956C171.962 306.063 171.7 306.116 171.421 306.116C171.143 306.116 170.88 306.063 170.634 305.956C170.388 305.859 170.173 305.72 169.991 305.538C169.82 305.356 169.681 305.147 169.574 304.912C169.477 304.665 169.429 304.397 169.429 304.108ZM169.429 292.058C169.429 291.78 169.477 291.517 169.574 291.271C169.681 291.025 169.82 290.811 169.991 290.628C170.173 290.446 170.388 290.302 170.634 290.195C170.88 290.088 171.143 290.034 171.421 290.034C171.7 290.034 171.962 290.088 172.209 290.195C172.455 290.302 172.669 290.446 172.851 290.628C173.033 290.811 173.173 291.025 173.269 291.271C173.376 291.517 173.43 291.78 173.43 292.058C173.43 292.348 173.376 292.615 173.269 292.862C173.173 293.097 173.033 293.306 172.851 293.488C172.669 293.67 172.455 293.815 172.209 293.922C171.962 294.018 171.7 294.067 171.421 294.067C171.143 294.067 170.88 294.018 170.634 293.922C170.388 293.815 170.173 293.67 169.991 293.488C169.82 293.306 169.681 293.097 169.574 292.862C169.477 292.615 169.429 292.348 169.429 292.058ZM199.355 294.372C199.355 296.386 199.135 298.131 198.696 299.61C198.268 301.077 197.679 302.293 196.929 303.257C196.179 304.221 195.29 304.938 194.262 305.41C193.244 305.881 192.152 306.116 190.984 306.116C189.806 306.116 188.708 305.881 187.691 305.41C186.684 304.938 185.805 304.221 185.056 303.257C184.306 302.293 183.717 301.077 183.288 299.61C182.86 298.131 182.646 296.386 182.646 294.372C182.646 292.358 182.86 290.612 183.288 289.134C183.717 287.656 184.306 286.435 185.056 285.471C185.805 284.496 186.684 283.773 187.691 283.302C188.708 282.831 189.806 282.595 190.984 282.595C192.152 282.595 193.244 282.831 194.262 283.302C195.29 283.773 196.179 284.496 196.929 285.471C197.679 286.435 198.268 287.656 198.696 289.134C199.135 290.612 199.355 292.358 199.355 294.372ZM196.383 294.372C196.383 292.615 196.233 291.143 195.933 289.954C195.643 288.754 195.247 287.79 194.744 287.062C194.251 286.333 193.678 285.814 193.025 285.503C192.371 285.182 191.691 285.021 190.984 285.021C190.277 285.021 189.597 285.182 188.944 285.503C188.29 285.814 187.717 286.333 187.225 287.062C186.732 287.79 186.336 288.754 186.036 289.954C185.747 291.143 185.602 292.615 185.602 294.372C185.602 296.129 185.747 297.601 186.036 298.79C186.336 299.979 186.732 300.938 187.225 301.666C187.717 302.394 188.29 302.919 188.944 303.241C189.597 303.551 190.277 303.707 190.984 303.707C191.691 303.707 192.371 303.551 193.025 303.241C193.678 302.919 194.251 302.394 194.744 301.666C195.247 300.938 195.643 299.979 195.933 298.79C196.233 297.601 196.383 296.129 196.383 294.372ZM202.474 303.899C202.474 303.653 202.517 303.423 202.603 303.208C202.699 302.984 202.828 302.791 202.988 302.63C203.16 302.459 203.363 302.325 203.599 302.228C203.835 302.132 204.092 302.084 204.37 302.084C204.691 302.084 204.975 302.143 205.222 302.261C205.479 302.378 205.687 302.544 205.848 302.759C206.02 302.962 206.148 303.203 206.234 303.482C206.319 303.749 206.362 304.044 206.362 304.365C206.362 304.847 206.293 305.351 206.153 305.875C206.014 306.39 205.816 306.898 205.559 307.402C205.302 307.916 204.981 308.414 204.595 308.896C204.22 309.378 203.792 309.822 203.31 310.229L202.828 309.764C202.688 309.635 202.619 309.485 202.619 309.314C202.619 309.174 202.694 309.03 202.844 308.88C202.951 308.762 203.085 308.601 203.245 308.398C203.417 308.205 203.588 307.98 203.76 307.723C203.931 307.466 204.086 307.182 204.225 306.872C204.375 306.561 204.483 306.229 204.547 305.875H204.338C204.059 305.875 203.808 305.827 203.583 305.731C203.358 305.634 203.16 305.501 202.988 305.329C202.828 305.147 202.699 304.938 202.603 304.703C202.517 304.456 202.474 304.189 202.474 303.899ZM202.378 292.058C202.378 291.78 202.426 291.517 202.522 291.271C202.63 291.025 202.769 290.811 202.94 290.628C203.122 290.446 203.336 290.302 203.583 290.195C203.829 290.088 204.092 290.034 204.37 290.034C204.649 290.034 204.911 290.088 205.157 290.195C205.404 290.302 205.618 290.446 205.8 290.628C205.982 290.811 206.121 291.025 206.218 291.271C206.325 291.517 206.378 291.78 206.378 292.058C206.378 292.348 206.325 292.615 206.218 292.862C206.121 293.097 205.982 293.306 205.8 293.488C205.618 293.67 205.404 293.815 205.157 293.922C204.911 294.018 204.649 294.067 204.37 294.067C204.092 294.067 203.829 294.018 203.583 293.922C203.336 293.815 203.122 293.67 202.94 293.488C202.769 293.306 202.63 293.097 202.522 292.862C202.426 292.615 202.378 292.348 202.378 292.058ZM38.7006 338.047C38.7006 338.583 38.7434 339.113 38.8291 339.638C38.9148 340.163 39.0059 340.693 39.1023 341.228C39.2094 341.753 39.3058 342.283 39.3915 342.819C39.4771 343.344 39.52 343.885 39.52 344.442C39.52 345.181 39.4075 345.861 39.1826 346.482C38.9577 347.103 38.6256 347.639 38.1865 348.089C37.7473 348.539 37.1957 348.887 36.5316 349.133C35.8783 349.39 35.1124 349.519 34.2341 349.519H33.3826V348.233C33.3826 348.019 33.4576 347.864 33.6075 347.767C33.7575 347.671 33.8967 347.623 34.0253 347.623H34.3466C35.1713 347.623 35.8193 347.355 36.2906 346.82C36.7726 346.284 37.0136 345.55 37.0136 344.618C37.0136 344.019 36.9761 343.44 36.9012 342.883C36.8262 342.326 36.7405 341.785 36.6441 341.261C36.5477 340.725 36.462 340.195 36.387 339.67C36.312 339.145 36.2746 338.615 36.2746 338.079C36.2746 337.683 36.3335 337.314 36.4513 336.971C36.5691 336.628 36.7351 336.317 36.9493 336.039C37.1743 335.76 37.4313 335.525 37.7205 335.332C38.0204 335.129 38.3471 334.979 38.7006 334.882C38.3471 334.786 38.0204 334.641 37.7205 334.448C37.4313 334.245 37.1743 334.009 36.9493 333.741C36.7351 333.463 36.5691 333.152 36.4513 332.81C36.3335 332.456 36.2746 332.076 36.2746 331.669C36.2746 331.133 36.312 330.603 36.387 330.078C36.462 329.553 36.5477 329.029 36.6441 328.504C36.7405 327.968 36.8262 327.422 36.9012 326.865C36.9761 326.308 37.0136 325.73 37.0136 325.13C37.0136 324.209 36.7726 323.48 36.2906 322.945C35.8193 322.399 35.1713 322.125 34.3466 322.125H34.0253C33.8967 322.125 33.7575 322.077 33.6075 321.981C33.4576 321.884 33.3826 321.729 33.3826 321.515V320.246H34.2341C35.1124 320.246 35.8783 320.369 36.5316 320.615C37.1957 320.861 37.7473 321.21 38.1865 321.659C38.6256 322.109 38.9577 322.645 39.1826 323.266C39.4075 323.887 39.52 324.567 39.52 325.307C39.52 325.864 39.4771 326.41 39.3915 326.945C39.3058 327.481 39.2094 328.011 39.1023 328.536C39.0059 329.061 38.9148 329.586 38.8291 330.11C38.7434 330.635 38.7006 331.165 38.7006 331.701C38.7006 332.387 38.888 332.943 39.2629 333.372C39.6378 333.8 40.1841 334.015 40.9017 334.015V335.734C40.1841 335.734 39.6378 335.953 39.2629 336.392C38.888 336.821 38.7006 337.372 38.7006 338.047Z" fill="#1D1D1B"/>
<path d="M54.7624 11.0037C54.678 11.1443 54.589 11.2521 54.4953 11.327C54.4015 11.3926 54.2797 11.4254 54.1297 11.4254C53.9704 11.4254 53.783 11.3458 53.5674 11.1865C53.3612 11.0271 53.0941 10.8537 52.7661 10.6663C52.4475 10.4695 52.0585 10.2914 51.5993 10.1321C51.1494 9.97276 50.6011 9.8931 49.9545 9.8931C49.3453 9.8931 48.8064 9.97745 48.3378 10.1461C47.8692 10.3055 47.4756 10.5257 47.1569 10.8069C46.8476 11.088 46.6133 11.4208 46.454 11.805C46.2947 12.1799 46.215 12.5876 46.215 13.0281C46.215 13.5904 46.3509 14.059 46.6227 14.4339C46.9039 14.7994 47.2694 15.1134 47.7192 15.3758C48.1785 15.6382 48.6939 15.8678 49.2656 16.0646C49.8467 16.2521 50.4371 16.4489 51.0369 16.6551C51.6461 16.8613 52.2366 17.0956 52.8083 17.358C53.3893 17.611 53.9048 17.9344 54.3547 18.328C54.8139 18.7216 55.1794 19.2043 55.4512 19.776C55.7324 20.3477 55.873 21.0506 55.873 21.8847C55.873 22.7657 55.723 23.5951 55.4231 24.373C55.1232 25.1415 54.6827 25.8116 54.1016 26.3833C53.5299 26.955 52.8223 27.4049 51.9788 27.7329C51.1447 28.0609 50.1935 28.2249 49.125 28.2249C47.8223 28.2249 46.6321 27.9906 45.5543 27.522C44.4859 27.044 43.5721 26.4021 42.8129 25.5961L43.6002 24.3027C43.6752 24.1996 43.7642 24.1153 43.8673 24.0497C43.9798 23.9747 44.1016 23.9372 44.2328 23.9372C44.4296 23.9372 44.6545 24.045 44.9076 24.2605C45.1606 24.4667 45.4746 24.6963 45.8495 24.9494C46.2337 25.2024 46.693 25.4367 47.2272 25.6523C47.7708 25.8585 48.4315 25.9616 49.2094 25.9616C49.8561 25.9616 50.4324 25.8725 50.9385 25.6945C51.4446 25.5164 51.8711 25.268 52.2178 24.9494C52.574 24.6214 52.8458 24.2324 53.0332 23.7826C53.2206 23.3327 53.3144 22.8313 53.3144 22.2783C53.3144 21.6691 53.1738 21.1724 52.8926 20.7882C52.6208 20.3945 52.26 20.0665 51.8101 19.8041C51.3603 19.5417 50.8448 19.3214 50.2638 19.1434C49.6921 18.9559 49.1016 18.7685 48.4924 18.581C47.8926 18.3842 47.3022 18.1593 46.7211 17.9062C46.1494 17.6532 45.6386 17.3252 45.1888 16.9222C44.7389 16.5192 44.3734 16.0178 44.0922 15.418C43.8204 14.8088 43.6845 14.059 43.6845 13.1687C43.6845 12.4564 43.8204 11.7675 44.0922 11.1021C44.3734 10.4367 44.7764 9.84624 45.3012 9.33078C45.8261 8.81531 46.4727 8.40294 47.2412 8.09366C48.0191 7.78438 48.9095 7.62974 49.9123 7.62974C51.0369 7.62974 52.0632 7.80781 52.991 8.16395C53.9189 8.52009 54.7296 9.03555 55.4231 9.71034L54.7624 11.0037ZM64.5967 13.5342C65.4496 13.5342 66.2368 13.6794 66.9585 13.97C67.6801 14.2511 68.3034 14.6635 68.8282 15.2071C69.353 15.7413 69.7607 16.4067 70.0513 17.2033C70.3512 17.9906 70.5011 18.8903 70.5011 19.9025C70.5011 20.2961 70.4589 20.5586 70.3746 20.6898C70.2902 20.821 70.1309 20.8866 69.8966 20.8866H60.4214C60.4402 21.7863 60.562 22.5689 60.7869 23.2343C61.0119 23.8997 61.3211 24.4573 61.7148 24.9072C62.1084 25.3477 62.577 25.6804 63.1206 25.9053C63.6642 26.1209 64.2734 26.2287 64.9481 26.2287C65.5761 26.2287 66.115 26.1584 66.5648 26.0178C67.0241 25.8678 67.4177 25.7085 67.7457 25.5398C68.0737 25.3711 68.3455 25.2165 68.5611 25.0759C68.786 24.926 68.9782 24.851 69.1375 24.851C69.3437 24.851 69.503 24.9306 69.6155 25.09L70.3184 26.0037C70.0091 26.3786 69.6389 26.7067 69.2078 26.9878C68.7767 27.2596 68.3127 27.4845 67.816 27.6626C67.3287 27.8407 66.8226 27.9719 66.2977 28.0562C65.7729 28.15 65.2527 28.1968 64.7373 28.1968C63.7532 28.1968 62.8441 28.0328 62.01 27.7048C61.1852 27.3674 60.4683 26.88 59.8591 26.2427C59.2593 25.5961 58.7907 24.7994 58.4533 23.8528C58.1159 22.9063 57.9472 21.8191 57.9472 20.5914C57.9472 19.5979 58.0971 18.6701 58.3971 17.8078C58.7063 16.9456 59.1468 16.2005 59.7185 15.5726C60.2902 14.9353 60.9884 14.4386 61.8132 14.0824C62.6379 13.7169 63.5658 13.5342 64.5967 13.5342ZM64.6529 15.3758C63.4439 15.3758 62.4927 15.7272 61.7991 16.4301C61.1056 17.1237 60.6745 18.089 60.5058 19.3261H68.2518C68.2518 18.7451 68.1722 18.2155 68.0128 17.7376C67.8535 17.2502 67.6192 16.8331 67.3099 16.4864C67.0006 16.1302 66.6211 15.8584 66.1712 15.671C65.7307 15.4742 65.2246 15.3758 64.6529 15.3758ZM76.4875 7.29234V28H73.9851V7.29234H76.4875ZM86.5351 13.5342C87.388 13.5342 88.1752 13.6794 88.8969 13.97C89.6185 14.2511 90.2418 14.6635 90.7666 15.2071C91.2914 15.7413 91.6991 16.4067 91.9897 17.2033C92.2896 17.9906 92.4395 18.8903 92.4395 19.9025C92.4395 20.2961 92.3973 20.5586 92.313 20.6898C92.2286 20.821 92.0693 20.8866 91.835 20.8866H82.3598C82.3786 21.7863 82.5004 22.5689 82.7253 23.2343C82.9503 23.8997 83.2595 24.4573 83.6532 24.9072C84.0468 25.3477 84.5154 25.6804 85.059 25.9053C85.6026 26.1209 86.2118 26.2287 86.8865 26.2287C87.5145 26.2287 88.0534 26.1584 88.5032 26.0178C88.9625 25.8678 89.3561 25.7085 89.6841 25.5398C90.0121 25.3711 90.2839 25.2165 90.4995 25.0759C90.7244 24.926 90.9166 24.851 91.0759 24.851C91.2821 24.851 91.4414 24.9306 91.5539 25.09L92.2568 26.0037C91.9475 26.3786 91.5773 26.7067 91.1462 26.9878C90.7151 27.2596 90.2511 27.4845 89.7544 27.6626C89.2671 27.8407 88.761 27.9719 88.2361 28.0562C87.7113 28.15 87.1911 28.1968 86.6757 28.1968C85.6916 28.1968 84.7825 28.0328 83.9484 27.7048C83.1237 27.3674 82.4067 26.88 81.7975 26.2427C81.1977 25.5961 80.7291 24.7994 80.3917 23.8528C80.0543 22.9063 79.8856 21.8191 79.8856 20.5914C79.8856 19.5979 80.0355 18.6701 80.3355 17.8078C80.6447 16.9456 81.0852 16.2005 81.6569 15.5726C82.2286 14.9353 82.9268 14.4386 83.7516 14.0824C84.5763 13.7169 85.5042 13.5342 86.5351 13.5342ZM86.5913 15.3758C85.3823 15.3758 84.4311 15.7272 83.7375 16.4301C83.044 17.1237 82.6129 18.089 82.4442 19.3261H90.1902C90.1902 18.7451 90.1106 18.2155 89.9512 17.7376C89.7919 17.2502 89.5576 16.8331 89.2483 16.4864C88.939 16.1302 88.5595 15.8584 88.1096 15.671C87.6691 15.4742 87.163 15.3758 86.5913 15.3758ZM105.357 16.2896C105.282 16.3927 105.207 16.4723 105.132 16.5285C105.057 16.5848 104.949 16.6129 104.808 16.6129C104.668 16.6129 104.513 16.5567 104.344 16.4442C104.185 16.3224 103.979 16.1912 103.726 16.0506C103.473 15.91 103.163 15.7835 102.798 15.671C102.442 15.5492 102.001 15.4882 101.476 15.4882C100.783 15.4882 100.169 15.6148 99.6349 15.8678C99.1007 16.1115 98.6508 16.4676 98.2853 16.9362C97.9292 17.4048 97.6574 17.9719 97.4699 18.6373C97.2919 19.3027 97.2028 20.0478 97.2028 20.8725C97.2028 21.7348 97.3012 22.5033 97.498 23.1781C97.6949 23.8435 97.9713 24.4058 98.3275 24.865C98.6836 25.3149 99.1147 25.6617 99.6208 25.9053C100.136 26.1396 100.713 26.2568 101.35 26.2568C101.959 26.2568 102.461 26.1865 102.854 26.0459C103.248 25.896 103.576 25.732 103.838 25.5539C104.101 25.3758 104.316 25.2165 104.485 25.0759C104.654 24.926 104.822 24.851 104.991 24.851C105.207 24.851 105.366 24.9306 105.469 25.09L106.172 26.0037C105.553 26.7629 104.78 27.3205 103.852 27.6767C102.924 28.0234 101.945 28.1968 100.914 28.1968C100.024 28.1968 99.1944 28.0328 98.4259 27.7048C97.6667 27.3768 97.006 26.9035 96.4437 26.2849C95.8813 25.657 95.4362 24.8885 95.1082 23.9794C94.7895 23.0703 94.6302 22.0347 94.6302 20.8725C94.6302 19.8135 94.7754 18.8341 95.066 17.9344C95.3659 17.0346 95.797 16.2614 96.3593 15.6148C96.931 14.9587 97.6339 14.4479 98.468 14.0824C99.3022 13.7169 100.258 13.5342 101.336 13.5342C102.329 13.5342 103.21 13.6982 103.979 14.0262C104.747 14.3448 105.427 14.7994 106.017 15.3898L105.357 16.2896ZM113.083 28.2249C111.958 28.2249 111.091 27.911 110.482 27.283C109.882 26.6551 109.582 25.7507 109.582 24.5698V15.8538H107.867C107.717 15.8538 107.591 15.8116 107.488 15.7272C107.385 15.6335 107.333 15.4929 107.333 15.3055V14.3074L109.667 14.0121L110.243 9.61194C110.262 9.47136 110.323 9.35889 110.426 9.27454C110.529 9.18082 110.66 9.13396 110.819 9.13396H112.085V14.0403H116.162V15.8538H112.085V24.4011C112.085 25.0009 112.23 25.4461 112.52 25.7366C112.811 26.0272 113.186 26.1724 113.645 26.1724C113.908 26.1724 114.132 26.1396 114.32 26.074C114.517 25.9991 114.685 25.9194 114.826 25.835C114.967 25.7507 115.084 25.6757 115.177 25.6101C115.281 25.5351 115.37 25.4976 115.445 25.4976C115.576 25.4976 115.693 25.5773 115.796 25.7366L116.527 26.9316C116.096 27.3346 115.576 27.6532 114.967 27.8875C114.357 28.1125 113.729 28.2249 113.083 28.2249ZM125.02 13.5342C126.06 13.5342 126.997 13.7075 127.831 14.0543C128.675 14.4011 129.387 14.8931 129.968 15.5304C130.558 16.1677 131.008 16.9409 131.318 17.85C131.636 18.7497 131.796 19.7572 131.796 20.8725C131.796 21.9972 131.636 23.0094 131.318 23.9091C131.008 24.8088 130.558 25.5773 129.968 26.2146C129.387 26.8519 128.675 27.344 127.831 27.6907C126.997 28.0281 126.06 28.1968 125.02 28.1968C123.979 28.1968 123.037 28.0281 122.194 27.6907C121.36 27.344 120.647 26.8519 120.057 26.2146C119.467 25.5773 119.012 24.8088 118.693 23.9091C118.375 23.0094 118.215 21.9972 118.215 20.8725C118.215 19.7572 118.375 18.7497 118.693 17.85C119.012 16.9409 119.467 16.1677 120.057 15.5304C120.647 14.8931 121.36 14.4011 122.194 14.0543C123.037 13.7075 123.979 13.5342 125.02 13.5342ZM125.02 26.2427C126.425 26.2427 127.475 25.7741 128.169 24.8369C128.862 23.8903 129.209 22.5736 129.209 20.8866C129.209 19.1902 128.862 17.8688 128.169 16.9222C127.475 15.9756 126.425 15.5023 125.02 15.5023C124.307 15.5023 123.689 15.6241 123.164 15.8678C122.639 16.1115 122.199 16.4629 121.842 16.9222C121.496 17.3814 121.233 17.9484 121.055 18.6232C120.886 19.2886 120.802 20.0431 120.802 20.8866C120.802 21.7301 120.886 22.4845 121.055 23.1499C121.233 23.8154 121.496 24.3777 121.842 24.8369C122.199 25.2868 122.639 25.6335 123.164 25.8772C123.689 26.1209 124.307 26.2427 125.02 26.2427ZM134.879 28V13.7591H136.313C136.585 13.7591 136.772 13.8106 136.875 13.9137C136.978 14.0168 137.049 14.1949 137.086 14.4479L137.255 16.6691C137.742 15.6757 138.342 14.9025 139.054 14.3495C139.776 13.7872 140.619 13.506 141.585 13.506C141.978 13.506 142.334 13.5529 142.653 13.6466C142.972 13.731 143.267 13.8528 143.539 14.0121L143.215 15.8819C143.15 16.1162 143.004 16.2333 142.78 16.2333C142.648 16.2333 142.447 16.1912 142.175 16.1068C141.903 16.0131 141.524 15.9662 141.036 15.9662C140.165 15.9662 139.434 16.2193 138.843 16.7254C138.262 17.2315 137.775 17.9672 137.381 18.9325V28H134.879Z" fill="white"/>
<path d="M104.402 115.532C90.8093 111.384 77.2863 107.052 63.3713 104.084C49.2863 101.08 33.4823 98.7371 19.4363 103.129C5.40732 107.516 -0.155694 120.096 0.00330633 133.994C0.170306 148.591 6.9853 160.287 19.1143 168.24C35.6773 179.1 57.3543 181.156 76.5033 177.859C90.7783 175.402 111.375 167.683 111.661 150.319C111.682 149.07 107.515 147.018 107.501 147.854C107.295 160.328 95.5433 167.727 85.0593 171.565C71.0393 176.697 55.1633 177.336 40.5683 174.674C25.8853 171.995 11.3393 164.754 6.1703 149.844C1.5223 136.439 3.44631 118.027 15.9393 109.584C28.7633 100.917 47.4933 103.604 61.7223 106.197C77.0483 108.99 91.8593 113.838 106.727 118.375C108.977 119.063 105.324 115.813 104.402 115.532Z" fill="#C6C6C6"/>
<path d="M84.9371 95.495C89.1531 86.87 91.9711 77.47 95.0841 68.412C96.7791 63.481 98.4571 58.543 100.218 53.635C100.815 51.971 101.425 50.31 102.092 48.674C102.33 48.091 102.588 47.517 102.862 46.95C103.683 45.251 103.19 47.541 101.134 46.606C104.121 47.965 104.545 43.879 101.959 42.703C97.3711 40.615 93.4341 58.045 92.6141 60.422C88.8831 71.238 85.7041 82.587 80.6681 92.891C79.5271 95.227 83.8101 97.801 84.9371 95.495Z" fill="#C6C6C6"/>
</svg>
