<svg width="302" height="281" viewBox="0 0 302 281" fill="none" xmlns="http://www.w3.org/2000/svg">
<path d="M142.76 157.555C142.676 157.103 140.733 146.925 141.52 146.925C142.658 146.925 144.539 157.602 144.709 158.264C145.814 162.558 146.78 167.544 148.784 171.552C149.045 172.075 152.608 161.653 153.036 160.213C153.503 158.643 156.242 145.646 157.2 148.519C159.046 154.059 160.337 162.339 166.679 162.339" stroke="#E51B28" stroke-width="3" stroke-linecap="round"/>
<path d="M166.679 127.258C168.556 119.333 170.084 109.811 174.652 102.808C181.26 92.6747 165.034 125.066 161.541 136.648C160.947 138.616 156.192 151.144 158.086 153.037C159.239 154.19 160.034 150.382 160.655 148.874C162.772 143.731 165.235 138.86 167.919 133.991C169.186 131.694 173.952 122.476 172.703 130.802C171.51 138.758 168.326 146.066 167.565 154.189C167.181 158.284 167.531 161.028 171.551 158.264C176.558 154.822 177.882 156.023 181.03 160.745" stroke="#E51B28" stroke-width="23" stroke-linecap="round"/>
<path d="M136.382 175.096C156.286 154.749 175.103 133.689 195.825 114.058C197.165 112.788 211.033 102.546 210.442 103.516C205.728 111.247 196.054 117.311 189.623 123.537C171.141 141.433 155.107 161.171 137.445 179.703C131.311 186.138 137.753 179.901 140.28 177.576C155.476 163.595 170.316 149.159 186.346 136.117C196.24 128.066 207.412 118.765 219.478 113.97C227.847 110.644 217.665 122.221 216.909 123.006C201.932 138.559 184.231 151.165 168.982 166.414C163.981 171.415 179.379 156.802 184.928 152.417C190.945 147.663 207.667 132.733 216.466 136.117C222.651 138.496 177.803 182.369 171.994 186.435C168.982 188.544 161.742 191.256 168.008 184.841C175.451 177.22 187.148 169.24 197.508 166.237C204.017 164.35 200.351 173.456 199.102 175.893C195.272 183.372 188.801 189.504 182.093 194.408C181.298 194.99 169.247 202.022 174.475 196.18C183.485 186.11 194.049 175.824 205.835 169.072C219.391 161.305 215.975 169.927 208.493 177.931C199.07 188.01 212.424 178.832 216.2 175.716C222.639 170.404 240.719 153.42 235.867 160.213C234.213 162.529 233.172 173.173 237.639 168.363C245.689 159.693 250.492 141.149 251.104 129.827C251.245 127.217 250.231 113.355 252.787 122.829C257.559 140.512 252.134 156.884 244.106 172.793C241.589 177.779 238.243 182.383 235.069 186.967C232.972 189.996 238.623 180.501 240.119 177.133C247.729 160.012 256.114 143.653 251.99 124.866C251.237 121.436 249.645 117.757 249.155 114.324C248.461 109.468 254.149 122.975 255.091 127.79C259.284 149.238 261.191 173.121 251.547 193.522C244.444 208.547 254.903 183.081 256.331 179.88C264.977 160.496 277.174 140.248 273.517 118.045C273.163 115.898 270.838 99.9761 272.1 110.072C274.215 126.993 282.003 141.255 278.921 159.061C277.613 166.619 274.721 174.154 271.568 181.12C269.932 184.734 265.721 195.452 265.721 191.485C265.721 185.007 272.039 175.371 274.403 169.603C278.275 160.159 281.313 151.486 281.313 141.166C281.313 130.083 279.895 107.946 279.895 107.946C279.895 107.946 281.516 129.21 282.376 139.838C284.066 160.728 276.819 177.946 269.973 197.066C268.424 201.395 263.949 214.62 263.949 203.799" stroke="#E51B28" stroke-width="23" stroke-linecap="round"/>
<path d="M32.7328 81.0148C30.4911 89.001 27.1128 96.9395 25.1142 104.934C23.8042 110.174 24.4991 115.633 23.1653 120.968C20.4954 131.648 16.7869 141.965 16.7869 153.126C16.7869 163.333 18.2199 175.473 22.2794 184.752C27.3508 196.344 29.2808 209.472 37.428 219.656C45.9625 230.324 48.8953 239.851 60.7269 247.739C69.7707 253.768 77.5593 260.394 88.8981 261.204C94.1387 261.579 99.8708 264.919 104.49 267.228C109.693 269.83 115.704 269.177 121.322 269.177C132.454 269.177 143.587 269.177 154.719 269.177C166.109 269.177 176.187 264.336 187.054 261.204C193.294 259.406 198.363 256.716 204.241 253.94C208.499 251.929 213.169 252.377 216.997 249.245C226.07 241.822 236.032 235.574 245.346 228.426C254.261 221.585 259.796 212.619 267.493 204.33C273.533 197.825 282.665 182.964 284.591 174.299C286.868 164.051 286.154 153.341 288.666 143.293C291.607 131.527 289.799 116.159 289.463 104.048C289.213 95.052 286.449 84.3794 279.895 77.8256" stroke="#E51B28" stroke-width="23" stroke-linecap="round"/>
<path d="M39.1112 85.7986C60.1607 101.276 88.4698 117.12 114.057 100.061C122.862 94.1916 129.992 79.6074 140.28 77.737C147.209 76.477 153.801 76.231 161.098 76.231C170.735 76.231 178.915 70.7889 187.409 66.6634C199.284 60.8952 217.03 57.0958 230.108 57.0958C242 57.0958 253.599 61.0458 265.012 64.7145C272.941 67.2628 285.082 75.8441 287.868 84.204" stroke="#E51B28" stroke-width="23" stroke-linecap="round"/>
<path d="M40.7058 96.9607C40.7058 111.35 41.1945 125.592 42.389 139.926C42.8836 145.861 45.4896 151.591 45.4896 157.555" stroke="#E51B28" stroke-width="23" stroke-linecap="round"/>
<path d="M36.3815 107.779C34.8253 118.089 34.7869 128.205 34.7869 138.608C34.7869 151.614 38.0214 141.204 40.4565 134.71C42.2434 129.945 46.2334 114.932 52.3274 113.626C57.5633 112.504 57.1112 125.869 57.1112 128.509C57.1112 136.035 58.6411 144.117 62.7809 131.698C63.8484 128.495 74.4746 92.5553 74.4746 107.602C74.4746 122.013 70.7688 164.891 73.9431 150.833C77.2508 136.185 79.6129 118.734 89.4461 106.716C94.9395 100.002 92.3438 126.667 92.1923 128.863C91.6836 136.24 91.0007 143.622 90.6863 151.01C90.6356 152.203 89.598 160.751 92.1038 155.262C99.4357 139.202 106.708 122.61 112.745 106.007C115.379 98.7637 112.922 121.421 112.922 129.129C112.922 141.428 115.251 139.861 119.212 129.217C121.854 122.118 122.948 112.362 127.185 106.007C129.19 103 127.755 113.214 128.071 116.815C128.681 123.77 128.785 130.803 129.754 137.722C132.318 156.034 138.459 136.423 140.119 128.952C142.447 118.476 144.025 107.858 146.054 97.3254C146.83 93.2976 149.401 78.4005 149.598 92.0101C149.644 95.1721 149.31 137.842 151.192 137.545C156.748 136.668 162.764 96.5253 166.075 90.7699C168.808 86.0204 168.729 102.074 168.733 102.641C168.781 108.782 168.733 114.926 168.733 121.067C168.733 131.26 172.021 123.944 175.111 117.878C181.271 105.788 189.207 66.2183 189.463 79.7849C189.55 84.4134 186.194 116.63 188.577 117.524C191.083 118.463 190.734 112.163 187.337 110.791C180.349 107.968 172.632 108.903 174.757 99.0972C176.268 92.123 180.182 83.9689 175.82 77.1272C172.118 71.3194 169.806 71.6015 170.859 64.0161C171.533 59.1647 166.123 59.1847 163.24 62.0671C158.315 66.9922 161.001 78.9359 160.76 84.923C160.35 95.1044 156.4 98.1392 152.787 106.539C151.486 109.563 154.025 119.148 150.307 120.181C134.126 124.676 152.339 93.9568 144.283 87.935C140.797 85.3296 126.883 84.6901 129.931 77.3044C131.234 74.1485 137.461 73.2674 130.285 73.938C125.06 74.4264 114.717 73.7221 114.162 81.0251C113.741 86.5746 116.005 92.4351 112.036 97.3254C107.8 102.545 104.274 102.903 103.709 110.437C103.296 115.938 100.937 115.017 96.2674 116.461C90.5351 118.232 87.632 117.019 82.6248 114.157" stroke="#E51B28" stroke-width="23" stroke-linecap="round"/>
<path d="M37.5166 175.096C47.782 163.547 83.0846 134.111 74.1923 146.748C64.0685 161.134 49.4826 172.121 41.0601 188.03C40.3762 189.322 38.4377 191.715 41.2373 188.916C47.6109 182.542 53.9453 176.093 60.5497 169.958C68.1005 162.943 76.0116 156.592 84.7344 151.088C87.9584 149.054 96.6095 143.469 95.4536 147.102C92.6926 155.779 81.8486 165.661 76.1413 172.438C69.7525 180.025 61.0493 187.444 56.2974 196.269C50.9538 206.192 75.3291 184.106 84.1143 177.045C85.5866 175.861 108.517 154.952 100.149 169.869C95.4729 178.204 89.5848 186.087 83.9371 193.788C82.7244 195.442 77.5738 199.029 82.4311 196.357C89.4433 192.5 95.3435 186.874 102.629 183.423C107.006 181.35 113.105 181.237 108.299 187.055C106.842 188.819 99.0285 195.185 99.5287 197.686C99.951 199.797 103.438 195.878 105.376 194.94C107.803 193.764 109.891 193.151 112.463 192.636" stroke="#E51B28" stroke-width="23" stroke-linecap="round"/>
<path d="M56.4333 233.58C56.8077 232.757 59.3231 225.28 60.4261 228.589" stroke="#E51B28" stroke-width="10" stroke-linecap="round"/>
<path d="M59.4279 242.564C66.0146 228.415 72.8817 214.725 81.3879 201.638" stroke="#E51B28" stroke-width="10" stroke-linecap="round"/>
<path d="M68.4115 253.544C70.7861 240.484 76.6588 227.961 81.3879 215.613" stroke="#E51B28" stroke-width="10" stroke-linecap="round"/>
<path d="M74.4006 251.547C76.9066 241.273 80.6737 231.492 84.3825 221.602" stroke="#E51B28" stroke-width="10" stroke-linecap="round"/>
<path d="M81.3879 260.531C84.1631 247.349 89.2829 234.435 93.3661 221.602" stroke="#E51B28" stroke-width="10" stroke-linecap="round"/>
<path d="M90.3716 253.544C92.5406 247.599 94.425 241.599 96.3607 235.577" stroke="#E51B28" stroke-width="10" stroke-linecap="round"/>
<path d="M96.3607 259.533C99.2022 245.562 105.652 232.592 111.333 219.606" stroke="#E51B28" stroke-width="10" stroke-linecap="round"/>
<path d="M24.4916 70.8765C14.7914 81.2864 12.9682 97.7081 9.18608 110.915C3.05354 132.328 4.71028 153.891 7.52245 175.686" stroke="#E51B28" stroke-width="10" stroke-linecap="round"/>
<path d="M211.152 66.8837C212.976 62.4826 214.738 58.8759 211.484 65.7746C204.652 80.2586 198.56 95.117 192.186 109.806" stroke="#E51B28" stroke-width="10" stroke-linecap="round"/>
<path d="M221.134 69.8782C214.29 83.5661 210.425 98.1791 206.161 112.8" stroke="#E51B28" stroke-width="10" stroke-linecap="round"/>
<path d="M236.106 57.9C232.311 73.7922 225.518 89.3997 220.135 104.815" stroke="#E51B28" stroke-width="10" stroke-linecap="round"/>
<path d="M249.083 59.8964C242.848 76.4573 236.949 93.1003 231.115 109.805" stroke="#E51B28" stroke-width="10" stroke-linecap="round"/>
<path d="M257.068 63.8892C251.466 78.7736 246.126 93.7209 241.097 108.807" stroke="#E51B28" stroke-width="10" stroke-linecap="round"/>
<path d="M267.05 66.8837C263.437 75.8885 259.764 84.8636 256.07 93.8346" stroke="#E51B28" stroke-width="10" stroke-linecap="round"/>
<path d="M223.13 16.9745C216.108 27.5729 208.799 37.7464 201.17 47.9181" stroke="#E51B28" stroke-width="10" stroke-linecap="round"/>
<path d="M233.112 21.9655C224.548 34.975 218.108 48.9774 211.152 62.8909" stroke="#E51B28" stroke-width="10" stroke-linecap="round"/>
<path d="M241.097 28.9528C233.836 39.6022 228.675 51.2967 223.13 62.891" stroke="#E51B28" stroke-width="10" stroke-linecap="round"/>
<path d="M252.077 30.9491C244.536 40.7247 239.636 51.8378 234.11 62.8909" stroke="#E51B28" stroke-width="10" stroke-linecap="round"/>
<path d="M263.057 37.9364C255.915 49.6793 250.639 62.3114 245.09 74.8692" stroke="#E51B28" stroke-width="10" stroke-linecap="round"/>
<path d="M270.044 46.92C265.514 56.6774 262.531 67.044 258.066 76.8655" stroke="#E51B28" stroke-width="10" stroke-linecap="round"/>
<path d="M41.4607 43.9255C39.4279 49.7029 36.927 55.2864 34.4734 60.8946" stroke="#E51B28" stroke-width="10" stroke-linecap="round"/>
<path d="M53.4388 40.9309C51.4792 47.7532 49.1789 54.3489 46.4515 60.8946" stroke="#E51B28" stroke-width="10" stroke-linecap="round"/>
<path d="M58.4297 50.9127C57.7163 54.2421 56.4333 57.4711 56.4333 60.8945" stroke="#E51B28" stroke-width="10" stroke-linecap="round"/>
<path d="M59.4279 76.8655C57.4991 82.8062 55.8407 88.75 54.437 94.8328" stroke="#E51B28" stroke-width="10" stroke-linecap="round"/>
<path d="M68.4115 78.8618C67.5902 85.8885 66.7866 92.766 66.4152 99.8237" stroke="#E51B28" stroke-width="10" stroke-linecap="round"/>
<path d="M80.3897 80.8583C77.7617 88.4271 76.4779 95.9035 75.3988 103.816" stroke="#E51B28" stroke-width="10" stroke-linecap="round"/>
<path d="M94.3643 79.8601C92.1304 87.1873 90.8478 94.2011 90.3716 101.82" stroke="#E51B28" stroke-width="10" stroke-linecap="round"/>
<path d="M217.141 176.684C211.592 192.068 204.024 206.767 197.177 221.602" stroke="#E51B28" stroke-width="10" stroke-linecap="round"/>
<path d="M225.126 183.671C217.922 199.124 211.436 214.737 205.163 230.586" stroke="#E51B28" stroke-width="10" stroke-linecap="round"/>
<path d="M231.115 190.658C224.645 204.892 219.69 219.964 214.146 234.578" stroke="#E51B28" stroke-width="10" stroke-linecap="round"/>
<path d="M239.101 200.64C228.91 214.228 222.69 230.008 216.143 245.558" stroke="#E51B28" stroke-width="10" stroke-linecap="round"/>
<path d="M104.346 153.726C112.239 148.37 122.294 138.943 131.741 136.424C134.078 135.8 128.018 139.517 126.084 140.971C121.13 144.696 116.29 148.548 111.611 152.616C108.923 154.953 96.3758 166.46 107.563 159.326C116.047 153.916 127.622 146.635 138.007 146.128C142.338 145.917 127.589 155.369 126.75 155.944C124.595 157.419 106.835 170.383 117.323 161.933C120.271 159.557 135.819 145.589 140.503 148.291C140.89 148.515 116.732 168.303 114.661 170.029C109.432 174.386 103.381 178.894 113.496 172.303C119.12 168.638 124.762 164.865 130.632 161.6C132.732 160.432 138.727 157.886 137.674 160.047C133.276 169.076 121.714 176.021 113.773 181.564C113.1 182.034 112.32 182.39 111.777 183.006C110.65 184.283 114.834 181.501 116.324 180.676C120.539 178.345 124.631 175.679 128.968 173.578C134.961 170.675 136.131 172.919 131.297 177.238C129.175 179.134 113.738 188.266 114.106 191.435C114.877 198.062 152.044 191.827 156.252 190.658" stroke="#E51B28" stroke-width="10" stroke-linecap="round"/>
<path d="M230.117 155.722C232.553 153.716 244.625 145.843 235.274 150.398C231.549 152.213 227.766 154.482 223.684 155.389C219.552 156.308 225.567 151.126 226.124 150.509C233.559 142.287 227.096 149.136 222.243 151.563C220.455 152.457 218.265 153.013 221.577 151.008C226.098 148.272 230.577 145.464 235.108 142.746C235.539 142.487 241.95 139.155 236.883 141.637C232.983 143.547 225.163 148.945 220.579 147.903C216.771 147.037 232.351 133.406 231.448 131.987C231.004 131.289 220.713 135.047 221.91 132.653C223.312 129.848 227.833 127.553 230.117 125.555C231.206 124.602 238.817 119.219 238.602 119.676C235.619 126.014 218.56 139.143 222.908 133.651C225.528 130.342 230.612 128.387 233.999 125.998C236.98 123.896 239.558 121.32 242.317 118.956C242.649 118.671 240.068 119.864 239.933 119.954C239.28 120.389 233.928 124.702 233.334 123.891C232.337 122.533 236.112 117.53 235.884 118.956C234.668 126.559 232.114 149.448 232.114 141.747C232.114 135.981 235.616 124.902 232.169 119.732C230.873 117.788 232.421 124.402 232.724 126.719C232.837 127.59 235.116 141.835 235.884 135.537C236.361 131.625 236.353 127.216 235.607 123.336C235.265 121.555 235.946 130.323 236.106 131.766" stroke="#E51B28" stroke-width="10" stroke-linecap="round"/>
<path d="M152.259 179.678C142.964 200.438 136.113 222.213 128.302 243.562" stroke="#E51B28" stroke-width="5" stroke-linecap="round"/>
<path d="M157.25 185.667C150.632 202.999 144.289 220.384 137.286 237.573" stroke="#E51B28" stroke-width="5" stroke-linecap="round"/>
<path d="M161.242 190.658C158.093 203.829 152.455 216.698 148.266 229.587" stroke="#E51B28" stroke-width="5" stroke-linecap="round"/>
<path d="M170.226 193.653C164.361 208.455 160.18 223.76 154.255 238.571" stroke="#E51B28" stroke-width="5" stroke-linecap="round"/>
<path d="M173.221 200.64C168.825 213.261 164.538 225.915 160.244 238.571" stroke="#E51B28" stroke-width="5" stroke-linecap="round"/>
<path d="M180.208 196.647C177.281 210.217 172.434 222.744 167.232 235.577" stroke="#E51B28" stroke-width="5" stroke-linecap="round"/>
<path d="M189.192 196.647C183.837 211.843 179.186 227.005 172.223 241.566" stroke="#E51B28" stroke-width="5" stroke-linecap="round"/>
<path d="M197.177 189.66C191.471 208.167 186.719 226.988 181.206 245.558" stroke="#E51B28" stroke-width="5" stroke-linecap="round"/>
<path d="M205.163 183.671C198.337 206.958 192.648 230.411 185.199 253.544" stroke="#E51B28" stroke-width="5" stroke-linecap="round"/>
<path d="M207.159 183.671C202.499 206.971 196.503 229.662 190.19 252.546" stroke="#E51B28" stroke-width="5" stroke-linecap="round"/>
<path d="M204.164 212.618C201.398 226.667 198.34 240.587 195.181 254.542" stroke="#E51B28" stroke-width="5" stroke-linecap="round"/>
<path d="M201.17 229.587C200.081 236.571 199.089 243.547 198.175 250.549" stroke="#E51B28" stroke-width="5" stroke-linecap="round"/>
<path d="M203.166 236.575C202.447 241.68 201.311 246.534 200.172 251.547" stroke="#E51B28" stroke-width="5" stroke-linecap="round"/>
<path d="M206.161 235.577C204.847 240.613 203.971 245.451 203.166 250.549" stroke="#E51B28" stroke-width="5" stroke-linecap="round"/>
<path d="M210.153 237.573V246.557" stroke="#E51B28" stroke-width="5" stroke-linecap="round"/>
<path d="M175.217 3C173.156 8.62959 171.295 14.0901 170.226 19.9691" stroke="#E51B28" stroke-width="5" stroke-linecap="round"/>
<path d="M180.208 4.99634C179.041 10.6968 177.35 16.2902 176.215 21.9654" stroke="#E51B28" stroke-width="5" stroke-linecap="round"/>
<path d="M186.197 3.99817C184.94 9.78167 183.28 15.4359 181.206 20.9673" stroke="#E51B28" stroke-width="5" stroke-linecap="round"/>
<path d="M192.186 4.99634C191.105 8.98196 190.319 13.029 189.192 16.9745" stroke="#E51B28" stroke-width="5" stroke-linecap="round"/>
<path d="M195.181 9.9873C194.06 12.9999 193.184 15.7522 193.184 18.9709" stroke="#E51B28" stroke-width="5" stroke-linecap="round"/>
<path d="M198.175 11.9836L199.173 18.9709" stroke="#E51B28" stroke-width="5" stroke-linecap="round"/>
</svg>
