<svg width="1425" height="1055" viewBox="0 0 1425 1055" fill="none" xmlns="http://www.w3.org/2000/svg">
<path d="M31.2687 255.133C47.2164 238.831 61.422 220.965 77.7396 205.002C100.333 182.9 125.821 164.255 151.051 145.333" stroke="#0B0C0B" stroke-width="5" stroke-linecap="round"/>
<path d="M1279.59 925.715C1258.1 933.361 1237.5 943.176 1215.83 950.355C1185.82 960.295 1154.74 965.857 1123.76 971.782" stroke="#0B0C0B" stroke-width="5" stroke-linecap="round"/>
<path d="M19.2905 283.082C73.7183 223.047 130.206 168.59 192.974 117.384" stroke="#0B0C0B" stroke-width="5" stroke-linecap="round"/>
<path d="M1302.62 905.862C1227.36 935.908 1152.7 960.037 1073.83 978.488" stroke="#0B0C0B" stroke-width="5" stroke-linecap="round"/>
<path d="M19.2905 307.039C66.4517 244.913 124.149 190.551 188.982 147.329" stroke="#0B0C0B" stroke-width="5" stroke-linecap="round"/>
<path d="M1313.14 884.337C1243.49 919.451 1167.79 942.964 1090.56 953.336" stroke="#0B0C0B" stroke-width="5" stroke-linecap="round"/>
<path d="M17.2942 336.984C60.0134 285.17 105.873 240.533 157.04 197.239" stroke="#0B0C0B" stroke-width="5" stroke-linecap="round"/>
<path d="M1328.08 858.308C1266.95 886.108 1206.15 906.08 1141.17 922.516" stroke="#0B0C0B" stroke-width="5" stroke-linecap="round"/>
<path d="M27.2759 354.951C63.0725 309.976 100.731 271.139 147.058 237.166" stroke="#0B0C0B" stroke-width="5" stroke-linecap="round"/>
<path d="M1327 837.783C1275.09 862.477 1224.2 880.839 1167.67 891.025" stroke="#0B0C0B" stroke-width="5" stroke-linecap="round"/>
<path d="M17.2942 388.89C61.0619 339.187 111.657 295.03 161.032 251.14" stroke="#0B0C0B" stroke-width="5" stroke-linecap="round"/>
<path d="M1350.87 811.672C1289.72 837.114 1224.88 854.577 1161.25 872.334" stroke="#0B0C0B" stroke-width="5" stroke-linecap="round"/>
<path d="M13.3014 414.842C35.7711 396.483 54.4215 374.884 74.5233 354.064C98.018 329.73 122.64 308.051 149.054 287.075" stroke="#0B0C0B" stroke-width="5" stroke-linecap="round"/>
<path d="M1365.85 790.107C1337.6 796.738 1311.36 807.957 1284.16 817.838C1252.36 829.387 1220.72 838.056 1187.78 845.306" stroke="#0B0C0B" stroke-width="5" stroke-linecap="round"/>
<path d="M7.31226 446.784C54.5955 386.138 112.507 340.398 171.014 291.068" stroke="#0B0C0B" stroke-width="5" stroke-linecap="round"/>
<path d="M1385.25 764.037C1316.14 797.768 1244.03 813.442 1169.81 832.078" stroke="#0B0C0B" stroke-width="5" stroke-linecap="round"/>
<path d="M3.31958 486.711C43.5705 431.712 90.5767 384.203 143.065 340.977" stroke="#0B0C0B" stroke-width="5" stroke-linecap="round"/>
<path d="M1406.37 729.916C1346.06 761.661 1282.96 783.711 1216.83 799.506" stroke="#0B0C0B" stroke-width="5" stroke-linecap="round"/>
<path d="M15.2977 500.686C45.8152 464.491 77.0912 431.031 115.116 402.864" stroke="#0B0C0B" stroke-width="5" stroke-linecap="round"/>
<path d="M1401.74 712.102C1358.43 731.225 1315.64 747.558 1269.11 756.171" stroke="#0B0C0B" stroke-width="5" stroke-linecap="round"/>
<path d="M15.2977 528.635C54.8715 485.318 95.848 441.097 145.061 408.853" stroke="#0B0C0B" stroke-width="5" stroke-linecap="round"/>
<path d="M1414.01 686.99C1359.44 708.536 1303.21 730.279 1244.83 737.644" stroke="#0B0C0B" stroke-width="5" stroke-linecap="round"/>
<path d="M33.265 534.624C53.51 511.94 72.5435 487.839 94.4869 466.748C116.891 445.214 140.268 430.027 167.021 414.842" stroke="#0B0C0B" stroke-width="5" stroke-linecap="round"/>
<path d="M1400.5 673.721C1372.35 685.214 1344.67 698.513 1315.69 707.829C1286.11 717.342 1258.44 720.724 1227.73 722.622" stroke="#0B0C0B" stroke-width="5" stroke-linecap="round"/>
<path d="M1199.14 123.373C1200.38 117.513 1202.05 113.372 1199.14 121.155C1190.61 144.018 1177.53 164.353 1165.2 185.26" stroke="#0B0C0B" stroke-width="5" stroke-linecap="round"/>
<path d="M1215.11 137.348C1196.22 165.472 1182.31 196.959 1167.2 227.184" stroke="#0B0C0B" stroke-width="5" stroke-linecap="round"/>
<path d="M1239.07 117.384C1213.03 163.282 1187.74 209.408 1165.2 257.129" stroke="#0B0C0B" stroke-width="5" stroke-linecap="round"/>
<path d="M1263.03 117.384C1232.1 171.508 1201.27 225.633 1169.2 279.089" stroke="#0B0C0B" stroke-width="5" stroke-linecap="round"/>
<path d="M1269.02 117.384C1247.7 156.705 1225.58 195.53 1203.25 234.282C1190.23 256.865 1176.63 278.791 1167.2 303.046" stroke="#0B0C0B" stroke-width="5" stroke-linecap="round"/>
<path d="M1292.97 117.384C1254.53 181.455 1212.87 243.37 1177.18 309.035" stroke="#0B0C0B" stroke-width="5" stroke-linecap="round"/>
<path d="M1265.02 169.289C1233.61 222.87 1202.11 276.332 1169.2 328.999" stroke="#0B0C0B" stroke-width="5" stroke-linecap="round"/>
<path d="M1308.94 137.348C1284.63 159.677 1270.86 191.597 1255.71 220.308C1232.35 264.558 1206.02 306.778 1179.18 348.962" stroke="#0B0C0B" stroke-width="5" stroke-linecap="round"/>
<path d="M1300.96 167.293C1258.66 227.131 1223 292.08 1189.16 356.948" stroke="#0B0C0B" stroke-width="5" stroke-linecap="round"/>
<path d="M1298.96 183.264C1281.71 202.048 1272.37 225.678 1261.03 248.257C1236.25 297.604 1211.33 346.328 1189.16 396.875" stroke="#0B0C0B" stroke-width="5" stroke-linecap="round"/>
<path d="M1296.96 209.217C1273.11 259.288 1247.6 308.23 1221.1 356.948" stroke="#0B0C0B" stroke-width="5" stroke-linecap="round"/>
<path d="M1314.93 215.206C1295.88 256.825 1271.9 296.226 1251.05 336.984" stroke="#0B0C0B" stroke-width="5" stroke-linecap="round"/>
<path d="M1290.98 277.093C1279.6 306.045 1268.13 334.735 1255.04 362.937" stroke="#0B0C0B" stroke-width="5" stroke-linecap="round"/>
<path d="M1284.99 327.002C1277.3 343.525 1270.14 360.149 1263.03 376.911" stroke="#0B0C0B" stroke-width="5" stroke-linecap="round"/>
<path d="M29.2722 119.38C29.9812 112.999 31.2894 132.069 31.934 138.457C35.858 177.34 39.7503 216.23 43.4686 255.133C47.3492 295.735 50.1308 336.159 51.2322 376.911" stroke="#0B0C0B" stroke-width="5" stroke-linecap="round"/>
<path d="M1221.78 1048.56C1218.35 1053.98 1225.54 1036.28 1227.77 1030.25C1241.31 993.596 1254.89 956.944 1268.63 920.359C1282.97 882.175 1298.21 844.634 1315.11 807.535" stroke="#0B0C0B" stroke-width="5" stroke-linecap="round"/>
<path d="M35.2615 133.355C35.2934 133.202 36.5083 121.885 38.3669 128.475C45.2667 152.938 47.4733 180.523 51.3433 205.446C59.4755 257.817 63.5482 310.858 73.1924 362.937" stroke="#0B0C0B" stroke-width="5" stroke-linecap="round"/>
<path d="M1222.54 1033.38C1222.44 1033.5 1216.38 1043.13 1217.61 1036.4C1222.15 1011.39 1232.27 985.636 1239.74 961.545C1255.42 910.92 1275.05 861.476 1289.25 810.45" stroke="#0B0C0B" stroke-width="5" stroke-linecap="round"/>
<path d="M47.2395 117.384C62.9211 193.178 79.0866 268.508 91.1595 344.97" stroke="#0B0C0B" stroke-width="5" stroke-linecap="round"/>
<path d="M1204.77 1042.47C1223.95 967.484 1242.5 892.705 1265.22 818.705" stroke="#0B0C0B" stroke-width="5" stroke-linecap="round"/>
<path d="M69.1996 115.388C69.1996 159.787 81.7974 204.631 87.8323 248.479C92.7944 284.531 99.4881 320.574 101.141 356.948" stroke="#0B0C0B" stroke-width="5" stroke-linecap="round"/>
<path d="M1184.16 1034.62C1203.65 994.729 1212.02 948.907 1225.85 906.861C1237.21 872.29 1247.02 836.968 1261.51 803.561" stroke="#0B0C0B" stroke-width="5" stroke-linecap="round"/>
<path d="M87.1669 127.366C98.3355 191.068 105.174 254.46 109.127 319.017" stroke="#0B0C0B" stroke-width="5" stroke-linecap="round"/>
<path d="M1173.27 1015.97C1191.2 953.832 1212.89 893.874 1237.68 834.136" stroke="#0B0C0B" stroke-width="5" stroke-linecap="round"/>
<path d="M101.141 117.384C107.793 185.227 114.748 253.74 125.098 321.013" stroke="#0B0C0B" stroke-width="5" stroke-linecap="round"/>
<path d="M1156.34 1018.8C1180.14 954.929 1203.97 890.318 1224.21 825.33" stroke="#0B0C0B" stroke-width="5" stroke-linecap="round"/>
<path d="M119.109 109.398C120.81 152.947 130.65 195.672 133.749 239.162C135.406 262.422 135.08 285.737 135.08 309.035" stroke="#0B0C0B" stroke-width="5" stroke-linecap="round"/>
<path d="M1136.69 1018.09C1154.28 978.217 1164.19 935.51 1180.5 895.074C1189.22 873.448 1199.75 852.643 1209.98 831.71" stroke="#0B0C0B" stroke-width="5" stroke-linecap="round"/>
<path d="M135.08 137.348C146.192 180.526 153.734 222.591 155.043 267.111" stroke="#0B0C0B" stroke-width="5" stroke-linecap="round"/>
<path d="M1134.61 985.968C1143.58 942.295 1155.27 901.189 1173.64 860.614" stroke="#0B0C0B" stroke-width="5" stroke-linecap="round"/>
<path d="M155.043 121.377C159.927 163.114 166.199 206.044 175.007 247.148" stroke="#0B0C0B" stroke-width="5" stroke-linecap="round"/>
<path d="M1109.66 991.553C1123.59 951.909 1136.81 910.584 1146.94 869.786" stroke="#0B0C0B" stroke-width="5" stroke-linecap="round"/>
<path d="M173.011 125.369C175.078 138.14 182.995 221.195 186.985 221.195" stroke="#0B0C0B" stroke-width="5" stroke-linecap="round"/>
<path d="M1095.27 980.078C1099.02 967.696 1128.37 889.597 1124.78 887.846" stroke="#0B0C0B" stroke-width="5" stroke-linecap="round"/>
<path d="M186.985 129.362C191.049 149.454 197.074 169.578 198.852 190.03C198.971 191.397 200.96 217.489 200.96 205.224" stroke="#0B0C0B" stroke-width="5" stroke-linecap="round"/>
<path d="M1084.47 970.356C1089.63 950.519 1093.06 929.793 1100.44 910.637C1100.93 909.357 1110.6 885.04 1105.21 896.06" stroke="#0B0C0B" stroke-width="5" stroke-linecap="round"/>
<path d="M198.963 135.351C202.953 152.638 207.952 169.55 213.603 186.369C215.884 193.157 216.154 196.185 218.927 189.253" stroke="#0B0C0B" stroke-width="5" stroke-linecap="round"/>
<path d="M1076.33 959.716C1080.34 942.433 1083.27 925.043 1085.58 907.45C1086.51 900.35 1087.59 897.511 1082.06 902.522" stroke="#0B0C0B" stroke-width="5" stroke-linecap="round"/>
<path d="M216.931 125.369C219.877 143.638 225.073 162.165 231.571 179.493C234.541 187.414 234.898 167.74 234.898 165.297" stroke="#0B0C0B" stroke-width="5" stroke-linecap="round"/>
<path d="M1055.81 960.797C1061.18 943.089 1064.65 924.161 1066.41 905.74C1067.22 897.32 1058.26 914.839 1057.19 917.035" stroke="#0B0C0B" stroke-width="5" stroke-linecap="round"/>
<path d="M236.894 121.377C239.469 134.891 247.627 147.358 248.762 160.971C249.501 169.842 250.382 161.209 250.869 157.311" stroke="#0B0C0B" stroke-width="5" stroke-linecap="round"/>
<path d="M1036.12 955.62C1039.74 942.347 1037.88 927.564 1042.84 914.835C1046.07 906.54 1041.49 913.91 1039.34 917.198" stroke="#0B0C0B" stroke-width="5" stroke-linecap="round"/>
<path d="M250.869 113.391C254.018 124.349 255.407 136.912 259.742 147.44C260.842 150.114 262.481 144.251 262.847 143.337" stroke="#0B0C0B" stroke-width="5" stroke-linecap="round"/>
<path d="M1020.06 956.659C1022.04 945.431 1026.3 933.534 1027.03 922.171C1027.22 919.286 1023.17 923.834 1022.44 924.495" stroke="#0B0C0B" stroke-width="5" stroke-linecap="round"/>
<path d="M264.843 117.384C265.503 120.829 271.827 157.326 274.825 145.333" stroke="#0B0C0B" stroke-width="5" stroke-linecap="round"/>
<path d="M1009.25 946.937C1010.17 943.551 1020.51 907.984 1012.55 917.443" stroke="#0B0C0B" stroke-width="5" stroke-linecap="round"/>
<path d="M276.822 125.369C278.799 133.047 280.212 150.53 286.803 137.348" stroke="#0B0C0B" stroke-width="5" stroke-linecap="round"/>
<path d="M1002 934.504C1003.59 926.737 1010 910.408 998.286 919.359" stroke="#0B0C0B" stroke-width="5" stroke-linecap="round"/>
<path d="M288.8 125.369C289.708 130.111 290.87 132.788 292.793 135.351" stroke="#0B0C0B" stroke-width="5" stroke-linecap="round"/>
<path d="M991.234 929.245C992.5 924.586 992.63 921.671 992.028 918.524" stroke="#0B0C0B" stroke-width="5" stroke-linecap="round"/>
<path d="M954.642 95.219C1009.34 160.361 1067.76 222.257 1123.06 286.904" stroke="#0B0C0B" stroke-width="5" stroke-linecap="round"/>
<path d="M975.994 97.7498C1003 132.36 1035.56 162.649 1064.81 195.341C1101.19 236.003 1137.92 276.123 1175.66 315.537" stroke="#0B0C0B" stroke-width="5" stroke-linecap="round"/>
<path d="M988.735 91.0471C1010.6 122.002 1037.8 147.873 1063.36 175.736C1107.98 224.382 1152.23 273.069 1197.81 320.776" stroke="#0B0C0B" stroke-width="5" stroke-linecap="round"/>
<path d="M1001.47 84.3442C1024.26 121.243 1057.46 148.991 1088.61 178.75C1137.94 225.876 1187.11 273.103 1237.16 319.467" stroke="#0B0C0B" stroke-width="5" stroke-linecap="round"/>
<path d="M1052.17 116.485C1112.12 170.896 1168.77 228.619 1225.82 286.018" stroke="#0B0C0B" stroke-width="5" stroke-linecap="round"/>
<path d="M1058.69 108.672C1135.3 170.337 1207.5 237.257 1279.69 303.976" stroke="#0B0C0B" stroke-width="5" stroke-linecap="round"/>
<path d="M935.622 43.5184L931.629 55.4966" stroke="#0B0C0B" stroke-width="5" stroke-linecap="round"/>
<path d="M1302.97 328.014L1311.59 337.248" stroke="#0B0C0B" stroke-width="5" stroke-linecap="round"/>
<path d="M1066.31 69.6302C1084.67 92.4169 1105.85 112.216 1126.95 132.441C1176.84 180.251 1226.89 227.848 1277.12 275.299" stroke="#0B0C0B" stroke-width="5" stroke-linecap="round"/>
<path d="M1087.17 60.5306C1168.3 133.423 1246.48 208.43 1324.13 284.977" stroke="#0B0C0B" stroke-width="5" stroke-linecap="round"/>
<path d="M1105.82 63.8603C1141.84 97.4464 1179.91 128.746 1217.08 161.042C1273.61 210.174 1329.42 260.189 1385.81 309.46" stroke="#0B0C0B" stroke-width="5" stroke-linecap="round"/>
<path d="M1102.58 3.00003C1177.86 74.0336 1248.62 150.064 1320.89 224.117" stroke="#0B0C0B" stroke-width="5" stroke-linecap="round"/>
<path d="M14.6463 894C11.8225 891.134 6.35205 885.741 3.31292 882.222C-3.2178 874.66 16.4239 897.317 22.5351 905.222C25.6508 909.252 37.2991 930.028 43.9796 931.778C49.6456 933.262 42.1077 920.04 39.5351 914.778C33.2846 901.993 25.4803 889.982 18.2018 877.778C17.037 875.825 15.4765 874.046 14.7574 871.889C12.5744 865.34 22.5435 883.291 26.424 889C26.9175 889.726 60.7063 935.471 47.3129 912.222C37.2107 894.686 26.3398 877.466 17.3129 859.333C16.1847 857.067 12.5399 853.627 14.6463 852.222C16.7382 850.828 18.3451 855.645 19.9796 857.556C24.2778 862.579 28.2463 867.876 32.424 873C47.5842 891.595 62.8511 910.285 79.5351 927.556C91.2098 939.641 90.0021 935.031 82.6463 922.889C68.2289 899.092 52.2936 876.171 36.424 853.333C32.1319 847.156 27.747 841.044 23.424 834.889C20.4132 830.602 9.85206 819.938 14.7574 821.778C20.9084 824.084 33.3361 844.741 36.2018 848.444C48.7563 864.668 61.1809 881.048 74.7574 896.444C82.6246 905.366 97.2825 924.576 110.424 926.667C114.137 927.257 108.72 919.207 106.757 916C99.3116 903.833 90.3908 892.658 81.7574 881.333C58.9565 851.426 35.5601 821.884 17.3129 788.889C16.3026 787.062 13.3505 781.585 14.6463 783.222C22.012 792.526 29.3306 801.809 36.424 811.333C53.0775 833.695 68.6013 857.13 86.7574 878.333C91.2588 883.59 111.17 908.533 121.98 907.111C123.597 906.898 122.855 903.717 122.202 902.222C118.403 893.525 98.1099 865.659 95.8685 862.444C77.5061 836.108 58.7649 809.917 41.7574 782.667C6.08511 725.51 126.254 887.633 168.646 940" stroke="#0B0C0B" stroke-width="5" stroke-linecap="round"/>
<path d="M48.6462 772C98.5674 824.276 135.588 890.235 172.646 952" stroke="#0B0C0B" stroke-width="5" stroke-linecap="round"/>
<path d="M64.6462 742C89.6659 782.208 136.921 858.812 164.868 901.556C368.45 1212.92 108.419 816.081 200.646 950" stroke="#0B0C0B" stroke-width="5" stroke-linecap="round"/>
<path d="M90.6462 762C115.473 807.834 141.425 852.933 172.202 895.111C182.513 909.243 193.382 922.631 206.646 934" stroke="#0B0C0B" stroke-width="5" stroke-linecap="round"/>
<path d="M110.646 764C142.423 822.943 175.861 879.491 214.646 934" stroke="#0B0C0B" stroke-width="5" stroke-linecap="round"/>
<path d="M138.646 768C161.802 811.978 186.128 855.289 209.98 898.889C211.664 901.967 219.534 917.127 223.424 922.111C227.306 927.084 226.18 919.633 226.646 918" stroke="#0B0C0B" stroke-width="5" stroke-linecap="round"/>
<path d="M168.646 798C191.414 845.536 213.029 896.913 246.646 938" stroke="#0B0C0B" stroke-width="5" stroke-linecap="round"/>
<path d="M210.646 830C218.638 852.502 228.614 872.73 241.757 892.667C246.858 900.404 252.536 907.78 256.646 916" stroke="#0B0C0B" stroke-width="5" stroke-linecap="round"/>
<path d="M220.646 826C237.062 855.66 252.317 885.985 268.868 915.556C274.706 925.985 277.332 931.144 278.646 918" stroke="#0B0C0B" stroke-width="5" stroke-linecap="round"/>
<path d="M258.646 864C260.872 869.657 287.667 918.491 293.535 910.667C295.678 907.81 282.618 878.278 283.868 878.556C289.665 879.844 299.511 907.729 302.646 914" stroke="#0B0C0B" stroke-width="5" stroke-linecap="round"/>
</svg>
