<?xml version="1.0" encoding="UTF-8"?>
<svg width="704px" height="738px" viewBox="0 0 704 738" version="1.1" xmlns="http://www.w3.org/2000/svg" xmlns:xlink="http://www.w3.org/1999/xlink">
    <!-- Generator: Sketch 63.1 (92452) - https://sketch.com -->
    <title>Group</title>
    <desc>Created with Sketch.</desc>
    <g id="Page-1" stroke="none" stroke-width="1" fill="none" fill-rule="evenodd">
        <g id="Group" fill="#000000" fill-rule="nonzero">
            <path d="M703.106202,390.194983 C703.106202,382.985631 703.106202,375.776279 702.098073,369.864611 C702.098073,366.98087 702.098073,363.952942 701.089945,361.069202 L701.089945,359.338957 C701.089945,356.455216 700.225835,353.427289 699.649761,350.543548 C698.593627,344.199318 697.44148,337.855089 696.193321,331.510859 C695.041174,325.887564 693.600991,319.254961 691.728752,312.622357 L691.728752,310.892113 C690.14455,305.413005 688.560349,299.645524 686.544092,294.310603 C681.902757,281.416123 676.516996,268.802532 670.414037,256.533599 C667.589398,250.75083 664.464737,245.119851 661.052844,239.663716 C657.433957,233.835447 653.441057,228.248472 649.099321,222.93802 C645.111705,217.841939 640.781076,213.024494 636.13767,208.519316 C631.817119,204.193705 627.064514,200.300655 621.735835,195.975044 L606.037835,183.719146 L605.173725,183.719146 L601.573266,180.979592 L588.611615,170.886499 L573.201651,159.495723 C567.872972,155.602673 562.256257,152.142184 556.78356,148.681695 C551.310862,145.221207 544.974055,141.616531 539.645376,138.876977 C534.316697,136.137423 529.132037,133.253682 522.507193,130.081568 L512.137872,125.323395 L512.137872,125.323395 L513.434037,124.025712 C515.44204,121.946022 517.557191,119.972777 519.770844,118.114044 L519.770844,118.114044 L522.507193,115.807051 L526.25167,112.92331 C527.825044,111.688551 529.459306,110.533603 531.148294,109.462821 L532.30044,108.741886 L534.172679,107.444203 L538.205193,104.993023 L540.22145,103.983714 L540.22145,103.983714 L543.101817,102.397656 L544.397982,102.397656 L546.27022,101.388347 L549.438624,100.090664 L557.791688,97.3511101 L564.272514,95.9092397 L566.288771,95.9092397 L567.008862,95.9092397 L568.016991,95.9092397 C568.586376,95.921181 569.125085,95.6515109 569.457174,95.1883046 C569.817431,94.721134 569.817431,94.0694177 569.457174,93.6022471 C569.457174,92.7371249 568.161009,92.5929379 567.296899,92.4487508 L566.000734,92.4487508 L564.992606,92.4487508 L559.231872,92.4487508 L557.215615,92.4487508 L554.911321,92.4487508 L553.327119,92.4487508 L551.742917,92.4487508 L550.302734,92.4487508 L549.150587,92.4487508 L547.854422,92.4487508 L546.414239,92.4487508 L542.81378,93.7464342 L542.957798,94.4673694 L539.933413,95.7650527 L538.493229,95.7650527 L535.468844,97.3511101 L534.172679,98.0720453 L533.020532,98.7929805 L531.580349,98.7929805 C528.951731,100.133701 526.403115,101.626147 523.947376,103.262779 C521.067009,105.281397 518.330661,107.155829 515.594312,109.318634 C512.857963,111.48144 510.121615,113.355871 507.529284,115.662864 L502.344624,120.132662 C497.448,118.114044 491.831284,115.807051 485.926532,113.932619 C473.727916,109.556613 461.208822,106.133933 448.481761,103.69534 C445.169339,102.974405 441.712899,102.397656 438.256459,101.965095 C434.800018,101.532534 431.631615,100.955786 428.175174,100.667412 C424.718734,100.379038 421.982385,100.667412 418.958,100.667412 L418.09389,100.667412 L410.460917,100.667412 L408.876716,100.667412 L397.067211,100.667412 L397.067211,100.667412 C399.659541,94.8999305 402.683927,88.9882619 405.85233,82.9324064 C409.020734,76.8765508 411.757083,72.4067526 414.925486,67.0718322 C418.09389,61.7369119 421.262294,56.6903656 425.150789,50.9228841 L434.944037,36.5041803 L442.144954,27.9971451 C443.441119,26.4110877 444.881303,24.9692173 446.321486,23.5273469 L450.065963,20.2110451 C451.620368,18.9249029 453.310635,17.8128549 455.106606,16.8947432 C456.694431,15.9916806 458.328929,15.173474 460.003229,14.4435636 L463.315651,13.2900673 L466.340037,13.2900673 L467.204147,13.2900673 L470.948624,11.1272617 L472.676844,11.1272617 L474.261046,11.1272617 L476.997394,11.1272617 C477.360336,11.3075421 477.7866,11.3075421 478.149541,11.1272617 C478.561828,11.3123152 479.03342,11.3123152 479.445706,11.1272617 C479.816144,11.272035 480.227416,11.272035 480.597853,11.1272617 C481.164952,10.51811 481.164952,9.57360789 480.597853,8.96445616 C477.397228,5.79961582 473.500676,3.42931724 469.220404,2.04347836 C465.754125,0.81734727 462.094384,0.231102844 458.419028,0.313233909 L458.419028,0.313233909 C453.820297,0.482327107 449.286921,1.45838855 445.025321,3.19697466 C440.661707,4.93126831 436.583551,7.31297953 432.92778,10.2621395 L429.327321,13.0016932 L425.582844,16.4621821 C420.937282,21.0085348 416.561256,25.8229878 412.477174,30.8808858 C408.732697,35.494871 404.700183,40.6856044 400.235615,46.5972729 C393.898807,55.1043081 387.706018,63.7555304 382.089303,71.9741915 L380.505101,74.4253712 L373.736239,83.9417156 C370.855872,87.9789527 367.975505,92.0161897 364.807101,95.9092397 L354.005725,110.327943 L349.541156,111.48144 L340.756037,114.220993 L339.315853,114.220993 L331.538862,116.960547 L330.386716,116.960547 C327.074294,118.402418 323.473835,119.844288 320.305431,121.574532 L318.865248,121.574532 C318.726489,120.425219 318.726489,119.263357 318.865248,118.114044 C319.729358,112.346562 320.881505,106.434893 322.17767,100.667412 C323.451052,95.3866478 325.038075,90.1866713 326.930275,85.0952119 L329.810642,79.1835434 C331.990188,75.0475159 333.867348,70.7587245 335.427358,66.3508971 L335.427358,65.0532137 C336.291468,63.3229693 337.155578,61.7369119 338.019688,59.8624804 C338.883798,57.9880489 339.027817,57.4113007 339.459872,56.1136174 C339.891927,54.8159341 341.33211,53.0856896 341.33211,51.2112581 C341.40272,49.9145376 341.40272,48.6149287 341.33211,47.3182081 C341.588222,45.5008387 341.588222,43.6564701 341.33211,41.8391007 C340.971164,40.6041873 340.330464,39.4693138 339.459872,38.5227988 C338.876183,37.8501696 338.196823,37.2671786 337.443615,36.7925544 L337.443615,36.7925544 L337.443615,36.7925544 L334.419229,34.9181229 C331.776185,33.5542478 329.031635,32.3972942 326.210183,31.457634 L319.297303,29.2948284 L317.569083,29.2948284 L311.376294,27.564584 L308.351908,26.5552747 L307.199761,26.5552747 C307.309537,26.2278139 307.309537,25.8734263 307.199761,25.5459655 C306.866956,25.479917 306.524438,25.479917 306.191633,25.5459655 L305.327523,25.5459655 L304.463413,25.5459655 L302.879211,25.5459655 C302.410007,25.4014087 301.908232,25.4014087 301.439028,25.5459655 C300.39287,26.3698065 299.59525,27.467819 299.134734,28.7180803 C297.982587,31.313447 297.118477,33.3320655 296.110349,35.350684 L292.077835,44.4344674 C289.629523,49.4810137 287.037193,54.52756 283.580752,60.5834156 C280.124312,66.6392711 278.252073,69.6671989 275.371706,73.99281 L273.931523,76.4439897 L269.034899,84.0859027 L267.162661,87.1138305 L264.426312,91.2952545 L260.681835,96.918549 L260.681835,96.918549 L259.673706,95.3324916 L259.673706,94.6115564 C258.823419,93.515089 258.053319,92.3585858 257.369413,91.1510675 C254.489046,86.5370823 251.608679,81.634723 248.296257,75.5788675 L246.568037,72.4067526 L243.68767,67.2160193 L239.079083,59.7182933 C235.517789,54.3356513 231.62159,49.182791 227.413596,44.2902803 C222.682015,38.3083404 217.428674,32.7593332 211.715596,27.708771 C207.161032,23.7868345 202.349694,20.1741045 197.313761,16.8947432 C192.112541,13.59072 186.55699,10.8822393 180.751651,8.82026912 C174.905008,6.48301532 168.886219,4.60295388 162.749358,3.19697466 L154.108257,1.61091725 L152.380037,1.61091725 C149.49967,1.61091725 146.907339,1.61091725 144.603046,1.61091725 L144.603046,1.61091725 C142.300972,1.46771011 139.992239,1.46771011 137.690165,1.61091725 C132.508576,2.18326676 127.363637,3.04978425 122.280202,4.20628392 L121.272073,4.20628392 L117.527596,4.20628392 C117.202528,4.08468561 116.844536,4.08468561 116.519468,4.20628392 C116.376808,4.62705503 116.376808,5.08319615 116.519468,5.50396726 C116.713618,6.09337603 117.208212,6.53352956 117.815633,6.65746356 C118.142711,6.76736738 118.496684,6.76736738 118.823761,6.65746356 C120.000814,6.2433142 121.2035,5.90616766 122.42422,5.64815429 L125.160569,5.64815429 L129.625138,5.64815429 C132.443337,6.11080955 135.232372,6.73667031 137.978202,7.52258578 L146.763321,10.6947006 L152.95611,13.4342543 L158.428807,16.4621821 C160.733101,17.7598654 162.461321,18.9133617 164.189541,20.066858 L167.069908,22.0854766 L168.222055,22.9505988 L169.950275,24.3924692 L174.990917,28.5738932 L179.887541,33.3320655 C181.471743,35.0623099 183.055945,36.7925544 184.496128,38.6669859 L188.672661,43.5693451 L190.400881,46.0205248 L191.264991,47.1740211 C192.129101,48.3275174 192.849193,49.4810137 193.569284,50.63451 C194.289376,51.7880063 196.305633,54.9601211 197.601798,57.2671137 C200.649755,62.3611569 203.437691,67.6066906 205.954862,72.9835008 C208.115138,77.3091119 209.987376,81.634723 211.859615,85.9603342 L211.859615,87.5463916 L215.604092,96.4859879 L218.484459,103.262779 C222.805009,113.644245 227.12556,124.60246 232.166202,138.011855 L233.17433,140.751408 L234.182459,143.490962 L233.462367,143.490962 C232.263516,143.411826 231.06076,143.411826 229.861908,143.490962 L227.701633,143.490962 C225.13014,143.436845 222.562992,143.727806 220.068661,144.356084 C218.484459,144.356084 216.900257,145.221207 215.316055,145.653768 L212.29167,145.653768 C205.378789,145.653768 199.330018,147.239825 192.705174,148.249134 C186.08033,149.258444 180.89567,150.41194 174.414844,151.85381 C167.934018,153.295681 162.173284,154.737551 155.692459,156.75617 C149.211633,158.774788 145.179119,160.216658 139.85044,162.235277 L137.546147,161.370155 L134.66578,160.216658 L121.272073,155.170112 L121.272073,155.170112 L121.272073,155.170112 L121.272073,155.170112 L110.902752,152.142184 C108.022385,150.700314 104.998,149.258444 102.117633,147.528199 C99.2372661,145.797955 95.924844,143.779336 93.3325138,142.049092 L84.5473945,135.560675 L77.2024587,129.937381 C74.7617176,128.014955 72.2132388,126.233745 69.5694862,124.60246 C66.6891193,122.872216 64.096789,121.286158 61.216422,119.844288 C59.3591986,118.965154 57.4323503,118.24174 55.4556881,117.681482 L53.5834495,117.681482 L50.9911193,117.681482 C50.1535819,117.829013 49.3634762,118.175089 48.6868257,118.690792 C47.9753499,118.817331 47.348919,119.235441 46.9586055,119.844288 C46.7527943,120.201181 46.7527943,120.640891 46.9586055,120.997784 C46.9526505,121.424503 47.2583912,121.791821 47.6786972,121.862906 C47.6786972,121.862906 48.398789,121.862906 48.6868257,121.862906 C49.6787295,122.239714 50.6028879,122.775379 51.4231743,123.448964 L57.904,129.937381 C60.0642752,132.38856 62.0805321,134.695553 63.9527706,137.146732 C68.1293028,142.481653 71.7297615,147.528199 74.8981651,152.430558 C76.6263853,154.881738 78.2105872,157.477105 79.794789,159.928284 C81.3789908,162.379464 83.2512294,165.407392 85.1234679,168.002758 C86.9957064,170.598125 88.7239266,173.193492 90.7401835,175.788858 C92.7564404,178.384225 94.7726972,180.691218 97.0769908,183.142397 L98.9492294,184.872642 L98.9492294,184.872642 L95.924844,187.179634 L88.1478532,193.379677 C83.3952477,197.561101 78.9306789,202.030899 74.7541468,206.212323 C70.5776147,210.393747 66.4010826,215.728668 62.5125872,220.631027 L58.4800734,225.533386 C55.7437248,228.705501 53.1513945,231.877616 50.5590642,235.193918 C47.9667339,238.51022 46.0944954,240.961399 43.9342202,243.989327 C41.773945,247.017255 40.4777798,249.468435 38.7495596,252.352175 C37.0213394,255.235916 36.013211,257.687096 34.7170459,260.282462 C33.4208807,262.877829 31.9806972,266.049944 30.8285505,268.933685 C28.0922018,275.422101 25.4998716,281.910518 23.0515596,288.543122 C20.6032477,295.175725 18.7310092,300.078085 16.7147523,305.989753 L13.2583119,316.515407 C12.2501835,319.399148 11.242055,322.282889 10.377945,325.166629 C8.36168807,331.078298 6.48944954,337.27834 4.90524771,343.62257 C4.09734356,346.609587 3.47210399,349.643144 3.03300917,352.706353 C3.03300917,356.166842 1.88086239,359.771518 1.59282569,363.376194 C1.30478899,366.98087 0.584697248,375.920466 0.440678899,383.129818 C0.29666055,390.33917 0.440678899,395.674091 0.440678899,403.316004 C0.648488712,415.748719 1.46557536,428.163735 2.88899083,440.516259 C3.75310092,447.29305 4.61721101,454.069841 5.7693578,460.702444 C6.92150459,467.335048 7.92963303,473.679278 9.36981651,480.456069 C10.81,487.232859 12.3942018,493.432902 13.9784037,499.056196 C15.5626055,504.679491 17.434844,511.456282 19.3070826,516.791202 C21.8994128,524.288928 24.3477248,530.344784 26.6520183,535.823891 C28.9563119,541.302998 31.6926606,547.647228 34.7170459,553.991458 C37.7414312,560.335687 40.6217982,565.958982 43.3581468,570.861341 C46.0944954,575.7637 49.6949541,582.396304 53.0073761,587.731224 C56.3197982,593.066145 59.9202569,598.401065 63.9527706,604.02436 C67.9852844,609.647654 72.0177982,614.838388 76.3383486,620.173308 C80.6588991,625.508228 81.9550642,626.950099 84.9794495,630.266401 C88.0038349,633.582702 91.1722385,637.043191 94.4846606,640.359493 C100.618225,646.294093 107.163389,651.786907 114.071156,656.796815 L114.071156,656.796815 L114.935266,656.796815 L116.087413,657.661938 L116.951523,658.382873 C124.728514,664.294541 132.07345,669.629462 139.562404,674.676008 C143.738936,677.415562 148.203505,680.010928 152.092,682.173734 L154.252275,683.32723 L155.404422,683.32723 L157.564697,684.480727 L161.597211,686.355158 L167.934018,688.950525 L168.798128,688.950525 L169.662239,688.950525 L172.974661,691.257517 L178.303339,694.718006 L180.89567,696.304064 L182.911927,700.052927 C184.888845,701.48493 186.957559,702.785412 189.104716,703.945977 C193.713303,706.68553 198.753945,708.992523 203.50655,711.299516 L205.378789,712.164638 C208.524618,713.673596 211.745203,715.021089 215.028018,716.201875 L224.245193,719.37399 L232.742275,721.969356 C241.763946,724.943467 250.948105,727.398654 260.24978,729.322895 C266.672193,730.67774 273.162247,731.688486 279.692257,732.350823 C284.732899,732.350823 290.061578,733.215945 295.678294,733.360132 L297.406514,733.360132 C298.480018,734.011377 299.645173,734.497427 300.862954,734.802003 L305.61556,735.811312 C308.927982,735.811312 312.240404,736.676434 315.552826,736.964808 C321.738085,737.397194 327.945933,737.397194 334.131193,736.964808 C340.756037,736.964808 347.380881,735.811312 354.005725,735.090377 L358.182257,735.090377 L360.342532,735.090377 C366.823358,735.090377 373.448202,735.090377 379.929028,735.090377 C386.409853,735.090377 391.88255,734.225255 397.787303,733.504319 C404.299355,732.319832 410.741802,730.779535 417.085761,728.890334 C423.710606,727.448464 430.33545,725.574032 436.960294,723.555414 L441.280844,723.555414 C447.617651,722.690292 454.530532,721.825169 461.299394,720.527486 C467.620151,718.925939 473.8268,716.902803 479.877761,714.47163 C485.916085,712.1922 491.829172,709.59317 497.592018,706.68553 C502.920697,704.090164 507.961339,701.206423 513.578055,698.034308 C519.194771,694.862193 527.97989,688.806338 535.900899,683.615604 L545.694147,677.415562 L554.479266,671.792267 L561.248128,667.610843 C566.772484,664.113016 572.064278,660.259931 577.090147,656.07588 C579.448506,654.174618 581.70777,652.153336 583.859009,650.020025 C584.887715,649.181952 585.850664,648.266078 586.739376,647.280471 L589.619743,645.261852 L593.220202,642.666486 L596.676642,640.071119 C600.421119,637.331565 604.309615,634.592012 607.910073,631.419897 L612.662679,627.094286 L615.110991,624.93148 L619.57556,620.894243 L623.032,618.010502 C625.480312,615.70351 627.784606,613.396517 630.088899,610.80115 C632.393193,608.205784 634.553468,605.322043 636.857761,602.438302 L636.857761,602.438302 L636.857761,602.438302 L636.857761,602.438302 L636.857761,602.438302 L636.857761,602.438302 L636.857761,602.438302 L636.857761,602.438302 L636.857761,601.57318 L638.009908,600.275497 L639.882147,597.68013 L643.914661,592.777771 L648.379229,587.298663 L653.419872,581.242808 L657.308367,576.340449 C658.316495,575.042765 659.180606,573.600895 660.044716,572.303211 L660.044716,571.438089 L662.637046,567.256665 L662.637046,566.247356 L663.501156,564.805486 C663.501156,564.805486 663.501156,563.796176 663.501156,563.219428 L663.501156,563.219428 L663.501156,563.219428 L664.365266,561.633371 C666.237505,557.740321 667.965725,553.847271 669.693945,549.954221 L671.85422,545.340235 C674.44655,539.572754 676.894862,533.94946 679.343174,528.181978 C681.842097,522.3017 684.005848,516.284241 685.824,510.158598 C687.696239,503.958556 689.136422,497.614326 690.432587,491.270096 C691.728752,484.925867 692.448844,479.87932 693.456972,474.256026 L693.456972,472.09322 C695.473229,459.837322 697.057431,446.860489 698.209578,433.451094 C698.209578,427.8278 698.209578,421.771944 699.073688,414.850967 L699.073688,406.199744 L699.073688,400.288076 L699.073688,390.915918 L703.106202,390.194983 Z M464.611817,166.560888 C460.867339,169.300442 456.978844,172.184183 452.658294,174.779549 C448.337743,177.374916 444.017193,179.537721 439.984679,181.412153 L435.664128,182.99821 L430.623486,184.440081 L423.854624,185.881951 L420.974257,185.881951 L412.477174,187.756383 L403.404018,190.207562 C397.931321,191.649433 391.88255,193.379677 385.977798,195.398296 C382.956487,196.299651 380.017464,197.457342 377.192679,198.858784 C374.744367,200.012281 371.864,201.454151 369.127651,203.040209 C366.391303,204.626266 361.782716,208.086755 358.75833,210.393747 L354.005725,214.14261 C353.26619,214.69051 352.589933,215.319199 351.989468,216.017042 L350.549284,217.603099 C349.350211,217.554108 348.173878,217.25968 347.092844,216.737977 C344.490571,215.694306 341.788022,214.921244 339.027817,214.430985 L334.131193,214.430985 L329.378587,214.430985 L325.922147,214.430985 L324.625982,214.430985 L321.601596,214.430985 L321.601596,214.430985 L323.04178,213.565862 L323.90589,213.565862 C325.048482,212.667112 326.251475,211.848119 327.506349,211.114683 L329.666624,211.114683 L331.394844,211.114683 C332.913644,210.932283 334.409695,210.594069 335.859413,210.105373 C338.82173,209.17472 341.671578,207.917384 344.356495,206.35651 L351.557413,202.319273 L353.141615,201.309964 C355.018647,200.375821 356.802876,199.265407 358.470294,197.993662 L360.48655,196.695979 L360.48655,195.975044 C361.431531,194.811955 362.493226,193.749016 363.654954,192.802929 L364.375046,192.081994 L365.671211,191.216871 L366.967376,190.063375 L369.27167,188.477318 L369.991761,188.477318 L371.287927,187.756383 L374.45633,186.026138 C374.969292,185.625704 375.556801,185.331606 376.18455,185.161016 L376.18455,185.161016 L379.208936,183.142397 L387.562,178.528412 L396.635156,173.77024 C399.083468,172.472557 401.675798,171.31906 404.412147,170.165564 L404.412147,170.165564 L413.341284,166.560888 L422.846495,163.821334 L426.734991,162.812025 L431.19956,161.658529 C434.367963,160.937594 437.392349,159.928284 440.416734,158.918975 C446.440919,156.98633 452.354571,154.723995 458.130991,152.142184 C463.603688,149.546818 468.788349,146.807264 473.973009,144.06771 C481.445365,140.077878 488.617281,135.548014 495.431743,130.514129 L496.871927,129.504819 L498.600147,130.225755 L498.600147,130.225755 L498.600147,130.225755 L497.592018,131.523438 L491.111193,140.030473 C487.396798,145.095484 483.355669,149.911987 479.013651,154.449177 C476.853376,156.611983 474.549083,158.918975 472.100771,160.937594 C469.652459,162.956212 466.91611,165.263205 464.611817,166.560888 Z M373.016147,175.356297 L373.016147,175.356297 L373.016147,175.356297 L373.016147,175.356297 C373.016147,171.030686 374.45633,166.416701 375.464459,160.937594 C376.472587,155.458486 377.768752,150.844501 379.064917,146.51889 C380.404196,141.635175 381.990442,136.822737 383.817523,132.100186 C385.689761,127.197827 387.562,122.439655 389.578257,117.681482 C389.640704,117.396497 389.640704,117.101346 389.578257,116.81636 L392.458624,110.472131 L404.556165,110.472131 L415.357541,110.472131 L419.966128,110.472131 L425.582844,110.472131 L427.743119,110.472131 L433.359835,111.193066 L435.952165,111.193066 L441.712899,112.202375 L451.506147,114.076806 C456.834826,115.230303 462.451541,116.672173 469.220404,118.546605 C475.989266,120.421036 480.165798,121.862906 485.350459,123.737338 L490.391101,125.611769 L493.559505,126.765266 L490.535119,128.928071 C485.638495,132.100186 480.453835,135.272301 475.125156,138.156042 L462.883596,144.788645 C458.707064,146.807264 454.386514,148.825882 449.921945,150.700314 C445.924694,152.327461 441.837452,153.723565 437.680385,154.881738 C434.223945,155.74686 430.911523,156.467795 427.455083,157.044544 L424.430697,157.765479 C415.659197,159.829479 407.118664,162.776274 398.93945,166.560888 L396.491138,167.570197 C391.026991,169.88453 385.733119,172.582748 380.649119,175.644671 C381.801266,174.058614 383.097431,172.472557 384.249578,170.742312 L384.249578,170.742312 L384.249578,170.742312 L385.257706,169.444629 L385.257706,169.444629 L387.417982,166.560888 L390.730404,162.667838 L392.890679,160.360845 C395.627028,157.477105 398.507394,154.593364 401.387761,151.85381 L405.564294,147.672386 L408.732697,144.788645 L409.596807,143.923523 L410.604936,143.058401 L417.373798,137.002545 C417.855536,136.548547 418.004748,135.842639 417.748013,135.232179 C417.491277,134.621718 416.882663,134.235269 416.221651,134.262992 C415.84715,134.141743 415.444006,134.141743 415.069505,134.262992 C412.909229,136.425797 410.460917,138.588603 408.156624,140.607221 L405.564294,143.058401 L401.099725,146.807264 L399.515523,147.96076 L398.075339,149.114257 L394.042826,152.574745 C390.377066,155.562103 386.913039,158.789349 383.673505,162.235277 C380.543648,165.519686 377.610173,168.986204 374.888385,172.616744 L374.888385,172.616744 L374.888385,172.616744 L374.888385,172.616744 L374.888385,172.616744 L373.880257,174.058614 L373.016147,175.356297 Z M341.33211,124.314086 C337.443615,129.216445 333.699138,134.118805 329.954661,138.73279 C328.381822,140.854142 326.938988,143.069079 325.63411,145.365394 C324.914018,146.51889 324.337945,147.816573 323.761872,148.97007 C323.372128,149.696939 323.081501,150.472851 322.897761,151.277062 L322.897761,150.267753 L322.897761,150.267753 L322.897761,149.402631 L322.033651,146.51889 C322.033651,143.202588 320.737486,139.886286 320.161413,136.714171 C320.161413,135.993236 320.161413,135.128114 320.161413,134.262992 L320.161413,133.397869 L320.161413,133.397869 L322.17767,130.658316 C323.420028,129.07864 324.819382,127.629337 326.354202,126.332705 L326.354202,126.332705 L326.354202,126.332705 C327.42574,125.44904 328.583776,124.676111 329.810642,124.025712 L344.212477,119.844288 L344.212477,119.844288 L341.33211,124.314086 Z M301.871083,27.564584 L301.871083,27.564584 L301.871083,27.564584 L302.591174,27.564584 L303.599303,27.564584 L304.319394,27.564584 L307.199761,28.7180803 L308.495927,28.7180803 L310.656202,29.5832025 L311.952367,29.5832025 L314.256661,30.4483247 L316.560954,30.4483247 L320.593468,31.8901951 C324.337945,33.1878784 328.22644,34.3413747 331.826899,35.9274322 L333.843156,36.9367414 L333.843156,36.9367414 C333.785802,37.4156498 333.785802,37.8997034 333.843156,38.3786118 C333.95901,38.9109422 334.339661,39.3464816 334.851284,39.5321081 C334.851284,41.4065396 334.851284,43.2809711 334.851284,45.1554026 L331.106807,45.1554026 C328.447008,44.7044868 325.840847,43.9797053 323.329817,42.992597 C321.590849,42.1921974 319.906926,41.2769969 318.289174,40.2530433 L312.960495,37.0809285 L311.66433,36.0716192 L307.487798,33.3320655 L302.159119,29.7273895 L300.574917,28.2855192 C300.574917,28.2855192 300.574917,28.2855192 300.574917,27.564584 C300.512481,27.2310512 300.512481,26.8888076 300.574917,26.5552747 C300.574917,26.5552747 301.727064,27.8529581 301.871083,27.564584 Z M229.861908,114.941929 C227.413596,108.886073 224.965284,102.974405 222.228936,96.918549 C219.492587,90.8626934 217.188294,85.239399 214.451945,79.4719175 C211.715596,73.704436 208.979248,67.7927674 205.954862,62.4578471 L205.954862,62.4578471 C204.514679,59.8624804 202.930477,57.1229267 201.346275,54.671747 L198.609927,50.4903229 L196.59367,47.7507692 L195.72956,46.5972729 L193.137229,43.4251581 L192.417138,42.4158488 L190.256862,39.9646692 L189.104716,38.6669859 C187.520514,36.7925544 185.792294,35.0623099 184.064073,33.3320655 L182.911927,31.0250729 L180.751651,29.0064544 L179.455486,27.9971451 C179.142037,27.5875946 178.750399,27.24451 178.303339,26.9878358 L178.303339,26.9878358 L176.143064,25.1134044 C173.694752,23.2389729 171.102422,21.2203543 168.510092,19.4901099 C165.917761,17.7598654 160.301046,14.4435636 156.700587,12.5691321 C152.605486,10.5778202 148.369496,8.89107847 144.026972,7.52258578 L139.85044,6.22490244 L144.170991,6.22490244 C146.520761,6.07046159 148.878119,6.07046159 151.22789,6.22490244 C161.103023,7.81805812 170.765938,10.5268436 180.03156,14.2993765 C184.35211,16.3179951 187.952569,18.0482395 191.120972,19.922671 C194.70501,22.1364056 198.16653,24.5430548 201.490294,27.1320229 C205.045793,30.1925103 208.457879,33.4161377 211.715596,36.7925544 C215.394966,40.4903825 218.811723,44.4411185 221.940899,48.6158915 C223.701743,50.8289064 225.336546,53.1395666 226.837523,55.5368693 C228.277706,57.6996748 229.573872,59.8624804 230.870037,62.0252859 L230.870037,62.7462211 L236.486752,73.1276878 L239.079083,78.0300471 C241.671413,82.9324064 244.55178,87.8347656 247.432147,92.4487508 L249.448404,95.4766786 L249.448404,96.1976138 L251.176624,98.7929805 C251.204091,99.1769876 251.204091,99.5624697 251.176624,99.9464768 L251.176624,101.24416 L249.880459,105.425584 C248.728312,108.597699 247.720183,111.769814 246.712055,115.086116 C246.272661,116.787669 245.983512,118.524598 245.847945,120.276849 C245.847945,121.286158 245.847945,122.295468 245.847945,123.304777 C245.779243,124.409141 245.779243,125.516715 245.847945,126.621079 C245.847945,129.216445 245.847945,131.667625 245.847945,134.262992 L246.712055,142.914214 C246.712055,145.07702 246.712055,147.095638 247.432147,149.258444 C248.152239,151.421249 247.432147,154.160803 247.432147,156.611983 C247.432147,159.063162 247.432147,160.64922 247.432147,162.667838 C244.983835,157.909666 242.679541,153.007307 240.951321,148.249134 C239.223101,143.490962 240.519266,141.760718 239.079083,137.723481 L237.206844,132.821121 C234.90255,127.05364 232.454239,120.997784 230.005927,114.941929 L229.861908,114.941929 Z M168.510092,162.523651 L175.278954,161.081781 L177.583248,161.081781 L181.327725,160.216658 L186.656404,158.918975 L205.234771,155.170112 L213.15578,153.728242 L217.764367,153.728242 C220.521765,154.160542 223.225348,154.885564 225.829394,155.891047 L229.429853,157.621292 L231.44611,158.918975 L233.030312,159.784097 L239.079083,163.677147 L240.519266,166.560888 L240.519266,168.002758 L240.519266,168.867881 C241.104741,170.162288 241.778415,171.414863 242.535523,172.616744 L244.55178,175.21211 L245.991963,176.077233 L247.14411,176.798168 L249.448404,180.258657 L250.168495,181.267966 C250.602572,181.926877 251.083901,182.553337 251.608679,183.142397 L252.616807,184.584268 L253.768954,186.026138 L253.768954,186.026138 L253.768954,186.89126 L253.768954,187.756383 C253.768954,187.756383 253.768954,188.909879 253.768954,189.34244 C253.768954,189.775001 254.489046,190.640123 254.777083,191.216871 L255.497174,192.658742 L257.081376,195.398296 C255.020078,194.574471 252.902366,193.899864 250.744569,193.379677 L250.024477,193.379677 L241.527394,191.216871 C236.630771,190.063375 230.149945,188.621505 223.525101,187.468009 L217.188294,186.458699 C213.15578,186.458699 209.267284,185.305203 205.234771,184.440081 C201.202257,183.574959 197.313761,180.979592 192.993211,179.681908 L189.968826,178.816786 L171.678495,173.77024 L152.95611,168.002758 L151.803963,168.002758 C157.420679,165.695766 163.181413,163.965521 168.510092,162.523651 Z M95.3487706,173.049305 L91.3162569,168.291133 L91.3162569,168.291133 L86.7076697,162.09109 L83.9713211,157.765479 L82.5311376,155.74686 C79.5067523,150.988688 76.1943303,146.230516 72.8819083,141.328157 C69.880358,136.82492 66.5081975,132.580667 62.8006239,128.639697 C61.0200263,126.671583 59.0943711,124.840068 57.0398899,123.16059 C56.0269628,122.226702 54.9164025,121.404891 53.7274679,120.70941 L53.2954128,120.132662 L52.2872844,120.132662 L53.2954128,120.132662 C55.1681813,120.605216 56.998664,121.232167 58.7681101,122.007094 C62.3273277,123.738235 65.7889728,125.663623 69.1374312,127.774575 C72.7378899,130.225755 76.3383486,132.965308 79.2187156,135.272301 L80.5148807,136.28161 L86.7076697,141.039782 L95.0607339,146.951451 C99.5253028,149.979379 104.565945,153.007307 110.758734,156.467795 C116.951523,159.928284 120.696,161.514342 125.160569,163.53296 L127.464862,163.53296 C130.345229,164.590332 133.225596,165.743828 136.105963,166.993449 L142.586789,169.87719 L142.586789,169.87719 L144.026972,169.87719 L146.043229,170.598125 C152.236018,173.049305 158.716844,175.21211 164.765615,177.086542 C170.814385,178.960973 176.575119,180.835405 182.62389,182.709836 L200.770202,187.756383 L209.699339,189.919188 L217.044275,191.072684 L218.772495,191.072684 L220.788752,191.072684 L228.85378,192.514555 C232.166202,192.514555 235.478624,193.956425 238.791046,194.67736 L241.095339,194.67736 L248.728312,196.551792 L257.225394,199.147159 L259.529688,200.444842 L260.393798,200.444842 L261.257908,200.444842 L262.554073,201.165777 L263.850239,201.165777 L263.850239,201.165777 C264.456906,201.374506 265.11581,201.374506 265.722477,201.165777 L267.306679,204.337892 L269.178917,208.80769 L270.187046,211.114683 L270.187046,211.979805 L270.187046,212.989114 C270.474748,213.544797 270.715615,214.123554 270.907138,214.719359 C271.091119,215.372835 271.670143,215.836597 272.347321,215.872855 L272.347321,215.872855 L273.067413,215.872855 C273.404416,215.451445 273.404416,214.852395 273.067413,214.430985 C273.067413,213.710049 273.067413,213.133301 273.067413,212.556553 L271.915266,209.961186 C271.635708,210.060141 271.330714,210.060141 271.051156,209.961186 C270.645921,209.702 270.301911,209.357587 270.043028,208.951877 L270.043028,208.951877 L270.043028,207.654194 C269.64507,206.814474 269.308152,205.9471 269.034899,205.058827 C268.314807,203.184396 267.738734,201.309964 267.162661,199.435533 L265.43444,193.956425 L265.290422,195.398296 C265.290422,193.956425 264.138275,192.514555 263.562202,191.072684 C262.460045,188.00742 261.546222,184.877522 260.825853,181.700527 C260.744868,180.59658 260.744868,179.488172 260.825853,178.384225 L260.825853,177.086542 C260.825853,176.365607 260.825853,175.644671 260.825853,174.923736 C259.529688,170.021377 258.665578,165.551579 257.801468,161.225968 C256.937358,156.900357 256.073248,151.277062 255.353156,146.807264 L255.353156,144.500271 C255.353156,140.318847 254.201009,135.416488 253.912972,130.081568 L253.912972,124.890834 L253.912972,123.304777 C253.843781,122.152321 253.843781,120.996744 253.912972,119.844288 C253.769103,118.550602 253.769103,117.244924 253.912972,115.951238 C254.084644,114.92685 254.325222,113.915239 254.633064,112.92331 L255.497174,110.327943 C256.129968,108.844004 256.851363,107.399524 257.65745,106.002332 L257.65745,105.13721 C258.195172,103.985091 258.821119,102.876349 259.529688,101.820908 L261.833982,98.6487935 L261.833982,98.6487935 C262.337005,97.9165288 262.916332,97.2398564 263.562202,96.6301749 L263.562202,95.7650527 C267.018642,90.7185064 270.331064,85.527773 273.643486,80.4812267 L274.939651,78.3184212 L278.396092,72.6951267 L278.396092,72.6951267 L283.004679,65.3415878 C284.444862,62.8904082 286.029064,60.2950415 287.469248,57.5554878 L291.789798,49.6252007 C293.950073,45.2995896 295.96633,40.8297914 297.982587,36.3599933 L298.990716,34.3413747 C299.989568,35.5548552 301.152976,36.6225617 302.447156,37.5134896 L305.471541,39.6762951 L307.055743,40.6856044 L308.495927,41.6949137 L311.088257,43.5693451 L311.088257,43.5693451 C312.816477,44.8670285 314.688716,45.8763377 316.560954,47.029834 L317.569083,47.029834 C319.575612,48.2868639 321.697525,49.3490627 323.90589,50.2019489 L327.506349,51.2112581 L328.514477,51.2112581 C329.126225,51.7511488 329.703438,52.3290384 330.242697,52.9415026 C330.536237,53.3420528 330.778175,53.7780506 330.962789,54.2391859 C331.027248,54.6209768 331.027248,55.0108913 330.962789,55.3926822 L330.962789,57.1229267 C331.028215,57.697815 331.028215,58.2782828 330.962789,58.8531711 C331.02225,59.3801811 331.02225,59.9122185 330.962789,60.4392285 C330.442675,62.4116417 329.768513,64.3400742 328.946532,66.20671 L328.946532,66.20671 C328.946532,67.5043934 327.794385,68.8020767 327.36233,70.09976 C326.930275,71.3974434 326.49822,73.4160619 325.922147,75.0021193 C325.346073,76.5881767 324.914018,78.0300471 324.337945,79.6161045 C323.761872,81.2021619 323.473835,82.0672841 322.897761,83.3649675 C322.321688,84.6626508 321.745615,86.5370823 321.025523,88.1231397 L321.025523,88.1231397 C320.532874,89.1053564 320.100028,90.1165127 319.729358,91.1510675 L319.729358,91.1510675 C319.009266,92.7371249 318.289174,94.3231823 317.713101,95.9092397 C317.137028,97.4952972 316.993009,99.2255416 316.704972,100.811599 C316.416936,102.397656 316.704972,104.127901 316.704972,105.858145 C315.372214,111.411262 314.409967,117.047002 313.824606,122.728029 C313.749384,123.83218 313.749384,124.940179 313.824606,126.044331 L313.824606,126.044331 C313.753622,126.522327 313.753622,127.008204 313.824606,127.486201 C313.758997,128.109285 313.758997,128.737548 313.824606,129.360632 L313.824606,131.523438 C313.969638,132.382468 313.969638,133.259775 313.824606,134.118805 L313.824606,135.993236 C313.824606,138.156042 313.824606,140.318847 313.824606,142.481653 C314.399003,146.102617 315.265959,149.670942 316.416936,153.151494 L316.416936,154.737551 C316.416936,156.900357 317.713101,159.063162 318.289174,161.225968 C319.729358,166.272514 321.31356,171.174873 323.185798,175.644671 L326.210183,182.854023 C326.210183,184.151707 327.506349,185.44939 328.082422,186.602886 C328.334034,187.137459 328.674977,187.625091 329.09055,188.044757 C329.063153,188.380634 329.063153,188.718189 329.09055,189.054066 C329.492261,189.649079 329.977277,190.183222 330.530734,190.640123 C331.043649,191.327133 331.835408,191.749899 332.691009,191.79362 L333.843156,191.79362 L333.843156,191.79362 L333.843156,191.79362 C333.843156,191.79362 333.843156,191.79362 333.843156,190.78431 C333.843156,189.775001 333.843156,190.78431 333.843156,190.78431 C333.960031,188.833821 333.715902,186.8785 333.123064,185.016829 L333.123064,184.295894 L333.123064,180.979592 C333.123064,180.258657 333.123064,179.681908 332.402972,179.10516 L331.682881,177.807477 C331.682881,176.653981 330.962789,175.644671 330.530734,174.635362 C330.098679,173.626053 330.530734,173.914427 329.810642,173.77024 L329.810642,173.77024 L328.946532,170.165564 C328.946532,168.43532 328.22644,166.560888 327.938404,164.830644 L327.938404,164.830644 C327.649409,162.195132 327.649409,159.535868 327.938404,156.900357 L327.938404,156.900357 C328.254608,154.596978 328.784978,152.328198 329.522606,150.123566 L330.386716,147.384012 L330.386716,145.942142 L332.979046,142.193279 L340.035945,132.821121 L341.476128,130.802503 L341.476128,130.802503 L344.500514,126.765266 L348.821064,121.574532 C348.821064,121.574532 348.821064,121.574532 348.821064,121.574532 L348.821064,121.574532 L349.829193,120.132662 L351.125358,118.546605 L355.733945,116.095425 L356.742073,114.509368 C357.138629,113.780535 357.62224,113.102687 358.182257,112.490749 C359.334404,110.760505 360.630569,109.03026 361.926734,107.444203 L361.926734,106.723268 L363.798972,104.560462 L365.527193,102.686031 L367.111394,100.523225 C367.410194,100.151461 367.748194,99.8130655 368.119523,99.5139157 L368.119523,99.5139157 L368.119523,99.5139157 L368.119523,99.5139157 C371.431945,95.0441175 374.888385,90.5743194 378.056789,85.9603342 L386.265835,73.848623 L388.42611,70.5323211 C396.059083,59.1415452 402.827945,48.0391433 411.613064,37.5134896 L411.613064,37.5134896 C414.971205,33.0372469 418.57732,28.7529781 422.41444,24.6808432 L424.430697,22.3738506 L426.302936,20.3552321 L427.743119,19.4901099 L430.047413,17.3273043 L431.631615,15.7412469 L433.503853,14.2993765 C433.768015,13.9363347 434.113229,13.6400902 434.511982,13.4342543 L434.511982,13.4342543 L434.511982,13.4342543 L434.511982,13.4342543 L436.096183,12.4249451 L437.680385,11.2714488 C439.893665,9.86047313 442.203704,8.60773637 444.593266,7.52258578 L448.62578,6.22490244 C450.222993,5.73638064 451.862338,5.39847302 453.522404,5.21559318 C455.151466,5.07212117 456.789965,5.07212117 458.419028,5.21559318 L462.59556,5.21559318 C465.047928,5.6192905 467.458274,6.24671466 469.796477,7.09002467 L473.396936,9.10864319 L473.396936,9.10864319 L470.948624,9.10864319 L468.356294,9.10864319 C466.773208,9.02443615 465.186774,9.02443615 463.603688,9.10864319 L459.859211,7.95514689 C456.940403,8.87974279 454.137601,10.1376429 451.506147,11.7040099 C450.078997,12.4325207 448.728117,13.3019607 447.473633,14.2993765 L443.729156,17.1831173 C441.503082,19.3326207 439.388061,21.5944943 437.392349,23.9599081 L431.775633,30.7366988 C427.599101,35.9274322 423.422569,41.2623525 419.534073,46.885647 C415.645578,52.5089415 411.757083,58.42061 409.164752,63.0345952 C406.572422,67.6485804 402.683927,73.99281 400.091596,78.7509823 C397.499266,83.5091545 396.923193,84.5184638 395.483009,87.4022045 L391.162459,96.4859879 L390.442367,98.2162323 L389.578257,99.9464768 C389.398248,100.500469 389.156706,101.032484 388.858165,101.532534 L388.858165,102.686031 L388.858165,103.983714 L388.858165,106.290706 C388.858165,107.732577 387.850037,109.03026 387.129945,110.472131 C386.409853,111.914001 385.545743,113.644245 384.825651,115.230303 L384.825651,116.239612 L384.825651,116.239612 L381.369211,124.746647 L381.369211,125.611769 C379.208936,131.090877 377.048661,136.858358 375.32044,142.481653 C371.921226,154.185359 369.46504,166.143156 367.975505,178.240038 L367.975505,182.565649 L367.975505,182.565649 L367.975505,185.016829 L367.975505,185.016829 L367.975505,185.016829 L366.535321,186.458699 C365.133971,187.337168 363.787311,188.300194 362.502807,189.34244 L355.445908,193.523864 L351.989468,195.542483 C348.677046,197.416914 345.076587,199.435533 341.476128,201.165777 L337.87567,202.319273 C336.803726,202.689295 335.691885,202.931282 334.563248,203.040209 C333.107422,203.174642 331.663379,203.415597 330.242697,203.761144 C328.602866,204.427269 327.054259,205.29938 325.63411,206.35651 L318.289174,209.816999 C317.835529,210.12486 317.444528,210.516319 317.137028,210.970496 C316.340414,211.757295 315.789931,212.759347 315.552826,213.854236 C315.16019,215.085854 315.790489,216.411034 316.993009,216.882164 L315.984881,216.882164 L310.944239,218.03566 L302.159119,220.631027 L300.718936,220.631027 L300.718936,220.631027 L298.558661,221.640336 L296.83044,222.793833 L296.83044,222.793833 L296.83044,222.793833 L295.10222,224.235703 L295.10222,224.235703 C294.776817,224.560358 294.593913,225.001363 294.593913,225.461293 C294.593913,225.921223 294.776817,226.362228 295.10222,226.686883 C295.392922,227.385384 296.074616,227.840379 296.83044,227.840379 L297.550532,227.840379 L306.335651,225.533386 L312.52844,223.658955 L314.400679,223.658955 L320.44945,221.784523 L322.465706,221.784523 L329.954661,220.054279 L334.563248,220.054279 L337.155578,220.054279 L339.315853,220.054279 L343.348367,220.919401 L347.668917,222.217085 L351.413394,223.658955 L355.445908,225.100825 L357.750202,225.100825 L359.910477,225.82176 L361.782716,226.542696 L361.782716,226.542696 L361.782716,226.542696 L361.782716,226.542696 L362.790844,226.542696 L363.942991,226.542696 C366.537694,227.278543 369.186202,227.808865 371.864,228.128753 C374.021582,228.281492 376.187244,228.281492 378.344826,228.128753 C382.349745,228.109801 386.346829,227.772303 390.298349,227.119444 C397.067211,226.254322 403.548037,224.812451 409.164752,223.658955 L411.036991,223.658955 L416.221651,222.505459 L420.974257,222.505459 L420.974257,223.370581 C419.513131,224.447153 417.972512,225.411168 416.36567,226.254322 C414.875006,227.241625 413.281416,228.063526 411.613064,228.705501 C408.444661,229.858998 404.98822,231.012494 401.099725,232.021803 C397.540634,232.936242 393.934959,233.658221 390.298349,234.184609 C386.553872,234.184609 382.089303,235.049731 376.904642,235.193918 L371.287927,235.193918 L363.654954,235.193918 C359.116139,235.46686 354.596358,235.996391 350.117229,236.779975 L343.492385,238.077659 L341.764165,238.077659 L340.035945,238.077659 L338.019688,238.077659 L334.131193,238.077659 C331.270593,238.514772 328.3835,238.755645 325.490092,238.798594 L324.049908,238.798594 L316.848991,238.798594 C314.608965,238.548235 312.393244,238.114216 310.224147,237.500911 L305.327523,236.347414 L303.887339,236.347414 L302.591174,236.347414 C299.801562,235.388531 296.965633,234.570442 294.094092,233.896235 L292.50989,233.896235 L287.037193,233.896235 L287.037193,233.896235 C284.734989,233.928945 282.451698,234.318045 280.26833,235.049731 C279.354885,235.311773 278.48238,235.700007 277.676,236.203227 L276.523853,237.068349 L275.08367,238.221846 C274.19736,239.016923 273.859152,240.258471 274.21956,241.393961 C274.545948,242.727989 275.728311,243.674988 277.099927,243.700953 L280.844404,243.700953 L285.308972,242.980018 L288.765413,242.980018 L282.572624,246.007946 L274.795633,249.612622 L265.866495,253.505672 L258.377541,256.821974 L242.82356,262.877829 C237.926936,264.608074 232.742275,266.338318 226.837523,268.068562 L209.699339,272.970922 L201.634312,274.845353 L193.425266,276.287224 C190.112844,276.287224 185.792294,277.008159 181.327725,277.008159 L176.287083,277.008159 C174.270826,277.008159 172.11055,277.008159 170.094294,277.008159 L161.885248,275.99885 C155.925349,275.148942 150.012849,273.993933 144.170991,272.538361 C137.819179,271.568179 131.521916,270.268749 125.304587,268.645311 L110.902752,262.733642 L107.59033,261.580146 L98.6611927,257.97547 L90.3081284,255.091729 L83.6832844,253.073111 C81.8110459,253.073111 79.794789,252.207988 77.7785321,251.775427 C75.7622752,251.342866 73.0259266,251.775427 71.1536881,251.054492 L71.1536881,251.054492 L72.4498532,251.054492 L76.1943303,250.333557 L79.6507706,250.333557 L84.1153394,250.333557 C86.9957064,250.333557 89.732055,250.333557 91.7483119,250.333557 L91.7483119,250.333557 L97.3650275,251.342866 L109.894624,253.938233 L128.472991,257.97547 L134.953817,259.561527 L147.051358,262.445268 L156.700587,264.319699 L166.637853,265.617383 C169.806257,265.617383 173.262697,265.617383 176.575119,265.617383 C179.405665,265.760961 182.241656,265.760961 185.072202,265.617383 C188.43013,265.430745 191.760027,264.89927 195.009468,264.031325 C198.329624,263.255447 201.562588,262.144323 204.658697,260.715024 C207.251028,259.561527 209.843358,258.119657 212.29167,256.821974 L212.29167,256.821974 C214.884,255.52429 217.332312,253.938233 219.924642,252.496362 L221.076789,252.496362 L235.478624,244.133514 C238.791046,242.40327 242.247486,240.673025 245.703927,239.231155 L248.00822,239.231155 C248.995243,238.869264 249.849084,238.215562 250.456532,237.356723 L255.497174,235.482292 L265.43444,232.598551 L275.803761,230.147372 L278.252073,230.147372 L280.556367,230.147372 L283.292716,230.147372 L285.885046,229.138062 L285.885046,229.138062 C286.561221,228.748755 286.994777,228.043401 287.037193,227.263631 C287.02494,226.277865 286.388389,225.408825 285.452991,225.100825 L284.012807,225.100825 L282.860661,225.100825 L280.988422,225.100825 L275.227688,225.100825 C273.269973,224.744472 271.300549,224.455926 269.322936,224.235703 C263.268352,225.593237 257.304057,227.326834 251.464661,229.426436 L250.456532,229.426436 L248.584294,229.426436 L244.263743,228.417127 L238.935064,227.407818 L236.198716,227.407818 L226.117431,224.956638 L217.044275,223.370581 L211.715596,222.361272 C207.683083,221.640336 203.794587,221.063588 199.906092,220.198466 C193.569284,219.04497 187.232477,217.603099 180.89567,216.305416 C165.875098,212.743574 151.181198,207.920259 136.970073,201.886712 L129.193083,198.282036 L122.568239,195.398296 L121.704128,195.398296 L116.231431,192.081994 L115.079284,191.216871 L111.910881,188.909879 L110.902752,188.909879 C108.443862,187.450922 106.129146,185.761132 103.989872,183.863333 L103.989872,183.863333 C102.343124,182.32873 100.848016,180.638727 99.5253028,178.816786 C97.9693143,177.083308 96.6607091,175.142363 95.6368073,173.049305 L95.3487706,173.049305 Z M287.181211,723.26704 L277.964037,722.25773 L260.681835,719.37399 C254.633064,718.220493 248.87233,716.634436 243.831688,715.336753 L233.462367,712.164638 L227.269578,710.434393 L218.628477,707.69484 L210.707468,704.811099 L195.297505,697.890121 C191.697046,696.304064 188.240606,694.429632 184.784165,692.699388 L179.887541,690.104021 L171.966532,685.634223 C168.510092,683.183043 165.485706,681.020238 162.317303,679.001619 L158.428807,676.55044 L157.132642,675.685317 L144.891083,667.899217 C136.826055,662.564297 129.193083,656.941002 123.28833,652.615391 L123.28833,652.615391 L111.622844,643.243234 C107.59033,639.782745 103.557817,636.033882 99.8133394,632.285019 C96.0688624,628.536156 92.7564404,624.93148 89.5880367,621.182617 C86.419633,617.433754 82.5311376,612.675582 79.2187156,608.349971 L79.2187156,608.349971 L79.2187156,608.349971 L79.2187156,608.349971 L79.2187156,608.349971 L77.0584404,605.610417 L67.6972477,593.642893 C64.096789,588.45216 60.784367,582.973052 57.0398899,576.917197 C53.2954128,570.861341 50.7030826,565.526421 47.8227156,559.903126 C44.9423486,554.279832 42.0619817,548.079789 39.6136697,542.456495 C37.1653578,536.8332 35.0050826,531.065719 32.8448073,525.15405 L32.8448073,523.856367 C30.8285505,518.233072 28.8122936,512.609778 27.0840734,506.986484 C25.3558532,501.363189 23.195578,493.865463 21.7553945,488.242169 C20.315211,482.618874 18.5869908,475.121148 17.2908257,468.055983 C15.9946606,460.990819 14.5544771,452.195409 13.5463486,444.409309 L13.5463486,443.111626 L13.5463486,443.111626 L13.5463486,443.111626 L13.5463486,440.083698 C13.5463486,435.037152 12.3942018,429.990606 11.9621468,424.944059 C11.9621468,417.446333 10.9540183,410.525355 10.81,404.613687 C10.6659817,398.702018 10.81,393.367098 10.81,385.869372 C10.81,378.371646 10.81,372.748352 12.1061651,366.548309 L12.1061651,362.799446 L12.1061651,362.799446 L12.1061651,362.799446 L12.1061651,362.799446 C12.9702752,357.464526 13.9784037,351.120296 15.2745688,344.920253 C16.5707339,338.720211 18.2989541,331.510859 19.883156,326.031752 C23.4836147,312.766544 27.9481835,300.078085 31.9806972,289.552431 L37.1653578,276.431411 L37.1653578,276.431411 C38.7495596,272.538361 40.4777798,268.789498 42.206,264.896448 C43.9342202,261.003398 46.5265505,256.533599 48.2547706,253.505672 C49.9829908,250.477744 53.1513945,245.863759 55.7437248,242.259083 C58.336055,238.654407 60.784367,235.338105 63.2326789,232.021803 L65.2489358,229.570623 C67.2651927,227.119444 69.2814495,224.524077 71.4417248,222.072898 C73.602,219.621718 77.0584404,215.584481 80.0828257,212.412366 C85.9204053,206.08168 92.2271362,200.201356 98.9492294,194.821547 L98.9492294,194.821547 L98.9492294,194.821547 L98.9492294,194.821547 L98.9492294,194.821547 L100.101376,193.956425 L105.286037,190.351749 C107.158275,192.081994 109.31855,193.668051 111.334807,195.254109 L111.334807,195.254109 L114.791248,197.705288 L115.799376,197.705288 L118.823761,199.57972 L127.608881,204.482079 C133.80167,207.510007 140.426514,210.24956 146.043229,212.412366 C151.659945,214.575172 159.148899,217.314725 164.33356,218.900783 C169.51822,220.48684 176.863156,222.505459 182.191835,223.803142 L187.80855,225.100825 L199.762073,227.984566 L211.715596,230.435746 L217.332312,231.445055 L224.533229,232.886925 L232.022183,234.472983 L230.149945,235.338105 L227.98967,236.05904 L224.677248,237.212536 L219.492587,237.212536 L213.15578,237.212536 L207.827101,237.212536 L204.514679,237.212536 L197.313761,237.212536 L177.583248,237.212536 C170.094294,237.212536 164.477578,237.212536 159.148899,238.366033 C153.82022,239.519529 151.803963,239.519529 147.77145,240.384651 L142.730807,241.970709 C140.925459,242.613095 139.188636,243.434222 137.546147,244.421888 L136.682037,244.421888 L135.241853,244.421888 C134.459222,244.690115 133.976185,245.475969 134.089706,246.29632 C134.288604,247.000771 134.94323,247.47742 135.673908,247.449816 L136.682037,247.449816 L139.418385,246.584694 L143.882954,245.863759 L152.092,244.566075 C155.116385,244.566075 157.996752,244.566075 161.021138,243.700953 L170.38233,243.700953 C176.287083,243.700953 182.191835,243.700953 187.80855,244.710262 L188.816679,244.710262 L205.090752,245.863759 L206.386917,245.863759 L209.987376,245.863759 L214.884,245.863759 L217.188294,245.863759 L213.587835,248.026564 C209.123266,250.477744 205.090752,252.640549 200.770202,254.514981 L194.577413,256.677786 C192.541363,257.201072 190.472416,257.586443 188.384624,257.831283 C184.848565,258.272316 181.290444,258.513011 177.727266,258.552218 L175.566991,258.552218 L168.65411,258.552218 C166.205798,258.552218 163.901505,258.552218 161.741229,257.687096 L161.741229,257.687096 L159.148899,257.687096 L148.779578,255.52429 L141.290624,253.794046 L134.377743,252.207988 L118.823761,248.891686 C113.639101,247.882377 109.030514,247.017255 104.421927,246.440507 C99.8133394,245.863759 95.3487706,245.287011 90.0200917,244.998636 L84.5473945,244.998636 C82.0054573,244.842593 79.4563592,244.842593 76.914422,244.998636 L73.7460183,244.998636 L70.289578,245.719572 L66.977156,246.873068 L64.096789,248.026564 C62.4599948,248.845086 60.8730188,249.759869 59.3441835,250.766118 L58.336055,251.487053 C56.7404353,252.327684 55.2430577,253.343225 53.8714862,254.514981 C53.7500302,254.84043 53.7500302,255.198841 53.8714862,255.52429 C53.6914168,255.887657 53.6914168,256.31442 53.8714862,256.677786 L53.8714862,256.677786 C54.5275201,257.265248 55.5197459,257.265248 56.1757798,256.677786 C57.1475021,255.919891 58.2123285,255.289939 59.3441835,254.803355 C62.1023572,254.326142 64.9127918,254.229117 67.6972477,254.514981 L71.1536881,254.514981 L74.7541468,254.514981 C81.1859585,255.633317 87.4360054,257.622093 93.3325138,260.426649 L99.9573578,263.31039 L109.462569,267.491814 C115.943394,270.231368 122.136183,272.826735 128.617009,274.98954 C135.097835,277.152346 140.71455,278.738403 147.195376,280.324461 C153.676202,281.910518 160.445064,282.919827 166.06178,283.78495 C172.274554,284.536999 178.526166,284.922164 184.784165,284.938446 L185.792294,284.938446 C192.371557,284.789621 198.925276,284.065938 205.378789,282.77564 C211.139523,281.622144 216.900257,280.180274 223.525101,278.305842 L232.166202,275.710475 L232.166202,275.710475 L232.166202,275.710475 C227.557615,279.459338 223.525101,283.208201 218.484459,287.966374 C213.443817,292.724546 209.123266,297.194344 205.234771,301.231581 L199.762073,307.287437 L198.033853,309.306055 C195.72956,311.901422 193.425266,314.352601 191.264991,317.236342 L187.952569,321.70614 L185.21622,325.59919 L182.479872,330.213176 C181.769404,331.616006 181.144187,333.060505 180.607633,334.538787 L179.023431,337.27834 C178.456333,337.887492 178.456333,338.831994 179.023431,339.441146 L179.023431,339.441146 C179.63914,339.491878 180.21858,339.143806 180.463615,338.576024 C180.463615,337.710902 181.471743,336.845779 181.903798,335.83647 C184.640147,332.808542 187.232477,329.49224 189.824807,326.175939 L193.137229,322.282889 L196.017596,318.534026 C198.897963,314.785163 201.922349,311.180487 205.090752,307.575811 C213.060287,298.076885 221.988828,289.4278 231.734147,281.766331 C233.961283,279.915284 236.31979,278.228663 238.791046,276.719785 L240.663284,275.710475 L244.55178,273.54767 L246.424018,272.682548 L251.464661,270.952303 L254.921101,269.798807 C256.717498,269.25406 258.454493,268.529464 260.105761,267.636001 C262.265896,266.365843 264.210443,264.759712 265.866495,262.877829 C265.965334,262.597944 265.965334,262.292592 265.866495,262.012707 L265.866495,262.012707 C265.866495,262.012707 265.866495,262.012707 265.866495,262.012707 L268.170789,261.003398 L276.523853,257.398722 L280.556367,255.812664 L283.148697,254.803355 L290.493633,251.775427 L297.838569,248.747499 L301.150991,247.594003 L303.167248,246.584694 L308.495927,247.305629 C310.942141,247.449112 313.394648,247.449112 315.840862,247.305629 C318.2389,247.45338 320.643742,247.45338 323.04178,247.305629 L325.63411,247.305629 L325.63411,247.305629 C324.406356,248.118898 323.250029,249.035396 322.17767,250.045183 L320.881505,251.342866 L319.441321,252.784736 L316.128899,255.812664 L309.360037,261.86852 C305.183505,265.905757 300.718936,269.942994 296.542404,274.268605 C292.365872,278.594216 289.629523,281.622144 286.317101,285.515194 L283.724771,289.11987 L280.556367,292.291985 L274.075541,298.924588 L270.907138,302.529264 L267.594716,306.13394 L262.410055,311.613048 L261.257908,312.766544 L260.105761,314.064227 L254.921101,319.399148 C252.760826,321.850327 250.744569,324.301507 248.728312,326.896874 C244.407761,332.231794 240.663284,337.855089 237.782917,342.1807 C234.90255,346.506311 231.302092,352.562166 227.98967,358.329648 C224.677248,364.097129 221.940899,368.999489 219.20455,375.055344 C219.20455,376.353028 218.196422,377.506524 217.764367,378.66002 C217.332312,379.813516 216.756239,381.399574 216.324183,382.55307 L216.324183,382.841444 C215.854945,384.210308 215.470171,385.606748 215.172037,387.022868 C214.849048,388.206313 214.60844,389.410762 214.451945,390.627544 L214.451945,390.627544 C214.751239,390.945056 215.168024,391.125013 215.604092,391.125013 C216.040159,391.125013 216.456944,390.945056 216.756239,390.627544 C216.855077,390.347659 216.855077,390.042307 216.756239,389.762422 C216.756239,389.762422 216.756239,388.8973 216.756239,388.464739 C216.945049,387.491394 217.185419,386.528788 217.47633,385.580998 C217.47633,385.580998 217.47633,385.580998 217.47633,385.580998 C217.47633,385.580998 218.628477,382.264696 219.348569,380.534452 C220.068661,378.804207 222.372954,374.622783 224.101174,371.450668 C225.829394,368.278553 227.701633,365.250626 229.71789,362.078511 C231.734147,358.906396 233.462367,356.311029 235.478624,353.571476 C237.235239,350.858673 239.159222,348.258253 241.239358,345.785376 L241.239358,344.920253 C245.127853,339.873707 249.304385,335.115535 253.480917,330.50155 L256.937358,326.320126 L265.290422,316.515407 C269.466954,311.324674 273.499468,306.566501 277.531982,302.096703 L290.493633,287.678 L292.077835,286.091942 L296.398385,282.054705 L304.895468,273.691857 L309.216018,269.942994 L311.66433,267.780188 L318.721229,261.580146 L323.329817,257.542909 L324.481963,256.389412 L326.930275,255.956851 L329.09055,254.803355 L330.386716,254.08242 C332.857498,252.687989 335.405991,251.43632 338.019688,250.333557 C340.796412,249.174102 343.632781,248.163365 346.516771,247.305629 L346.516771,247.305629 C346.8969,247.227945 347.288788,247.227945 347.668917,247.305629 L349.541156,249.180061 L352.421523,253.217298 C353.513308,254.79818 354.522782,256.434481 355.445908,258.119657 L358.038239,263.454577 C358.902349,265.329009 359.766459,267.059253 360.48655,268.933685 C362.790844,274.556979 364.951119,280.324461 366.967376,286.091942 L369.991761,294.743164 C370.99989,297.771092 371.864,300.79902 372.72811,303.826948 C374.45633,309.738616 375.896514,315.650285 377.192679,321.561953 C378.488844,327.473622 379.640991,333.673664 380.649119,339.72952 L380.649119,339.72952 C380.92147,340.497597 381.730951,340.933982 382.521358,340.738829 C382.941852,340.870661 383.398191,340.821203 383.780764,340.602333 C384.163338,340.383463 384.437578,340.014959 384.537615,339.585333 C383.529486,333.673664 382.521358,327.761996 381.225193,321.850327 C379.929028,315.938659 378.344826,309.738616 376.760624,303.682761 L374.168294,294.598977 L371.719982,286.091942 C369.847743,280.036087 367.975505,273.980231 365.671211,268.068562 C364.663083,265.184822 363.366917,262.445268 362.214771,259.705714 C361.062624,256.966161 359.62244,254.226607 358.182257,251.63124 C356.742073,249.035874 355.445908,247.161442 353.861706,244.998636 L356.598055,244.133514 L359.910477,243.412579 C360.677052,243.344088 361.448196,243.344088 362.214771,243.412579 L363.798972,243.412579 L365.671211,243.412579 C366.136666,243.237056 366.504022,242.86927 366.679339,242.40327 L372.296055,242.40327 C378.71557,242.315863 385.119027,241.737431 391.450495,240.673025 C397.227279,239.871729 402.885441,238.370802 408.300642,236.203227 C411.083301,235.111258 413.779354,233.809853 416.36567,232.310177 C418.809903,230.840508 421.080573,229.099234 423.134532,227.119444 C423.246596,226.74313 423.246596,226.342262 423.134532,225.965948 C423.066598,225.119763 422.395525,224.447904 421.55033,224.37989 C421.005139,223.944459 420.362766,223.647631 419.678092,223.514768 L416.797725,223.514768 L414.493431,223.514768 L413.341284,223.514768 C410.63957,223.660372 407.947456,223.94915 405.276257,224.37989 L398.93945,224.235703 L388.858165,225.82176 L387.994055,225.82176 L386.265835,225.82176 C384.10556,225.82176 381.801266,225.82176 379.352954,225.82176 L377.624734,225.82176 C375.563128,225.970063 373.493551,225.970063 371.431945,225.82176 L369.27167,225.82176 L371.719982,224.812451 L384.825651,219.910092 L401.675798,214.575172 C412.749687,211.583262 424.007133,209.319502 435.376092,207.798381 C447.971476,205.90371 460.666771,204.74824 473.396936,204.337892 L479.301688,204.337892 C489.671009,204.337892 500.472385,204.337892 512.28189,206.068136 L516.60244,206.068136 L519.194771,206.068136 L531.43633,208.086755 C535.32337,208.729877 539.170219,209.596432 542.957798,210.682122 L542.957798,210.682122 L546.990312,211.835618 L549.006569,211.835618 L552.895064,212.989114 L555.055339,213.710049 C558.655798,214.863546 562.256257,216.305416 565.712697,217.747286 L566.576807,217.747286 L568.737083,218.612409 L570.753339,219.477531 L574.20978,221.207775 L575.793982,221.207775 L585.299193,226.110135 L592.644128,230.291559 L594.084312,231.012494 L598.836917,233.607861 L600.277101,234.328796 L601.717284,234.328796 L603.445505,235.049731 L607.622037,236.779975 L610.070349,236.779975 C611.21038,236.407839 612.180565,235.641007 612.806697,234.61717 C613.240509,233.504556 613.240509,232.269294 612.806697,231.156681 C612.413794,230.026819 611.652963,229.06197 610.646422,228.417127 L608.19811,226.542696 L606.46989,225.389199 L604.165596,224.091516 L600.565138,225.677573 L598.548881,224.235703 L591.924037,221.063588 C588.323578,219.621718 584.723119,218.03566 581.122661,216.737977 C578.394833,215.578723 575.606411,214.567939 572.769596,213.710049 C565.280642,211.25887 559.37589,209.528625 553.903193,208.086755 C548.430495,206.644885 541.517615,205.347201 534.028661,204.049518 C520.968843,201.877938 507.792154,200.481691 494.567633,199.868094 C488.662881,199.868094 482.758128,199.868094 475.845248,199.868094 L466.628073,199.868094 L457.410899,199.868094 C451.074092,200.589029 444.593266,201.165777 438.256459,202.030899 C431.919651,202.896022 425.294807,203.905331 418.958,205.203014 C412.621193,206.500697 406.284385,208.086755 400.091596,209.816999 C393.898807,211.547244 387.417982,213.998423 382.089303,216.017042 C378.105792,217.524792 374.211025,219.257827 370.423817,221.207775 L369.415688,221.207775 L364.951119,223.370581 L364.951119,223.370581 L363.366917,223.370581 L360.342532,222.072898 L357.462165,220.775214 L357.462165,220.775214 L357.462165,220.775214 L358.614312,219.910092 L360.918606,218.03566 L360.918606,218.03566 L362.934862,216.449603 L370.567835,211.114683 C374.378612,208.728287 378.376189,206.654827 382.521358,204.91464 C387.562,202.896022 392.746661,201.309964 397.931321,199.723907 L399.515523,199.723907 L416.797725,195.398296 L423.134532,193.812238 L425.438826,193.812238 C428.751248,192.947116 431.919651,192.226181 435.088055,191.216871 C441.141516,189.03084 446.975993,186.279148 452.514275,182.99821 L456.690807,180.547031 L456.690807,180.547031 L458.563046,179.537721 L463.027615,177.519103 C466.352037,176.050777 469.767554,174.798559 473.252917,173.77024 C476.891704,172.710614 480.596173,171.891786 484.34233,171.31906 C487.510734,171.31906 490.823156,170.598125 494.135578,170.453938 L499.608275,170.453938 L505.369009,170.453938 L515.594312,170.453938 C519.194771,170.453938 522.795229,170.453938 526.395688,171.463247 L529.996147,171.463247 C529.996147,171.463247 529.996147,171.463247 529.996147,170.598125 C530.205701,170.140397 530.205701,169.613983 529.996147,169.156255 L529.996147,169.156255 C529.996147,169.156255 529.996147,169.156255 529.996147,169.156255 L522.219156,166.560888 L513.146,166.560888 L493.415486,166.560888 L487.366716,166.560888 L486.358587,166.560888 C483.168171,166.812666 479.994641,167.245927 476.853376,167.858571 L473.396936,168.579507 L473.396936,168.579507 C474.755832,167.60164 476.054371,166.542332 477.285431,165.407392 C481.014087,162.082282 484.571149,158.569179 487.942789,154.881738 C491.255211,150.988688 494.567633,146.951451 497.592018,143.058401 L497.592018,143.058401 L497.592018,143.058401 L497.592018,143.058401 L498.456128,141.904905 L499.17622,141.039782 L499.17622,141.039782 L500.184349,139.597912 L501.336495,138.300229 C502.344624,136.858358 503.496771,135.560675 504.504899,134.262992 C505.791635,134.752083 507.042816,135.330227 508.249376,135.993236 L519.050752,140.895595 C524.235413,143.490962 529.852128,146.374703 536.188936,149.835192 L540.077431,152.142184 C543.101817,153.728242 545.982183,155.458486 548.86255,157.332918 L555.055339,161.225968 C558.799817,163.53296 562.256257,165.98414 565.856716,168.43532 L568.449046,170.453938 L571.761468,172.905118 L571.761468,172.905118 L571.761468,172.905118 L572.769596,173.626053 L574.929872,175.356297 L575.793982,176.077233 L575.793982,176.077233 L576.514073,176.077233 L576.514073,176.077233 L579.250422,178.240038 L579.250422,178.240038 L582.130789,180.547031 L605.60578,199.002972 C616.271802,206.453061 626.205802,214.902024 635.27356,224.235703 L640.170183,230.147372 C642.762514,233.463673 645.210826,236.924162 647.515119,240.384651 C649.819413,243.84514 651.979688,247.449816 653.851927,250.766118 C657.88444,258.119657 661.628917,265.905757 665.373394,274.556979 C667.821706,280.468648 670.126,286.380316 672.430294,292.436172 C674.734587,298.492027 676.462807,304.836257 678.191028,310.603739 C679.919248,316.37122 681.215413,322.138702 682.799615,329.636427 C684.383817,337.134153 684.95989,340.594642 685.968018,346.07375 L685.968018,348.669116 L687.696239,359.483144 C687.696239,363.08782 688.560349,366.692496 688.848385,370.297172 C689.136422,373.901848 688.848385,379.380955 689.568477,384.715876 C689.568477,386.734494 689.568477,388.8973 689.568477,390.915918 C689.568477,392.934537 689.568477,395.241529 689.568477,397.260148 C689.756012,402.521695 690.236821,407.768656 691.008661,412.976535 L691.008661,416.725398 C690.14455,423.790563 689.424459,431.144102 688.41633,437.920893 L688.41633,437.920893 C687.55222,443.832561 686.544092,449.74423 685.535963,455.655898 C685.535963,455.655898 685.535963,456.52102 685.535963,456.953582 C685.535963,459.260574 684.383817,461.567567 683.951761,464.018746 C683.519706,466.469926 683.951761,467.046674 682.799615,468.488545 C681.647468,469.930415 681.791486,472.814156 681.359431,474.976961 C679.631211,481.177004 677.758972,487.088672 675.886734,492.711967 L672.430294,502.372498 L672.430294,503.958556 L670.270018,509.870224 L668.109743,515.637706 L668.109743,515.637706 C665.517413,522.558684 662.925083,530.05641 660.044716,536.689013 L660.044716,536.689013 C659.457551,537.814462 658.928781,538.969494 658.460514,540.149502 C657.02033,543.17743 655.580147,546.205358 653.851927,549.52166 L652.69978,551.107717 C651.499738,552.62465 650.39353,554.213677 649.387358,555.865889 L649.387358,557.30776 L648.379229,558.893817 L646.651009,561.20081 L642.762514,566.391543 C637.86589,573.312521 633.113284,580.810247 628.360679,587.298663 L621.159761,596.23826 C618.567431,599.554562 616.119119,602.726676 613.670807,606.187165 C611.222495,609.647654 609.638294,611.81046 607.766055,614.6942 L607.766055,614.6942 L604.74167,617.433754 L600.421119,621.615178 C600.358672,621.900164 600.358672,622.195315 600.421119,622.480301 C599.124954,623.633797 597.972807,624.93148 596.676642,625.940789 C595.380477,626.950099 592.644128,629.689652 590.483853,631.564084 L583.138917,638.196688 L580.834624,640.359493 L574.929872,645.838601 C572.049505,648.433967 569.025119,650.885147 566.000734,653.192139 C561.923593,656.241961 557.693546,659.081337 553.327119,661.699175 L551.454881,662.996858 L535.468844,673.522512 C524.811486,680.587677 514.154128,687.22028 503.928826,692.987762 L499.032202,695.583129 L499.032202,695.583129 L494.279596,695.583129 L490.679138,696.592438 L487.078679,697.601747 L484.054294,698.322682 L484.918404,697.601747 L486.214569,696.304064 L492.695394,690.248208 L492.695394,690.248208 L498.600147,684.192353 C500.760422,681.741173 502.920697,679.289993 504.936954,676.694627 C510.504392,669.886729 515.604719,662.709003 520.202899,655.210758 C520.347503,654.839887 520.347503,654.428133 520.202899,654.057262 C520.291347,653.775686 520.291347,653.473716 520.202899,653.192139 L519.482807,653.192139 C518.913422,653.180198 518.374713,653.449868 518.042624,653.913075 L514.154128,656.796815 L512.28189,659.680556 C509.833578,663.285232 507.097229,667.034095 503.784807,671.359706 C500.472385,675.685317 499.752294,676.694627 497.592018,679.145806 L489.815028,687.364467 C487.366716,689.815647 484.774385,692.12264 482.182055,694.285445 L474.117028,701.062236 L474.117028,701.062236 L468.500312,702.648293 C462.739578,704.378538 456.834826,705.532034 450.786055,706.829717 C444.737284,708.127401 438.97655,709.280897 432.92778,710.290206 L424.718734,711.732077 C418.381927,711.732077 412.189138,712.741386 405.85233,713.318134 L396.203101,714.47163 L386.265835,715.913501 C379.929028,716.92281 373.59222,718.220493 367.399431,719.37399 L363.222899,720.094925 L360.198514,720.094925 C357.174128,720.094925 354.149743,720.094925 351.125358,720.094925 L332.402972,721.104234 L318.001138,721.104234 L311.808349,721.104234 L303.455284,721.104234 L302.159119,721.104234 L299.710807,719.950738 L296.974459,718.941429 L294.382128,718.076306 C291.069706,716.92281 287.757284,715.48094 284.588881,714.183256 L283.724771,714.183256 L278.54011,711.732077 L274.507596,709.569271 L273.787505,709.569271 C270.72772,707.748737 267.792814,705.725615 265.002385,703.513416 L262.698092,701.638984 C259.961743,699.476179 257.369413,697.169186 254.777083,694.718006 L252.616807,692.699388 L250.60055,690.824956 L249.304385,689.383086 C247.000092,687.076093 244.55178,684.33654 241.815431,681.020238 L237.494881,675.252756 C236.054697,673.234138 234.758532,671.215519 233.462367,669.052714 C232.370158,667.422493 231.360748,665.738173 230.437982,664.006167 L230.437982,662.996858 C229.429853,661.122427 228.565743,659.247995 227.701633,657.229377 L226.117431,656.796815 C225.93345,656.143339 225.354426,655.679577 224.677248,655.643319 L224.677248,655.643319 C224.396001,655.554768 224.094384,655.554768 223.813138,655.643319 C223.668534,656.01419 223.668534,656.425944 223.813138,656.796815 C223.813138,657.950312 224.821266,658.959621 225.253321,660.113117 L225.253321,660.834052 C225.253321,661.987549 226.405468,663.285232 227.12556,664.438728 C227.845651,665.592225 230.437982,670.20621 232.166202,673.089951 C233.894422,675.973691 235.478624,678.280684 237.206844,680.731864 C238.935064,683.183043 241.383376,686.210971 243.68767,688.806338 C247.35719,692.912615 251.251683,696.81167 255.353156,700.485488 L256.793339,701.783171 C261.356669,706.342246 266.430973,710.35806 271.915266,713.750695 C273.965504,715.014573 276.080692,716.169663 278.252073,717.211184 L283.724771,719.806551 L284.444862,719.806551 L287.037193,720.960047 L289.773541,722.113543 L287.181211,723.26704 Z" id="Shape"></path>
            <path d="M69.7135046,460.41407 C68.4173394,455.07915 67.1211743,449.74423 65.9690275,444.409309 C64.8168807,439.074389 63.9527706,435.758087 63.2326789,431.576663 C62.5125872,427.395239 62.3685688,427.251052 62.0805321,425.088246 C61.7924954,422.925441 62.0805321,420.185887 60.9283853,417.59052 C59.7762385,414.995154 60.9283853,412.111413 59.9202569,409.371859 C58.9121284,406.632305 59.9202569,403.460191 59.2001651,400.432263 C58.4800734,397.404335 59.2001651,394.520594 59.2001651,391.636854 C59.2001651,388.753113 59.2001651,388.753113 59.2001651,387.311242 L59.2001651,382.841444 C59.2001651,376.929776 59.2001651,371.018107 59.9202569,365.106439 L60.784367,355.445907 C60.784367,352.562166 60.784367,349.534239 61.9365138,346.650498 C61.9365138,341.315577 63.5207156,335.980657 64.6728624,330.789924 L66.4010826,322.427076 C66.4010826,321.129392 66.4010826,319.687522 67.409211,318.245651 C67.6777456,316.978807 68.0142764,315.727371 68.4173394,314.496789 C68.6654022,313.783364 69.0042338,313.104907 69.4254679,312.47817 L69.4254679,312.47817 C69.5377241,311.993371 69.3923379,311.484886 69.040854,311.13299 C68.68937,310.781094 68.1814795,310.635538 67.6972477,310.747926 C66.977156,310.747926 66.6891193,310.747926 66.2570642,311.613048 C65.8250092,312.47817 65.5369725,313.054918 65.1049174,313.775853 C64.4709082,315.305971 63.7496284,316.798362 62.9446422,318.245651 C62.2491249,319.486818 61.6705541,320.790127 61.216422,322.138702 L59.3441835,326.896874 C58.336055,329.924802 57.3279266,332.808542 56.4638165,335.83647 C55.5997064,338.864398 55.5997064,338.864398 55.3116697,340.450455 C55.023633,342.036513 54.3035413,344.199318 54.0155046,345.929563 C53.7274679,347.659807 53.2954128,349.245865 53.0073761,350.976109 C52.6975403,352.356962 52.4572067,353.752529 52.2872844,355.157533 C52.2872844,358.906396 51.1351376,362.655259 50.7030826,366.404122 C50.2710275,370.152985 49.9829908,372.459978 49.6949541,375.487905 C49.4069174,378.515833 49.6949541,378.804207 49.6949541,380.390265 C49.6236221,381.735063 49.6236221,383.082703 49.6949541,384.427502 C49.6949541,387.743804 49.6949541,390.915918 49.6949541,394.23222 C49.6949541,397.548522 49.6949541,401.153198 49.6949541,404.613687 C49.6949541,408.074176 49.6949541,411.246291 50.5590642,414.70678 C51.4231743,418.167268 50.5590642,421.339383 51.711211,424.655685 C52.8633578,427.971987 52.7193394,431.865037 53.2954128,435.469713 C53.8714862,439.074389 54.591578,441.95813 55.1676514,445.274431 C55.7437248,448.590733 56.7518532,451.762848 57.471945,454.934963 C58.1920367,458.107078 59.2001651,461.279193 60.0642752,464.30712 C60.9283853,467.335048 61.3604404,468.344357 61.9365138,470.218789 C62.5125872,472.09322 64.8168807,478.004889 66.4010826,481.897939 C66.6092593,482.651391 67.0661199,483.312074 67.6972477,483.77237 C68.6116333,484.191969 69.6632291,484.191969 70.5776147,483.77237 C71.5527206,483.541744 72.3877364,482.914749 72.8819083,482.042126 C73.2462764,481.065779 73.2462764,479.990546 72.8819083,479.014198 C72.3058349,472.958343 71.1536881,466.614113 69.7135046,460.41407 Z" id="Path"></path>
            <path d="M88.5799083,534.814582 C88.283213,534.004879 87.8967487,533.231045 87.4277615,532.507589 C86.8426855,531.120022 86.1692141,529.771501 85.4115046,528.470352 C85.0909857,528.142508 84.8453073,527.748962 84.6914128,527.316856 L82.9631927,525.009863 L82.0990826,523.423806 L80.3708624,522.270309 C80.0437847,522.160406 79.6898117,522.160406 79.3627339,522.270309 C78.3198378,522.249253 77.4108683,522.97728 77.2024587,524.000554 C77.1357686,524.623581 77.1357686,525.251959 77.2024587,525.874985 L77.2024587,527.028482 C77.1215993,527.843536 77.1215993,528.664607 77.2024587,529.479661 C77.2024587,529.479661 77.2024587,530.777345 77.2024587,531.49828 C77.2024587,532.219215 77.2024587,533.084337 77.2024587,533.94946 C77.4764443,534.790742 77.8134438,535.610128 78.2105872,536.400639 C78.2105872,537.265761 78.9306789,537.986697 79.2187156,538.851819 L79.9388073,540.149502 C79.9388073,541.014624 81.2349725,541.879747 81.8110459,542.889056 C82.8750986,544.586476 84.9119024,545.402151 86.8516881,544.907674 C89.1822286,544.210983 90.526956,541.774817 89.8760734,539.428567 C89.5608607,537.860046 89.1275691,536.31765 88.5799083,534.814582 L88.5799083,534.814582 Z" id="Path"></path>
            <path d="M284.732899,79.0393564 C287.181211,75.1463063 289.773541,71.5416304 292.077835,67.6485804 L295.534275,61.7369119 C296.542404,59.8624804 297.262495,57.8438619 298.126606,55.8252433 C298.742216,54.6145425 299.271602,53.3618014 299.710807,52.0763804 C299.710807,51.3554452 299.710807,50.4903229 298.702679,50.2019489 L298.702679,50.2019489 C298.025501,50.2382069 297.446477,50.701969 297.262495,51.3554452 L297.262495,51.3554452 L296.254367,53.5182507 C295.875895,54.2700457 295.44267,54.9929334 294.958202,55.6810563 C293.806055,57.4113007 292.797927,59.1415452 291.64578,60.7276026 C290.493633,62.31366 287.325229,66.7834582 285.020936,69.6671989 L279.260202,77.1649249 C277.387963,79.6161045 275.659743,82.0672841 273.931523,84.6626508 C272.203303,87.2580175 272.491339,87.1138305 271.627229,88.2673268 L269.754991,91.5836286 C268.996724,93.0330712 268.323496,94.5255355 267.738734,96.0534268 L266.586587,98.6487935 C266.183276,99.9280775 265.846777,101.22752 265.578459,102.541843 C265.350096,103.86805 266.068326,105.176067 267.309122,105.69367 C268.549917,106.211274 269.983336,105.800827 270.763119,104.704649 L273.499468,99.9464768 L274.795633,97.2069231 C275.803761,95.3324916 276.667872,93.3138731 277.820018,91.4394416 C279.836275,87.2099551 282.140569,83.0765934 284.732899,79.0393564 Z" id="Path"></path>
        </g>
    </g>
</svg>