<svg width="448" height="76" viewBox="0 0 448 76" fill="none" xmlns="http://www.w3.org/2000/svg">
<path d="M3 47.0126C19.2727 41.0952 36.5044 43.3077 53.5746 42.1326C99.4696 38.9732 145.12 30.9189 190.88 26.1617C251.441 19.8657 312.222 14.7793 372.882 9.52529C395.561 7.56099 463.628 3.58731 440.869 3.09256C381.876 1.81008 323.224 14.1589 264.857 21.2817C202.117 28.938 136.068 40.63 72.651 35.0344C51.0434 33.1279 73.5624 33.038 80.3037 33.038C181.775 33.038 279.904 9.41111 380.757 3.5362C383.713 3.36399 392.591 3.09256 389.629 3.09256C376.918 3.09256 364.174 2.79477 351.477 3.5362C291.181 7.05714 231.688 19.0895 172.691 31.2635C148.439 36.2678 124.104 40.8255 99.8237 45.6817C91.1841 47.4096 65.7827 51.2902 74.4255 53.0017C115.342 61.104 162.799 47.0373 203.635 44.3508C245.583 41.591 290.423 37.3041 332.4 41.4671C340.16 42.2367 334.617 45.5104 330.737 47.0126C314.184 53.4201 295.142 52.9752 277.722 53.9999C253.582 55.4199 226.448 55.0786 202.969 61.6526C175.068 69.465 260.58 55.4019 289.367 52.1144C306.603 50.1461 323.784 47.9144 340.94 45.349C345.601 44.652 359.432 43.4662 354.804 42.5762C342.205 40.1534 326.934 41.2453 314.433 41.2453C285.454 41.2453 256.53 42.6824 227.591 44.018C205.113 45.0555 180.216 43.4109 157.94 47.1235C130.309 51.7288 214.124 47.1113 241.898 43.4635C264.102 40.5474 286.262 37.542 308.555 35.3671C309.003 35.3234 352.412 31.1767 323.528 38.1399C285.655 47.2698 245.314 46.2697 206.629 49.4526C191.967 50.659 177.331 52.0425 162.709 53.6671C161.378 53.815 160.054 54.0365 158.716 54.1108C156.033 54.2599 164.037 53.3514 166.702 53.0017C212.786 46.9531 258.185 36.6667 303.897 28.3799C313.693 26.6038 342.861 25.7914 333.288 23.0562C325.563 20.8491 308.686 27.7186 301.568 29.0453C248.344 38.965 194.418 44.4827 140.416 47.789C132.244 48.2893 122.55 47.8131 114.353 49.4526C107.871 50.749 127.549 48.4884 134.095 47.5671C187.893 39.9955 241.421 28.5913 295.578 23.9435C303.655 23.2504 311.82 23.2186 319.868 22.1689C320.78 22.0499 303.536 24.2508 302.455 24.3871C255.609 30.292 208.223 33.5481 161.6 41.0235C148.299 43.1561 109.539 52.5937 123.004 53.0017C130.249 53.2213 138.918 50.9208 145.851 49.7853C171.361 45.607 196.884 41.5942 222.489 38.029C253.751 33.6761 293.982 23.0709 325.635 31.1526C326.839 31.46 329.117 31.3524 329.073 32.5944C328.891 37.7021 319.259 35.5672 314.211 36.3653C288.241 40.4709 262.08 43.0662 235.909 45.4599C203.447 48.429 170.988 52.2642 138.975 58.5471C135.323 59.2638 124.828 62.5399 128.549 62.5399C143.533 62.5399 159.316 58.1272 174.022 55.8853C226.356 47.9076 279.353 41.1521 332.178 37.4744C335.214 37.2631 344.106 37.1421 341.273 38.2508C329.027 43.0427 313.406 43.1767 300.569 45.238C246.657 53.8955 84.3718 72.0781 138.975 72.0781C171.253 72.0781 205.031 63.9316 236.797 59.1017C271.796 53.7801 307.023 47.7709 342.382 45.4599C394.758 42.0366 239.295 66.0066 187.109 71.6344C159.992 74.5589 182.885 72.19 195.095 70.969C233.798 67.0987 272.123 60.3584 310.662 55.2199C325.054 53.3009 368.508 50.0436 354.028 51.1162C323.84 53.3523 294.072 58.1742 264.08 62.0962C233.836 66.0513 202.394 70.969 171.804 70.969C145.478 70.969 223.899 63.3242 249.884 59.1017C271.944 55.5168 294.462 51.2 316.762 49.3417C343.201 47.1384 264.5 58.7568 238.127 61.6526C221.44 63.4849 172.379 69.3444 187.775 62.6508C212.105 52.0722 243.323 50.8396 269.182 46.3471C276.245 45.1202 283.666 44.5373 290.698 43.1308C295.731 42.1243 280.447 43.9055 275.393 44.7944C246.993 49.7893 219.024 57.1038 190.547 61.7635C188.905 62.0322 183.963 62.1325 185.557 61.6526C201.469 56.8598 218.343 55.1271 234.8 53.4453C246.948 52.2039 259.132 51.2681 271.289 50.1181C271.719 50.0774 279.993 49.1371 281.937 49.3417C282.937 49.447 280.451 50.7982 279.497 51.1162C260.499 57.4486 238.922 59.2104 219.162 61.6526C190.675 65.1735 221.124 58.0766 230.807 56.5508C245.02 54.3113 265.044 56.2436 278.277 50.229C297.979 41.2733 235.771 58.4205 214.615 62.9835" stroke="#0B0C0B" stroke-width="5" stroke-linecap="round"/>
<path d="M38.9346 35.0345L28.9528 33.0381" stroke="#0B0C0B" stroke-width="5" stroke-linecap="round"/>
</svg>
