<svg width="132" height="85" viewBox="0 0 132 85" fill="none" xmlns="http://www.w3.org/2000/svg">
<path d="M77.8636 6.99268C80.2365 11.0839 82.3079 12.2541 85.8491 14.9781" stroke="#1FA71C" stroke-width="5" stroke-linecap="round"/>
<path d="M78.8618 3C81.399 5.95019 83.999 8.39616 86.8473 10.9855" stroke="#1FA71C" stroke-width="5" stroke-linecap="round"/>
<path d="M74.8691 16.9745L84.851 21.9654" stroke="#1FA71C" stroke-width="5" stroke-linecap="round"/>
<path d="M70.8763 21.9655C74.0616 24.41 77.1788 26.3777 80.8582 27.9545" stroke="#1FA71C" stroke-width="5" stroke-linecap="round"/>
<path d="M68.88 24.96C71.8679 28.3628 74.663 30.3727 78.8618 31.9472" stroke="#1FA71C" stroke-width="5" stroke-linecap="round"/>
<path d="M63.3462 30.0431C66.4163 33.681 69.1872 35.8371 74.3462 37.0431" stroke="#1FA71C" stroke-width="5" stroke-linecap="round"/>
<path d="M65.8855 39.9327L75.8673 44.9237" stroke="#1FA71C" stroke-width="5" stroke-linecap="round"/>
<path d="M64.8873 47.9182C68.1997 50.0203 71.3184 51.3874 74.8692 52.9091" stroke="#1FA71C" stroke-width="5" stroke-linecap="round"/>
<path d="M65.8855 55.9037C69.981 57.1172 73.6666 57.4337 77.8637 57.9001" stroke="#1FA71C" stroke-width="5" stroke-linecap="round"/>
<path d="M67.8818 60.8945C72.0347 61.9642 76.0243 62.9694 79.86 64.8873" stroke="#1FA71C" stroke-width="5" stroke-linecap="round"/>
<path d="M70.8763 68.88C74.2078 69.4026 77.4839 69.8782 80.8582 69.8782" stroke="#1FA71C" stroke-width="5" stroke-linecap="round"/>
<path d="M74.8691 74.8691C77.4604 75.7153 80.0919 76.8655 82.8546 76.8655" stroke="#1FA71C" stroke-width="5" stroke-linecap="round"/>
<path d="M79.86 79.86L84.8509 80.8582" stroke="#1FA71C" stroke-width="5" stroke-linecap="round"/>
<path d="M95.8309 45.9218C97.4699 53.9344 99.4788 61.8196 100.822 69.8781" stroke="#1FA71C" stroke-width="5" stroke-linecap="round"/>
<path d="M98.8254 40.9309C100.413 47.2794 102.019 53.6061 103.816 59.8964" stroke="#1FA71C" stroke-width="5" stroke-linecap="round"/>
<path d="M104.815 35.9399C104.907 40.7491 105.302 45.3889 106.811 49.9145" stroke="#1FA71C" stroke-width="5" stroke-linecap="round"/>
<path d="M105.813 31.9473C106.42 34.1107 106.694 38.8763 108.807 39.9327" stroke="#1FA71C" stroke-width="5" stroke-linecap="round"/>
<path d="M109.806 29.9509C110.179 32.6125 110.507 35.2681 110.804 37.9364" stroke="#1FA71C" stroke-width="5" stroke-linecap="round"/>
<path d="M110.804 26.9563C111.607 28.5294 112.932 30.792 113.798 31.9472" stroke="#1FA71C" stroke-width="5" stroke-linecap="round"/>
<path d="M116.793 19.9691C116.864 23.1048 116.631 26.5156 118.789 27.9546" stroke="#1FA71C" stroke-width="5" stroke-linecap="round"/>
<path d="M120.786 15.9763V22.9636" stroke="#1FA71C" stroke-width="5" stroke-linecap="round"/>
<path d="M124.778 9.98718C124.778 11.5207 123.672 17.0286 125.776 15.9763" stroke="#1FA71C" stroke-width="5" stroke-linecap="round"/>
<path d="M125.776 7.99084L128.771 11.9836" stroke="#1FA71C" stroke-width="5" stroke-linecap="round"/>
<path d="M60.8946 69.8782C60.8946 74.8946 60.7101 78.0416 63.8891 81.8564" stroke="#1FA71C" stroke-width="5" stroke-linecap="round"/>
<path d="M52.9091 69.8782C53.8525 73.9351 55.9036 77.6527 55.9036 81.8564" stroke="#1FA71C" stroke-width="5" stroke-linecap="round"/>
<path d="M46.92 66.8837C47.6403 72.1655 49.0043 76.0871 50.9128 80.8582" stroke="#1FA71C" stroke-width="5" stroke-linecap="round"/>
<path d="M40.9309 69.8782C41.3124 74.0742 42.832 75.4629 44.9236 78.8618" stroke="#1FA71C" stroke-width="5" stroke-linecap="round"/>
<path d="M34.9418 67.8818C35.8889 72.4071 37.4882 76.5193 38.9345 80.8582" stroke="#1FA71C" stroke-width="5" stroke-linecap="round"/>
<path d="M27.9545 65.8855C29.5672 71.0958 30.9122 76.3112 33.9436 80.8582" stroke="#1FA71C" stroke-width="5" stroke-linecap="round"/>
<path d="M20.9673 66.8837C22.3869 70.9848 24.6178 74.8405 25.9582 78.8619" stroke="#1FA71C" stroke-width="5" stroke-linecap="round"/>
<path d="M15.9763 66.8837L19.969 74.8691" stroke="#1FA71C" stroke-width="5" stroke-linecap="round"/>
<path d="M8.98901 62.8909C10.9451 67.2377 12.9272 71.2102 15.9763 74.8691" stroke="#1FA71C" stroke-width="5" stroke-linecap="round"/>
<path d="M3 61.8927C4.46666 64.8718 5.76997 67.8194 6.99273 70.8763" stroke="#1FA71C" stroke-width="5" stroke-linecap="round"/>
</svg>
