<svg width="300" height="297" viewBox="0 0 300 297" fill="none" xmlns="http://www.w3.org/2000/svg">
<g clip-path="url(#clip0_212_26)">
<path fill-rule="evenodd" clip-rule="evenodd" d="M58.6594 123.885C59.0619 124.188 59.7607 124.386 59.0619 124.986C58.5607 125.685 57.9607 126.285 57.5619 127.086C57.1632 127.788 56.8632 127.986 56.2632 127.488C57.0607 126.186 57.8581 124.982 58.6556 123.881L58.6594 123.885ZM259.526 228.759C259.526 229.056 259.625 229.253 259.625 229.557C259.826 229.158 259.826 228.957 259.929 228.759H259.526ZM259.526 229.656V229.557V229.656ZM239.142 268.682L221.749 172.219C221.453 172.124 221.054 171.926 220.352 171.725C220.553 172.124 220.656 172.424 220.754 172.724C221.248 172.625 221.453 172.625 221.651 172.526C221.651 172.428 221.651 172.329 221.753 172.223L239.145 268.694L239.142 268.682ZM221.153 150.505C221.054 150.801 221.054 151.105 221.054 151.405C221.054 151.101 221.054 150.797 221.161 150.501L221.153 150.505ZM221.252 152.502C221.153 152.502 221.153 152.502 221.054 152.396V152.495C221.161 152.594 221.161 152.594 221.259 152.495L221.252 152.502ZM221.054 153.3V152.597C220.762 152.696 220.462 152.696 220.059 152.799C220.561 152.988 221.062 153.095 221.062 153.292L221.054 153.3Z" fill="#DD3735"/>
<path fill-rule="evenodd" clip-rule="evenodd" d="M298.899 128.988C298.701 125.085 298.603 121.181 298.2 117.281C297.501 111.976 296.803 106.572 295.603 101.369C294.703 97.067 293.21 92.9619 291.706 88.8606C289.808 84.0568 287.909 79.1543 285.509 74.5518C281.613 67.1467 276.516 60.5391 271.819 53.6353C268.713 49.2303 264.718 45.6303 261.718 41.1265C260.02 38.5252 257.521 36.3265 255.023 34.329C251.024 31.1201 246.828 28.2151 242.632 25.4163C239.434 23.2138 236.237 21.1138 232.834 19.2113C230.138 17.7037 227.24 16.5037 224.442 15.2011C221.244 13.7011 218.146 11.8973 214.549 11.1986C213.646 11.0087 212.848 10.7049 211.948 10.4011C209.651 9.60368 207.452 8.70368 205.151 8.00114C201.657 6.89988 198.258 5.60114 194.658 4.69735C191.172 3.79735 187.572 3.20114 183.972 2.69608C179.977 2.10747 175.884 1.89861 171.881 1.50747C169.284 1.20368 166.686 0.907473 164.187 0.808739C160.39 0.61127 156.494 0.61127 152.696 0.512536C150.797 0.410005 148.8 0.208739 146.901 0.31127C144.004 0.410005 141.106 0.710005 138.205 1.10874C135.41 1.41254 132.611 1.90621 129.915 2.31254C126.623 2.71127 123.327 2.91254 120.027 3.31507C116.928 3.7176 113.73 4.3176 110.635 4.81887C109.534 5.02013 108.433 5.41886 107.332 5.61633C104.939 6.1176 102.44 6.31887 100.04 7.12013C95.7493 8.42646 91.4468 9.93026 87.2506 11.5252C83.3506 13.1277 79.5531 14.829 75.8582 16.8303C72.0607 18.9265 68.4607 21.4252 64.8645 23.8328C61.462 26.1341 58.0671 28.5341 54.7633 31.1353C51.5734 33.6416 48.5734 36.4404 45.6721 39.2429C44.0772 40.8378 42.7747 42.7442 41.2747 44.5442C38.7797 47.4492 36.281 50.248 33.881 53.2518C31.8911 55.7581 30.0835 58.3556 28.1848 60.9606C24.7936 65.5556 21.8962 70.4619 19.2 75.3682C18.0987 77.3695 17.1 79.3708 16.1012 81.3682C14.6012 84.3682 13.0025 87.2733 11.605 90.3758C10.6025 92.4796 9.80504 94.7809 9.20504 97.0822C7.81137 101.988 6.4101 106.994 5.11137 111.892C3.91137 116.297 3.61137 120.9 3.51643 125.404C3.4139 129.406 3.81264 133.31 4.21137 137.313C4.3139 138.315 3.7177 139.515 4.9101 140.313C4.51137 141.414 4.81137 142.021 5.40378 142.211C4.71264 143.313 5.70757 144.019 5.31264 145.021C5.2101 145.219 5.61643 145.618 5.80631 145.918C5.80631 146.221 5.71137 146.62 5.80631 146.92C5.91264 147.82 6.31137 148.72 6.31137 149.723C6.31137 150.421 6.90757 151.223 7.10884 151.925C7.20757 152.221 7.10884 152.723 6.90757 152.924C6.30757 153.623 6.40631 154.223 7.30631 154.625C7.81137 155.924 7.6101 156.524 7.51137 157.132C7.70884 158.028 7.40884 158.328 7.51137 158.529C8.30884 160.132 8.61264 161.932 8.70757 163.732C8.70757 164.134 8.90884 164.537 9.1101 165.034C9.20884 165.034 9.1101 166.933 9.1101 166.933C9.60378 166.637 10.0101 166.538 10.5076 166.337C10.8114 167.635 11.1076 168.843 11.5063 169.944C12.0076 170.742 12.0076 171.137 11.8101 171.235C12.2088 173.035 12.4063 174.737 13.1012 176.438C13.1012 174.539 12.9114 172.64 12.6076 170.837C14.005 171.338 15.205 171.835 16.0063 171.835C16.1088 171.532 16.2076 171.137 16.3101 170.935C15.7101 170.339 15.2088 169.439 14.6088 168.839C14.8101 169.637 14.6088 169.94 14.6088 170.244C14.2101 170.039 13.7088 169.838 13.2114 169.637C13.6101 169.143 14.0088 168.638 14.6088 168.042C14.6088 167.138 14.1152 166.333 12.7101 166.435C13.3101 166.238 13.9101 165.942 14.6088 165.737C15.7101 165.14 14.5101 164.039 14.5101 162.638C14.6088 160.94 13.6101 159.239 13.3101 157.435C12.8088 154.637 12.9114 150.433 12.6114 147.63C12.0114 147.129 11.5101 148.428 11.4114 148.53C11.7152 150.93 12.0114 153.33 12.2088 155.734C11.6126 153.733 11.2101 151.53 10.7126 149.126C10.6101 149.829 10.5114 150.129 10.5114 150.532C10.0177 151.025 10.4126 151.633 10.7126 152.332C10.0139 152.028 9.21264 152.134 9.21264 152.134V154.937C8.2177 153.934 7.9215 153.137 7.41643 152.43C7.21897 151.633 7.11264 150.835 6.92276 150.038C7.11264 149.533 6.92276 149.233 6.92276 148.937C6.81643 148.23 6.7177 147.433 6.61897 146.529C6.7177 146.43 6.52023 144.934 6.52023 144.934C7.3177 145.029 7.82276 145.124 8.32023 145.124C7.3215 143.833 8.01643 143.028 8.42276 142.226C8.62403 141.824 9.32276 141.733 9.52403 141.323C10.3215 139.823 11.624 138.626 11.624 136.72C11.624 135.82 11.9278 134.821 12.0228 133.918C12.224 132.216 12.4215 130.515 12.5164 128.814C12.7215 126.611 12.5164 124.409 13.0215 122.309C13.8266 118.815 14.8253 115.31 15.9228 111.805C16.7202 109.299 17.624 106.906 18.619 104.4C20.119 100.496 21.5202 96.5923 23.419 92.8935C26.1152 87.4859 29.2139 82.2834 32.2139 76.9821C34.1126 73.6784 36.1101 70.5758 38.2139 67.3746C40.2076 64.272 42.2012 61.0708 44.5063 58.1657C47.7076 54.0644 51.205 50.2594 55.1012 46.8568C59.1 43.2568 62.8974 39.5543 67.1924 36.2505C72.7823 31.9366 78.6835 28.1391 84.9721 24.8353C90.0721 22.1391 95.3658 20.0277 100.663 18.0265C104.062 16.7277 107.757 16.1277 111.258 15.0265C115.253 13.7239 119.252 13.1277 123.448 13.0252C126.144 12.9227 128.746 12.6227 131.442 12.3227C133.842 12.1328 136.238 11.9277 138.839 11.6277C138.535 12.0265 138.437 12.2277 138.338 12.4252C137.244 14.0277 136.044 15.6303 134.943 17.229C134.043 18.5315 133.044 19.9328 132.144 21.2315C130.542 23.3391 128.84 25.4391 127.344 27.6416C125.047 30.9454 122.947 34.348 120.547 37.648C118.154 40.8492 115.553 43.853 113.054 46.9518C109.758 51.2581 106.659 55.6594 103.363 59.9619C100.363 64.0632 97.1734 67.9746 94.2721 72.0758C91.6747 75.672 89.3734 79.4809 86.8747 83.1758C83.1797 88.6822 79.481 94.0822 75.7861 99.5885C72.8848 103.788 69.9873 107.894 66.9911 112.097C66.7899 112.401 66.4898 112.492 66.1936 112.694C65.3962 113.992 65.3962 114.695 65.0924 115.295C64.2949 116.795 63.4974 118.295 62.5937 119.7C62.0924 120.497 61.3937 121.196 60.7937 121.997C60.6949 120.797 62.3886 120.197 61.5911 118.694C61.0974 119.499 60.5924 120.197 60.0949 120.999L58.8949 123.391C59.2937 123.695 59.9962 123.896 59.2937 124.492C58.9899 124.997 58.6937 125.594 58.3937 126.099C58.8949 125.795 59.1911 125.499 59.4949 125.096C59.4949 126.197 58.8949 127.094 58.3937 127.994C57.9949 128.791 56.9962 129.399 56.2974 129.995C56.3962 130.097 57.0949 130.397 57.1974 130.496C58.0974 130.192 58.3974 129.699 58.5 129.995C58.8038 129.596 59.1 129.296 59.1987 128.996C59.5937 127.994 60.1937 127.196 61.1924 126.794C61.5949 126.592 61.8911 126.292 62.1911 125.996C65.1911 122.89 68.2899 119.89 70.9861 116.586C75.1861 111.478 78.9835 106.181 82.9861 100.978C84.6797 98.7758 86.681 96.5733 88.4772 94.4695C88.7734 96.7708 88.5759 98.9695 88.4772 101.077C88.1734 104.776 87.9759 108.482 87.6797 112.28C87.5772 113.78 87.6797 115.28 87.5772 116.783C87.5772 117.182 87.2734 117.482 87.2734 117.885C87.2734 118.883 87.5772 119.985 87.5772 120.987C87.2734 124.69 86.8709 128.29 86.5709 131.992C86.4683 132.79 86.8671 133.595 87.0645 134.297C86.5709 139.697 87.6721 145.405 86.7683 151.109C87.4671 150.007 87.6683 149.309 87.6683 148.61C87.7633 148.01 87.6683 147.41 87.6683 146.711V145.709C87.7633 143.905 88.162 142.006 87.9645 140.202C87.7633 138.201 87.7633 136.302 88.1658 134.4C88.3671 133.602 88.0671 132.6 88.5683 131.597V133.097C88.4696 138.794 88.6709 144.501 87.8734 150.205C87.7709 150.706 88.1772 151.61 87.0759 151.507C86.1721 153.307 87.2734 154.61 86.2785 155.609C86.0734 155.81 86.4683 156.71 86.5709 157.31C86.1683 158.514 86.1683 158.514 86.7683 158.613C86.8671 160.815 87.0721 162.813 87.1671 164.916C88.762 161.119 87.9645 157.207 88.6709 153.304C88.7696 154.906 88.8721 156.509 88.7696 158.202C88.7696 160.811 88.6709 163.31 88.5721 165.911C88.5721 166.413 88.4696 166.914 88.3709 167.415C88.0671 168.82 87.9721 170.218 87.4709 171.516C87.0721 172.519 87.2734 174.023 87.2734 175.219V179.028C87.6721 180.729 87.1709 181.629 87.4709 182.628C87.1671 183.634 87.0721 183.934 87.1671 184.234L87.4709 185.734C89.4721 185.533 88.5721 187.037 89.3696 187.834C88.7696 188.639 88.9709 188.935 88.9709 189.342C88.9709 190.242 88.8759 191.043 88.7734 191.943C88.7734 194.244 88.6747 196.545 88.6747 198.748C88.6747 199.052 88.7734 199.344 88.7734 199.644C88.7734 199.849 88.6747 202.454 88.6747 202.454C88.8759 202.751 88.6747 203.051 88.3709 203.351C88.2759 203.351 87.9759 190.64 87.9759 190.64H86.4759C86.2785 196.64 86.7797 202.044 85.6785 207.653C84.4785 207.748 84.0835 207.949 82.7772 207.949C79.6785 207.949 76.5797 207.949 73.481 208.048C69.7823 208.048 66.1899 208.147 62.4873 208.147C60.6949 208.147 58.7962 208.352 56.9962 208.352C54.5962 208.352 52.0974 208.048 49.705 208.048C46.0025 208.048 42.4063 208.352 38.7076 208.451C36.0114 208.549 33.3152 208.549 30.619 208.652C28.8152 208.747 27.0114 208.842 25.219 209.047C24.4215 209.145 23.719 209.445 22.7202 209.745C22.4164 209.745 21.7215 209.647 21.1253 209.745C20.119 209.947 19.2266 210.543 18.2202 210.748C16.7202 211.052 16.3215 211.447 16.519 212.951V213.949C16.4202 214.147 18.7215 213.645 18.7215 213.645C18.5164 213.645 18.4177 214.245 18.1139 214.747C18.919 214.443 19.4164 214.245 19.9177 214.048C21.4177 214.751 22.7164 214.352 23.9126 214.656C27.8088 215.651 31.8038 216.061 35.7987 216.452C38.4 216.653 40.8987 216.756 43.4962 216.851C47.1911 217.052 50.8899 217.253 54.5848 217.253C57.6835 217.253 60.6835 216.949 63.7747 216.949C68.0658 216.949 72.3721 217.147 76.6671 217.253C77.5671 217.253 78.5658 217.147 79.5645 217.147H86.8557C93.3569 216.949 99.8506 216.843 106.348 216.653C110.051 216.547 113.848 216.349 117.543 216.247L128.935 215.943C133.333 215.844 137.73 215.844 142.029 215.753C145.325 215.753 148.523 215.639 151.827 215.544C155.518 215.445 159.315 215.145 163.014 214.948C165.015 214.845 167.016 214.644 169.014 214.447C171.414 214.249 173.913 213.953 176.305 213.851C179.905 213.645 183.604 213.547 187.204 213.345C191.7 213.049 196.196 212.651 200.791 212.548C204.991 212.351 209.286 212.449 213.486 212.351C217.185 212.248 220.884 212.047 224.681 211.948L230.985 211.644C230.985 211.644 235.177 211.545 237.277 211.34C240.873 211.143 244.47 210.744 248.07 210.645C250.363 210.543 252.665 210.645 254.962 210.543C258.657 210.444 262.454 210.239 266.153 210.239C267.547 210.239 269.047 210.444 270.847 210.543C270.049 211.245 269.548 211.644 268.948 212.145C269.347 212.244 269.746 212.449 270.148 212.647C269.548 213.045 269.047 213.14 268.553 213.14C268.348 213.645 268.147 213.847 267.946 214.849H269.746C269.047 214.849 268.447 215.749 267.748 216.349C266.951 216.144 266.248 216.349 265.849 217.451C266.548 217.845 266.449 218.145 266.351 218.552C265.151 218.947 264.251 219.349 264.756 220.648C264.349 220.845 263.852 221.047 263.351 221.347C262.857 222.144 261.953 222.345 262.151 223.447C262.553 223.542 262.948 223.751 263.252 223.842C262.751 224.043 262.253 224.343 261.752 224.54C259.956 225.642 260.757 226.143 261.156 226.644C260.852 226.845 260.556 227.043 260.256 227.145C260.453 228.045 260.749 228.247 260.852 228.247C260.453 228.543 259.952 228.945 259.352 229.447C259.048 230.347 258.649 230.745 258.251 231.345C257.852 231.945 257.651 232.751 257.149 233.347C255.053 235.652 253.553 238.359 250.857 240.156C249.854 240.858 248.958 241.758 248.058 242.662C246.258 244.359 244.659 246.262 242.761 247.864C240.266 249.964 237.672 251.863 234.968 253.766C231.676 256.067 228.38 258.368 225.08 260.571C223.28 261.767 221.282 262.667 219.384 263.768C217.485 264.869 215.685 265.872 213.786 266.969C212.586 267.767 211.485 268.868 210.186 269.476C206.89 270.881 203.389 272.077 199.994 273.38C196.69 274.785 194.297 275.981 191.799 276.881C189.501 277.678 187.101 278.286 184.705 278.78C183.908 278.985 183.004 278.78 182.104 278.882C180.403 279.186 178.705 279.588 177.004 279.786C172.606 280.386 168.209 280.788 163.815 281.388C161.214 281.692 158.715 282.186 156.118 282.49C154.322 282.588 152.423 282.391 150.623 282.391C149.324 282.391 147.927 282.695 146.624 282.494C144.528 282.19 142.428 281.696 140.328 281.294C139.834 281.195 139.128 280.99 138.733 281.195C137.935 281.597 137.229 280.997 136.428 281.195C135.934 281.297 135.433 280.891 134.932 280.891C134.529 280.796 134.028 280.997 133.527 280.891C132.425 280.595 131.43 280.196 130.223 280.295C129.034 280.394 127.83 279.794 126.539 279.497C124.735 279.095 123.046 278.7 121.238 278.294C120.543 278.092 119.947 277.792 119.244 277.394C116.643 277.394 114.942 277.295 113.343 276.691C111.946 276.197 110.647 275.495 109.147 275.696C108.752 275.795 108.452 275.597 108.046 275.597C107.742 275.195 107.449 274.394 107.153 274.394C105.156 274.496 103.956 272.799 102.254 272.294C101.358 271.99 100.659 270.991 99.7595 270.691C97.5569 269.791 95.7645 267.892 93.2658 267.592C92.4683 267.49 91.6709 267.091 90.7671 266.795C91.0709 267.19 91.2607 267.49 91.5645 267.79C88.6671 266.385 85.9709 264.79 83.2709 263.286C82.8759 263.187 82.5759 262.792 82.2759 262.587L79.5797 260.787C78.0797 261.091 77.4797 260.483 77.0734 260.286C74.3772 258.387 71.2823 257.183 68.681 255.083C67.5797 254.18 66.2886 253.58 65.4911 252.478C64.0861 250.777 62.3886 249.577 60.4899 248.578C58.9937 247.781 57.5962 246.877 56.1987 245.977C55.4962 245.476 54.7937 244.876 54.7937 243.775C54.7937 243.072 54.4974 242.369 53.5974 242.772C53.1987 242.172 52.8 241.473 52.2987 241.272C51.0987 240.778 50.3012 239.867 49.4012 239.07C48.5012 238.272 47.8063 237.171 46.705 236.772C44.7038 235.975 43.5038 234.273 42.3076 232.872C39.505 229.568 37.0063 225.961 34.4088 222.467C34.2076 222.163 33.8088 221.962 33.5088 221.662C33.9076 222.763 34.4088 223.663 34.9063 224.662C33.9114 224.263 33.2126 223.561 32.6126 222.862C32.5101 222.964 39.505 234.471 39.505 234.471C40.1126 235.371 40.6063 236.275 41.2063 237.175C39.7063 237.273 38.7076 236.472 38.2063 235.572C37.3101 233.977 36.3076 232.975 34.3101 233.18C34.1126 232.473 33.9114 231.672 33.8164 230.977C33.4101 230.977 33.1139 230.977 32.4114 230.875C33.8164 233.077 35.0126 234.976 36.3114 237.178C35.8063 236.875 35.5139 236.677 35.305 236.578C37.1012 238.477 38.4 240.881 40.6974 242.085C41.1987 244.382 43.7962 245.483 44.3962 247.686C43.9025 247.583 43.4924 247.485 42.9911 247.382C42.1937 246.383 41.2936 245.385 40.3974 244.283C40.5949 244.982 40.8911 245.582 41.2936 246.083C42.4936 247.583 43.5949 249.083 44.9924 250.386C45.4936 250.895 46.1924 251.096 46.1924 251.996C46.9899 252.395 47.2936 252.49 47.5899 252.49C47.7949 253.097 47.4949 253.997 48.6911 253.796C49.4886 255.296 50.2861 255.296 51.3873 254.799C52.6899 256.101 53.3924 256.204 54.2886 255.406C54.2886 255.9 54.3873 256.401 54.3873 256.804C54.7861 256.602 54.6911 256.302 54.6911 255.801C55.1848 256.2 55.4886 256.401 55.6861 256.599C56.6848 258.004 57.5848 259.302 58.9823 260.404C60.881 262.006 62.5823 263.707 64.3747 265.207C67.8759 268.113 71.7797 270.516 75.6721 272.715C80.4721 275.419 85.0709 278.32 89.9658 280.918C95.8595 284.024 102.156 286.128 108.649 287.628C111.049 288.129 113.347 288.626 115.751 289.223C117.839 289.83 119.943 290.73 122.043 291.228C125.24 291.93 128.537 292.53 131.734 293.126C132.429 293.229 133.139 293.331 133.937 293.43C134.829 293.631 135.927 293.229 136.128 293.533C136.629 294.33 137.028 293.928 137.628 293.829C138.327 293.628 139.128 293.628 139.925 293.628C142.724 293.726 145.42 294.326 148.219 294.129C148.827 294.129 149.723 293.624 150.224 294.623C151.12 294.224 151.622 294.224 152.02 294.129C152.127 295.025 152.02 295.025 151.83 295.124C151.625 295.223 151.325 295.325 150.927 295.625C154.523 296.324 157.922 296.423 160.914 295.625C166.116 296.024 170.613 295.424 174.911 293.924C175.31 294.425 175.61 295.124 176.21 294.125C176.408 293.821 176.909 293.719 177.311 293.62C178.208 293.419 179.309 293.02 180.106 293.316C181.01 293.62 181.31 292.823 182.005 292.823C183.209 292.823 184.306 292.72 185.408 292.519C186.008 292.42 186.608 292.12 187.306 291.919C186.509 291.513 185.711 291.414 185.104 291.414C186.308 290.814 187.405 290.313 188.506 289.819C188.305 290.115 188.104 290.514 187.709 290.514H189.103C188.799 290.514 188.4 291.414 187.903 292.014C191.495 291.114 194.791 290.313 197.992 289.507C196.891 287.411 199.189 288.114 199.99 286.91C198.991 287.214 197.992 287.51 196.99 287.707C200.389 286.01 203.886 284.51 207.281 283.01C206.787 283.61 206.18 283.91 205.287 284.415C205.887 284.51 206.286 284.51 206.586 284.605C208.181 285.11 207.786 283.61 208.284 282.706C210.182 282.706 210.98 282.41 211.88 282.106C212.878 281.802 213.877 281.506 214.88 281.107C216.475 280.409 217.975 279.513 219.573 278.715C219.877 278.609 220.371 278.715 220.773 278.715C221.875 278.009 222.27 277.409 222.57 277.507C223.975 277.709 224.962 277.204 225.365 275.913C226.063 275.407 226.565 275.009 227.062 274.705C229.257 273.505 231.353 272.305 233.556 271.105C234.353 271.105 234.756 271.105 234.953 271.002C236.259 270.395 237.459 269.704 238.656 269.001C238.352 268.902 237.657 268.507 237.657 268.507C238.652 268.302 238.948 268.204 239.556 268.002C241.948 265.192 245.252 263.294 247.747 261.091C248.848 260.992 248.848 260.692 248.848 260.495C249.243 259.994 249.646 259.394 250.139 258.991C252.342 256.99 254.734 255.288 256.735 253.188C259.633 250.28 262.432 247.276 265.029 244.173C267.421 241.371 269.829 238.572 271.827 235.469C274.625 231.167 277.022 226.762 279.52 222.254C281.32 219.057 282.919 215.856 284.723 212.654C284.913 212.351 285.319 211.952 285.619 211.952C288.315 211.648 291.019 211.458 293.616 211.154C294.216 211.056 294.915 210.661 295.515 210.357C295.211 209.856 295.014 209.256 294.718 208.754C294.315 208.147 293.715 207.653 293.313 207.045C292.918 206.552 292.618 205.944 292.318 205.348C292.014 204.854 291.718 204.452 291.418 203.943C290.81 202.842 290.214 201.74 289.709 200.548C289.61 200.244 289.405 199.751 289.511 199.447C291.311 195.547 292.01 191.343 293.708 187.439C295.405 183.437 295.91 178.933 296.708 174.63C297.406 170.529 297.809 166.428 298.303 162.326C298.606 159.425 299.005 156.623 299.1 153.721C299.708 149.119 299.503 144.813 299.404 140.506C299.305 136.709 299.1 132.805 298.91 129L298.899 128.988ZM48.1709 252.171C47.4721 251.373 46.8721 250.469 46.1734 249.672L46.4772 249.368C47.5671 250.572 48.6683 251.772 49.7658 253.075C49.1658 252.771 48.4671 252.573 48.1709 252.171ZM49.7658 253.075C50.0696 252.972 50.3734 252.972 50.6696 252.873C50.9734 253.375 51.1709 253.975 51.4671 254.575C50.0696 254.472 49.3709 253.872 49.7696 253.075H49.7658ZM153.703 294.402V294.099C155.601 293.901 157.397 293.7 159.296 293.502V293.795C157.397 294.099 155.601 294.288 153.703 294.395V294.402ZM178.88 291.801C177.486 292.105 175.986 292.306 174.589 292.507C174.087 292.606 173.487 293.107 173.29 292.204C173.089 292.306 172.887 292.306 172.69 292.409C173.184 293.905 174.387 292.705 175.386 293.305C173.184 293.609 171.095 293.806 168.991 294.102V293.905C169.599 293.806 170.294 293.704 170.89 293.601V293.305C169.895 293.202 168.896 293.104 167.89 293.104C167.597 293.104 167.195 293.506 166.895 293.605C166.496 293.704 166.097 293.806 165.596 293.806C163.899 293.905 162.201 293.905 160.599 294.004C160.496 294.004 160.295 293.905 160.196 293.905V293.601C166.891 292.705 173.487 291.805 180.182 290.905C180.285 291.102 180.285 291.304 180.384 291.501C179.784 291.501 179.385 291.71 178.884 291.805L178.88 291.801ZM180.384 290.806C182.685 290.502 184.789 290.305 186.984 290.009C182.389 291.307 180.889 291.505 180.387 290.806H180.384ZM93.3417 88.7619C96.5316 84.3568 99.8354 79.9518 103.033 75.4518C104.032 74.1416 104.829 72.7404 105.828 71.4416C106.132 71.0391 106.53 70.8416 107.028 70.4391L106.929 70.2492C107.328 69.7442 107.727 69.3379 107.928 68.9429C108.437 68.1454 108.737 67.2416 109.135 66.3416C109.234 66.1518 109.534 65.9505 109.534 65.9505C110.939 66.6492 110.939 65.153 111.433 64.648C112.333 63.6454 113.233 62.548 114.03 61.5454C114.63 60.748 115.23 60.0454 115.732 59.1454C115.83 58.8416 115.53 58.348 115.428 57.9416H115.132C115.435 57.7442 115.732 57.448 116.032 57.2429C116.13 57.2429 116.13 57.2429 116.229 57.1442C116.829 56.2404 117.429 55.3404 118.029 54.5391C119.225 52.9442 120.524 51.3416 121.921 49.9442C121.724 50.4379 121.523 50.9429 121.321 51.3416C121.424 51.3416 121.424 51.4442 121.523 51.4442C122.723 49.8416 124.021 48.3416 125.221 46.7353C125.119 46.6404 125.02 46.5379 124.918 46.5379C124.424 47.0391 124.021 47.5404 123.52 48.0416C123.421 47.9391 123.323 47.8404 123.216 47.8404C124.223 46.5378 125.222 45.2391 126.216 43.7391C126.418 44.0429 126.619 44.4379 127.014 45.2391C127.42 44.2404 127.819 43.5416 128.115 42.8391C127.819 43.1429 127.42 43.4391 127.12 43.7429L126.816 43.4391L128.616 40.7429C130.515 38.0391 132.414 35.2366 134.313 32.5328C135.015 31.5341 135.908 30.7328 136.515 29.7303C138.414 25.9328 141.414 22.9252 143.708 19.4239C144.209 18.7252 144.908 18.1252 145.508 17.5252C146.001 16.9176 146.408 17.1227 146.806 17.6239C149.503 21.0265 152.199 24.5277 154.895 27.9303C156.9 30.4366 158.897 32.829 160.796 35.4341C163.094 38.6391 165.292 41.8404 167.594 45.0416C170.191 48.7442 172.789 52.4467 175.287 56.2442C179.085 61.853 182.681 67.4581 186.478 73.0594C189.277 77.1606 192.076 81.167 194.772 85.2682H189.668C184.975 85.1733 180.175 84.7746 175.481 84.972C169.086 85.2758 162.592 85.9746 156.197 86.4758C148.101 87.1784 139.906 87.2733 131.818 87.2733C128.913 87.2733 126.015 87.6796 123.122 87.8809C119.62 88.0784 116.221 88.2796 112.724 88.3746C108.623 88.5796 104.635 88.6784 100.534 88.7809C98.2329 88.8796 95.8367 88.7809 93.338 88.7809L93.3417 88.7619ZM207.961 134.787V135.691C207.862 135.691 207.763 135.794 207.562 135.794C207.163 134.388 206.765 132.885 206.263 131.483C205.265 128.578 204.163 125.673 202.363 123.076C200.358 120.277 198.566 117.38 196.561 114.475C196.067 113.772 195.361 113.172 194.761 112.576C192.661 110.271 190.561 107.867 187.865 106.169C183.866 103.663 179.768 101.563 175.371 99.7594C174.171 99.2657 173.073 98.6581 171.877 97.9594H174.27L191.358 97.6556C195.057 97.5606 198.657 97.5606 202.352 97.3594C203.248 97.3594 203.749 97.6632 204.251 98.4606C205.147 99.9606 206.047 101.461 207.046 102.964C207.148 103.162 207.349 103.458 207.349 103.762C207.349 105.964 207.349 108.266 207.448 110.468C207.543 112.769 207.752 114.972 207.843 117.273C207.843 119.575 207.642 121.975 207.744 124.375C207.847 127.781 207.946 131.286 207.946 134.78L207.961 134.787ZM100.432 101.278C105.129 101.077 109.621 100.777 114.224 100.576C117.813 100.375 121.515 100.272 125.108 100.075C126.608 99.9796 128.009 99.8847 129.505 100.075C127.91 100.88 126.308 101.681 124.91 102.68C123.11 103.88 121.416 105.478 119.613 106.781C117.809 108.08 116.21 109.682 114.714 111.383C112.815 113.681 110.715 115.682 108.714 117.885C107.309 119.487 105.714 120.987 104.518 122.688C102.82 124.891 101.32 127.283 99.7215 129.79C100.223 120.281 100.823 110.878 100.42 101.271L100.432 101.278ZM165.691 197.544C162.49 198.342 159.197 199.245 155.894 199.644C153.099 200.047 150.197 199.948 147.3 199.948C144.695 199.948 142.196 199.849 139.599 199.644C136.701 199.348 133.804 199.048 131.005 197.745C128.601 196.644 126.106 195.645 123.714 194.442C121.306 193.242 118.91 191.844 117.106 189.642C115.815 188.035 114.011 186.737 112.413 185.335C112.716 186.535 113.411 187.538 114.513 188.237C114.011 188.837 113.313 188.54 112.31 186.934C112.014 187.135 111.714 187.238 111.513 187.337C111.816 186.634 112.113 185.932 112.413 185.335C112.014 184.538 111.513 183.634 111.114 182.829C110.316 181.53 109.519 180.133 108.816 178.83C108.615 178.526 108.615 178.23 108.418 177.93C107.916 177.33 107.415 176.726 107.013 176.126C106.215 174.93 105.516 173.632 104.518 172.428C104.518 172.732 104.62 173.028 104.62 173.43C104.518 173.43 104.419 173.529 104.419 173.529L102.315 168.425C102.216 168.425 102.216 168.425 102.118 168.524L103.914 175.132C103.815 175.132 103.716 175.226 103.61 175.226C103.318 174.832 103.018 174.429 102.813 173.935C102.615 173.13 102.015 173.13 101.521 173.43C101.218 173.632 101.016 174.33 101.119 174.63C101.821 176.332 102.619 178.033 103.42 179.734C103.618 180.334 103.819 180.835 104.119 181.435C104.221 181.637 104.521 181.834 104.521 182.134C104.924 182.932 105.224 183.729 105.721 184.435C106.621 185.635 107.62 186.835 108.52 188.035C109.413 189.235 110.21 190.542 111.011 191.738C111.11 191.939 111.41 191.939 111.505 192.042C112.01 193.542 113.708 194.639 114.908 194.039C115.211 196.34 117.706 197.142 118.705 199.344C117.505 198.843 116.609 198.444 115.808 198.042C115.705 198.14 115.705 198.239 115.603 198.44C116.803 199.04 118.003 199.64 119.096 200.339C120.103 200.947 121.101 201.543 122.001 202.238C123.201 203.339 124.603 203.947 126.292 204.342C126.201 204.038 126.103 203.935 126.103 203.935C128.897 205.238 131.799 206.639 133.994 207.733C123.6 207.938 112.508 208.139 101.013 208.34C101.013 206.442 100.914 204.638 100.914 202.735C100.914 201.938 101.111 201.235 101.009 200.434C100.705 195.839 100.705 191.229 100.109 186.725C99.5126 181.925 99.5126 177.22 99.6152 172.409C99.7101 169.815 99.5126 167.115 99.4101 164.51C99.4101 161.009 99.4101 157.599 99.5164 154.105C99.5164 153.604 99.7177 153.205 99.919 152.7H100.223C100.318 152.905 100.223 153.205 100.413 153.307C100.716 153.611 101.218 154.105 101.419 154.006C102.015 153.604 102.915 153.209 103.116 152.601C103.61 151.405 103.815 150.102 103.815 148.902C103.815 148.006 104.218 147.406 104.613 146.802C104.818 146.499 104.916 146.202 105.118 145.804C104.719 145.5 104.32 145.302 103.819 144.904C104.221 143.802 104.123 142.5 105.623 141.904C105.82 141.801 105.82 141.296 105.927 141C106.021 140.191 106.116 139.291 106.223 138.494C106.42 138.797 106.527 138.892 106.716 139.09C106.823 138.892 106.921 138.786 106.921 138.786C106.921 138.391 106.823 137.59 106.921 137.59C108.121 137.388 107.62 136.09 108.22 135.49C108.315 135.383 108.118 135.083 108.118 134.882C108.118 134.685 108.118 134.388 108.216 134.388C109.61 134.085 109.413 132.585 110.313 131.882C110.616 131.681 110.711 131.388 111.11 130.883C111.908 132.281 110.51 132.983 110.411 133.982C112.105 132.983 112.606 130.583 111.608 129.881C112.006 129.577 112.405 129.182 112.709 128.78C113.81 127.58 115.003 126.478 116.005 125.278C116.708 124.382 117.106 123.281 117.805 122.381C118.208 121.88 119.005 121.481 119.605 121.177C121.405 120.182 123.099 119.081 124.2 117.38C124.401 117.178 124.701 116.981 124.997 116.78C125.301 116.578 125.901 116.578 126 116.278C126.103 116.081 125.803 115.58 125.601 115.28C125.996 115.078 126.399 114.68 127.196 114.277C126.892 114.877 126.797 115.28 126.596 115.682L127.09 116.176C127.994 115.477 129.391 114.68 130.291 114.08C130.291 113.985 129.79 113.586 129.79 113.586C129.194 113.89 128.294 114.383 127.397 114.786C127.587 114.482 127.587 114.285 127.701 114.186C129.095 113.286 130.492 112.386 131.992 111.68C135.486 110.085 138.987 108.482 142.485 106.982C143.085 106.678 143.89 106.883 144.585 106.883C144.881 106.883 145.078 106.883 145.382 106.785C146.977 106.283 148.58 105.782 150.178 105.38C150.873 105.182 151.671 105.083 152.381 105.083C155.37 105.178 158.37 105.178 161.366 105.38C162.665 105.478 163.865 105.778 165.065 106.177C166.561 106.682 168.159 107.381 169.561 108.076C171.258 108.987 172.857 109.982 174.459 111.083C177.357 112.982 180.053 115.086 182.951 116.787C185.749 118.488 187.948 120.79 189.748 123.395C191.951 126.494 194.446 129.296 195.444 133.097L196.94 139.705C197.244 140.905 197.943 142.105 197.643 143.502C197.138 146.009 196.739 148.61 196.34 151.113C196.143 152.119 195.942 153.125 196.044 154.113C196.234 157.226 195.038 159.923 193.842 162.725C193.439 163.625 192.839 164.529 192.342 165.528C192.44 165.626 193.04 165.93 193.139 165.93L194.039 164.13C194.142 164.13 194.142 164.13 194.24 164.233C193.739 165.63 193.34 167.134 192.835 168.535C191.643 171.638 190.443 174.839 188.943 177.839C188.146 179.54 186.74 180.942 185.746 182.548C184.751 183.945 183.949 185.445 182.951 186.748C182.051 187.849 181.154 188.951 179.951 189.748C177.254 191.749 174.456 193.751 171.558 195.353C169.762 196.454 167.662 197.054 165.665 197.556L165.691 197.544ZM112.424 192.228L112.325 192.33C112.116 192.232 111.816 192.133 111.619 191.932L109.219 188.324C109.021 188.028 108.915 187.728 109.021 187.329C110.123 189.03 111.224 190.633 112.42 192.228H112.424ZM174.589 205.937C179.081 204.038 182.78 201.342 186.171 198.235C186.676 197.734 187.173 197.237 187.773 196.83C191.973 194.233 195.065 190.629 197.867 186.626C201.065 182.024 203.165 176.821 205.766 171.919C205.963 171.516 206.161 171.121 206.362 170.818C206.161 182.225 207.463 193.432 208.959 204.74C197.67 205.139 186.175 205.538 174.585 205.94L174.589 205.937ZM275.916 202.937C275.818 203.138 275.613 203.339 275.518 203.544C275.415 203.339 275.415 203.039 275.316 202.633C274.716 204.239 273.418 203.438 272.518 203.438C267.125 203.54 261.627 203.54 256.227 203.54C251.032 203.54 245.738 203.54 240.543 203.632C238.842 203.632 237.042 204.03 235.34 204.133C231.247 204.33 227.149 204.437 223.052 204.532C222.748 204.532 222.452 204.038 221.951 203.635C221.852 203.837 221.647 204.137 221.351 204.535C221.244 204.338 221.047 204.14 220.846 203.84C220.747 204.144 220.644 204.44 220.542 204.638H220.253C220.052 203.24 219.653 201.942 219.653 200.537C219.653 197.537 219.957 194.537 220.052 191.529C220.154 190.132 220.052 188.833 220.052 187.526C220.454 187.83 220.754 188.032 221.153 188.324C221.351 187.933 221.552 187.633 221.753 187.337C221.753 187.337 221.552 187.23 221.351 187.033C221.54 186.93 221.746 186.729 221.746 186.63C221.844 186.326 222.049 186.03 222.049 185.833C222.049 185.13 221.844 184.53 221.746 183.934C221.844 183.934 221.943 183.934 222.049 183.828L222.646 186.828H222.949C222.547 186.133 223.846 185.529 222.748 184.732C222.649 184.629 222.847 184.029 222.847 183.729C222.543 183.133 222.353 182.533 222.049 181.732C222.148 181.633 222.448 181.53 222.748 181.428C222.349 181.23 222.049 181.033 221.749 180.934C222.748 180.03 222.748 179.529 221.848 178.53C222.053 178.435 222.251 178.435 222.251 178.34C222.251 177.437 222.251 176.537 222.053 175.644C221.852 174.634 222.357 173.442 220.853 172.834C220.952 173.138 221.054 173.335 221.252 173.632C221.252 173.632 220.948 173.734 220.652 173.935C219.353 172.732 220.158 171.125 219.854 169.329C220.553 169.53 221.054 169.732 221.552 169.937C221.351 169.23 220.853 168.429 220.553 167.529H220.147V160.921C220.147 161.024 220.846 161.024 221.248 161.126C221.248 161.024 221.343 160.925 221.343 160.823C221.039 160.424 220.64 160.025 220.242 159.524L220.443 159.323C219.646 158.328 220.044 156.93 220.044 156.626V149.62C221.047 150.623 219.551 151.921 221.047 152.521V151.523H220.944C220.846 150.023 220.846 148.523 220.747 147.019H220.549C220.447 147.224 220.447 147.323 220.344 147.524H220.147L220.747 123.607C221.746 124.906 222.843 126.114 223.542 127.405C225.843 131.613 228.839 135.216 231.638 139.018C234.038 142.321 236.233 145.921 238.435 149.324C241.132 153.425 243.729 157.526 246.429 161.628C248.427 164.734 250.53 167.837 252.619 170.84C254.518 173.537 256.523 176.142 258.52 178.747C260.214 181.048 262.014 183.349 263.711 185.651C265.713 188.453 267.71 191.252 269.711 193.956C270.706 195.353 271.808 196.754 272.901 198.156C273.509 198.953 274.405 199.561 275.005 200.054C274.91 200.054 274.808 200.054 274.61 199.956C274.914 200.354 275.104 200.654 275.309 200.856C276.41 201.456 276.509 202.056 275.909 202.959L275.916 202.937ZM281.013 177.926V177.224C281.013 177.421 281.111 177.718 281.013 177.923V177.926ZM284.411 133.8C284.309 133.8 283.713 133.192 283.614 133.094C283.511 133.397 283.614 133.694 283.413 134.096C283.31 133.8 282.615 133.899 282.615 133.602C282.513 135 283.211 136.401 283.109 137.802C283.413 137.601 284.609 137.499 284.909 137.202C285.011 137.301 285.213 137.4 285.311 137.4C283.31 138.904 283.811 140.4 284.711 142.109C284.909 142.504 285.509 143.305 284.909 144.106C284.711 144.307 285.011 144.904 285.11 145.409H285.402V145.599L284.503 145.902C284.305 145.599 283.109 145.006 283.109 144.497V149.609C284.108 149.913 284.108 151.31 284.506 152.013C284.715 151.709 284.81 151.507 284.913 151.215L285.015 151.306C284.913 151.906 284.814 152.506 284.613 153.11C284.415 154.006 284.214 154.807 284.119 155.707C284.119 155.806 284.309 156.011 284.309 156.106C283.215 158.613 283.815 161.407 283.416 164.005C283.113 165.904 283.416 167.916 283.215 169.914C283.01 171.615 282.608 173.415 282.213 175.116C282.11 175.42 281.909 175.515 281.415 175.716C281.613 174.516 281.514 173.715 281.313 172.614C281.206 172.614 279.908 171.915 279.805 171.915C279.805 173.32 280.603 175.219 280.906 176.814C280.603 176.715 279.406 176.016 279.311 176.016C279.106 177.216 279.106 178.819 279.008 180.118C278.905 181.12 278.009 182.016 277.906 183.118C277.906 183.725 278.605 184.12 278.506 185.123H279.304C279.304 183.125 280.208 181.325 280.208 179.221H280.504C280.606 179.423 280.906 179.624 280.808 179.723C280.606 180.824 280.2 182.024 280.306 183.125C280.306 183.725 280.8 184.325 280.61 185.024C280.405 185.632 280.306 186.228 280.204 187.128C280.101 186.626 280.003 186.429 280.003 186.129C279.904 186.129 279.004 186.026 278.901 186.026C278.803 186.626 279.604 187.226 279.501 187.728C279.402 187.826 279.304 187.826 279.103 187.929L275.806 183.121C273.201 179.324 270.604 175.515 268.006 171.615C267.304 170.613 266.704 169.614 266.202 168.615C263.108 163.306 259.709 158.202 255.911 153.3C253.018 149.601 250.709 145.591 248.013 141.699C245.521 137.996 243.023 134.392 240.524 130.686C239.624 129.49 238.527 128.388 237.725 127.086C235.132 122.985 232.827 118.781 230.237 114.68C228.034 111.273 225.642 107.969 223.34 104.669C222.543 103.568 221.746 102.364 220.94 101.164C220.842 100.975 220.743 100.773 220.743 100.473C220.542 98.2708 220.34 96.0682 220.242 93.9682C220.242 91.967 220.443 89.9657 220.443 87.8619V86.0619C220.443 85.5606 220.538 85.1619 220.538 84.6568C220.633 84.5619 220.735 84.3606 220.834 84.2619C217.937 84.2619 214.937 84.1556 212.039 84.2619C210.14 84.3568 209.142 83.5556 207.843 82.1543C204.046 77.8518 201.247 72.9492 197.951 68.3467C194.852 63.9416 191.654 59.6353 188.457 55.3328C185.856 51.8315 183.254 48.429 180.661 44.9277C177.759 40.9252 174.965 36.9227 171.965 32.9201C168.365 28.1201 164.666 23.3125 160.971 18.5125C159.262 16.31 157.363 14.21 155.465 11.9049C156.767 12.11 157.971 12.3075 159.167 12.41L163.967 12.7138C167.563 13.0062 171.159 13.2075 174.752 13.7011C177.752 14.1075 180.752 14.7075 183.851 15.2049C190.451 16.3062 196.944 18.11 203.24 20.21C206.939 21.41 210.532 23.0125 214.139 24.5125C222.228 27.8163 229.925 31.8189 237.52 36.0189C239.913 37.3214 241.318 39.4214 243.11 41.3239C245.711 44.0277 248.313 46.7277 250.808 49.5265C253.701 52.8303 256.397 56.2328 259.2 59.6353C261.695 62.6353 264.289 65.6353 266.795 68.6429C267.592 69.5429 268.2 70.6442 268.891 71.6429C270.486 74.0467 272.29 76.3518 273.687 78.9492C274.682 80.8556 275.282 83.0581 275.981 85.1581C276.976 88.2606 277.978 91.2606 278.981 94.3632C279.676 96.6644 280.272 99.072 280.773 101.464C281.176 103.071 281.077 104.768 281.571 106.363C282.178 108.475 281.571 110.768 282.178 112.876C282.273 113.077 282.368 113.377 282.475 113.578C282.873 113.973 283.173 114.376 282.573 114.976C282.478 115.075 282.478 115.469 282.573 115.773C282.778 115.576 282.877 115.375 283.078 115.075C283.078 115.276 283.173 115.378 283.173 115.473C283.173 115.868 283.071 116.271 283.173 116.669C283.173 116.867 283.371 117.163 283.47 117.368C283.671 117.163 283.868 117.064 284.267 116.761C285.167 120.167 285.27 123.57 285.27 127.071C285.27 130.375 285.866 133.678 284.472 136.88C284.768 135.778 284.07 134.772 284.37 133.773L284.411 133.8Z" fill="#DD3A0A"/>
<path fill-rule="evenodd" clip-rule="evenodd" d="M220.557 172.716C220.652 172.716 220.754 172.819 220.754 172.819L220.652 172.705C220.652 172.61 220.652 172.61 220.553 172.705L220.557 172.716ZM236.343 271.587C235.242 272.385 234.14 273.087 232.743 273.387C232.637 273.288 232.637 273.186 232.538 273.083C233.639 272.385 234.835 271.686 235.937 270.983C236.039 271.173 236.24 271.378 236.339 271.58L236.343 271.587ZM48.9683 135.987C50.0696 134.594 51.1708 133.192 52.3632 131.791C52.4582 131.89 53.2556 132.095 53.3582 132.19C52.2569 133.595 50.7569 135.494 49.6594 136.994C49.4544 136.792 49.1544 136.094 48.9569 135.991L48.9683 135.987ZM20.5822 185.032C19.7848 183.33 18.9873 181.526 18.1898 179.829C18.2886 179.726 18.9873 179.426 19.086 179.426C20.1873 181.021 20.681 182.92 21.486 184.629C21.486 184.629 20.6886 185.028 20.586 185.028L20.5822 185.032ZM46.0708 136.994C45.4708 137.897 44.8708 138.9 44.2708 139.804C44.1721 139.697 43.0708 140.199 42.9721 140.1C43.5721 139.2 45.0683 137.594 45.6683 136.697C45.7708 136.796 45.8696 136.899 46.0708 137.001V136.994ZM225.653 275.696C225.748 275.696 225.748 275.597 225.851 275.597C226.549 275.696 227.347 275.795 228.148 275.795C226.842 276.695 226.04 276.592 225.642 275.696H225.653ZM46.2607 141.197C46.367 140.894 46.5645 140.597 46.7658 140.297C46.9632 140.297 47.2594 140.195 47.2594 140.195C47.6658 139.496 47.6658 138.995 48.0645 138.395C47.9658 138.296 47.8632 138.296 47.7607 138.194C47.1645 138.604 46.5645 139.105 45.9645 139.504C46.1658 139.701 46.1658 139.807 46.1658 140.005C45.3683 139.902 45.0645 140.309 44.6658 141.402C44.567 141.706 44.0658 141.805 43.5645 142.2C43.4658 142.405 43.367 142.906 43.1658 143.404L43.2683 143.51C43.067 143.711 42.767 143.814 42.767 143.814C42.167 144.41 41.4683 144.915 40.8683 145.511C40.7696 145.815 40.6708 146.111 40.6708 146.411C41.3734 145.713 42.5696 144.41 43.4696 143.609L43.5721 143.711C43.9708 143.111 44.2708 142.511 44.6734 141.911C44.7683 142.01 44.7683 142.109 44.8708 142.215C44.567 143.013 44.2708 143.909 43.9708 144.71C43.762 144.809 43.462 145.014 43.462 144.911C43.0632 145.215 42.7632 145.61 42.3607 145.91L40.5645 147.11C39.5658 148.01 38.567 148.807 37.4658 149.711C36.767 150.813 36.0683 151.811 35.2632 153.114C36.467 152.81 36.767 153.315 36.6683 154.318C38.0658 154.515 38.1683 153.418 38.567 152.616C38.6658 152.411 38.7683 152.009 38.9658 151.91C39.8658 151.113 40.8645 150.414 41.8632 149.613C42.0645 149.411 42.0645 149.005 42.0645 148.709C42.0645 148.61 41.5594 148.61 41.2594 148.507C42.1594 147.505 43.462 145.811 44.3582 144.71C44.8594 144.406 45.3569 144.004 45.3569 143.704C45.2582 142.602 45.9569 142.306 46.762 141.904C46.3594 141.6 46.2569 141.307 46.2569 141.209L46.2607 141.197Z" fill="#DD3735"/>
<path fill-rule="evenodd" clip-rule="evenodd" d="M48.2658 140.096C47.8671 140.795 47.4684 141.395 47.0696 142.097L46.4696 141.794C46.0709 144.091 44.6696 146.092 43.2722 146.491C43.6709 146.692 44.0696 146.893 44.3734 146.795C44.6696 146.692 44.8671 146.187 45.0684 145.891L47.7646 141.987L48.6684 140.483L48.2696 140.085L48.2658 140.096ZM14.9924 184.025C15.4937 184.025 15.9949 184.124 16.5873 184.124C16.5873 183.725 17.0924 183.82 17.0924 183.425H17.3962C17.3962 183.926 17.4949 184.325 17.4949 184.83H15.3987C15.2962 184.728 14.8975 184.124 14.9962 184.025H14.9924ZM14.1949 179.423C13.8911 179.119 13.3975 178.823 13.3975 178.523C13.2949 178.128 13.5949 177.63 13.8911 177.129C14.0962 177.828 14.1949 178.428 14.3924 179.13C14.2899 179.225 14.1911 179.328 14.1911 179.426L14.1949 179.423ZM16.6937 173.016C17.0924 174.026 17.4911 175.128 17.8937 176.13C17.7949 176.13 17.1949 176.434 17.0962 176.529C16.6975 175.526 16.1962 174.425 15.7975 173.426C15.8962 173.328 16.4962 173.024 16.6975 173.024L16.6937 173.016ZM239.149 268.69C239.643 268.492 240.243 268.386 241.048 268.196C240.144 268.891 239.446 269.392 238.846 269.992C238.743 269.894 238.644 269.791 238.542 269.791C238.743 269.392 238.944 269.092 239.149 268.69ZM116.316 57.2429C116.913 56.8403 117.418 56.5403 118.014 56.1416L118.211 56.3391C117.604 57.1365 117.11 57.934 116.408 58.9403C116.309 58.2454 116.309 57.8391 116.206 57.3454C116.108 57.3454 116.206 57.3454 116.309 57.2467L116.316 57.2429ZM145.595 107.875C146.495 107.472 147.395 107.077 148.492 106.572C148.394 107.172 148.394 107.575 148.394 107.977C148.09 107.875 147.691 107.772 147.391 107.772C146.791 107.875 145.69 108.676 145.189 108.775C145.094 108.775 145.591 107.977 145.591 107.875H145.595ZM220.557 192.733C220.754 193.731 222.653 194.233 220.754 195.231C221.058 195.44 221.351 195.535 221.651 195.74C221.651 195.843 221.552 196.044 221.453 196.143C221.252 196.238 220.853 196.439 220.656 196.333C220.553 196.333 220.352 195.938 220.352 195.737C220.352 194.837 220.454 193.937 220.553 192.737L220.557 192.733Z" fill="#DD3735"/>
</g>
<defs>
<clipPath id="clip0_212_26">
<rect width="300" height="296.203" fill="white"/>
</clipPath>
</defs>
</svg>
