<?xml version="1.0" encoding="UTF-8"?>
<svg width="723px" height="726px" viewBox="0 0 723 726" version="1.1" xmlns="http://www.w3.org/2000/svg" xmlns:xlink="http://www.w3.org/1999/xlink">
    <!-- Generator: Sketch 63.1 (92452) - https://sketch.com -->
    <title>Group 2 Copy</title>
    <desc>Created with Sketch.</desc>
    <g id="Page-1" stroke="none" stroke-width="1" fill="none" fill-rule="evenodd">
        <g id="Group-2-Copy" transform="translate(23.000000, 31.000000)" stroke="#E02020">
            <g id="Group">
                <path d="M130.672293,414.720358 C134.877165,406.32155 152.39907,391.801973 143.286909,389.523933 C131.600576,386.60235 120.559604,400.500086 113.874676,410.520954 C110.671765,415.322194 112.910861,429.897661 118.07408,427.31857 C126.476716,423.121351 126.988771,410.755307 130.688697,402.122145 C132.642983,397.562145 132.686918,389.694087 134.871697,385.324529 C135.75874,383.550443 138.606439,383.049391 139.087505,381.125125 C140.106011,377.051101 139.079303,364.327512 139.071101,368.526912 C139.057431,375.525906 137.693329,382.661875 139.071101,389.523933 C139.347732,390.901705 142.293234,388.530257 143.286909,389.523933 C144.276726,390.513749 142.280689,392.73352 143.270505,393.723337 C145.972663,396.425495 160.859071,399.065849 164.28393,397.922741 C164.549003,397.834269 167.878842,386.500705 168.46693,385.324529 C169.353973,383.550443 171.795696,382.89921 172.682739,381.125125 C173.308754,379.873095 174.066147,376.92572 172.666335,376.92572 C171.266533,376.92572 172.03837,379.874083 172.666335,381.125125 C173.556146,382.897823 176.493149,383.379558 176.882143,385.324529 C177.980238,390.815004 176.871207,396.52294 176.865739,402.122145" id="Path-6" stroke-width="47"></path>
                <path d="M130.655889,385.308125 C125.056683,389.507529 119.67888,394.019613 113.858272,397.906337 C111.257244,399.64318 107.674404,399.897643 105.475868,402.122145 C104.488043,403.121637 108.4682,402.81344 109.691676,402.122145 C140.838659,384.523307 170.689499,364.663191 202.094972,347.529891 C203.323839,346.859481 202.405732,350.372268 202.062164,351.729295 C200.976587,356.017116 200.506296,360.777183 197.846356,364.311104 C195.961084,366.815823 191.761735,366.413795 189.431143,368.510508 C177.657578,379.10258 168.127185,392.119081 155.83591,402.105741 C145.586782,410.433158 133.783353,416.68738 122.240677,423.102762 C121.021935,423.780135 119.304806,423.726327 118.057676,423.102762 C116.293969,422.220908 113.859211,420.891587 113.874676,418.919762 C113.885698,417.514536 116.920295,419.697862 118.090484,418.919762 C121.390622,416.725385 123.258161,412.792454 126.505697,410.520954 C137.330805,402.949293 149.432346,397.292075 160.117334,389.523933 C164.92089,386.031678 167.881991,380.376334 172.715546,376.92572 C186.479125,367.100076 207.229308,357.023751 223.091992,351.729295 C224.414601,351.287851 226.292924,350.739494 227.274993,351.729295 C234.104051,358.612126 216.706329,366.779335 214.627568,368.510508 C208.542807,373.577843 204.274692,380.707306 197.829952,385.308125 C144.870239,423.115393 229.39587,350.590714 172.617123,397.906337 C168.054769,401.708299 164.581265,406.702588 160.01891,410.50455 C142.742574,424.901497 151.272112,413.516235 130.606677,427.302166 C118.972874,435.063088 109.278379,445.693851 97.0606557,452.498591 C95.3379434,453.458067 92.8621901,450.287416 92.8776554,448.315591 C92.8886768,446.910365 95.8877093,449.037352 97.0934635,448.315591 C103.106286,444.716334 108.538943,440.201913 113.923888,435.717379 C125.41801,426.145176 147.835832,412.464014 160.117334,406.32155 C170.809425,400.974012 182.246292,397.160984 193.696163,393.723337 C196.372286,392.919872 200.106686,391.743723 202.078568,393.723337 C206.794313,398.457575 190.020754,427.315271 185.231739,431.501571 C177.628506,438.147909 167.991615,442.100885 160.01891,448.299187 C139.325396,464.38716 128.215381,475.101792 105.44306,490.293229 C103.799462,491.389675 103.026537,493.607666 101.26006,494.492633 C100.00853,495.119623 98.3131659,495.117663 97.0606557,494.492633 C95.2962579,493.612161 91.4797004,491.700335 92.8776554,490.309633 C97.3226494,485.8877 104.262056,485.017637 109.70808,481.910825 C114.095906,479.407686 118.44091,476.744733 122.322696,473.512016 C141.209776,457.783024 162.112701,441.198219 185.330163,431.517975 C196.359564,426.919397 213.582012,408.214979 218.892588,418.919762 L223.075589,418.919762 C224.319768,421.427714 223.612771,424.57424 223.059185,427.31857 C222.184572,431.654344 221.503317,436.366458 218.843377,439.900379 C216.958105,442.405098 212.936999,442.219993 210.428164,444.099783 C188.390447,460.611946 169.734509,475.486814 143.237698,486.093825 C140.643688,487.13224 137.505696,485.209205 134.855293,486.093825 C132.977507,486.720569 132.635503,490.289355 130.655889,490.293229 C125.062157,490.304176 127.878196,479.100211 122.273485,490.309633 C118.134206,498.588191 133.323858,494.903621 134.904505,494.509037 C142.22315,492.682052 149.368565,489.852723 155.91793,486.110229 C210.73928,454.783743 106.255959,504.619122 176.914951,469.312612 C180.874702,467.334025 185.912482,467.687996 189.513163,465.113208 C195.94797,460.511782 200.104491,453.262105 206.277972,448.315591 C207.370366,447.440309 211.10534,447.06455 210.477376,448.315591 C208.69949,451.857528 204.445471,453.548006 202.062164,456.7144 C178.824791,487.58691 164.796083,489.499008 134.822485,511.29025 C130.01893,514.782505 127.026648,520.394585 122.224273,523.888462 C111.549409,531.654758 99.6264557,537.558448 88.6454434,544.885483 C87.001955,545.982094 86.4381833,549.077109 84.4624431,549.084887 C83.0681098,549.090377 83.4890605,545.883986 84.4788471,544.901887 C86.7076854,542.69036 90.3968314,542.584032 92.9104632,540.702483 C144.725689,501.916817 36.0328748,575.171564 118.139696,523.904866 C124.076469,520.198003 128.818454,514.704545 134.937313,511.306654 C141.531964,507.644548 149.356761,506.571166 155.950738,502.907845 C162.065147,499.510951 166.801327,494.018083 172.73195,490.309633 C178.039778,486.99062 184.095023,485.018012 189.529567,481.910825 C193.907087,479.407988 197.521405,475.599849 202.111376,473.512016 C212.99329,468.562176 224.349882,464.697195 235.690205,460.913804 C237.012871,460.472532 238.626564,461.538344 239.873205,460.913804 C241.643136,460.027106 242.301985,457.599712 244.072609,456.7144 C245.32463,456.088389 247.284143,455.722655 248.272014,456.7144 C249.259891,457.706151 249.033135,459.74979 248.25561,460.913804 C246.056454,464.206108 241.896932,465.919469 239.856801,469.312612 C237.577645,473.103302 238.774699,478.77292 235.640993,481.894421 C232.497489,485.025681 226.815401,483.81235 223.009973,486.093825 C219.617569,488.127678 217.716195,492.021732 214.627568,494.492633 C193.205832,511.630022 210.987223,494.102532 185.198931,511.29025 C169.35596,521.849481 155.101163,534.715611 139.005486,544.885483 C128.429302,551.567926 117.307874,557.716125 105.44306,561.6831 C103.576599,562.307147 101.253312,559.467986 101.276464,557.5001 C101.292995,556.094927 104.322083,558.278199 105.492272,557.5001 C108.792409,555.305723 110.810935,551.574666 113.907484,549.101291 C117.854528,545.948583 122.086596,543.120132 126.522101,540.702483 C137.519615,534.708096 149.313931,530.214366 160.133738,523.904866 C166.179832,520.379126 170.812496,514.704545 176.931354,511.306654 C183.526006,507.644548 191.051681,505.971445 197.944779,502.907845 C203.660864,500.367363 209.296441,497.615104 214.725992,494.509037 C223.843823,489.293026 254.342854,473.000275 256.670822,477.71142 C260.03289,484.51529 245.075193,507.355693 239.823993,511.29025 C231.742227,517.345661 222.690094,522.02867 214.611165,528.087867 C211.446867,530.46109 209.620463,534.451653 206.22876,536.486675 C171.917799,557.073251 219.846904,518.337187 176.800123,549.084887 C155.061569,564.612426 173.910429,558.936745 151.620102,570.081908 C147.660866,572.061526 142.703533,571.823683 139.021889,574.281312 C134.088874,577.574277 131.756245,584.216668 126.456485,586.879525 C124.694506,587.764829 122.258019,584.668349 122.273485,582.696525 C122.286091,581.089233 127.164224,577.115094 130.688697,574.297716 C142.522672,564.837926 155.610099,557.036319 168.516142,549.101291 C173.853096,545.81997 180.232128,544.343936 185.330163,540.702483 C190.159662,537.252841 192.70252,530.947809 197.911971,528.10427 C201.562613,526.111596 231.395574,511.274829 244.056205,515.506058 C257.01258,519.836126 245.540562,532.213635 227.225781,544.885483 C212.213092,555.272641 195.872679,563.67231 181.015931,574.281312 C164.693449,585.936976 151.640014,601.501596 130.655889,612.07595 C129.410709,612.703423 125.35533,612.926175 126.472889,612.092354 C133.026104,607.202941 140.794062,604.144363 147.519121,599.494141 C207.287623,558.165621 159.886054,580.814097 252.52063,536.503079 C260.502401,532.685061 269.063942,530.026041 277.700651,528.10427 C281.789128,527.194535 286.785245,525.77463 290.266055,528.10427 C296.795844,532.474534 276.394007,556.61897 269.219823,561.6831 C248.603411,576.235861 227.415547,589.968044 206.22876,603.677142 C203.600863,605.377546 200.233882,605.871966 197.829952,607.876546 C191.751406,612.945301 187.629467,620.277001 181.048739,624.674162 C178.725506,626.226518 169.872215,624.679736 172.666335,624.690566 C198.719201,624.791546 198.588768,615.292157 218.908992,603.693545 C245.7676,588.36288 269.018013,567.400743 298.681268,557.5001 C308.285629,554.294472 298.961635,561.0762 298.64846,561.699504 C296.662663,565.651781 297.201989,570.83245 294.432652,574.281312 C291.266957,578.223789 285.607584,579.351538 281.801631,582.680121 C203.15948,651.45842 320.622576,556.713965 235.608185,620.474758 C232.443888,622.847981 230.388965,626.49886 227.225781,628.873567 C224.722621,630.752771 221.430288,631.335165 218.826973,633.072971 C217.183704,634.169911 216.41045,636.387408 214.643972,637.272375 C213.392442,637.899365 209.448988,638.256379 210.444568,637.272375 L206.261568,633.089375 C208.256618,631.117523 212.098068,634.193305 214.67678,633.089375 C222.184611,629.87532 228.892245,625.017242 235.690205,620.491162 C259.27943,604.785462 281.431364,590.357701 307.129288,578.49712 C331.108311,567.429879 337.032916,556.759464 361.655926,561.699504 C363.028389,561.974857 362.083997,564.571536 361.639522,565.898908 C359.246936,573.044084 357.660112,580.788411 353.22431,586.879525 C332.467402,615.382303 296.185915,633.314226 269.203419,654.069992 C262.930111,658.895613 259.202358,666.784651 252.422206,670.867608 C250.736274,671.882864 246.493988,665.807224 248.25561,666.684608 L248.25561,670.884012 C253.281896,673.387377 278.578993,656.379783 281.916459,654.086396 C299.221594,642.194921 315.154107,628.39853 332.309309,616.291758 C363.661898,594.165602 395.619399,572.326287 428.895605,553.300695 C429.287855,553.076427 462.189854,536.503079 462.425222,536.503079 C463.825024,536.503079 462.869954,539.375209 462.425222,540.702483 C457.490682,555.429303 411.567188,581.536756 403.551544,586.879525 C385.138626,599.152521 367.789653,613.025259 348.975694,624.674162 C189.774285,723.245751 381.170407,595.143144 302.83146,654.069992 C300.339278,655.94462 294.439145,652.419031 294.449056,649.886991 C294.461626,646.675317 307.043812,641.515354 307.080076,641.488183 C310.248577,639.114125 312.339998,635.502452 315.478884,633.089375 C330.580318,621.479864 345.778173,609.942386 361.705138,599.494141 C416.848598,563.319493 436.150017,548.738286 487.654455,528.10427 C488.948782,527.58573 493.231789,528.10427 491.837455,528.10427 C484.817121,528.10427 476.877918,545.032367 470.791223,549.084887 C467.10231,551.540965 461.63722,550.5158 458.176606,553.284292 C454.237885,556.435269 453.362026,562.317001 449.794202,565.882504 C444.837356,570.836125 438.150764,573.76862 432.963777,578.480717 C345.399348,658.028246 457.976372,563.648621 374.188523,628.873567 C371.067364,631.303244 368.175381,634.105111 365.806119,637.272375 C363.932685,639.776808 364.221787,643.930821 361.623118,645.671183 C359.301522,647.225986 352.346781,648.33487 353.240714,645.687587 C356.146293,637.083033 389.581394,617.493354 391.084563,616.291758 C397.272756,611.345068 401.643023,604.355358 407.898584,599.494141 C414.347223,594.482883 422.534759,591.997728 428.912009,586.895929 C495.081984,533.959949 383.240144,606.972977 491.903071,532.303675 C499.646194,526.982876 505.745547,521.189418 517.1159,519.705462 C677.999079,498.708441 552.006944,356.685341 558.945902,351.729295 C581.941875,335.304769 114.797201,769.693735 554.87773,494.509037 C694.831692,406.995079 683.681391,471.177105 665.676614,481.910825 C624.758721,506.304417 378.906254,601.114779 584.257155,477.71142 C596.221894,470.521342 588.016665,468.371816 601.038368,465.113208 C603.748921,464.434907 606.923584,466.366699 609.420772,465.113208 C610.671819,464.485231 610.399956,459.929792 609.404368,460.913804 C587.05779,483.000538 628.12004,454.207934 596.773348,477.695016 C583.091973,487.946037 568.974409,497.612977 554.746498,507.090846 C547.949625,511.618557 540.447805,515.040398 533.733074,519.689058 C522.227612,527.654378 511.79649,537.121459 500.154244,544.885483 C494.946046,548.358746 488.636411,549.920846 483.356627,553.284292 C453.548449,572.273362 461.793599,580.281011 441.428201,570.098312 C440.176181,569.472302 437.223329,571.498103 437.228797,570.098312 C437.236545,568.114839 440.342878,567.548278 441.444605,565.898908 C443.183191,563.296113 443.513476,559.793143 445.64401,557.5001 C720.042947,262.171033 395.338485,612.017819 517.099496,490.309633 C523.436326,483.975552 527.184797,475.265826 533.880709,469.312612 C541.055678,462.933477 595.177556,410.520954 622.018985,410.520954 C623.424254,410.520954 619.060577,409.893479 617.803177,410.520954 C616.031862,411.404884 614.704341,413.074868 613.603772,414.720358 C611.864975,417.32008 611.603834,420.895526 609.387964,423.102762 C607.166902,425.315171 603.481587,425.422376 600.972752,427.302166 C597.804251,429.676224 595.869545,433.506764 592.573944,435.700975 C587.354996,439.175749 581.061828,440.779083 575.743519,444.099783 C569.806747,447.806646 564.770206,452.816811 558.945902,456.697996 C552.149754,461.226796 544.310699,464.195624 537.932478,469.296208 C530.20219,475.478024 524.853929,484.354375 516.935457,490.293229 C502.334515,501.243935 485.926691,509.563301 470.742011,519.689058 C464.922591,523.569682 459.77835,528.403846 453.960798,532.287271 C447.179981,536.813709 439.776039,540.357003 432.996585,544.885483 C430.064197,546.844234 429.203399,551.375006 424.614181,549.084887 C422.849783,548.204415 419.539702,546.66075 420.431181,544.901887 C421.850683,542.101247 426.349165,542.584032 428.862797,540.702483 C432.032409,538.329908 434.78829,535.395319 437.261605,532.303675 C440.414476,528.362586 442.090213,523.272876 445.660413,519.705462 C457.241613,508.133303 475.184311,497.044972 487.687263,486.110229 C650.648778,343.588494 93.6864351,814.444252 563.276538,423.119166 C577.56749,411.210039 590.343888,396.504475 605.221368,385.324529 C606.34042,384.483597 610.820573,385.324529 609.420772,385.324529 C597.922762,385.324529 598.753896,392.987999 592.590348,397.906337 C587.693369,401.813989 581.149624,403.083684 575.776327,406.305146 C554.736417,418.919237 513.61824,449.960573 500.154244,460.8974 C491.744209,467.728886 462.172822,497.975856 454.01001,502.891441 C452.320769,503.90869 451.79888,498.700708 449.82701,498.708441 C448.427219,498.713931 449.82701,502.907845 449.82701,502.907845 C449.82701,502.907845 448.835273,499.696319 449.82701,498.708441 C452.051533,496.492574 455.966953,496.655384 458.258626,494.509037 C478.492371,475.558408 498.346778,456.149738 517.083092,435.717379 C529.198607,422.505145 538.482389,406.861371 550.678326,393.723337 C574.915752,367.613648 600.41119,342.676071 626.234793,318.134062 C628.503657,315.977798 632.429052,311.712681 634.633601,313.934658 C636.839906,316.158404 632.271933,319.816612 630.384985,322.317062 C627.997732,325.480481 625.098825,328.283746 621.969773,330.715871 C599.858719,347.902168 577.775168,365.172978 554.746498,381.108721 C541.318931,390.400541 526.323722,397.249058 512.736053,406.305146 C466.497463,437.122847 518.752973,409.444677 466.526203,439.900379 C458.414517,444.630656 449.251077,447.455974 441.329778,452.498591 C395.777581,481.496651 449.604406,459.795057 382.603735,490.293229 C380.060668,491.450813 376.545725,491.843836 374.221331,490.293229 C368.9678,486.788589 368.956367,473.420863 370.038331,469.312612 C376.014781,446.61983 387.536336,425.323916 391.051755,402.122145 C391.9972,395.88221 396.392319,330.368917 382.636543,309.735254 C365.159632,283.519887 389.105472,320.403587 374.237735,305.535849 C373.247926,304.54604 375.489755,301.962456 374.237735,301.336445 C358.859142,293.647149 351.234132,325.250219 349.04131,330.732274" id="Path-7" stroke-width="47"></path>
                <path d="M0.490763687,284.538829 C1.89603305,292.937637 3.81512221,301.266483 4.70657178,309.735254 C6.61714851,327.885733 3.12494008,381.643951 8.88957203,364.327508 C16.7478218,340.722022 20.2559953,185.432351 21.4877845,166.955512 C22.4189186,152.988501 20.0195749,195.028751 21.4877845,208.949554 C22.8415315,221.78508 28.0777112,233.967192 29.9029968,246.744191 C30.8928061,253.672857 29.2529324,260.770946 29.8865929,267.741212 C30.6575555,276.2218 33.3314384,284.457049 34.102401,292.937637 C34.7360615,299.907903 33.3895696,306.970383 34.085997,313.934658 C34.7963231,321.037919 37.945316,327.801896 38.3018051,334.931679 C39.3503463,355.902503 36.975643,376.96661 38.2854012,397.922741 C38.4091278,399.902367 41.6141664,400.348059 42.5012093,402.122145 C43.1272243,403.374175 42.4902734,407.721351 42.4848054,406.32155 C42.1180774,312.439186 40.7611546,459.057384 46.7006135,393.723337 C47.9679342,379.782809 45.6868923,365.691737 46.6842095,351.729295 C47.0955086,345.971108 50.6596904,340.699532 50.9000176,334.931679 C52.0655075,306.959921 49.7646674,278.917254 50.8836137,250.943595 C51.5550867,234.15677 56.9681569,216.865429 59.298826,200.550745 C60.0906736,195.007812 59.2839843,178.153921 59.2824221,183.753129 C59.2464675,312.614372 55.184822,208.518854 76.0964427,360.128104 C78.9455392,380.784054 77.3342641,402.502915 80.2794429,423.119166 C80.5599505,425.082719 83.608208,425.544484 84.495251,427.31857 C85.121266,428.5706 85.8786591,431.517975 84.4788471,431.517975 C83.0790457,431.517975 84.1387214,428.676421 84.4788471,427.31857 C86.9553647,417.43181 92.2378615,408.093807 92.8940593,397.922741 C95.056997,364.397207 91.7945016,330.714809 92.8776554,297.137041 C93.1968076,287.243322 96.6978253,277.632168 97.0934635,267.741212 C98.1005152,242.564919 98.2256302,217.32217 97.0770596,192.151937 C96.8139663,186.386408 93.3203115,181.108849 92.8776554,175.35432 C91.9114166,162.793216 92.8776554,150.157895 92.8776554,137.559683 C92.8776554,126.361272 91.8138892,160.007144 92.8776554,171.154916 C94.6266919,189.484 98.8890496,207.492415 101.292868,225.74717 C105.894411,260.691601 110.605431,295.639655 113.89108,330.732274 C114.804509,340.488218 113.123157,350.358354 113.874676,360.128104 C114.52779,368.618581 117.243154,376.85123 118.090484,385.324529 C118.647626,390.895949 117.282233,396.579212 118.07408,402.122145 C118.700336,406.505932 121.740626,410.326261 122.289889,414.720358 C123.158009,421.66532 120.900866,428.854286 122.273485,435.717379 C122.549081,437.095359 126.148465,437.08069 126.489293,435.717379 C127.8473,430.285349 125.681041,424.462695 126.472889,418.919762 C127.099144,414.535976 130.620577,410.749318 130.688697,406.32155 C132.023734,319.544132 130.678689,232.746177 130.672293,145.958491 C130.671364,133.360279 129.771219,171.187182 130.672293,183.753129 C131.18288,190.873535 134.295265,197.636119 134.888101,204.750149 C135.701831,214.514914 134.219903,224.36907 134.871697,234.145979 C135.622447,245.40722 137.002349,256.649264 139.087505,267.741212 C141.220355,279.086863 145.496473,289.967724 147.502717,301.336445 C149.705471,313.818713 150.901218,326.480246 151.685718,339.131083 C152.292181,348.910908 150.643548,358.78214 151.669314,368.526912 C153.452119,385.463557 157.972187,402.021053 160.084526,418.919762 C160.779022,424.475732 158.970027,430.226903 160.068122,435.717379 C160.457116,437.662349 163.396887,438.142697 164.28393,439.916783 C164.909945,441.168813 163.27771,443.12637 164.267526,444.116187 C165.261202,445.109863 168.25231,445.502336 168.483334,444.116187 C169.86409,435.831652 167.631218,427.27689 168.46693,418.919762 C174.992436,353.664703 184.87523,511.615581 172.666335,334.931679 C170.249206,299.951632 162.128095,264.966121 160.068122,229.946574 C159.163931,214.57533 160.068122,168.355313 160.068122,183.753129 C160.068122,412.215026 154.832586,199.476728 164.28393,284.538829 C164.902259,290.103791 163.416126,295.802346 164.267526,301.336445 C166.230086,314.093081 170.857453,326.354083 172.682739,339.131083 C186.157576,433.454947 142.455373,230.819831 185.280951,402.122145 C185.959956,404.838164 184.012524,408.016908 185.264547,410.520954 C185.893003,411.777865 189.406496,411.924281 189.480355,410.520954 C190.878222,383.961487 188.256279,357.301069 189.463951,330.732274 C189.66503,326.308549 193.053504,322.517848 193.679759,318.134062 C194.471607,312.591129 192.742851,306.85947 193.663355,301.336445 C194.178335,298.246566 196.88858,295.909388 197.879164,292.937637 C198.321823,291.609659 197.863306,287.338421 197.86276,288.738233 C197.856745,304.136047 195.949223,319.653227 197.86276,334.931679 C198.799804,342.413421 204.206521,348.678623 206.277972,355.9287 C207.047083,358.62059 205.376254,361.671566 206.261568,364.327508 C211.162902,379.031511 236.684173,366.852613 244.089013,360.128104 C293.726424,315.051207 325.661714,273.684847 357.472926,213.148958 C358.775245,210.67068 356.561031,207.408175 357.440118,204.750149 C358.061721,202.870656 361.639522,200.550745 361.639522,200.550745 C361.639522,200.550745 358.540687,203.10466 357.440118,204.750149 C355.701321,207.349872 355.105175,210.63369 353.22431,213.132554 C350.841003,216.298947 348.056633,219.259862 344.809098,221.531362 C333.98399,229.103022 321.586097,234.36816 311.19746,242.528383 C301.856806,249.865422 293.946804,258.896177 286.001035,267.724808 C281.318947,272.927129 278.351868,279.573379 273.402823,284.522425 C269.834016,288.091232 264.371092,289.350102 260.80461,292.921233 C255.863423,297.868863 252.602147,304.254501 248.239206,309.71885 C247.004023,311.26585 245.808344,313.028791 244.039802,313.918254 C242.794128,314.544747 240.842752,314.920608 239.856801,313.934658 C236.566035,310.643892 243.528009,306.625051 244.072609,305.535849 C254.768564,284.14394 255.973789,291.192257 277.700651,280.339424 C319.642787,259.388816 357.355773,237.340242 403.682776,225.74717 C406.388024,225.070197 410.81537,223.246096 412.048776,225.74717 C413.959163,229.621011 399.993087,242.106186 399.401352,242.528383 C392.753198,247.27177 385.579585,251.25649 378.387927,255.126596 C346.320467,272.383319 314.169919,289.314376 281.768823,305.519446 C268.883479,311.963916 256.874975,320.070077 243.99059,326.516466 C240.036508,328.494795 235.19772,328.437167 231.408781,330.715871 C228.022496,332.752415 226.788565,337.856291 223.042781,339.114679 C221.173557,339.74264 217.973109,336.692969 218.85978,334.931679 C220.369443,331.932874 252.937799,304.158063 256.70363,301.336445 C263.243169,296.436576 271.037342,293.421855 277.733458,288.738233 C378.148924,218.502279 215.156726,325.808669 323.943308,259.342404 C369.744102,231.359103 384.906304,212.243644 433.095009,192.151937 C437.175883,190.450465 441.341696,188.821594 445.676817,187.952533 C448.411083,187.404395 452.502236,185.628039 454.042818,187.952533 C456.362755,191.452949 455.58866,196.652744 454.026414,200.550745 C452.553516,204.225813 447.667736,205.556411 445.627606,208.949554 C409.644425,268.796742 471.877847,179.423988 432.996585,229.930171 C412.578228,256.453314 396.531252,282.486132 378.387927,309.71885 C373.865525,316.506872 370.340841,323.92513 365.822522,330.715871 C364.725914,332.364002 363.602733,334.911401 361.623118,334.915275 C359.651237,334.919134 358.320591,332.496672 357.440118,330.732274 C356.815088,329.479764 356.745281,327.748043 357.440118,326.53287 L370.071138,309.735254 C383.43659,286.360931 394.969104,261.981586 407.865776,238.345383 C641.954782,-190.678139 228.823848,568.496765 433.078605,200.550745 C458.026298,155.609787 417.745712,206.075597 462.45803,150.157895 C466.164484,145.522564 470.293518,141.122903 475.039839,137.559683 C476.159286,136.719277 479.244711,136.159892 479.239243,137.559683 C479.231495,139.543156 475.805628,139.936342 475.023435,141.759087 C471.532184,149.894745 468.773797,158.367216 466.624626,166.955512 C461.760253,186.394019 458.711715,206.252274 454.01001,225.730766 C443.04991,271.136896 433.029393,302.541429 433.029393,347.529891 C433.029393,350.329494 432.349558,341.846888 433.029393,339.131083 C436.57862,324.952637 442.50895,311.412781 445.64401,297.137041 C455.124555,253.966625 461.927545,210.246689 470.840435,166.955512 C471.733063,162.619886 473.395855,158.467258 475.039839,154.357299 C476.20231,151.45112 477.503003,148.562851 479.239243,145.958491 C480.337337,144.311349 483.274886,139.786254 483.438647,141.759087 C493.396537,261.722378 483.077969,155.666277 479.222839,217.348362 C478.26235,232.716191 480.183328,248.173979 479.222839,263.541808 C478.047524,282.34684 472.380212,303.659295 470.824031,322.333466 C469.894053,333.493195 472.060688,344.798781 470.824031,355.9287 C470.605418,357.89621 468.024428,361.527905 466.624626,360.128104 C464.645008,358.148486 466.016177,354.46198 466.624626,351.729295 C468.839742,341.780706 473.364249,332.387002 475.039839,322.333466 C476.190469,315.429686 474.09842,308.274058 475.023435,301.336445 C479.763704,265.784427 486.764503,231.862005 491.837455,196.351341 C492.835475,189.365202 493.773281,161.098822 496.020456,154.357299 C496.464841,153.024144 500.037529,152.966154 500.236264,154.357299 C506.884885,200.897649 497.283612,166.855455 496.020456,204.750149 C494.854602,239.725759 494.809742,274.761169 496.020456,309.735254 C496.220178,315.504655 499.598758,320.795321 500.236264,326.53287 C501.009175,333.489072 495.270813,352.478938 500.21986,347.529891 L504.435668,347.529891 C509.737771,342.227788 512.201456,294.904397 512.818072,288.738233 C515.059246,266.326499 519.355288,244.083724 521.233285,221.547766 C523.198826,197.961273 522.482665,173.626857 525.416285,150.157895 C525.965547,145.763798 528.904086,141.927724 529.632093,137.559683 C530.322471,133.417412 529.616158,120.762063 529.615689,124.96147 C529.609752,178.153923 530.852388,231.360754 529.615689,284.538829 C529.449743,291.674514 525.963715,298.419259 525.416285,305.535849 C524.557406,316.701276 526.346262,327.971354 525.416285,339.131083 C519.17987,413.968056 521.216881,277.554641 521.216881,381.125125 C521.216881,382.524926 520.772669,378.253169 521.216881,376.92572 C522.210945,373.955132 524.440364,371.498082 525.432689,368.526912 C527.261014,363.052629 528.997194,357.465797 529.632093,351.729295 C530.402022,344.772763 528.797916,337.683345 529.615689,330.732274 C531.605521,313.818703 536.336331,297.285125 538.030901,280.339424 C539.145185,269.196588 537.26959,257.917801 538.014497,246.744191 C538.67296,236.86725 541.52504,227.222071 542.230305,217.348362 C542.928428,207.574652 541.462382,197.722282 542.213901,187.952533 C542.867015,179.462055 545.776596,171.246585 546.42971,162.756108 C547.181229,152.986358 545.33123,143.098959 546.413306,133.360279 C546.759232,130.246938 549.63853,127.933221 550.629114,124.96147 C551.071773,123.633492 550.613803,119.362254 550.61271,120.762066 C550.502052,262.404326 552.725762,61.7568014 546.413306,162.756108 C545.365499,179.521012 547.296169,196.374558 546.413306,213.148958 C541.89365,299.022424 534.892986,153.501212 542.213901,313.934658 C542.269186,315.146191 549.343503,365.988498 550.61271,368.526912 C551.241165,369.783823 553.834842,367.533237 554.828518,368.526912 C555.818335,369.516729 553.822297,371.7365 554.812114,372.726316 C561.343316,379.257519 562.857909,345.801579 563.210922,343.330487 C565.943136,324.20499 571.085864,303.988554 571.626135,284.538829 C572.792186,242.560979 571.633165,116.562668 571.609731,158.556704 C571.580829,210.349347 560.374327,263.375342 571.609731,313.934658 L575.809135,347.529891 C577.444832,354.890531 581.839929,361.373656 584.224347,368.526912 C584.667007,369.85489 583.218127,371.7365 584.207943,372.726316 C586.671195,375.189568 589.56133,373.512984 592.623155,364.327508 C595.84574,354.659753 600.549412,345.111424 601.021964,334.931679 C603.358723,284.593036 601.015402,133.360279 601.00556,183.753129 C600.857125,943.740573 576.138119,315.18498 605.221368,431.517975 C605.560872,432.875992 604.578949,434.465349 605.204964,435.717379 C606.092007,437.491465 608.018234,441.319321 609.420772,439.916783 C611.400394,437.937161 608.85532,434.263216 609.404368,431.517975 C611.668408,420.197773 617.328774,409.456689 617.81958,397.922741 C620.140555,343.379847 619.207981,288.720155 617.803177,234.145979 C617.566543,224.953187 612.673914,231.806292 609.404368,238.345383 C605.524816,246.104487 606.518111,255.006355 605.204964,263.541808 C603.034313,277.65104 597.469403,291.276036 596.806156,305.535849 C594.659944,351.67941 596.806156,490.309633 596.806156,444.116187 C596.806156,369.926713 598.232613,295.723525 596.806156,221.547766 C596.768093,219.568514 593.232762,223.86914 592.606752,225.74717 C591.721439,228.403107 593.067003,231.384467 592.606752,234.145979 C591.657918,239.83898 588.886647,245.192003 588.407347,250.943595 C587.47737,262.103324 589.266226,273.373403 588.407347,284.538829 C587.859917,291.655419 584.517981,298.404972 584.207943,305.535849 C583.11348,330.708493 583.154912,355.950714 584.207943,381.125125 C584.563833,389.633245 587.770638,397.831072 588.423751,406.32155 C589.17527,416.091299 587.191979,425.994434 588.407347,435.717379 C590.008229,448.52443 594.700708,460.780908 596.82256,473.512016 C597.512938,477.654287 595.982584,481.992371 596.806156,486.110229 C597.42049,489.181898 598.804792,492.296187 601.021964,494.509037 C602.012738,495.49788 604.233498,493.517293 605.221368,494.509037 C606.209246,495.500789 604.215147,497.718625 605.204964,498.708441 C608.961702,502.46518 616.849378,488.697436 617.81958,486.110229 C621.397777,476.568372 624.398866,466.741357 626.218389,456.7144 C627.218112,451.205163 625.507489,445.472753 626.201985,439.916783 C626.91802,434.188504 630.033788,428.879238 630.417793,423.119166 C635.405605,348.301989 630.163879,403.233914 626.201985,351.729295 C620.96847,283.693598 636.31374,368.692835 617.803177,276.14002 C615.880109,266.524682 613.04569,237.131609 596.806156,242.544787 C594.928125,243.170797 593.234229,244.86665 592.606752,246.744191 C590.345707,253.509695 590.79406,261.008455 588.390943,267.724808 C583.745739,280.707466 575.938815,292.438879 571.576923,305.519446 C537.617206,407.358814 552.848753,366.925659 537.998093,452.498591 C535.790691,465.218156 530.897519,477.463744 529.615689,490.309633 C528.086808,505.631357 528.33201,521.158865 529.615689,536.503079 C529.781048,538.479662 533.204263,538.820781 533.831497,540.702483 C534.716811,543.358424 532.56307,546.597246 533.815093,549.101291 C535.647786,552.766678 539.459529,551.872292 546.446113,540.702483 C551.42568,532.741397 555.838075,524.331868 559.044326,515.506058 C561.481087,508.798416 561.176655,501.344607 563.227326,494.509037 C574.579944,456.666978 570.724877,490.744073 580.041347,444.116187 C586.252738,413.028871 588.227727,382.497293 592.623155,351.729295 C593.217041,347.572094 595.578113,342.09858 592.606752,339.131083 C583.222755,329.759289 573.090634,345.815309 571.609731,351.729295 C568.143216,365.572815 565.61925,379.64349 563.194518,393.706933 C554.758928,442.63336 541.712046,481.988646 559.027922,528.10427 C559.723806,529.957547 561.306815,531.823547 563.227326,532.303675 C579.490792,536.369541 577.043755,529.267135 584.224347,519.705462 C586.60419,516.536465 591.170178,514.987295 592.639559,511.306654 C594.196557,507.406542 591.784725,502.826619 592.606752,498.708441 C594.601854,488.713406 599.472165,479.386305 601.021964,469.312612 C638.338722,226.753683 578.654771,564.350959 605.221368,431.517975 C605.770416,428.772733 605.20554,420.319558 605.204964,423.119166 C605.19892,452.514995 603.923112,481.938786 605.204964,511.306654 C609.685458,613.957031 609.595348,475.014098 609.404368,523.904866" id="Path-8" stroke-width="47"></path>
                <path d="M333.884085,470.411675 C333.884085,432.587083 327.507952,443.433851 350.583278,415.425727 C360.508588,403.37869 371.564551,392.296169 381.53748,380.288524 C388.968067,371.341921 395.489624,361.672651 402.764156,352.598703 C406.878706,347.466385 411.0744,342.373935 415.690447,337.687538 C460.582894,292.110915 425.966599,372.29457 422.202804,379.911234 C397.486418,429.928947 393.963661,423.986107 365.035134,474.594675 C362.65048,478.766472 365.119114,487.156688 360.442036,488.259143 C356.359969,489.221344 359.619129,479.789745 360.442036,475.677334 C361.766578,469.058037 363.769257,462.48046 366.806758,456.451937 C377.432509,435.363024 399.123116,416.91431 419.233694,405.156871 C427.014923,400.607657 425.83503,414.137087 423.318271,424.480692 C421.3593,432.531847 412.893999,455.547402 401.730709,459.2242" id="Path-2" stroke-width="64"></path>
                <path d="M238.495276,356.929339 C269.169456,327.588818 367.244714,313.546512 414.082863,309.489195 C428.274429,308.259862 442.59142,306.52924 456.782273,307.766783 C458.590776,307.924497 457.937894,311.81285 456.782273,313.212885 C452.006365,318.998902 445.098716,322.698193 439.951848,328.156859 C432.248054,336.327351 425.825394,345.629627 418.331478,353.993037 C406.166568,367.569402 393.691357,380.871154 380.996151,393.952992 C365.319384,410.107193 349.850056,426.508681 333.227928,441.688407 C322.145529,451.80912 309.387653,459.953002 298.008707,469.739114 C292.254268,474.688042 287.684773,480.917861 281.900055,485.831362 C279.948689,487.488839 277.057791,487.700879 275.026811,489.259782 C266.425759,495.861622 258.778221,503.651744 250.142061,510.207591 C248.797861,511.227994 246.561332,510.638622 245.335711,511.798771 C243.795983,513.25625 240.983187,518.990828 242.465025,517.474529 C245.789209,514.073038 247.405648,509.163687 250.978661,506.024591 C366.614052,404.432274 315.222071,450.67505 400.713666,385.83305 C418.739325,372.161299 443.478542,349.374334 466.214528,336.998573 C467.011758,336.564621 468.29575,336.356744 468.93758,336.998573 C470.450795,338.511788 467.264028,342.453633 460.243501,348.350087 C455.565688,352.278925 450.934748,356.403511 445.578394,359.340715 C391.69746,388.886803 332.826379,413.98309 273.648882,430.697778 C250.168402,437.329842 226.442818,443.084206 202.685513,448.64367 C200.827388,449.078491 197.80142,450.356744 196.960544,448.64367 C190.182399,434.834899 208.74944,425.613466 216.628847,420.822617 C235.927068,409.088884 255.831628,398.270114 276.306317,388.736545 C288.533355,383.043305 301.866768,380.093606 314.461841,375.268924 C327.312543,370.346321 339.613156,364.006212 352.617365,359.504755 C393.157996,345.471459 447.392545,348.479535 489.196424,350.384174 C492.557816,350.537323 496.240132,351.355157 498.776315,353.566535 C501.727423,356.1397 503.442991,360.035572 504.566899,363.786178 C505.438016,366.69319 505.804296,370.119361 504.566899,372.890355 C502.411047,377.718115 482.623206,390.730481 481.94589,391.115113 C415.965382,428.583899 395.996263,439.940626 322.220896,462.406561 C293.617476,471.11682 264.342871,477.519916 235.116068,483.830084 C231.166245,484.682864 225.905502,486.631686 222.993569,483.830084 C220.191966,481.134631 220.836263,475.40116 222.993569,472.166895 C228.301813,464.208695 237.697903,459.788413 243.892166,452.498591 C246.754995,449.129424 247.829108,444.580965 249.797578,440.622152" id="Path-3" stroke-width="47"></path>
                <path d="M411.769909,368.428488 C498.983448,263.605857 514.63605,129.979126 517.805121,2.45697672 C517.821001,1.80761498 517.072204,1.15360378 516.426935,1.07904723 C513.400375,0.729348326 501.684122,-0.235659092 499.00597,4.50746704 C472.431962,51.5711967 446.617374,99.1211184 423.055808,147.762923 C383.12528,230.19772 352.717193,313.773978 338.985705,404.057808 C333.786233,438.244071 330.966076,465.90394 330.078375,500.299622 C329.590826,519.19065 329.10154,538.119523 330.078375,556.991578 C330.177464,558.905928 331.905274,560.426061 333.260736,561.781523 C334.616198,563.136986 336.150745,564.709335 338.050682,564.963884 C367.543614,568.915286 379.619057,547.570143 393.348304,523.494768 C411.726055,491.267858 416.408527,466.833627 418.626749,429.844774 C419.323954,418.218876 421.975478,406.059401 418.626749,394.904419 C415.142302,383.297346 406.684334,373.664326 398.958446,364.327508 C384.005459,346.256664 360.939684,331.60439 336.78758,330.33858 C328.170942,329.886983 314.963445,322.725658 310.90219,330.33858 C293.568855,362.830344 323.047698,417.97774 349.927122,437.177328 C358.27416,443.139498 371.587963,447.975954 381.832751,450.021599 C390.700709,451.792323 424.948772,460.638862 434.095648,447.80707 C438.618392,441.462291 456.013596,390.649892 457.946951,382.978768 C462.672977,364.226949 463.389413,339.371034 461.933105,320.775094 C461.782851,318.856474 460.395614,316.94026 458.73434,315.968744 C451.974379,312.015508 436.117408,309.994043 429.568165,309.866485 C397.777925,309.247315 365.872321,307.305481 334.179356,309.866485 C324.721386,310.630752 296.15112,326.767838 288.231969,331.601682 C254.735406,352.047964 225.274746,377.851972 220.582192,419.461091 C219.407021,429.881395 216.325616,459.787053 224.469922,474.725907 C242.833031,508.408801 294.514054,511.694794 327.470152,512.700987 C345.752006,513.259156 364.275228,515.556826 382.341272,512.700987 C404.893345,509.136007 426.730718,481.965319 438.278648,467.327737 C462.099884,437.133127 472.477712,395.258612 479.81338,358.73377 C481.408294,350.792573 482.06193,342.652527 482.224757,334.554388 C482.866364,302.644273 483.511548,270.695307 482.224757,238.804693 C481.893363,230.591752 479.839103,222.470216 477.3856,214.625311 C475.129983,207.413134 471.693296,200.599027 468.182999,193.907157 C466.762611,191.199393 464.639078,188.914958 462.671281,186.574603 C457.154917,180.01384 452.174757,172.883581 445.742433,167.217975 C442.470576,164.336116 438.119688,162.917016 434.046436,161.361774 C429.360641,159.572652 424.577851,157.629106 419.578177,157.227986 C407.265586,156.240156 394.627222,154.771888 382.521716,157.227986 C330.377868,167.8075 296.519277,255.377589 285.213647,298.367335 C274.344904,339.695817 270.062961,414.658994 277.470996,449.414654 C282.401244,472.545488 297.268631,492.583895 310.344456,512.290889 C318.914979,525.207797 330.545973,535.893495 341.872796,546.476664 C380.457632,582.528244 422.883571,607.788111 476.220921,605.21911 C489.994564,604.555701 489.435579,578.401212 489.622926,568.556343 C490.239236,536.169928 492.37688,503.654504 489.622926,471.379506 C485.425925,422.192698 454.261774,327.755332 414.394537,293.708621 C386.447333,269.841646 334.330191,270.513906 303.061115,274.023914 C298.12694,274.577784 294.338537,278.940514 290.659749,282.275087 C265.141044,305.406078 257.553022,338.612198 266.103077,372.74272 C268.292272,381.481651 277.210133,387.137158 284.213008,392.804717 C314.479779,417.30019 378.846132,433.012233 415.739659,423.447245 C423.547724,421.422931 428.406236,413.296506 433.619934,407.141746 C442.084986,397.14877 444.517077,370.505402 445.151892,362.883963 C446.141791,350.999466 446.664321,338.936366 445.151892,327.107008 C443.057681,310.727291 398.261511,315.294573 393.561555,316.214803 C379.67827,318.933088 369.354747,350.439825 365.527252,360.1117 C349.799136,399.855801 342.90864,425.3501 389.001265,425.3501" id="Path-4" stroke-width="62"></path>
                <path d="M544.444835,430.025218 C549.029054,465.108947 557.527967,490.138302 567.623577,526.414666 C568.683015,530.221524 570.17942,551.018697 580.369425,553.710794 C583.662973,554.580916 588.120375,556.058158 590.589069,553.710794 C601.451194,543.382515 597.144272,501.424608 596.724136,498.085092 C592.534074,464.779711 519.519774,411.845532 495.741589,399.727173 C495.33236,399.518613 494.366426,399.267871 494.363629,399.727173 C494.357546,400.741976 495.271343,401.54254 495.725185,402.450224" id="Path-5" stroke-width="47"></path>
            </g>
        </g>
    </g>
</svg>