<?xml version="1.0" encoding="UTF-8"?>
<svg width="146px" height="1278px" viewBox="0 0 146 1278" version="1.1" xmlns="http://www.w3.org/2000/svg" xmlns:xlink="http://www.w3.org/1999/xlink">
    <!-- Generator: Sketch 63.1 (92452) - https://sketch.com -->
    <title>regla</title>
    <desc>Created with Sketch.</desc>
    <g id="Page-1" stroke="none" stroke-width="1" fill="none" fill-rule="evenodd">
        <g id="regla" transform="translate(73.000000, 639.000000) rotate(-90.000000) translate(-73.000000, -639.000000) translate(-566.000000, 566.000000)" fill="#000000" fill-rule="nonzero">
            <g id="Group" transform="translate(638.950000, 73.000000) scale(-1, 1) rotate(-180.000000) translate(-638.950000, -73.000000) ">
                <path d="M9.2,145.3 C11.9,145.1 16.1,145.1 18.8,145.3 C21.4,145.5 19.2,145.6 14,145.6 C8.8,145.6 6.6,145.5 9.2,145.3 Z" id="Path"></path>
                <polygon id="Path" points="25 120.8 25.5 95.5 25.8 120.3 26 145 28.5 145 30.9 145 31.2 132.8 31.5 120.5 32 133.3 32.5 146 28.5 146 24.5 146"></polygon>
                <path d="M35.2,145.3 C36.7,144.9 37,143.2 37.2,132.7 L37.5,120.5 L38,133.3 L38.5,146 L36,145.9 C34.4,145.8 34.1,145.6 35.2,145.3 Z" id="Path"></path>
                <path d="M41.3,145.3 C42.8,144.9 43,143.4 43,132.9 C43,125.6 43.4,121 44,121 C44.6,121 45,125.8 45,133.5 L45,146 L42.3,145.9 C40.6,145.8 40.2,145.6 41.3,145.3 Z" id="Path"></path>
                <path d="M47.3,145.3 C48.8,144.9 49,143.4 49,132.9 C49,125.6 49.4,121 50,121 C50.6,121 51,125.8 51,133.5 L51,146 L48.3,145.9 C46.6,145.8 46.2,145.6 47.3,145.3 Z" id="Path"></path>
                <path d="M55,127.5 C55,115.8 55.4,109 56,109 C56.6,109 57,115.6 57,126.9 C57,143.2 57.2,144.9 58.8,145.3 C59.8,145.6 59.4,145.8 57.8,145.9 L55,146 L55,127.5 Z" id="Path"></path>
                <path d="M61.8,136.3 C62.2,120.9 62.7,119.4 62.8,132.7 C63,143.4 63.2,144.9 64.8,145.3 C65.9,145.6 65.7,145.8 64,145.9 L61.5,146 L61.8,136.3 Z" id="Path"></path>
                <path d="M68,133.3 L68.5,120.5 L68.8,132.8 C69.1,145 69.1,145 71.5,145 C73.9,145 73.9,145 74.2,132.8 L74.5,120.5 L75,133.3 L75.5,146 L71.5,146 L67.5,146 L68,133.3 Z" id="Path"></path>
                <path d="M78.2,145.3 C79.7,144.9 80,143.2 80.2,132.7 L80.5,120.5 L81,133.3 L81.5,146 L79,145.9 C77.4,145.8 77.1,145.6 78.2,145.3 Z" id="Path"></path>
                <path d="M84.3,145.3 C85.9,144.9 86,142.8 86,120.4 C86,104.3 86.3,96.1 87,96.5 C87.6,96.9 88,106.3 88,121.6 L88,146 L85.3,145.9 C83.6,145.8 83.2,145.6 84.3,145.3 Z" id="Path"></path>
                <path d="M90.3,145.3 C91.8,144.9 92,143.4 92,132.9 C92,125.6 92.4,121 93,121 C93.6,121 94,125.8 94,133.5 L94,146 L91.3,145.9 C89.6,145.8 89.2,145.6 90.3,145.3 Z" id="Path"></path>
                <path d="M98,133.5 C98,125.8 98.4,121 99,121 C99.6,121 100,125.6 100,132.9 C100,143.4 100.2,144.9 101.8,145.3 C102.8,145.6 102.4,145.8 100.8,145.9 L98,146 L98,133.5 Z" id="Path"></path>
                <path d="M104,133.5 C104,125.8 104.4,121 105,121 C105.6,121 106,125.6 106,132.9 C106,143.4 106.2,144.9 107.8,145.3 C108.8,145.6 108.4,145.8 106.8,145.9 L104,146 L104,133.5 Z" id="Path"></path>
                <polygon id="Path" points="111 133.3 111.5 120.5 111.8 132.8 112.1 145 114.5 145 117 145 117.2 126.8 117.5 108.5 118 127.3 118.5 146 114.5 146 110.5 146"></polygon>
                <path d="M121.2,145.3 C122.7,144.9 123,143.2 123.2,132.7 L123.5,120.5 L124,133.3 L124.5,146 L122,145.9 C120.4,145.8 120.1,145.6 121.2,145.3 Z" id="Path"></path>
                <path d="M127.3,145.3 C128.8,144.9 129,143.4 129,132.9 C129,125.6 129.4,121 130,121 C130.6,121 131,125.8 131,133.5 L131,146 L128.3,145.9 C126.6,145.8 126.2,145.6 127.3,145.3 Z" id="Path"></path>
                <path d="M133.3,145.3 C134.8,144.9 135,143.4 135,132.9 C135,125.6 135.4,121 136,121 C136.6,121 137,125.8 137,133.5 L137,146 L134.3,145.9 C132.6,145.8 132.2,145.6 133.3,145.3 Z" id="Path"></path>
                <path d="M141,133.5 C141,125.8 141.4,121 142,121 C142.6,121 143,125.6 143,132.9 C143,143.4 143.2,144.9 144.8,145.3 C145.8,145.6 145.4,145.8 143.8,145.9 L141,146 L141,133.5 Z" id="Path"></path>
                <path d="M147,121.6 C147,106.3 147.4,96.9 148,96.5 C148.7,96.1 149,104.3 149,120.4 C149,142.8 149.1,144.9 150.8,145.3 C151.8,145.6 151.4,145.8 149.8,145.9 L147,146 L147,121.6 Z" id="Path"></path>
                <path d="M154,133.3 L154.5,120.5 L154.8,132.7 C155,143.2 155.3,144.9 156.8,145.3 C157.9,145.6 157.6,145.8 156,145.9 L153.5,146 L154,133.3 Z" id="Path"></path>
                <path d="M160,133.3 L160.5,120.5 L160.8,132.8 C161.1,145 161.1,145 163.5,145 C165.9,145 165.9,145 166.2,132.8 L166.5,120.5 L167,133.3 L167.5,146 L163.5,146 L159.5,146 L160,133.3 Z" id="Path"></path>
                <path d="M170.3,145.3 C171.8,144.9 172,143.4 172,132.9 C172,125.6 172.4,121 173,121 C173.6,121 174,125.8 174,133.5 L174,146 L171.3,145.9 C169.6,145.8 169.2,145.6 170.3,145.3 Z" id="Path"></path>
                <path d="M176.3,145.3 C177.8,144.9 178,143.2 178,126.9 C178,115.6 178.4,109 179,109 C179.6,109 180,115.8 180,127.5 L180,146 L177.3,145.9 C175.6,145.8 175.2,145.6 176.3,145.3 Z" id="Path"></path>
                <path d="M184,133.5 C184,125.8 184.4,121 185,121 C185.6,121 186,125.6 186,132.9 C186,143.4 186.2,144.9 187.8,145.3 C188.8,145.6 188.4,145.8 186.8,145.9 L184,146 L184,133.5 Z" id="Path"></path>
                <path d="M190,133.5 C190,125.8 190.4,121 191,121 C191.6,121 192,125.6 192,132.9 C192,143.4 192.2,144.9 193.8,145.3 C194.8,145.6 194.4,145.8 192.8,145.9 L190,146 L190,133.5 Z" id="Path"></path>
                <path d="M197,133.3 L197.5,120.5 L197.8,132.7 C198,143.2 198.3,144.9 199.8,145.3 C200.9,145.6 200.6,145.8 199,145.9 L196.5,146 L197,133.3 Z" id="Path"></path>
                <polygon id="Path" points="203 133.3 203.5 120.5 203.8 132.8 204.1 145 206.5 145 209 145 209.2 120.3 209.5 95.5 210 120.8 210.5 146 206.5 146 202.5 146"></polygon>
                <path d="M213.2,145.3 C214.7,144.9 215,143.2 215.2,132.7 L215.5,120.5 L216,133.3 L216.5,146 L214,145.9 C212.4,145.8 212.1,145.6 213.2,145.3 Z" id="Path"></path>
                <path d="M219.3,145.3 C220.8,144.9 221,143.4 221,132.9 C221,125.6 221.4,121 222,121 C222.6,121 223,125.8 223,133.5 L223,146 L220.3,145.9 C218.6,145.8 218.2,145.6 219.3,145.3 Z" id="Path"></path>
                <path d="M225.3,145.3 C226.8,144.9 227,143.4 227,132.9 C227,125.6 227.4,121 228,121 C228.6,121 229,125.8 229,133.5 L229,146 L226.3,145.9 C224.6,145.8 224.2,145.6 225.3,145.3 Z" id="Path"></path>
                <path d="M233,133.5 C233,125.8 233.4,121 234,121 C234.6,121 235,125.6 235,132.9 C235,143.4 235.2,144.9 236.8,145.3 C237.8,145.6 237.4,145.8 235.8,145.9 L233,146 L233,133.5 Z" id="Path"></path>
                <path d="M240,127.3 L240.5,108.5 L240.8,126.7 C241,142.9 241.2,144.9 242.8,145.3 C243.9,145.6 243.7,145.8 242,145.9 L239.5,146 L240,127.3 Z" id="Path"></path>
                <path d="M246,133.3 L246.5,120.5 L246.8,132.8 C247.1,145 247.1,145 249.5,145 C251.9,145 251.9,145 252.2,132.8 L252.5,120.5 L253,133.3 L253.5,146 L249.5,146 L245.5,146 L246,133.3 Z" id="Path"></path>
                <path d="M256.2,145.3 C257.7,144.9 258,143.2 258.2,132.7 L258.5,120.5 L259,133.3 L259.5,146 L257,145.9 C255.4,145.8 255.1,145.6 256.2,145.3 Z" id="Path"></path>
                <path d="M262.3,145.3 C263.8,144.9 264,143.4 264,132.9 C264,125.6 264.4,121 265,121 C265.6,121 266,125.8 266,133.5 L266,146 L263.3,145.9 C261.6,145.8 261.2,145.6 262.3,145.3 Z" id="Path"></path>
                <path d="M268.3,145.3 C269.9,144.9 270,142.9 270,120.9 C270,105.6 270.4,97 271,97 C271.6,97 272,105.8 272,121.5 L272,146 L269.3,145.9 C267.6,145.8 267.2,145.6 268.3,145.3 Z" id="Path"></path>
                <path d="M276,133.5 C276,125.8 276.4,121 277,121 C277.6,121 278,125.6 278,132.9 C278,143.4 278.2,144.9 279.8,145.3 C280.8,145.6 280.4,145.8 278.8,145.9 L276,146 L276,133.5 Z" id="Path"></path>
                <path d="M282,133.5 C282,125.8 282.4,121 283,121 C283.6,121 284,125.6 284,132.9 C284,143.4 284.2,144.9 285.8,145.3 C286.8,145.6 286.4,145.8 284.8,145.9 L282,146 L282,133.5 Z" id="Path"></path>
                <path d="M289,133.3 L289.5,120.5 L289.8,132.8 C290.1,145 290.1,145 292.5,145 C294.9,145 294.9,145 295.2,132.8 L295.5,120.5 L296,133.3 L296.5,146 L292.5,146 L288.5,146 L289,133.3 Z" id="Path"></path>
                <path d="M299.2,145.3 C300.8,144.9 301,142.9 301.2,126.7 L301.5,108.5 L302,127.3 L302.5,146 L300,145.9 C298.3,145.8 298.1,145.6 299.2,145.3 Z" id="Path"></path>
                <path d="M305.3,145.3 C306.8,144.9 307,143.4 307,132.9 C307,125.6 307.4,121 308,121 C308.6,121 309,125.8 309,133.5 L309,146 L306.3,145.9 C304.6,145.8 304.2,145.6 305.3,145.3 Z" id="Path"></path>
                <path d="M313,133.5 C313,125.8 313.4,121 314,121 C314.6,121 315,125.8 315,133.5 C315,141.2 314.6,146 314,146 C313.4,146 313,141.2 313,133.5 Z" id="Path"></path>
                <path d="M319,133.5 C319,125.8 319.4,121 320,121 C320.6,121 321,125.6 321,132.9 C321,143.4 321.2,144.9 322.8,145.3 C323.8,145.6 323.4,145.8 321.8,145.9 L319,146 L319,133.5 Z" id="Path"></path>
                <path d="M325,133.5 C325,125.8 325.4,121 326,121 C326.6,121 327,125.6 327,132.9 C327,143.4 327.2,144.9 328.8,145.3 C329.8,145.6 329.4,145.8 327.8,145.9 L325,146 L325,133.5 Z" id="Path"></path>
                <path d="M332,120.8 L332.5,95.5 L332.8,120.2 C333,142.6 333.2,144.9 334.8,145.3 C335.9,145.6 335.7,145.8 334,145.9 L331.5,146 L332,120.8 Z" id="Path"></path>
                <path d="M338,133.3 L338.5,120.5 L338.8,132.8 C339.1,145 339.1,145 341.5,145 C343.9,145 343.9,145 344.2,132.8 L344.5,120.5 L345,133.3 L345.5,146 L341.5,146 L337.5,146 L338,133.3 Z" id="Path"></path>
                <path d="M348.3,145.3 C349.8,144.9 350,143.4 350,132.9 C350,125.6 350.4,121 351,121 C351.6,121 352,125.8 352,133.5 L352,146 L349.3,145.9 C347.6,145.8 347.2,145.6 348.3,145.3 Z" id="Path"></path>
                <path d="M354.3,145.3 C355.8,144.9 356,143.4 356,132.9 C356,125.6 356.4,121 357,121 C357.6,121 358,125.8 358,133.5 L358,146 L355.3,145.9 C353.6,145.8 353.2,145.6 354.3,145.3 Z" id="Path"></path>
                <path d="M362,127.5 C362,115.8 362.4,109 363,109 C363.6,109 364,115.6 364,126.9 C364,143.2 364.2,144.9 365.8,145.3 C366.8,145.6 366.4,145.8 364.8,145.9 L362,146 L362,127.5 Z" id="Path"></path>
                <path d="M368,133.5 C368,125.8 368.4,121 369,121 C369.6,121 370,125.6 370,132.9 C370,143.4 370.2,144.9 371.8,145.3 C372.8,145.6 372.4,145.8 370.8,145.9 L368,146 L368,133.5 Z" id="Path"></path>
                <path d="M375,133.3 L375.5,120.5 L375.8,132.7 C376,143.2 376.3,144.9 377.8,145.3 C378.9,145.6 378.6,145.8 377,145.9 L374.5,146 L375,133.3 Z" id="Path"></path>
                <path d="M381,133.3 L381.5,120.5 L381.8,132.8 C382.1,145 382.1,145 384.5,145 C386.9,145 386.9,145 387.2,132.8 L387.5,120.5 L388,133.3 L388.5,146 L384.5,146 L380.5,146 L381,133.3 Z" id="Path"></path>
                <path d="M391.3,145.3 C392.9,144.9 393,142.8 393,120.3 C393,106.7 393.2,95.9 393.5,96.2 C393.8,96.5 394.1,107.8 394.3,121.4 L394.5,146 L392,145.9 C390.3,145.8 390.1,145.6 391.3,145.3 Z" id="Path"></path>
                <path d="M397.3,145.3 C398.8,144.9 399,143.4 399,132.9 C399,125.6 399.4,121 400,121 C400.6,121 401,125.8 401,133.5 L401,146 L398.3,145.9 C396.6,145.8 396.2,145.6 397.3,145.3 Z" id="Path"></path>
                <path d="M405,133.5 C405,125.8 405.4,121 406,121 C406.6,121 407,125.6 407,132.9 C407,143.4 407.2,144.9 408.8,145.3 C409.8,145.6 409.4,145.8 407.8,145.9 L405,146 L405,133.5 Z" id="Path"></path>
                <path d="M411,133.5 C411,125.8 411.4,121 412,121 C412.6,121 413,125.6 413,132.9 C413,143.4 413.2,144.9 414.8,145.3 C415.8,145.6 415.4,145.8 413.8,145.9 L411,146 L411,133.5 Z" id="Path"></path>
                <path d="M418,133.3 L418.5,120.5 L418.8,132.7 C419,143.2 419.3,144.9 420.8,145.3 C421.9,145.6 421.6,145.8 420,145.9 L417.5,146 L418,133.3 Z" id="Path"></path>
                <polygon id="Path" points="424 127.3 424.5 108.5 424.8 126.8 425 145 427.5 145 429.9 145 430.2 132.8 430.5 120.5 431 133.3 431.5 146 427.5 146 423.5 146"></polygon>
                <path d="M434.3,145.3 C435.8,144.9 436,143.4 436.2,132.7 C436.3,119.4 436.8,120.9 437.2,136.3 L437.5,146 L435,145.9 C433.3,145.8 433.1,145.6 434.3,145.3 Z" id="Path"></path>
                <path d="M440.3,145.3 C441.8,144.9 442,143.4 442,132.9 C442,125.6 442.4,121 443,121 C443.6,121 444,125.8 444,133.5 L444,146 L441.3,145.9 C439.6,145.8 439.2,145.6 440.3,145.3 Z" id="Path"></path>
                <path d="M446.3,145.3 C447.8,144.9 448,143.4 448,132.9 C448,125.6 448.4,121 449,121 C449.6,121 450,125.8 450,133.5 L450,146 L447.3,145.9 C445.6,145.8 445.2,145.6 446.3,145.3 Z" id="Path"></path>
                <path d="M454,121.6 C454,106.3 454.4,96.9 455,96.5 C455.7,96.1 456,104.3 456,120.4 C456,142.8 456.1,144.9 457.8,145.3 C458.8,145.6 458.4,145.8 456.8,145.9 L454,146 L454,121.6 Z" id="Path"></path>
                <path d="M460,133.5 C460,125.8 460.4,121 461,121 C461.6,121 462,125.6 462,132.9 C462,143.4 462.2,144.9 463.8,145.3 C464.8,145.6 464.4,145.8 462.8,145.9 L460,146 L460,133.5 Z" id="Path"></path>
                <path d="M467,133.3 L467.5,120.5 L467.8,132.8 C468.1,145 468.1,145 470.5,145 C472.9,145 472.9,145 473.2,132.8 L473.5,120.5 L474,133.3 L474.5,146 L470.5,146 L466.5,146 L467,133.3 Z" id="Path"></path>
                <path d="M477.2,145.3 C478.7,144.9 479,143.2 479.2,132.7 L479.5,120.5 L480,133.3 L480.5,146 L478,145.9 C476.4,145.8 476.1,145.6 477.2,145.3 Z" id="Path"></path>
                <path d="M483.3,145.3 C484.8,144.9 485,143.2 485,126.9 C485,115.6 485.4,109 486,109 C486.6,109 487,115.8 487,127.5 L487,146 L484.3,145.9 C482.6,145.8 482.2,145.6 483.3,145.3 Z" id="Path"></path>
                <path d="M489.3,145.3 C490.8,144.9 491,143.4 491,132.9 C491,125.6 491.4,121 492,121 C492.6,121 493,125.8 493,133.5 L493,146 L490.3,145.9 C488.6,145.8 488.2,145.6 489.3,145.3 Z" id="Path"></path>
                <path d="M497,133.5 C497,125.8 497.4,121 498,121 C498.6,121 499,125.6 499,132.9 C499,143.4 499.2,144.9 500.8,145.3 C501.8,145.6 501.4,145.8 499.8,145.9 L497,146 L497,133.5 Z" id="Path"></path>
                <path d="M503,133.5 C503,125.8 503.4,121 504,121 C504.6,121 505,125.6 505,132.9 C505,143.4 505.2,144.9 506.8,145.3 C507.8,145.6 507.4,145.8 505.8,145.9 L503,146 L503,133.5 Z" id="Path"></path>
                <path d="M510,133.3 L510.5,120.5 L510.8,132.7 C511,143.2 511.3,144.9 512.8,145.3 C513.9,145.6 513.6,145.8 512,145.9 L509.5,146 L510,133.3 Z" id="Path"></path>
                <path d="M516,120.8 C516.4,95.5 516.8,97.6 517.2,129.3 C517.4,139.9 517.1,146 516.5,146 C515.8,146 515.7,137.2 516,120.8 Z" id="Path"></path>
                <path d="M520.2,145.3 C521.7,144.9 522,143.2 522.2,132.7 L522.5,120.5 L523,133.3 L523.5,146 L521,145.9 C519.4,145.8 519.1,145.6 520.2,145.3 Z" id="Path"></path>
                <path d="M526.3,145.3 C527.8,144.9 528,143.4 528,132.9 C528,125.6 528.4,121 529,121 C529.6,121 530,125.8 530,133.5 L530,146 L527.3,145.9 C525.6,145.8 525.2,145.6 526.3,145.3 Z" id="Path"></path>
                <path d="M534,133.5 C534,125.8 534.4,121 535,121 C535.6,121 536,125.8 536,133.5 C536,141.2 535.6,146 535,146 C534.4,146 534,141.2 534,133.5 Z" id="Path"></path>
                <path d="M540,133.5 C540,125.8 540.4,121 541,121 C541.6,121 542,125.6 542,132.9 C542,143.4 542.2,144.9 543.8,145.3 C544.8,145.6 544.4,145.8 542.8,145.9 L540,146 L540,133.5 Z" id="Path"></path>
                <path d="M546,127.5 C546,115.8 546.4,109 547,109 C547.6,109 548,115.6 548,126.9 C548,143.2 548.2,144.9 549.8,145.3 C550.8,145.6 550.4,145.8 548.8,145.9 L546,146 L546,127.5 Z" id="Path"></path>
                <path d="M553,133.3 L553.5,120.5 L553.8,132.7 C554,143.2 554.3,144.9 555.8,145.3 C556.9,145.6 556.6,145.8 555,145.9 L552.5,146 L553,133.3 Z" id="Path"></path>
                <path d="M558.8,137.3 C559.3,121.4 559.6,120.3 560,133.3 C560.3,141.4 560.1,146 559.5,146 C558.9,146 558.6,142.6 558.8,137.3 Z" id="Path"></path>
                <path d="M563.2,145.3 C564.7,144.9 565,143.2 565.2,132.7 L565.5,120.5 L566,133.3 L566.5,146 L564,145.9 C562.4,145.8 562.1,145.6 563.2,145.3 Z" id="Path"></path>
                <path d="M569.3,145.3 C570.8,144.9 571,143.4 571,132.9 C571,125.6 571.4,121 572,121 C572.6,121 573,125.8 573,133.5 L573,146 L570.3,145.9 C568.6,145.8 568.2,145.6 569.3,145.3 Z" id="Path"></path>
                <path d="M575.3,145.3 C576.9,144.9 577,142.9 577,120.9 C577,105.6 577.4,97 578,97 C578.6,97 579,105.8 579,121.5 L579,146 L576.3,145.9 C574.6,145.8 574.2,145.6 575.3,145.3 Z" id="Path"></path>
                <path d="M583,133.5 C583,125.8 583.4,121 584,121 C584.6,121 585,125.6 585,132.9 C585,143.4 585.2,144.9 586.8,145.3 C587.8,145.6 587.4,145.8 585.8,145.9 L583,146 L583,133.5 Z" id="Path"></path>
                <path d="M589,133.5 C589,125.8 589.4,121 590,121 C590.6,121 591,125.6 591,132.9 C591,143.4 591.2,144.9 592.8,145.3 C593.8,145.6 593.4,145.8 591.8,145.9 L589,146 L589,133.5 Z" id="Path"></path>
                <path d="M596,133.3 L596.5,120.5 L596.8,132.7 C597,143.2 597.3,144.9 598.8,145.3 C599.9,145.6 599.6,145.8 598,145.9 L595.5,146 L596,133.3 Z" id="Path"></path>
                <polygon id="Path" points="602 133.3 602.5 120.5 602.8 132.8 603.1 145 605.5 145 608 145 608.2 126.8 608.5 108.5 609 127.3 609.5 146 605.5 146 601.5 146"></polygon>
                <path d="M612.3,145.3 C613.8,144.9 614,143.4 614,132.9 C614,125.3 614.4,121 615,121 C615.7,121 616,125.4 615.9,133.5 L615.8,146 L613.1,145.9 C611.5,145.8 611.1,145.6 612.3,145.3 Z" id="Path"></path>
                <path d="M618.3,145.3 C619.8,144.9 620,143.4 620,132.9 C620,125.6 620.4,121 621,121 C621.6,121 622,125.8 622,133.5 L622,146 L619.3,145.9 C617.6,145.8 617.2,145.6 618.3,145.3 Z" id="Path"></path>
                <path d="M626,133.5 C626,125.8 626.4,121 627,121 C627.6,121 628,125.8 628,133.5 C628,141.2 627.6,146 627,146 C626.4,146 626,141.2 626,133.5 Z" id="Path"></path>
                <path d="M632,133.5 C632,125.8 632.4,121 633,121 C633.6,121 634,125.6 634,132.9 C634,143.4 634.2,144.9 635.8,145.3 C636.8,145.6 636.4,145.8 634.8,145.9 L632,146 L632,133.5 Z" id="Path"></path>
                <path d="M638,121.6 C638,106.3 638.4,96.9 639,96.5 C639.7,96.1 640,104.3 640,120.4 C640,142.8 640.1,144.9 641.8,145.3 C642.8,145.6 642.4,145.8 640.8,145.9 L638,146 L638,121.6 Z" id="Path"></path>
                <path d="M645,133.3 L645.5,120.5 L645.8,132.8 C646.1,145 646.1,145 648.5,145 C650.9,145 650.9,145 651.2,132.8 L651.5,120.5 L652,133.3 L652.5,146 L648.5,146 L644.5,146 L645,133.3 Z" id="Path"></path>
                <path d="M655.3,145.3 C656.8,144.9 657,143.4 657.2,132.7 C657.3,119.4 657.8,120.9 658.2,136.3 L658.5,146 L656,145.9 C654.3,145.8 654.1,145.6 655.3,145.3 Z" id="Path"></path>
                <path d="M661.3,145.3 C662.8,144.9 663,143.4 663,132.9 C663,125.6 663.4,121 664,121 C664.6,121 665,125.8 665,133.5 L665,146 L662.3,145.9 C660.6,145.8 660.2,145.6 661.3,145.3 Z" id="Path"></path>
                <path d="M667.3,145.3 C668.8,144.9 669,143.2 669,126.9 C669,115.6 669.4,109 670,109 C670.6,109 671,115.8 671,127.5 L671,146 L668.3,145.9 C666.6,145.8 666.2,145.6 667.3,145.3 Z" id="Path"></path>
                <path d="M675,133.5 C675,125.8 675.4,121 676,121 C676.6,121 677,125.6 677,132.9 C677,143.4 677.2,144.9 678.8,145.3 C679.8,145.6 679.4,145.8 677.8,145.9 L675,146 L675,133.5 Z" id="Path"></path>
                <path d="M681,133.5 C681,125.8 681.4,121 682,121 C682.6,121 683,125.6 683,132.9 C683,143.4 683.2,144.9 684.8,145.3 C685.8,145.6 685.4,145.8 683.8,145.9 L681,146 L681,133.5 Z" id="Path"></path>
                <path d="M688,133.3 L688.5,120.5 L688.8,132.7 C689,143.2 689.3,144.9 690.8,145.3 C691.9,145.6 691.6,145.8 690,145.9 L687.5,146 L688,133.3 Z" id="Path"></path>
                <path d="M693.8,137.3 C694.3,121.4 694.6,120.3 695,133.3 C695.3,141.4 695.1,146 694.5,146 C693.9,146 693.6,142.6 693.8,137.3 Z" id="Path"></path>
                <path d="M698.3,145.3 C699.9,144.9 700,142.8 700,120.3 C700,106.7 700.2,95.9 700.5,96.2 C700.8,96.5 701.1,107.8 701.3,121.4 L701.5,146 L699,145.9 C697.3,145.8 697.1,145.6 698.3,145.3 Z" id="Path"></path>
                <path d="M704.3,145.3 C705.8,144.9 706,143.4 706,132.9 C706,125.6 706.4,121 707,121 C707.6,121 708,125.8 708,133.5 L708,146 L705.3,145.9 C703.6,145.8 703.2,145.6 704.3,145.3 Z" id="Path"></path>
                <path d="M710.3,145.3 C711.8,144.9 712,143.4 712,132.9 C712,125.6 712.4,121 713,121 C713.6,121 714,125.8 714,133.5 L714,146 L711.3,145.9 C709.6,145.8 709.2,145.6 710.3,145.3 Z" id="Path"></path>
                <path d="M718,133.5 C718,125.8 718.4,121 719,121 C719.6,121 720,125.6 720,132.9 C720,143.4 720.2,144.9 721.8,145.3 C722.8,145.6 722.4,145.8 720.8,145.9 L718,146 L718,133.5 Z" id="Path"></path>
                <path d="M724,133.5 C724,125.8 724.4,121 725,121 C725.6,121 726,125.6 726,132.9 C726,143.4 726.2,144.9 727.8,145.3 C728.8,145.6 728.4,145.8 726.8,145.9 L724,146 L724,133.5 Z" id="Path"></path>
                <path d="M731,127.3 L731.5,108.5 L731.8,126.7 C732,142.9 732.2,144.9 733.8,145.3 C734.9,145.6 734.7,145.8 733,145.9 L730.5,146 L731,127.3 Z" id="Path"></path>
                <path d="M736.8,137.3 C737.3,121.4 737.6,120.3 738,133.3 C738.3,141.4 738.1,146 737.5,146 C736.9,146 736.6,142.6 736.8,137.3 Z" id="Path"></path>
                <path d="M741.2,145.3 C742.7,144.9 743,143.2 743.2,132.7 L743.5,120.5 L744,133.3 L744.5,146 L742,145.9 C740.4,145.8 740.1,145.6 741.2,145.3 Z" id="Path"></path>
                <path d="M747.3,145.3 C748.8,144.9 749,143.4 749,132.9 C749,125.6 749.4,121 750,121 C750.6,121 751,125.8 751,133.5 L751,146 L748.3,145.9 C746.6,145.8 746.2,145.6 747.3,145.3 Z" id="Path"></path>
                <path d="M755,133.5 C755,125.8 755.4,121 756,121 C756.6,121 757,125.8 757,133.5 C757,141.2 756.6,146 756,146 C755.4,146 755,141.2 755,133.5 Z" id="Path"></path>
                <path d="M761,121.6 C761,106.3 761.4,96.9 762,96.5 C762.7,96.1 763,104.3 763,120.4 C763,142.8 763.1,144.9 764.8,145.3 C765.8,145.6 765.4,145.8 763.8,145.9 L761,146 L761,121.6 Z" id="Path"></path>
                <path d="M767,133.5 C767,125.8 767.4,121 768,121 C768.6,121 769,125.6 769,132.9 C769,143.4 769.2,144.9 770.8,145.3 C771.8,145.6 771.4,145.8 769.8,145.9 L767,146 L767,133.5 Z" id="Path"></path>
                <path d="M774,133.3 L774.5,120.5 L774.8,132.7 C775,143.2 775.3,144.9 776.8,145.3 C777.9,145.6 777.6,145.8 776,145.9 L773.5,146 L774,133.3 Z" id="Path"></path>
                <path d="M779.8,137.3 C780.3,121.4 780.6,120.3 781,133.3 C781.3,141.4 781.1,146 780.5,146 C779.9,146 779.6,142.6 779.8,137.3 Z" id="Path"></path>
                <path d="M784.2,145.3 C785.7,144.9 786,143.2 786.2,132.7 L786.5,120.5 L787,133.3 L787.5,146 L785,145.9 C783.4,145.8 783.1,145.6 784.2,145.3 Z" id="Path"></path>
                <path d="M790.3,145.3 C791.8,144.9 792,143.2 792,126.9 C792,115.6 792.4,109 793,109 C793.6,109 794,115.8 794,127.5 L794,146 L791.3,145.9 C789.6,145.8 789.2,145.6 790.3,145.3 Z" id="Path"></path>
                <path d="M796.3,145.3 C797.8,144.9 798,143.4 798,132.9 C798,125.6 798.4,121 799,121 C799.6,121 800,125.8 800,133.5 L800,146 L797.3,145.9 C795.6,145.8 795.2,145.6 796.3,145.3 Z" id="Path"></path>
                <path d="M804,133.5 C804,125.8 804.4,121 805,121 C805.6,121 806,125.8 806,133.5 C806,141.2 805.6,146 805,146 C804.4,146 804,141.2 804,133.5 Z" id="Path"></path>
                <path d="M810,133.5 C810,125.8 810.4,121 811,121 C811.6,121 812,125.6 812,132.9 C812,143.4 812.2,144.9 813.8,145.3 C814.8,145.6 814.4,145.8 812.8,145.9 L810,146 L810,133.5 Z" id="Path"></path>
                <path d="M817,133.3 L817.5,120.5 L817.8,132.7 C818,143.2 818.3,144.9 819.8,145.3 C820.9,145.6 820.6,145.8 819,145.9 L816.5,146 L817,133.3 Z" id="Path"></path>
                <path d="M823,120.8 C823.4,95.5 823.8,97.6 824.2,129.3 C824.4,139.9 824.1,146 823.5,146 C822.8,146 822.7,137.2 823,120.8 Z" id="Path"></path>
                <path d="M827.2,145.3 C828.7,144.9 829,143.2 829.2,132.7 L829.5,120.5 L830,133.3 L830.5,146 L828,145.9 C826.4,145.8 826.1,145.6 827.2,145.3 Z" id="Path"></path>
                <path d="M833.3,145.3 C834.8,144.9 835,143.4 835,132.9 C835,125.6 835.4,121 836,121 C836.6,121 837,125.8 837,133.5 L837,146 L834.3,145.9 C832.6,145.8 832.2,145.6 833.3,145.3 Z" id="Path"></path>
                <path d="M839.3,145.3 C840.8,144.9 841,143.4 841,132.9 C841,125.6 841.4,121 842,121 C842.6,121 843,125.8 843,133.5 L843,146 L840.3,145.9 C838.6,145.8 838.2,145.6 839.3,145.3 Z" id="Path"></path>
                <path d="M847,133.5 C847,125.8 847.4,121 848,121 C848.6,121 849,125.8 849,133.5 C849,141.2 848.6,146 848,146 C847.4,146 847,141.2 847,133.5 Z" id="Path"></path>
                <path d="M853,127.5 C853,115.8 853.4,109 854,109 C854.6,109 855,115.6 855,126.9 C855,143.2 855.2,144.9 856.8,145.3 C857.8,145.6 857.4,145.8 855.8,145.9 L853,146 L853,127.5 Z" id="Path"></path>
                <path d="M859,133.5 C859,125.8 859.4,121 860,121 C860.6,121 861,125.6 861,132.9 C861,143.4 861.2,144.9 862.8,145.3 C863.8,145.6 863.4,145.8 861.8,145.9 L859,146 L859,133.5 Z" id="Path"></path>
                <path d="M866,133.3 L866.5,120.5 L866.8,132.7 C867,143.2 867.3,144.9 868.8,145.3 C869.9,145.6 869.6,145.8 868,145.9 L865.5,146 L866,133.3 Z" id="Path"></path>
                <path d="M871.8,137.3 C872.3,121.4 872.6,120.3 873,133.3 C873.3,141.4 873.1,146 872.5,146 C871.9,146 871.6,142.6 871.8,137.3 Z" id="Path"></path>
                <path d="M876.3,145.3 C877.8,144.9 878,143.4 878,132.9 C878,125.3 878.4,121 879,121 C879.7,121 880,125.4 879.9,133.5 L879.8,146 L877.1,145.9 C875.5,145.8 875.1,145.6 876.3,145.3 Z" id="Path"></path>
                <path d="M882.3,145.3 C883.9,144.9 884,142.9 884,120.9 C884,105.6 884.4,97 885,97 C885.6,97 886,105.8 886,121.5 L886,146 L883.3,145.9 C881.6,145.8 881.2,145.6 882.3,145.3 Z" id="Path"></path>
                <path d="M890,133.5 C890,125.8 890.4,121 891,121 C891.6,121 892,125.8 892,133.5 C892,141.2 891.6,146 891,146 C890.4,146 890,141.2 890,133.5 Z" id="Path"></path>
                <path d="M896,133.5 C896,125.8 896.4,121 897,121 C897.6,121 898,125.6 898,132.9 C898,143.4 898.2,144.9 899.8,145.3 C900.8,145.6 900.4,145.8 898.8,145.9 L896,146 L896,133.5 Z" id="Path"></path>
                <path d="M902,133.5 C902,125.8 902.4,121 903,121 C903.6,121 904,125.6 904,132.9 C904,143.4 904.2,144.9 905.8,145.3 C906.8,145.6 906.4,145.8 904.8,145.9 L902,146 L902,133.5 Z" id="Path"></path>
                <path d="M909,133.3 L909.5,120.5 L909.8,132.7 C910,143.2 910.3,144.9 911.8,145.3 C912.9,145.6 912.6,145.8 911,145.9 L908.5,146 L909,133.3 Z" id="Path"></path>
                <path d="M915,127.3 C915.4,108.6 915.7,110.2 916.2,133.8 C916.4,141.4 916.1,146 915.5,146 C914.9,146 914.7,139.4 915,127.3 Z" id="Path"></path>
                <path d="M919.3,145.3 C920.8,144.9 921,143.4 921.2,132.7 C921.3,119.4 921.8,120.9 922.2,136.3 L922.5,146 L920,145.9 C918.3,145.8 918.1,145.6 919.3,145.3 Z" id="Path"></path>
                <path d="M925.3,145.3 C926.8,144.9 927,143.4 927,132.9 C927,125.6 927.4,121 928,121 C928.6,121 929,125.8 929,133.5 L929,146 L926.3,145.9 C924.6,145.8 924.2,145.6 925.3,145.3 Z" id="Path"></path>
                <path d="M931.3,145.3 C932.8,144.9 933,143.4 933,132.9 C933,125.6 933.4,121 934,121 C934.6,121 935,125.8 935,133.5 L935,146 L932.3,145.9 C930.6,145.8 930.2,145.6 931.3,145.3 Z" id="Path"></path>
                <path d="M939,133.5 C939,125.8 939.4,121 940,121 C940.6,121 941,125.6 941,132.9 C941,143.4 941.2,144.9 942.8,145.3 C943.8,145.6 943.4,145.8 941.8,145.9 L939,146 L939,133.5 Z" id="Path"></path>
                <path d="M945,121.6 C945,106.3 945.4,96.9 946,96.5 C946.7,96.1 947,104.3 947,120.4 C947,142.8 947.1,144.9 948.8,145.3 C949.8,145.6 949.4,145.8 947.8,145.9 L945,146 L945,121.6 Z" id="Path"></path>
                <path d="M952,133.3 L952.5,120.5 L952.8,132.7 C953,143.2 953.3,144.9 954.8,145.3 C955.9,145.6 955.6,145.8 954,145.9 L951.5,146 L952,133.3 Z" id="Path"></path>
                <path d="M957.8,137.3 C958.3,121.4 958.6,120.3 959,133.3 C959.3,141.4 959.1,146 958.5,146 C957.9,146 957.6,142.6 957.8,137.3 Z" id="Path"></path>
                <path d="M962.3,145.3 C963.8,144.9 964,143.4 964.2,132.7 C964.3,119.4 964.8,120.9 965.2,136.3 L965.5,146 L963,145.9 C961.3,145.8 961.1,145.6 962.3,145.3 Z" id="Path"></path>
                <path d="M968.3,145.3 C969.8,144.9 970,143.4 970,132.9 C970,125.6 970.4,121 971,121 C971.6,121 972,125.8 972,133.5 L972,146 L969.3,145.9 C967.6,145.8 967.2,145.6 968.3,145.3 Z" id="Path"></path>
                <path d="M976,127.5 C976,115.8 976.4,109 977,109 C977.6,109 978,115.8 978,127.5 C978,139.2 977.6,146 977,146 C976.4,146 976,139.2 976,127.5 Z" id="Path"></path>
                <path d="M982,133.5 C982,125.8 982.4,121 983,121 C983.6,121 984,125.6 984,132.9 C984,143.4 984.2,144.9 985.8,145.3 C986.8,145.6 986.4,145.8 984.8,145.9 L982,146 L982,133.5 Z" id="Path"></path>
                <path d="M988,133.5 C988,125.8 988.4,121 989,121 C989.6,121 990,125.6 990,132.9 C990,143.4 990.2,144.9 991.8,145.3 C992.8,145.6 992.4,145.8 990.8,145.9 L988,146 L988,133.5 Z" id="Path"></path>
                <path d="M995,133.3 L995.5,120.5 L995.8,132.7 C996,143.2 996.3,144.9 997.8,145.3 C998.9,145.6 998.6,145.8 997,145.9 L994.5,146 L995,133.3 Z" id="Path"></path>
                <path d="M1000.8,137.3 C1001.3,121.4 1001.6,120.3 1002,133.3 C1002.3,141.4 1002.1,146 1001.5,146 C1000.9,146 1000.6,142.6 1000.8,137.3 Z" id="Path"></path>
                <path d="M1005.2,145.3 C1006.8,144.9 1007,142.6 1007.2,120.2 L1007.5,95.5 L1008,120.8 L1008.5,146 L1006,145.9 C1004.3,145.8 1004.1,145.6 1005.2,145.3 Z" id="Path"></path>
                <path d="M1011.3,145.3 C1012.8,144.9 1013,143.4 1013,132.9 C1013,125.6 1013.4,121 1014,121 C1014.6,121 1015,125.8 1015,133.5 L1015,146 L1012.3,145.9 C1010.6,145.8 1010.2,145.6 1011.3,145.3 Z" id="Path"></path>
                <path d="M1017.3,145.3 C1018.8,144.9 1019,143.4 1019,132.9 C1019,125.6 1019.4,121 1020,121 C1020.6,121 1021,125.8 1021,133.5 L1021,146 L1018.3,145.9 C1016.6,145.8 1016.2,145.6 1017.3,145.3 Z" id="Path"></path>
                <path d="M1025,133.5 C1025,125.8 1025.4,121 1026,121 C1026.6,121 1027,125.6 1027,132.9 C1027,143.4 1027.2,144.9 1028.8,145.3 C1029.8,145.6 1029.4,145.8 1027.8,145.9 L1025,146 L1025,133.5 Z" id="Path"></path>
                <path d="M1031,133.5 C1031,125.8 1031.4,121 1032,121 C1032.6,121 1033,125.6 1033,132.9 C1033,143.4 1033.2,144.9 1034.8,145.3 C1035.8,145.6 1035.4,145.8 1033.8,145.9 L1031,146 L1031,133.5 Z" id="Path"></path>
                <path d="M1037.5,127.5 C1037.5,117.3 1037.8,109 1038.3,109 C1038.7,109 1039,117.1 1039,126.9 C1039,143.2 1039.2,144.9 1040.8,145.3 C1041.9,145.6 1041.7,145.8 1040,145.9 L1037.5,146 L1037.5,127.5 Z" id="Path"></path>
                <path d="M1043.8,137.3 C1044.3,121.4 1044.6,120.3 1045,133.3 C1045.3,141.4 1045.1,146 1044.5,146 C1043.9,146 1043.6,142.6 1043.8,137.3 Z" id="Path"></path>
                <path d="M1048.2,145.3 C1049.7,144.9 1050,143.2 1050.2,132.7 L1050.5,120.5 L1051,133.3 L1051.5,146 L1049,145.9 C1047.4,145.8 1047.1,145.6 1048.2,145.3 Z" id="Path"></path>
                <path d="M1054.3,145.3 C1055.8,144.9 1056,143.4 1056,132.9 C1056,125.6 1056.4,121 1057,121 C1057.6,121 1058,125.8 1058,133.5 L1058,146 L1055.3,145.9 C1053.6,145.8 1053.2,145.6 1054.3,145.3 Z" id="Path"></path>
                <path d="M1060.3,145.3 C1061.8,144.9 1062,143.4 1062,132.9 C1062,125.6 1062.4,121 1063,121 C1063.6,121 1064,125.8 1064,133.5 L1064,146 L1061.3,145.9 C1059.6,145.8 1059.2,145.6 1060.3,145.3 Z" id="Path"></path>
                <path d="M1068,121.5 C1068,105.8 1068.4,97 1069,97 C1069.6,97 1070,105.8 1070,121.5 C1070,137.2 1069.6,146 1069,146 C1068.4,146 1068,137.2 1068,121.5 Z" id="Path"></path>
                <path d="M1074,133.5 C1074,125.8 1074.4,121 1075,121 C1075.6,121 1076,125.6 1076,132.9 C1076,143.4 1076.2,144.9 1077.8,145.3 C1078.8,145.6 1078.4,145.8 1076.8,145.9 L1074,146 L1074,133.5 Z" id="Path"></path>
                <path d="M1080.1,134.1 C1080,126.8 1080.3,121.9 1081,121.5 C1081.7,121.1 1082,124.8 1082,132.9 C1082,143.4 1082.2,144.9 1083.8,145.3 C1084.9,145.6 1084.5,145.8 1082.9,145.9 L1080.2,146 L1080.1,134.1 Z" id="Path"></path>
                <path d="M1087,133.3 L1087.5,120.5 L1087.8,132.8 C1088.1,145 1088.1,145 1090.5,145 C1092.9,145 1092.9,145 1093.2,132.8 L1093.5,120.5 L1094,133.3 L1094.5,146 L1090.5,146 L1086.5,146 L1087,133.3 Z" id="Path"></path>
                <path d="M1097.3,145.3 C1098.8,144.9 1099,143.2 1099,126.9 C1099,115.6 1099.4,109 1100,109 C1100.6,109 1101,115.8 1101,127.5 L1101,146 L1098.3,145.9 C1096.6,145.8 1096.2,145.6 1097.3,145.3 Z" id="Path"></path>
                <path d="M1103.3,145.3 C1104.8,144.9 1105,143.4 1105,132.9 C1105,125.6 1105.4,121 1106,121 C1106.6,121 1107,125.8 1107,133.5 L1107,146 L1104.3,145.9 C1102.6,145.8 1102.2,145.6 1103.3,145.3 Z" id="Path"></path>
                <path d="M1111,133.5 C1111,125.8 1111.4,121 1112,121 C1112.6,121 1113,125.8 1113,133.5 C1113,141.2 1112.6,146 1112,146 C1111.4,146 1111,141.2 1111,133.5 Z" id="Path"></path>
                <path d="M1117,133.5 C1117,125.8 1117.4,121 1118,121 C1118.6,121 1119,125.6 1119,132.9 C1119,143.4 1119.2,144.9 1120.8,145.3 C1121.8,145.6 1121.4,145.8 1119.8,145.9 L1117,146 L1117,133.5 Z" id="Path"></path>
                <path d="M1123,133.5 C1123,125.8 1123.4,121 1124,121 C1124.6,121 1125,125.6 1125,132.9 C1125,143.4 1125.2,144.9 1126.8,145.3 C1127.8,145.6 1127.4,145.8 1125.8,145.9 L1123,146 L1123,133.5 Z" id="Path"></path>
                <path d="M1130,120.8 L1130.5,95.5 L1130.8,120.2 C1131,142.6 1131.2,144.9 1132.8,145.3 C1133.9,145.6 1133.7,145.8 1132,145.9 L1129.5,146 L1130,120.8 Z" id="Path"></path>
                <path d="M1135.8,137.3 C1136.3,121.4 1136.6,120.3 1137,133.3 C1137.3,141.4 1137.1,146 1136.5,146 C1135.9,146 1135.6,142.6 1135.8,137.3 Z" id="Path"></path>
                <path d="M1140.3,145.3 C1141.8,144.9 1142,143.4 1142,132.9 C1142,125.6 1142.4,121 1143,121 C1143.6,121 1144,125.8 1144,133.5 L1144,146 L1141.3,145.9 C1139.6,145.8 1139.2,145.6 1140.3,145.3 Z" id="Path"></path>
                <path d="M1146.3,145.3 C1147.8,144.9 1148,143.4 1148,132.9 C1148,125.6 1148.4,121 1149,121 C1149.6,121 1150,125.8 1150,133.5 L1150,146 L1147.3,145.9 C1145.6,145.8 1145.2,145.6 1146.3,145.3 Z" id="Path"></path>
                <path d="M1154,133.5 C1154,125.8 1154.4,121 1155,121 C1155.6,121 1156,125.8 1156,133.5 C1156,141.2 1155.6,146 1155,146 C1154.4,146 1154,141.2 1154,133.5 Z" id="Path"></path>
                <path d="M1160,127.5 C1160,115.8 1160.4,109 1161,109 C1161.6,109 1162,115.8 1162,127.5 C1162,139.2 1161.6,146 1161,146 C1160.4,146 1160,139.2 1160,127.5 Z" id="Path"></path>
                <path d="M1166,133.5 C1166,125.8 1166.4,121 1167,121 C1167.6,121 1168,125.6 1168,132.9 C1168,143.4 1168.2,144.9 1169.8,145.3 C1170.8,145.6 1170.4,145.8 1168.8,145.9 L1166,146 L1166,133.5 Z" id="Path"></path>
                <path d="M1173,133.3 L1173.5,120.5 L1173.8,132.7 C1174,143.2 1174.3,144.9 1175.8,145.3 C1176.9,145.6 1176.6,145.8 1175,145.9 L1172.5,146 L1173,133.3 Z" id="Path"></path>
                <path d="M1178.8,137.3 C1179.3,121.4 1179.6,120.3 1180,133.3 C1180.3,141.4 1180.1,146 1179.5,146 C1178.9,146 1178.6,142.6 1178.8,137.3 Z" id="Path"></path>
                <path d="M1183.3,145.3 C1184.8,144.9 1185,143.4 1185.2,132.7 C1185.3,119.4 1185.8,120.9 1186.2,136.3 L1186.5,146 L1184,145.9 C1182.3,145.8 1182.1,145.6 1183.3,145.3 Z" id="Path"></path>
                <path d="M1189.3,145.3 C1190.9,144.9 1191,142.8 1191,120.4 C1191,104.3 1191.3,96.1 1192,96.5 C1192.6,96.9 1193,106.3 1193,121.6 L1193,146 L1190.3,145.9 C1188.6,145.8 1188.2,145.6 1189.3,145.3 Z" id="Path"></path>
                <path d="M1197,133.5 C1197,125.8 1197.4,121 1198,121 C1198.6,121 1199,125.8 1199,133.5 C1199,141.2 1198.6,146 1198,146 C1197.4,146 1197,141.2 1197,133.5 Z" id="Path"></path>
                <path d="M1203,133.5 C1203,125.8 1203.4,121 1204,121 C1204.6,121 1205,125.6 1205,132.9 C1205,143.4 1205.2,144.9 1206.8,145.3 C1207.8,145.6 1207.4,145.8 1205.8,145.9 L1203,146 L1203,133.5 Z" id="Path"></path>
                <path d="M1209,133.5 C1209,125.8 1209.4,121 1210,121 C1210.6,121 1211,125.6 1211,132.9 C1211,143.4 1211.2,144.9 1212.8,145.3 C1213.8,145.6 1213.4,145.8 1211.8,145.9 L1209,146 L1209,133.5 Z" id="Path"></path>
                <path d="M1216,133.3 L1216.5,120.5 L1216.8,132.7 C1217,143.2 1217.3,144.9 1218.8,145.3 C1219.9,145.6 1219.6,145.8 1218,145.9 L1215.5,146 L1216,133.3 Z" id="Path"></path>
                <path d="M1222,127.3 C1222.4,108.6 1222.7,110.2 1223.2,133.8 C1223.4,141.4 1223.1,146 1222.5,146 C1221.9,146 1221.7,139.4 1222,127.3 Z" id="Path"></path>
                <path d="M1226.3,145.3 C1227.8,144.9 1228,143.4 1228.2,132.7 C1228.3,119.4 1228.8,120.9 1229.2,136.3 L1229.5,146 L1227,145.9 C1225.3,145.8 1225.1,145.6 1226.3,145.3 Z" id="Path"></path>
                <path d="M1232.3,145.3 C1233.8,144.9 1234,143.4 1234,132.9 C1234,125.6 1234.4,121 1235,121 C1235.6,121 1236,125.8 1236,133.5 L1236,146 L1233.3,145.9 C1231.6,145.8 1231.2,145.6 1232.3,145.3 Z" id="Path"></path>
                <path d="M1240,133.5 C1240,125.8 1240.4,121 1241,121 C1241.6,121 1242,125.8 1242,133.5 C1242,141.2 1241.6,146 1241,146 C1240.4,146 1240,141.2 1240,133.5 Z" id="Path"></path>
                <path d="M1246,133.5 C1246,125.8 1246.4,121 1247,121 C1247.6,121 1248,125.6 1248,132.9 C1248,143.4 1248.2,144.9 1249.8,145.3 C1250.8,145.6 1250.4,145.8 1248.8,145.9 L1246,146 L1246,133.5 Z" id="Path"></path>
                <path d="M1252,121.6 C1252,106.3 1252.4,96.9 1253,96.5 C1253.7,96.1 1254,104.3 1254,120.4 L1254,144.9 L1264.3,145.3 L1274.5,145.6 L1263.3,145.8 L1252,146 L1252,121.6 Z" id="Path"></path>
                <path d="M2,143.5 C1.3,142.6 0.9,141.8 1.1,141.5 C1.4,141.3 2.1,142 2.8,143 C4.2,145.4 3.8,145.6 2,143.5 Z" id="Path"></path>
                <path d="M1277.5,73 C1277.5,34.8 1277.6,19.1 1277.7,38.3 C1277.9,57.4 1277.9,88.6 1277.7,107.8 C1277.6,126.9 1277.5,111.2 1277.5,73 Z" id="Path"></path>
                <path d="M1210.1,97.4 C1207.7,94.3 1207.4,89.8 1209.4,88.1 C1211.2,86.6 1217.2,87.1 1217.7,88.7 C1218,89.5 1217.1,89.7 1214.6,89.3 C1210.3,88.6 1208.9,90.9 1211.1,94.9 C1212.3,96.9 1213.3,97.4 1215.3,97.2 C1218.2,96.9 1219,98.4 1216.4,99.4 C1213.6,100.5 1212.2,100 1210.1,97.4 Z" id="Path"></path>
                <path d="M1221,93.5 C1221,89.8 1221.4,87 1222,87 C1222.6,87 1223,88.5 1223,90.3 C1223,92.3 1223.8,94.4 1224.9,95.4 C1226.6,97 1226.8,96.9 1227.4,93.9 C1227.7,92.2 1228,89.7 1228,88.4 C1228,83.6 1229.9,86.1 1230.2,91.2 C1230.4,95.2 1230.9,96.6 1232.1,96.8 C1233.4,97 1233.9,96 1234.5,92.1 C1235.4,85.7 1237,84.4 1236.9,90.2 C1236.7,98.3 1236,99.5 1231,99.6 C1228.3,99.7 1225.8,99.1 1224.8,98.2 C1223.2,96.8 1223,96.9 1223,98.3 C1223,99.3 1222.6,100 1222,100 C1221.4,100 1221,97.2 1221,93.5 Z" id="Path"></path>
                <path d="M60,83.9 C61.4,83.3 63.4,82.1 64.5,81.2 C65.7,80.3 65.3,80.7 63.8,82.3 C62.2,83.8 60.2,85 59.2,84.9 C58,84.9 58.3,84.6 60,83.9 Z" id="Path"></path>
                <path d="M46.6,80.9 C45.2,79.2 44,77.3 44,76.7 C44,76 44.9,76.9 45.9,78.7 C47,80.4 48.7,82.3 49.7,82.9 C50.7,83.5 51,84 50.3,84 C49.7,84 48,82.6 46.6,80.9 Z" id="Path"></path>
                <path d="M84.7,82.2 C82.6,79.9 82.6,79 84.5,79 C85.7,79 86,77.6 86,72.5 C86,67.4 85.7,66 84.5,66 C83.7,66 83,65.6 83,65 C83,64.5 84.8,64 87,64 C89.2,64 91,64.5 91,65 C91,65.6 90.6,66 90,66 C89.4,66 89,69.7 89,75 C89,84.5 88.1,86 84.7,82.2 Z" id="Path"></path>
                <path d="M143.9,82.1 C140.9,79.6 141.7,78.7 145.7,80.2 C149.6,81.7 152,80.8 151.3,78.1 C151,76.9 150.4,76 150,76 C147.9,76 142,69.1 142,66.6 C142,64.1 142.1,64 148.6,64 C154.6,64 155.1,64.2 153.9,65.6 C152.9,66.8 151.6,67 148.8,66.6 C143.6,65.7 143.8,67.8 149.5,72.4 C154.2,76.3 155.4,80.2 152.8,82.8 C151,84.6 146.5,84.2 143.9,82.1 Z" id="Path"></path>
                <path d="M205.8,82.9 C202.7,81.1 203.8,79.9 207.9,80.6 C210.3,81 212,80.8 212.5,80.1 C213.4,78.5 211.2,76 208.9,76 C206.3,76 206.5,73.2 209.1,72.8 C211.8,72.4 213.5,69.8 212.7,67.6 C212,65.8 206,65.3 206,67 C206,67.6 205.3,68 204.5,68 C202.3,68 202.7,66.3 205.2,64.6 C208.4,62.4 211.3,62.6 213.8,65.3 C216.4,68 216.5,69.8 214.5,72.7 C213.5,74.1 213.3,75.1 214,75.5 C214.5,75.8 215,77.4 215,79 C215,83.3 210,85.4 205.8,82.9 Z" id="Path"></path>
                <path d="M267.6,77.5 C265.1,73.9 263,70.7 263,70.5 C263,70.3 265.1,70 267.7,69.8 C272.1,69.5 272.5,69.3 273,66.5 C273.7,62.5 275.4,62.7 275.8,66.8 C276,69 276.6,70 277.8,70 C279.4,70.1 279.4,70.2 277.8,71.4 C276.4,72.4 276,74.2 276,78.4 C276,86.3 273.6,86.1 267.6,77.5 Z M273,76 C273,72.4 272.8,72 270.5,72 C269.1,72 268,72.2 268,72.4 C268,73.2 272.2,80 272.6,80 C272.8,80 273,78.2 273,76 Z" id="Shape"></path>
                <path d="M326,78 C326,71.6 326.6,70.8 329.5,74 C333,77.9 337.9,74.9 336.6,69.6 C335.7,65.8 331.6,64.1 329.1,66.4 C327.8,67.6 327,67.8 326.5,67 C324.6,64 331.7,61.7 336,64 C339.5,65.9 340.5,73.2 337.7,76.8 C337.2,77.4 335,78 332.9,78 C330.1,78 329,78.4 329,79.5 C329,80.5 330,81 332.4,81 C336.4,81 339,81.8 339,83.1 C339,83.6 336.1,84 332.5,84 L326,84 L326,78 Z" id="Path"></path>
                <path d="M390.4,80.5 C386.9,75.8 385.9,67.9 388.5,65 C390.8,62.5 396.1,62.4 398.3,64.8 C400.2,66.9 400.5,71.2 399,74.1 C398.2,75.4 396.9,76 394.5,76 C390.3,76 390.1,76.8 393.5,80 C396.3,82.7 396.7,84 394.6,84 C393.8,84 391.9,82.4 390.4,80.5 Z M396.5,72.4 C397.5,71.4 397.8,70 397.4,68.6 C396,64.1 392.2,64 390.1,68.4 C388.9,71 388.9,71.5 390.6,72.7 C393,74.4 394.5,74.3 396.5,72.4 Z" id="Shape"></path>
                <path d="M448,82.5 C448,81.4 449.2,81 453,81 C455.8,81 458,80.9 458,80.8 C457.9,80.6 456.2,76.9 454,72.5 C451.9,68.1 450.5,64.1 451,63.6 C452,62.6 454,63.7 454,65.3 C454,67.4 459,77.4 461.2,79.7 C464.2,82.9 462.7,84 454.9,84 C449.4,84 448,83.7 448,82.5 Z" id="Path"></path>
                <path d="M512,82 C509.7,79.7 509.6,78.7 511.1,75.8 C511.9,74.4 511.9,73.5 511.1,72.7 C509.2,70.8 509.8,65.2 511.9,64 C514.9,62.4 519.5,62.8 521.3,64.8 C523.4,67.1 523.5,71.4 521.5,73 C520.4,73.9 520.2,74.6 521,75.4 C521.5,75.9 522,77.6 522,79.2 C522,83.9 515.7,85.7 512,82 Z M518.9,80.2 C520.1,78 518.6,76 515.8,76 C513.4,76 512.4,78.6 514,80.5 C515.7,82.5 517.7,82.4 518.9,80.2 Z M518.8,71.8 C522.3,68.3 518.4,63.6 514,66 C511.6,67.3 511.4,69.3 513.6,71.4 C515.5,73.3 517.2,73.4 518.8,71.8 Z" id="Shape"></path>
                <path d="M573,82 C568.7,77.7 571.6,71 577.8,71 C582,71 581.1,68.6 575.8,65.9 C571.5,63.7 571.4,61.5 575.8,63.1 C586.7,67.3 588.5,84 578,84 C576.3,84 574.1,83.1 573,82 Z M580.8,80.8 C584.3,77.3 579.3,70.9 575.5,74 C572.5,76.5 574.3,82 578,82 C578.9,82 580.1,81.5 580.8,80.8 Z" id="Shape"></path>
                <path d="M692.1,82.1 C690.5,80.9 690.1,80 690.9,79.6 C691.5,79.2 692.5,79.2 693,79.5 C693.7,79.9 693.9,77.7 693.8,73.1 C693.5,67.1 693.2,66 691.8,66 C690.8,66 690,65.6 690,65 C690,64.5 692,64 694.5,64 C699,64 700.5,65.2 697.4,66.4 C696.1,66.9 695.9,68.2 696.5,75.5 C697.3,84.8 696.7,85.7 692.1,82.1 Z" id="Path"></path>
                <path d="M704.7,82.2 C702.4,79.7 702.6,78.7 705.1,79.3 C706.6,79.7 707,79.5 706.6,78.3 C706.3,77.5 706,74.4 706,71.4 C706,67.3 705.6,66 704.5,66 C703.7,66 703,65.6 703,65 C703,64.5 704.8,64 707,64 C709.2,64 711,64.5 711,65 C711,65.6 710.6,66 710,66 C709.4,66 709,69.7 709,75 C709,84.5 708.1,86 704.7,82.2 Z" id="Path"></path>
                <path d="M751.7,82.2 C749.6,79.9 749.5,78.6 751.5,79.4 C752.7,79.8 753,78.8 753,73 C753,67.4 752.7,66 751.5,66 C750.7,66 750,65.6 750,65 C750,64.5 751.8,64 754,64 C757.8,64 759.5,65.3 756.8,66.2 C756,66.5 755.7,69.3 755.9,75.3 C756.1,84.6 755.2,86.1 751.7,82.2 Z" id="Path"></path>
                <path d="M763.9,82.1 C761,79.8 762.1,78.2 765.4,79.9 C770.6,82.7 773.9,79.4 769.5,75.7 C763.5,70.8 762,69 762,66.5 C762,64.1 762.2,64 768.5,64 C772.1,64 775,64.4 775,64.9 C775,66.4 771.3,67.2 768,66.5 C763.6,65.5 764.1,68.4 769,71.8 C771.1,73.3 773.3,75.7 773.9,77.2 C776,82.9 769.1,86.3 763.9,82.1 Z" id="Path"></path>
                <path d="M812.7,82.2 C810.4,79.7 810.6,78.7 813.1,79.3 C815,79.8 815.2,79.6 814.6,76.8 C814.3,75.1 814,72 814,69.9 C814,67.1 813.6,66 812.5,66 C811.7,66 811,65.6 811,65 C811,64.5 813,64 815.5,64 C818,64 820,64.5 820,65 C820,65.6 819.3,66 818.5,66 C817.3,66 817,67.7 817,75 C817,84.5 816.1,86 812.7,82.2 Z" id="Path"></path>
                <path d="M825.8,82.9 C822.7,81.1 823.8,79.9 827.9,80.6 C830.3,81 832,80.8 832.5,80.1 C833.4,78.5 831.2,76 828.9,76 C827.8,76 827,75.3 827,74.5 C827,73.7 827.8,73 828.9,73 C832.9,73 834.5,66.9 830.6,66.2 C829.6,66 827.7,66.4 826.4,67.1 C825.1,67.8 823.7,68 823.3,67.6 C822.1,66.4 826.9,63 829.6,63 C834.6,63 838,70.1 834.5,73 C833.4,73.9 833.2,74.6 834,75.4 C834.5,75.9 835,77.6 835,79.2 C835,83.3 830,85.4 825.8,82.9 Z" id="Path"></path>
                <path d="M874.8,82.6 C872.6,81 872.4,78.6 874.5,79.4 C875.8,79.9 876,78.8 875.8,73 C875.7,67.1 875.4,66 873.6,65.4 C872,64.8 872.5,64.6 875.9,64.3 C880.7,63.8 882.4,64.6 879.7,66.2 C878.1,67 878,68.1 878.6,75.6 C879.3,84.5 878.7,85.6 874.8,82.6 Z" id="Path"></path>
                <path d="M887.9,77.8 C885.5,74.3 883.4,71.2 883.2,70.8 C883,70.4 885,70 887.7,69.8 C892.2,69.5 892.5,69.3 893,66.5 C893.7,62.5 895.4,62.7 895.8,66.8 C896,69 896.6,70 897.8,70 C899.4,70.1 899.4,70.2 897.8,71.4 C896.4,72.4 896,74.2 896,78.4 C896,86.1 893.8,86 887.9,77.8 Z M893,76 C893,72.4 892.8,72 890.5,72 C889.1,72 888,72.2 888,72.5 C888,73.1 892.4,80 892.8,80 C892.9,80 893,78.2 893,76 Z" id="Shape"></path>
                <path d="M935.7,82.2 C933.6,79.9 933.5,78.6 935.5,79.4 C936.7,79.8 937,78.8 937,73 C937,67.4 936.7,66 935.5,66 C934.7,66 934,65.6 934,65 C934,64.5 935.8,64 938,64 C940.2,64 942,64.5 942,65 C942,65.6 941.6,66 941,66 C940.4,66 940,69.7 940,75 C940,84.5 939.1,86 935.7,82.2 Z" id="Path"></path>
                <path d="M946.2,78 C945.9,71.6 946.6,70.8 949.5,74 C953,77.9 957.9,74.9 956.6,69.6 C955.7,65.8 951.6,64.1 949.1,66.4 C947.8,67.6 947,67.8 946.5,67 C944.6,63.9 951.7,61.7 956,64 C958.9,65.6 960.4,71.3 958.8,74.7 C957.7,77 956.7,77.6 953.2,77.8 C947.9,78.2 947.1,81 952.4,81 C956.4,81 959,81.8 959,83.1 C959,83.6 956.2,84 952.7,84 L946.4,84 L946.2,78 Z" id="Path"></path>
                <path d="M997.2,82.4 C994.4,80.5 994.3,78.6 997.1,79.3 C999.1,79.8 999.2,79.6 998.6,75.3 C998.3,72.8 998,69.7 998,68.4 C998,66.9 997.4,66 996.5,66 C995.7,66 995,65.6 995,65 C995,64.5 997,64 999.5,64 C1002,64 1004,64.5 1004,65 C1004,65.6 1003.3,66 1002.4,66 C1000.9,66 1000.8,67 1001.4,75 C1002.1,84.7 1001.7,85.6 997.2,82.4 Z" id="Path"></path>
                <path d="M1012.9,82.7 C1010,80.5 1007,74.6 1007,71 C1007,65.9 1009.4,63 1013.4,63 C1017.6,63 1020,65.6 1020,70.1 C1020,74.5 1018.5,76 1014.3,76 C1010.3,76 1010.2,76.9 1013.5,80 C1017.1,83.4 1016.6,85.6 1012.9,82.7 Z M1016.5,72.6 C1018.1,71.4 1018.3,70.7 1017.5,68.4 C1015.7,63.2 1010,64.5 1010,70 C1010,73.9 1013.1,75.1 1016.5,72.6 Z" id="Shape"></path>
                <path d="M1058.7,82.2 C1056.6,79.9 1056.5,78.6 1058.5,79.4 C1059.7,79.8 1060,78.8 1060,73 C1060,67.4 1059.7,66 1058.5,66 C1057.7,66 1057,65.6 1057,65 C1057,64.5 1058.8,64 1061,64 C1065,64 1066.3,65.3 1063.5,66.4 C1062.2,66.8 1062.1,68.4 1062.6,75.5 C1063.2,82.7 1063.1,84 1061.8,84 C1061,84 1059.6,83.2 1058.7,82.2 Z" id="Path"></path>
                <path d="M1068,82.5 C1068,81.4 1069.2,81 1073.1,81 C1075.9,81 1078,80.7 1077.8,80.3 C1074.6,74.1 1071,65.7 1071,64.5 C1071,62.4 1072.9,62.6 1073.7,64.8 C1075.4,69.8 1079.4,77.8 1081.2,79.7 C1084.2,82.9 1082.7,84 1074.9,84 C1069.4,84 1068,83.7 1068,82.5 Z" id="Path"></path>
                <path d="M1119.7,82.2 C1117.4,79.7 1117.6,78.7 1120.1,79.3 C1121.9,79.8 1122.1,79.5 1121.6,77.7 C1121.3,76.5 1121,73.4 1121,70.8 C1121,67.2 1120.6,66 1119.5,66 C1118.7,66 1118,65.6 1118,65 C1118,64.5 1120.1,64 1122.8,64 C1126.9,64.1 1127.3,64.2 1125.8,65.4 C1124.3,66.5 1124,68.3 1124,75.4 C1124,84.5 1123.1,86 1119.7,82.2 Z" id="Path"></path>
                <path d="M1132.5,82.3 C1131.3,81.1 1130.9,79.6 1131.3,76.8 C1131.6,74.7 1131.4,72.7 1130.9,72.4 C1129.3,71.5 1129.9,66.4 1131.8,64.7 C1134.3,62.5 1139.3,62.6 1141.3,64.8 C1143.4,67.1 1143.5,71.4 1141.5,73 C1140.4,73.9 1140.2,74.6 1141,75.4 C1142.4,76.8 1142.3,81.3 1140.8,82.8 C1139.1,84.5 1134.4,84.3 1132.5,82.3 Z M1138.9,80.6 C1140.6,78.6 1139.1,76 1136.4,76 C1133.5,76 1132.3,78.4 1134,80.5 C1135.6,82.4 1137.4,82.4 1138.9,80.6 Z M1139.4,71.4 C1140.3,70.6 1141,69.5 1141,69 C1141,67.7 1138,65 1136.5,65 C1134.5,65 1131.9,68 1132.6,69.3 C1135,73.4 1136.9,74 1139.4,71.4 Z" id="Shape"></path>
                <path d="M1181.3,82.3 C1178.4,80.4 1178.3,78.6 1181,79.3 C1183,79.8 1183,79.5 1182.6,73.2 C1182.3,68.1 1181.8,66.4 1180.6,66.2 C1177.2,65.5 1179.2,64 1183.5,64 C1188,64 1189.5,65.2 1186.4,66.4 C1185.1,66.9 1184.9,68.2 1185.5,75.5 C1186.3,84.7 1185.8,85.5 1181.3,82.3 Z" id="Path"></path>
                <path d="M1193,82 C1188.7,77.7 1191.6,71 1197.8,71 C1202,71 1201.1,68.6 1195.8,65.9 C1191.5,63.7 1191.4,61.5 1195.8,63.1 C1199.7,64.5 1201.5,66.1 1203.3,69.7 C1207,76.8 1204.3,84 1198,84 C1196.3,84 1194.1,83.1 1193,82 Z M1200.8,80.8 C1204.3,77.3 1199.3,70.9 1195.5,74 C1192.5,76.5 1194.3,82 1198,82 C1198.9,82 1200.1,81.5 1200.8,80.8 Z" id="Shape"></path>
                <path d="M22.4,82 C18.7,80.5 17,77 17,70.7 C17,64.6 18.8,59.7 21.5,58.6 C25,57.3 28.7,58 31.1,60.6 C33.2,62.8 33.5,64.1 33.5,70.7 C33.5,77.7 33.3,78.3 30.7,80.6 C27.7,83.1 25.9,83.4 22.4,82 Z M28.4,78.7 C30.9,76.8 31.6,69.4 29.7,64.7 C28.5,61.8 27.5,61 25.6,61 C22,61 20,64.5 20,70.7 C20,78.3 23.9,82 28.4,78.7 Z" id="Shape"></path>
                <path d="M627.8,80.9 C624.5,78.4 624,75.5 627,76.5 C628.9,77.1 629,76.8 628.6,69.3 C628.2,63.3 627.7,61.4 626.6,61.2 C623.1,60.4 625.3,59 630,59 C635.1,59 636.4,60.1 633.3,61.8 C631.9,62.6 631.7,64.3 631.9,72.9 C632,78.4 631.7,83 631.3,83 C630.9,83 629.3,82 627.8,80.9 Z" id="Path"></path>
                <path d="M643.3,82 C637.6,79.7 636.1,65.8 641,60.5 C644.4,56.9 649.1,57.1 652.4,61.1 C654.6,63.7 655,65.1 655,70.7 C655,76.5 654.7,77.4 652.1,80.1 C649.1,83.1 647.1,83.5 643.3,82 Z M650.4,77.8 C652.3,75.1 652.5,67.5 650.7,64 C649.9,62.5 648.4,61.4 646.8,61.2 C643.2,60.8 641,64.2 641,70.1 C641,78.1 646.9,82.9 650.4,77.8 Z" id="Shape"></path>
                <path d="M1240.4,80.6 C1236.9,79 1235.6,77.5 1236.5,76 C1236.9,75.3 1237.9,75.5 1239.3,76.5 C1240.5,77.3 1242.7,78 1244.2,78 C1246.5,78 1247,77.6 1247,75.5 C1247,73.8 1245.8,72.2 1242.5,70 C1237.5,66.6 1236,64.4 1236,60.6 C1236,58 1236.1,58 1243.6,58 C1249.2,58 1251.1,58.3 1250.8,59.3 C1250.5,60 1248.1,60.6 1244.7,60.8 C1241.6,61 1239,61.6 1239,62.1 C1239,62.7 1240.2,64.1 1241.6,65.3 C1251,73.1 1252.2,75.4 1249.3,78.8 C1246.8,81.6 1244.1,82.2 1240.4,80.6 Z" id="Path"></path>
                <path d="M1259.4,80.8 C1256.9,79.6 1254,74 1254,70.2 C1254,65.5 1256,60.1 1258.3,58.5 C1263.9,54.6 1270.3,58.4 1271.5,66.5 C1273.2,77.4 1267.1,84.6 1259.4,80.8 Z M1265.4,78.4 C1269.1,77 1269.3,64.9 1265.7,61.2 C1263,58.5 1259.2,60.4 1257.9,65.2 C1255.6,73.7 1259.5,80.6 1265.4,78.4 Z" id="Shape"></path>
                <path d="M68.2,73 C68.2,71.6 68.4,71.1 68.7,71.8 C68.9,72.4 68.9,73.6 68.7,74.3 C68.4,74.9 68.2,74.4 68.2,73 Z" id="Path"></path>
                <path d="M64.6,65.1 L61.6,61.5 L65,64.7 C66.9,66.5 68.2,68.1 67.9,68.3 C67.7,68.5 66.2,67.1 64.6,65.1 Z" id="Path"></path>
                <path d="M47,64.5 C48.3,63.1 49.6,62 49.8,62 C50.1,62 49.3,63.1 48,64.5 C46.7,65.9 45.4,67 45.2,67 C44.9,67 45.7,65.9 47,64.5 Z" id="Path"></path>
                <path d="M54.8,60.3 C55.4,60.1 56.6,60.1 57.3,60.3 C57.9,60.6 57.4,60.8 56,60.8 C54.6,60.8 54.1,60.6 54.8,60.3 Z" id="Path"></path>
                <path d="M1159,56.5 C1157.6,51.5 1157.4,51.3 1154.9,53.6 C1153.3,55 1152.9,54.6 1149.1,47.7 C1142.5,35.6 1142.1,36 1161,36 L1177,36 L1177,38.6 C1177,40 1175.2,44.3 1172.9,48.2 C1169,54.8 1168.7,55.1 1167,53.5 C1165,51.7 1164.8,51.9 1163.1,57.3 C1162.4,59.3 1161.5,61 1161.1,61 C1160.6,61 1159.7,59 1159,56.5 Z" id="Path"></path>
                <path d="M0,11.9 C0,11.4 0.5,11.2 1,11.5 C1.5,11.8 2,12.3 2,12.6 C2,12.8 1.6,13 1,13 C0.5,13 0,12.5 0,11.9 Z" id="Path"></path>
                <path d="M2.5,2 C3.5,0.9 4.5,0 4.8,0 C5.1,0 4.5,0.9 3.5,2 C2.5,3.1 1.5,4 1.2,4 C0.9,4 1.5,3.1 2.5,2 Z" id="Path"></path>
            </g>
        </g>
    </g>
</svg>