<svg width="1278" height="147" viewBox="0 0 1278 147" fill="none" xmlns="http://www.w3.org/2000/svg">
<path d="M9.2751 0.774988C11.9751 0.974988 16.1751 0.974988 18.8751 0.774988C21.4751 0.574988 19.2751 0.474985 14.0751 0.474985C8.8751 0.474985 6.6751 0.574988 9.2751 0.774988Z" fill="black"/>
<path d="M25.0751 25.275L25.5751 50.575L25.8751 25.775L26.0751 1.07501H28.5751H30.9751L31.2751 13.275L31.5751 25.575L32.0751 12.775L32.5751 0.0750122H28.5751H24.5751L25.0751 25.275Z" fill="black"/>
<path d="M35.275 0.775009C36.775 1.17501 37.075 2.87502 37.275 13.375L37.575 25.575L38.075 12.775L38.575 0.0750122L36.075 0.175018C34.475 0.275018 34.175 0.475009 35.275 0.775009Z" fill="black"/>
<path d="M41.3751 0.775009C42.8751 1.17501 43.0751 2.67502 43.0751 13.175C43.0751 20.475 43.4751 25.075 44.0751 25.075C44.6751 25.075 45.0751 20.275 45.0751 12.575L45.0751 0.0750122L42.3751 0.175018C40.6751 0.275018 40.2751 0.475009 41.3751 0.775009Z" fill="black"/>
<path d="M47.3751 0.775009C48.8751 1.17501 49.0751 2.67502 49.0751 13.175C49.0751 20.475 49.4751 25.075 50.0751 25.075C50.6751 25.075 51.0751 20.275 51.0751 12.575L51.0751 0.0750122L48.3751 0.175018C46.6751 0.275018 46.2751 0.475009 47.3751 0.775009Z" fill="black"/>
<path d="M55.0751 18.575C55.0751 30.275 55.4751 37.075 56.0751 37.075C56.6751 37.075 57.0751 30.475 57.0751 19.175C57.0751 2.87501 57.2751 1.17501 58.8751 0.775009C59.8751 0.475009 59.4751 0.275018 57.8751 0.175018L55.0751 0.0750122L55.0751 18.575Z" fill="black"/>
<path d="M61.8751 9.77498C62.2751 25.175 62.7751 26.675 62.8751 13.375C63.0751 2.67498 63.2751 1.17497 64.8751 0.774975C65.9751 0.474975 65.7751 0.274984 64.0751 0.174984L61.5751 0.0749779L61.8751 9.77498Z" fill="black"/>
<path d="M68.0751 12.775L68.5751 25.575L68.8751 13.275C69.1751 1.07501 69.1751 1.07501 71.5751 1.07501C73.9751 1.07501 73.9751 1.07501 74.2751 13.275L74.5751 25.575L75.0751 12.775L75.5751 0.0750122H71.5751H67.5751L68.0751 12.775Z" fill="black"/>
<path d="M78.275 0.775009C79.775 1.17501 80.075 2.87502 80.275 13.375L80.575 25.575L81.075 12.775L81.575 0.0750122L79.075 0.175018C77.475 0.275018 77.175 0.475009 78.275 0.775009Z" fill="black"/>
<path d="M84.3751 0.775024C85.9751 1.17502 86.0751 3.27503 86.0751 25.675C86.0751 41.775 86.3751 49.975 87.0751 49.575C87.6751 49.175 88.0751 39.775 88.0751 24.475L88.0751 0.0750275L85.3751 0.175034C83.6751 0.275034 83.2751 0.475024 84.3751 0.775024Z" fill="black"/>
<path d="M90.3751 0.775009C91.8751 1.17501 92.0751 2.67502 92.0751 13.175C92.0751 20.475 92.4751 25.075 93.0751 25.075C93.6751 25.075 94.0751 20.275 94.0751 12.575V0.0750122L91.3751 0.175018C89.6751 0.275018 89.2751 0.475009 90.3751 0.775009Z" fill="black"/>
<path d="M98.0751 12.575C98.0751 20.275 98.4751 25.075 99.0751 25.075C99.6751 25.075 100.075 20.475 100.075 13.175C100.075 2.67502 100.275 1.17501 101.875 0.775009C102.875 0.475009 102.475 0.275018 100.875 0.175018L98.0751 0.0750122V12.575Z" fill="black"/>
<path d="M104.075 12.575C104.075 20.275 104.475 25.075 105.075 25.075C105.675 25.075 106.075 20.475 106.075 13.175C106.075 2.67502 106.275 1.17501 107.875 0.775009C108.875 0.475009 108.475 0.275018 106.875 0.175018L104.075 0.0750122V12.575Z" fill="black"/>
<path d="M111.075 12.775L111.575 25.575L111.875 13.275L112.175 1.07501H114.575H117.075L117.275 19.275L117.575 37.575L118.075 18.775L118.575 0.0750122H114.575H110.575L111.075 12.775Z" fill="black"/>
<path d="M121.275 0.775009C122.775 1.17501 123.075 2.87502 123.275 13.375L123.575 25.575L124.075 12.775L124.575 0.0750122L122.075 0.175018C120.475 0.275018 120.175 0.475009 121.275 0.775009Z" fill="black"/>
<path d="M127.375 0.775009C128.875 1.17501 129.075 2.67502 129.075 13.175C129.075 20.475 129.475 25.075 130.075 25.075C130.675 25.075 131.075 20.275 131.075 12.575V0.0750122L128.375 0.175018C126.675 0.275018 126.275 0.475009 127.375 0.775009Z" fill="black"/>
<path d="M133.375 0.775009C134.875 1.17501 135.075 2.67502 135.075 13.175C135.075 20.475 135.475 25.075 136.075 25.075C136.675 25.075 137.075 20.275 137.075 12.575V0.0750122L134.375 0.175018C132.675 0.275018 132.275 0.475009 133.375 0.775009Z" fill="black"/>
<path d="M141.075 12.575C141.075 20.275 141.475 25.075 142.075 25.075C142.675 25.075 143.075 20.475 143.075 13.175C143.075 2.67502 143.275 1.17501 144.875 0.775009C145.875 0.475009 145.475 0.275018 143.875 0.175018L141.075 0.0750122V12.575Z" fill="black"/>
<path d="M147.075 24.475C147.075 39.775 147.475 49.175 148.075 49.575C148.775 49.975 149.075 41.775 149.075 25.675C149.075 3.27503 149.175 1.17502 150.875 0.775024C151.875 0.475024 151.475 0.275034 149.875 0.175034L147.075 0.0750275V24.475Z" fill="black"/>
<path d="M154.075 12.775L154.575 25.575L154.875 13.375C155.075 2.87502 155.375 1.17501 156.875 0.775009C157.975 0.475009 157.675 0.275018 156.075 0.175018L153.575 0.0750122L154.075 12.775Z" fill="black"/>
<path d="M160.075 12.775L160.575 25.575L160.875 13.275C161.175 1.07501 161.175 1.07501 163.575 1.07501C165.975 1.07501 165.975 1.07501 166.275 13.275L166.575 25.575L167.075 12.775L167.575 0.0750122H163.575H159.575L160.075 12.775Z" fill="black"/>
<path d="M170.375 0.775009C171.875 1.17501 172.075 2.67502 172.075 13.175C172.075 20.475 172.475 25.075 173.075 25.075C173.675 25.075 174.075 20.275 174.075 12.575V0.0750122L171.375 0.175018C169.675 0.275018 169.275 0.475009 170.375 0.775009Z" fill="black"/>
<path d="M176.375 0.775009C177.875 1.17501 178.075 2.87501 178.075 19.175C178.075 30.475 178.475 37.075 179.075 37.075C179.675 37.075 180.075 30.275 180.075 18.575V0.0750122L177.375 0.175018C175.675 0.275018 175.275 0.475009 176.375 0.775009Z" fill="black"/>
<path d="M184.075 12.575C184.075 20.275 184.475 25.075 185.075 25.075C185.675 25.075 186.075 20.475 186.075 13.175C186.075 2.67502 186.275 1.17501 187.875 0.775009C188.875 0.475009 188.475 0.275018 186.875 0.175018L184.075 0.0750122V12.575Z" fill="black"/>
<path d="M190.075 12.575C190.075 20.275 190.475 25.075 191.075 25.075C191.675 25.075 192.075 20.475 192.075 13.175C192.075 2.67502 192.275 1.17501 193.875 0.775009C194.875 0.475009 194.475 0.275018 192.875 0.175018L190.075 0.0750122V12.575Z" fill="black"/>
<path d="M197.075 12.775L197.575 25.575L197.875 13.375C198.075 2.87502 198.375 1.17501 199.875 0.775009C200.975 0.475009 200.675 0.275018 199.075 0.175018L196.575 0.0750122L197.075 12.775Z" fill="black"/>
<path d="M203.075 12.775L203.575 25.575L203.875 13.275L204.175 1.07501H206.575H209.075L209.275 25.775L209.575 50.575L210.075 25.275L210.575 0.0750122H206.575H202.575L203.075 12.775Z" fill="black"/>
<path d="M213.275 0.775009C214.775 1.17501 215.075 2.87502 215.275 13.375L215.575 25.575L216.075 12.775L216.575 0.0750122L214.075 0.175018C212.475 0.275018 212.175 0.475009 213.275 0.775009Z" fill="black"/>
<path d="M219.375 0.775009C220.875 1.17501 221.075 2.67502 221.075 13.175C221.075 20.475 221.475 25.075 222.075 25.075C222.675 25.075 223.075 20.275 223.075 12.575V0.0750122L220.375 0.175018C218.675 0.275018 218.275 0.475009 219.375 0.775009Z" fill="black"/>
<path d="M225.375 0.775009C226.875 1.17501 227.075 2.67502 227.075 13.175C227.075 20.475 227.475 25.075 228.075 25.075C228.675 25.075 229.075 20.275 229.075 12.575V0.0750122L226.375 0.175018C224.675 0.275018 224.275 0.475009 225.375 0.775009Z" fill="black"/>
<path d="M233.075 12.575C233.075 20.275 233.475 25.075 234.075 25.075C234.675 25.075 235.075 20.475 235.075 13.175C235.075 2.67502 235.275 1.17501 236.875 0.775009C237.875 0.475009 237.475 0.275018 235.875 0.175018L233.075 0.0750122V12.575Z" fill="black"/>
<path d="M240.075 18.775L240.575 37.575L240.875 19.375C241.075 3.17501 241.275 1.17501 242.875 0.775009C243.975 0.475009 243.775 0.275018 242.075 0.175018L239.575 0.0750122L240.075 18.775Z" fill="black"/>
<path d="M246.075 12.775L246.575 25.575L246.875 13.275C247.175 1.07501 247.175 1.07501 249.575 1.07501C251.975 1.07501 251.975 1.07501 252.275 13.275L252.575 25.575L253.075 12.775L253.575 0.0750122H249.575H245.575L246.075 12.775Z" fill="black"/>
<path d="M256.275 0.775009C257.775 1.17501 258.075 2.87502 258.275 13.375L258.575 25.575L259.075 12.775L259.575 0.0750122L257.075 0.175018C255.475 0.275018 255.175 0.475009 256.275 0.775009Z" fill="black"/>
<path d="M262.375 0.775009C263.875 1.17501 264.075 2.67502 264.075 13.175C264.075 20.475 264.475 25.075 265.075 25.075C265.675 25.075 266.075 20.275 266.075 12.575V0.0750122L263.375 0.175018C261.675 0.275018 261.275 0.475009 262.375 0.775009Z" fill="black"/>
<path d="M268.375 0.775009C269.975 1.17501 270.075 3.17501 270.075 25.175C270.075 40.475 270.475 49.075 271.075 49.075C271.675 49.075 272.075 40.275 272.075 24.575V0.0750122L269.375 0.175018C267.675 0.275018 267.275 0.475009 268.375 0.775009Z" fill="black"/>
<path d="M276.075 12.575C276.075 20.275 276.475 25.075 277.075 25.075C277.675 25.075 278.075 20.475 278.075 13.175C278.075 2.67502 278.275 1.17501 279.875 0.775009C280.875 0.475009 280.475 0.275018 278.875 0.175018L276.075 0.0750122V12.575Z" fill="black"/>
<path d="M282.075 12.575C282.075 20.275 282.475 25.075 283.075 25.075C283.675 25.075 284.075 20.475 284.075 13.175C284.075 2.67502 284.275 1.17501 285.875 0.775009C286.875 0.475009 286.475 0.275018 284.875 0.175018L282.075 0.0750122V12.575Z" fill="black"/>
<path d="M289.075 12.775L289.575 25.575L289.875 13.275C290.175 1.07501 290.175 1.07501 292.575 1.07501C294.975 1.07501 294.975 1.07501 295.275 13.275L295.575 25.575L296.075 12.775L296.575 0.0750122H292.575H288.575L289.075 12.775Z" fill="black"/>
<path d="M299.275 0.775009C300.875 1.17501 301.075 3.17501 301.275 19.375L301.575 37.575L302.075 18.775L302.575 0.0750122L300.075 0.175018C298.375 0.275018 298.175 0.475009 299.275 0.775009Z" fill="black"/>
<path d="M305.375 0.775009C306.875 1.17501 307.075 2.67502 307.075 13.175C307.075 20.475 307.475 25.075 308.075 25.075C308.675 25.075 309.075 20.275 309.075 12.575V0.0750122L306.375 0.175018C304.675 0.275018 304.275 0.475009 305.375 0.775009Z" fill="black"/>
<path d="M313.075 12.575C313.075 20.275 313.475 25.075 314.075 25.075C314.675 25.075 315.075 20.275 315.075 12.575C315.075 4.87501 314.675 0.0750122 314.075 0.0750122C313.475 0.0750122 313.075 4.87501 313.075 12.575Z" fill="black"/>
<path d="M319.075 12.575C319.075 20.275 319.475 25.075 320.075 25.075C320.675 25.075 321.075 20.475 321.075 13.175C321.075 2.67502 321.275 1.17501 322.875 0.775009C323.875 0.475009 323.475 0.275018 321.875 0.175018L319.075 0.0750122V12.575Z" fill="black"/>
<path d="M325.075 12.575C325.075 20.275 325.475 25.075 326.075 25.075C326.675 25.075 327.075 20.475 327.075 13.175C327.075 2.67502 327.275 1.17501 328.875 0.775009C329.875 0.475009 329.475 0.275018 327.875 0.175018L325.075 0.0750122V12.575Z" fill="black"/>
<path d="M332.075 25.275L332.575 50.575L332.875 25.875C333.075 3.47502 333.275 1.17501 334.875 0.775009C335.975 0.475009 335.775 0.275018 334.075 0.175018L331.575 0.0750122L332.075 25.275Z" fill="black"/>
<path d="M338.075 12.775L338.575 25.575L338.875 13.275C339.175 1.07501 339.175 1.07501 341.575 1.07501C343.975 1.07501 343.975 1.07501 344.275 13.275L344.575 25.575L345.075 12.775L345.575 0.0750122H341.575H337.575L338.075 12.775Z" fill="black"/>
<path d="M348.375 0.775009C349.875 1.17501 350.075 2.67502 350.075 13.175C350.075 20.475 350.475 25.075 351.075 25.075C351.675 25.075 352.075 20.275 352.075 12.575V0.0750122L349.375 0.175018C347.675 0.275018 347.275 0.475009 348.375 0.775009Z" fill="black"/>
<path d="M354.375 0.775009C355.875 1.17501 356.075 2.67502 356.075 13.175C356.075 20.475 356.475 25.075 357.075 25.075C357.675 25.075 358.075 20.275 358.075 12.575V0.0750122L355.375 0.175018C353.675 0.275018 353.275 0.475009 354.375 0.775009Z" fill="black"/>
<path d="M362.075 18.575C362.075 30.275 362.475 37.075 363.075 37.075C363.675 37.075 364.075 30.475 364.075 19.175C364.075 2.87501 364.275 1.17501 365.875 0.775009C366.875 0.475009 366.475 0.275018 364.875 0.175018L362.075 0.0750122V18.575Z" fill="black"/>
<path d="M368.075 12.575C368.075 20.275 368.475 25.075 369.075 25.075C369.675 25.075 370.075 20.475 370.075 13.175C370.075 2.67502 370.275 1.17501 371.875 0.775009C372.875 0.475009 372.475 0.275018 370.875 0.175018L368.075 0.0750122V12.575Z" fill="black"/>
<path d="M375.075 12.775L375.575 25.575L375.875 13.375C376.075 2.87502 376.375 1.17501 377.875 0.775009C378.975 0.475009 378.675 0.275018 377.075 0.175018L374.575 0.0750122L375.075 12.775Z" fill="black"/>
<path d="M381.075 12.775L381.575 25.575L381.875 13.275C382.175 1.07501 382.175 1.07501 384.575 1.07501C386.975 1.07501 386.975 1.07501 387.275 13.275L387.575 25.575L388.075 12.775L388.575 0.0750122H384.575H380.575L381.075 12.775Z" fill="black"/>
<path d="M391.375 0.774994C392.975 1.17499 393.075 3.275 393.075 25.775C393.075 39.375 393.275 50.175 393.575 49.875C393.875 49.575 394.175 38.275 394.375 24.675L394.575 0.0749969L392.075 0.175003C390.375 0.275003 390.175 0.474994 391.375 0.774994Z" fill="black"/>
<path d="M397.375 0.775009C398.875 1.17501 399.075 2.67502 399.075 13.175C399.075 20.475 399.475 25.075 400.075 25.075C400.675 25.075 401.075 20.275 401.075 12.575V0.0750122L398.375 0.175018C396.675 0.275018 396.275 0.475009 397.375 0.775009Z" fill="black"/>
<path d="M405.075 12.575C405.075 20.275 405.475 25.075 406.075 25.075C406.675 25.075 407.075 20.475 407.075 13.175C407.075 2.67502 407.275 1.17501 408.875 0.775009C409.875 0.475009 409.475 0.275018 407.875 0.175018L405.075 0.0750122V12.575Z" fill="black"/>
<path d="M411.075 12.575C411.075 20.275 411.475 25.075 412.075 25.075C412.675 25.075 413.075 20.475 413.075 13.175C413.075 2.67502 413.275 1.17501 414.875 0.775009C415.875 0.475009 415.475 0.275018 413.875 0.175018L411.075 0.0750122V12.575Z" fill="black"/>
<path d="M418.075 12.775L418.575 25.575L418.875 13.375C419.075 2.87502 419.375 1.17501 420.875 0.775009C421.975 0.475009 421.675 0.275018 420.075 0.175018L417.575 0.0750122L418.075 12.775Z" fill="black"/>
<path d="M424.075 18.775L424.575 37.575L424.875 19.275L425.075 1.07501H427.575H429.975L430.275 13.275L430.575 25.575L431.075 12.775L431.575 0.0750122H427.575H423.575L424.075 18.775Z" fill="black"/>
<path d="M434.375 0.774975C435.875 1.17497 436.075 2.67498 436.275 13.375C436.375 26.675 436.875 25.175 437.275 9.77498L437.575 0.0749779L435.075 0.174984C433.375 0.274984 433.175 0.474975 434.375 0.774975Z" fill="black"/>
<path d="M440.375 0.775009C441.875 1.17501 442.075 2.67502 442.075 13.175C442.075 20.475 442.475 25.075 443.075 25.075C443.675 25.075 444.075 20.275 444.075 12.575V0.0750122L441.375 0.175018C439.675 0.275018 439.275 0.475009 440.375 0.775009Z" fill="black"/>
<path d="M446.375 0.775009C447.875 1.17501 448.075 2.67502 448.075 13.175C448.075 20.475 448.475 25.075 449.075 25.075C449.675 25.075 450.075 20.275 450.075 12.575V0.0750122L447.375 0.175018C445.675 0.275018 445.275 0.475009 446.375 0.775009Z" fill="black"/>
<path d="M454.075 24.475C454.075 39.775 454.475 49.175 455.075 49.575C455.775 49.975 456.075 41.775 456.075 25.675C456.075 3.27503 456.175 1.17502 457.875 0.775024C458.875 0.475024 458.475 0.275034 456.875 0.175034L454.075 0.0750275V24.475Z" fill="black"/>
<path d="M460.075 12.575C460.075 20.275 460.475 25.075 461.075 25.075C461.675 25.075 462.075 20.475 462.075 13.175C462.075 2.67502 462.275 1.17501 463.875 0.775009C464.875 0.475009 464.475 0.275018 462.875 0.175018L460.075 0.0750122V12.575Z" fill="black"/>
<path d="M467.075 12.775L467.575 25.575L467.875 13.275C468.175 1.07501 468.175 1.07501 470.575 1.07501C472.975 1.07501 472.975 1.07501 473.275 13.275L473.575 25.575L474.075 12.775L474.575 0.0750122H470.575H466.575L467.075 12.775Z" fill="black"/>
<path d="M477.275 0.775009C478.775 1.17501 479.075 2.87502 479.275 13.375L479.575 25.575L480.075 12.775L480.575 0.0750122L478.075 0.175018C476.475 0.275018 476.175 0.475009 477.275 0.775009Z" fill="black"/>
<path d="M483.375 0.775009C484.875 1.17501 485.075 2.87501 485.075 19.175C485.075 30.475 485.475 37.075 486.075 37.075C486.675 37.075 487.075 30.275 487.075 18.575V0.0750122L484.375 0.175018C482.675 0.275018 482.275 0.475009 483.375 0.775009Z" fill="black"/>
<path d="M489.375 0.775009C490.875 1.17501 491.075 2.67502 491.075 13.175C491.075 20.475 491.475 25.075 492.075 25.075C492.675 25.075 493.075 20.275 493.075 12.575V0.0750122L490.375 0.175018C488.675 0.275018 488.275 0.475009 489.375 0.775009Z" fill="black"/>
<path d="M497.075 12.575C497.075 20.275 497.475 25.075 498.075 25.075C498.675 25.075 499.075 20.475 499.075 13.175C499.075 2.67502 499.275 1.17501 500.875 0.775009C501.875 0.475009 501.475 0.275018 499.875 0.175018L497.075 0.0750122V12.575Z" fill="black"/>
<path d="M503.075 12.575C503.075 20.275 503.475 25.075 504.075 25.075C504.675 25.075 505.075 20.475 505.075 13.175C505.075 2.67502 505.275 1.17501 506.875 0.775009C507.875 0.475009 507.475 0.275018 505.875 0.175018L503.075 0.0750122V12.575Z" fill="black"/>
<path d="M510.075 12.775L510.575 25.575L510.875 13.375C511.075 2.87502 511.375 1.17501 512.875 0.775009C513.975 0.475009 513.675 0.275018 512.075 0.175018L509.575 0.0750122L510.075 12.775Z" fill="black"/>
<path d="M516.075 25.275C516.475 50.575 516.875 48.475 517.275 16.775C517.475 6.175 517.175 0.0750008 516.575 0.0750008C515.875 0.0750008 515.775 8.875 516.075 25.275Z" fill="black"/>
<path d="M520.275 0.775009C521.775 1.17501 522.075 2.87502 522.275 13.375L522.575 25.575L523.075 12.775L523.575 0.0750122L521.075 0.175018C519.475 0.275018 519.175 0.475009 520.275 0.775009Z" fill="black"/>
<path d="M526.375 0.775009C527.875 1.17501 528.075 2.67502 528.075 13.175C528.075 20.475 528.475 25.075 529.075 25.075C529.675 25.075 530.075 20.275 530.075 12.575V0.0750122L527.375 0.175018C525.675 0.275018 525.275 0.475009 526.375 0.775009Z" fill="black"/>
<path d="M534.075 12.575C534.075 20.275 534.475 25.075 535.075 25.075C535.675 25.075 536.075 20.275 536.075 12.575C536.075 4.87501 535.675 0.0750122 535.075 0.0750122C534.475 0.0750122 534.075 4.87501 534.075 12.575Z" fill="black"/>
<path d="M540.075 12.575C540.075 20.275 540.475 25.075 541.075 25.075C541.675 25.075 542.075 20.475 542.075 13.175C542.075 2.67502 542.275 1.17501 543.875 0.775009C544.875 0.475009 544.475 0.275018 542.875 0.175018L540.075 0.0750122V12.575Z" fill="black"/>
<path d="M546.075 18.575C546.075 30.275 546.475 37.075 547.075 37.075C547.675 37.075 548.075 30.475 548.075 19.175C548.075 2.87501 548.275 1.17501 549.875 0.775009C550.875 0.475009 550.475 0.275018 548.875 0.175018L546.075 0.0750122V18.575Z" fill="black"/>
<path d="M553.075 12.775L553.575 25.575L553.875 13.375C554.075 2.87502 554.375 1.17501 555.875 0.775009C556.975 0.475009 556.675 0.275018 555.075 0.175018L552.575 0.0750122L553.075 12.775Z" fill="black"/>
<path d="M558.875 8.77503C559.375 24.675 559.675 25.775 560.075 12.775C560.375 4.67502 560.175 0.0750294 559.575 0.0750294C558.975 0.0750294 558.675 3.47503 558.875 8.77503Z" fill="black"/>
<path d="M563.275 0.775009C564.775 1.17501 565.075 2.87502 565.275 13.375L565.575 25.575L566.075 12.775L566.575 0.0750122L564.075 0.175018C562.475 0.275018 562.175 0.475009 563.275 0.775009Z" fill="black"/>
<path d="M569.375 0.775009C570.875 1.17501 571.075 2.67502 571.075 13.175C571.075 20.475 571.475 25.075 572.075 25.075C572.675 25.075 573.075 20.275 573.075 12.575V0.0750122L570.375 0.175018C568.675 0.275018 568.275 0.475009 569.375 0.775009Z" fill="black"/>
<path d="M575.375 0.775009C576.975 1.17501 577.075 3.17501 577.075 25.175C577.075 40.475 577.475 49.075 578.075 49.075C578.675 49.075 579.075 40.275 579.075 24.575V0.0750122L576.375 0.175018C574.675 0.275018 574.275 0.475009 575.375 0.775009Z" fill="black"/>
<path d="M583.075 12.575C583.075 20.275 583.475 25.075 584.075 25.075C584.675 25.075 585.075 20.475 585.075 13.175C585.075 2.67502 585.275 1.17501 586.875 0.775009C587.875 0.475009 587.475 0.275018 585.875 0.175018L583.075 0.0750122V12.575Z" fill="black"/>
<path d="M589.075 12.575C589.075 20.275 589.475 25.075 590.075 25.075C590.675 25.075 591.075 20.475 591.075 13.175C591.075 2.67502 591.275 1.17501 592.875 0.775009C593.875 0.475009 593.475 0.275018 591.875 0.175018L589.075 0.0750122V12.575Z" fill="black"/>
<path d="M596.075 12.775L596.575 25.575L596.875 13.375C597.075 2.87502 597.375 1.17501 598.875 0.775009C599.975 0.475009 599.675 0.275018 598.075 0.175018L595.575 0.0750122L596.075 12.775Z" fill="black"/>
<path d="M602.075 12.775L602.575 25.575L602.875 13.275L603.175 1.07501H605.575H608.075L608.275 19.275L608.575 37.575L609.075 18.775L609.575 0.0750122H605.575H601.575L602.075 12.775Z" fill="black"/>
<path d="M612.375 0.775009C613.875 1.17501 614.075 2.67502 614.075 13.175C614.075 20.775 614.475 25.075 615.075 25.075C615.775 25.075 616.075 20.675 615.975 12.575L615.875 0.0750122L613.175 0.175018C611.575 0.275018 611.175 0.475009 612.375 0.775009Z" fill="black"/>
<path d="M618.375 0.775009C619.875 1.17501 620.075 2.67502 620.075 13.175C620.075 20.475 620.475 25.075 621.075 25.075C621.675 25.075 622.075 20.275 622.075 12.575V0.0750122L619.375 0.175018C617.675 0.275018 617.275 0.475009 618.375 0.775009Z" fill="black"/>
<path d="M626.075 12.575C626.075 20.275 626.475 25.075 627.075 25.075C627.675 25.075 628.075 20.275 628.075 12.575C628.075 4.87501 627.675 0.0750122 627.075 0.0750122C626.475 0.0750122 626.075 4.87501 626.075 12.575Z" fill="black"/>
<path d="M632.075 12.575C632.075 20.275 632.475 25.075 633.075 25.075C633.675 25.075 634.075 20.475 634.075 13.175C634.075 2.67502 634.275 1.17501 635.875 0.775009C636.875 0.475009 636.475 0.275018 634.875 0.175018L632.075 0.0750122V12.575Z" fill="black"/>
<path d="M638.075 24.475C638.075 39.775 638.475 49.175 639.075 49.575C639.775 49.975 640.075 41.775 640.075 25.675C640.075 3.27503 640.175 1.17502 641.875 0.775024C642.875 0.475024 642.475 0.275034 640.875 0.175034L638.075 0.0750275V24.475Z" fill="black"/>
<path d="M645.075 12.775L645.575 25.575L645.875 13.275C646.175 1.07501 646.175 1.07501 648.575 1.07501C650.975 1.07501 650.975 1.07501 651.275 13.275L651.575 25.575L652.075 12.775L652.575 0.0750122H648.575H644.575L645.075 12.775Z" fill="black"/>
<path d="M655.375 0.774975C656.875 1.17497 657.075 2.67498 657.275 13.375C657.375 26.675 657.875 25.175 658.275 9.77498L658.575 0.0749779L656.075 0.174984C654.375 0.274984 654.175 0.474975 655.375 0.774975Z" fill="black"/>
<path d="M661.375 0.775009C662.875 1.17501 663.075 2.67502 663.075 13.175C663.075 20.475 663.475 25.075 664.075 25.075C664.675 25.075 665.075 20.275 665.075 12.575V0.0750122L662.375 0.175018C660.675 0.275018 660.275 0.475009 661.375 0.775009Z" fill="black"/>
<path d="M667.375 0.775009C668.875 1.17501 669.075 2.87501 669.075 19.175C669.075 30.475 669.475 37.075 670.075 37.075C670.675 37.075 671.075 30.275 671.075 18.575V0.0750122L668.375 0.175018C666.675 0.275018 666.275 0.475009 667.375 0.775009Z" fill="black"/>
<path d="M675.075 12.575C675.075 20.275 675.475 25.075 676.075 25.075C676.675 25.075 677.075 20.475 677.075 13.175C677.075 2.67502 677.275 1.17501 678.875 0.775009C679.875 0.475009 679.475 0.275018 677.875 0.175018L675.075 0.0750122V12.575Z" fill="black"/>
<path d="M681.075 12.575C681.075 20.275 681.475 25.075 682.075 25.075C682.675 25.075 683.075 20.475 683.075 13.175C683.075 2.67502 683.275 1.17501 684.875 0.775009C685.875 0.475009 685.475 0.275018 683.875 0.175018L681.075 0.0750122V12.575Z" fill="black"/>
<path d="M688.075 12.775L688.575 25.575L688.875 13.375C689.075 2.87502 689.375 1.17501 690.875 0.775009C691.975 0.475009 691.675 0.275018 690.075 0.175018L687.575 0.0750122L688.075 12.775Z" fill="black"/>
<path d="M693.875 8.77503C694.375 24.675 694.675 25.775 695.075 12.775C695.375 4.67502 695.175 0.0750294 694.575 0.0750294C693.975 0.0750294 693.675 3.47503 693.875 8.77503Z" fill="black"/>
<path d="M698.375 0.774994C699.975 1.17499 700.075 3.275 700.075 25.775C700.075 39.375 700.275 50.175 700.575 49.875C700.875 49.575 701.175 38.275 701.375 24.675L701.575 0.0749969L699.075 0.175003C697.375 0.275003 697.175 0.474994 698.375 0.774994Z" fill="black"/>
<path d="M704.375 0.775009C705.875 1.17501 706.075 2.67502 706.075 13.175C706.075 20.475 706.475 25.075 707.075 25.075C707.675 25.075 708.075 20.275 708.075 12.575V0.0750122L705.375 0.175018C703.675 0.275018 703.275 0.475009 704.375 0.775009Z" fill="black"/>
<path d="M710.375 0.775009C711.875 1.17501 712.075 2.67502 712.075 13.175C712.075 20.475 712.475 25.075 713.075 25.075C713.675 25.075 714.075 20.275 714.075 12.575V0.0750122L711.375 0.175018C709.675 0.275018 709.275 0.475009 710.375 0.775009Z" fill="black"/>
<path d="M718.075 12.575C718.075 20.275 718.475 25.075 719.075 25.075C719.675 25.075 720.075 20.475 720.075 13.175C720.075 2.67502 720.275 1.17501 721.875 0.775009C722.875 0.475009 722.475 0.275018 720.875 0.175018L718.075 0.0750122V12.575Z" fill="black"/>
<path d="M724.075 12.575C724.075 20.275 724.475 25.075 725.075 25.075C725.675 25.075 726.075 20.475 726.075 13.175C726.075 2.67502 726.275 1.17501 727.875 0.775009C728.875 0.475009 728.475 0.275018 726.875 0.175018L724.075 0.0750122V12.575Z" fill="black"/>
<path d="M731.075 18.775L731.575 37.575L731.875 19.375C732.075 3.17501 732.275 1.17501 733.875 0.775009C734.975 0.475009 734.775 0.275018 733.075 0.175018L730.575 0.0750122L731.075 18.775Z" fill="black"/>
<path d="M736.875 8.77503C737.375 24.675 737.675 25.775 738.075 12.775C738.375 4.67502 738.175 0.0750294 737.575 0.0750294C736.975 0.0750294 736.675 3.47503 736.875 8.77503Z" fill="black"/>
<path d="M741.275 0.775009C742.775 1.17501 743.075 2.87502 743.275 13.375L743.575 25.575L744.075 12.775L744.575 0.0750122L742.075 0.175018C740.475 0.275018 740.175 0.475009 741.275 0.775009Z" fill="black"/>
<path d="M747.375 0.775009C748.875 1.17501 749.075 2.67502 749.075 13.175C749.075 20.475 749.475 25.075 750.075 25.075C750.675 25.075 751.075 20.275 751.075 12.575V0.0750122L748.375 0.175018C746.675 0.275018 746.275 0.475009 747.375 0.775009Z" fill="black"/>
<path d="M755.075 12.575C755.075 20.275 755.475 25.075 756.075 25.075C756.675 25.075 757.075 20.275 757.075 12.575C757.075 4.87501 756.675 0.0750122 756.075 0.0750122C755.475 0.0750122 755.075 4.87501 755.075 12.575Z" fill="black"/>
<path d="M761.075 24.475C761.075 39.775 761.475 49.175 762.075 49.575C762.775 49.975 763.075 41.775 763.075 25.675C763.075 3.27503 763.175 1.17502 764.875 0.775024C765.875 0.475024 765.475 0.275034 763.875 0.175034L761.075 0.0750275V24.475Z" fill="black"/>
<path d="M767.075 12.575C767.075 20.275 767.475 25.075 768.075 25.075C768.675 25.075 769.075 20.475 769.075 13.175C769.075 2.67502 769.275 1.17501 770.875 0.775009C771.875 0.475009 771.475 0.275018 769.875 0.175018L767.075 0.0750122V12.575Z" fill="black"/>
<path d="M774.075 12.775L774.575 25.575L774.875 13.375C775.075 2.87502 775.375 1.17501 776.875 0.775009C777.975 0.475009 777.675 0.275018 776.075 0.175018L773.575 0.0750122L774.075 12.775Z" fill="black"/>
<path d="M779.875 8.77503C780.375 24.675 780.675 25.775 781.075 12.775C781.375 4.67502 781.175 0.0750294 780.575 0.0750294C779.975 0.0750294 779.675 3.47503 779.875 8.77503Z" fill="black"/>
<path d="M784.275 0.775009C785.775 1.17501 786.075 2.87502 786.275 13.375L786.575 25.575L787.075 12.775L787.575 0.0750122L785.075 0.175018C783.475 0.275018 783.175 0.475009 784.275 0.775009Z" fill="black"/>
<path d="M790.375 0.775009C791.875 1.17501 792.075 2.87501 792.075 19.175C792.075 30.475 792.475 37.075 793.075 37.075C793.675 37.075 794.075 30.275 794.075 18.575V0.0750122L791.375 0.175018C789.675 0.275018 789.275 0.475009 790.375 0.775009Z" fill="black"/>
<path d="M796.375 0.775009C797.875 1.17501 798.075 2.67502 798.075 13.175C798.075 20.475 798.475 25.075 799.075 25.075C799.675 25.075 800.075 20.275 800.075 12.575V0.0750122L797.375 0.175018C795.675 0.275018 795.275 0.475009 796.375 0.775009Z" fill="black"/>
<path d="M804.075 12.575C804.075 20.275 804.475 25.075 805.075 25.075C805.675 25.075 806.075 20.275 806.075 12.575C806.075 4.87501 805.675 0.0750122 805.075 0.0750122C804.475 0.0750122 804.075 4.87501 804.075 12.575Z" fill="black"/>
<path d="M810.075 12.575C810.075 20.275 810.475 25.075 811.075 25.075C811.675 25.075 812.075 20.475 812.075 13.175C812.075 2.67502 812.275 1.17501 813.875 0.775009C814.875 0.475009 814.475 0.275018 812.875 0.175018L810.075 0.0750122V12.575Z" fill="black"/>
<path d="M817.075 12.775L817.575 25.575L817.875 13.375C818.075 2.87502 818.375 1.17501 819.875 0.775009C820.975 0.475009 820.675 0.275018 819.075 0.175018L816.575 0.0750122L817.075 12.775Z" fill="black"/>
<path d="M823.075 25.275C823.475 50.575 823.875 48.475 824.275 16.775C824.475 6.175 824.175 0.0750008 823.575 0.0750008C822.875 0.0750008 822.775 8.875 823.075 25.275Z" fill="black"/>
<path d="M827.275 0.775009C828.775 1.17501 829.075 2.87502 829.275 13.375L829.575 25.575L830.075 12.775L830.575 0.0750122L828.075 0.175018C826.475 0.275018 826.175 0.475009 827.275 0.775009Z" fill="black"/>
<path d="M833.375 0.775009C834.875 1.17501 835.075 2.67502 835.075 13.175C835.075 20.475 835.475 25.075 836.075 25.075C836.675 25.075 837.075 20.275 837.075 12.575V0.0750122L834.375 0.175018C832.675 0.275018 832.275 0.475009 833.375 0.775009Z" fill="black"/>
<path d="M839.375 0.775009C840.875 1.17501 841.075 2.67502 841.075 13.175C841.075 20.475 841.475 25.075 842.075 25.075C842.675 25.075 843.075 20.275 843.075 12.575V0.0750122L840.375 0.175018C838.675 0.275018 838.275 0.475009 839.375 0.775009Z" fill="black"/>
<path d="M847.075 12.575C847.075 20.275 847.475 25.075 848.075 25.075C848.675 25.075 849.075 20.275 849.075 12.575C849.075 4.87501 848.675 0.0750122 848.075 0.0750122C847.475 0.0750122 847.075 4.87501 847.075 12.575Z" fill="black"/>
<path d="M853.075 18.575C853.075 30.275 853.475 37.075 854.075 37.075C854.675 37.075 855.075 30.475 855.075 19.175C855.075 2.87501 855.275 1.17501 856.875 0.775009C857.875 0.475009 857.475 0.275018 855.875 0.175018L853.075 0.0750122V18.575Z" fill="black"/>
<path d="M859.075 12.575C859.075 20.275 859.475 25.075 860.075 25.075C860.675 25.075 861.075 20.475 861.075 13.175C861.075 2.67502 861.275 1.17501 862.875 0.775009C863.875 0.475009 863.475 0.275018 861.875 0.175018L859.075 0.0750122V12.575Z" fill="black"/>
<path d="M866.075 12.775L866.575 25.575L866.875 13.375C867.075 2.87502 867.375 1.17501 868.875 0.775009C869.975 0.475009 869.675 0.275018 868.075 0.175018L865.575 0.0750122L866.075 12.775Z" fill="black"/>
<path d="M871.875 8.77503C872.375 24.675 872.675 25.775 873.075 12.775C873.375 4.67502 873.175 0.0750294 872.575 0.0750294C871.975 0.0750294 871.675 3.47503 871.875 8.77503Z" fill="black"/>
<path d="M876.375 0.775009C877.875 1.17501 878.075 2.67502 878.075 13.175C878.075 20.775 878.475 25.075 879.075 25.075C879.775 25.075 880.075 20.675 879.975 12.575L879.875 0.0750122L877.175 0.175018C875.575 0.275018 875.175 0.475009 876.375 0.775009Z" fill="black"/>
<path d="M882.375 0.775009C883.975 1.17501 884.075 3.17501 884.075 25.175C884.075 40.475 884.475 49.075 885.075 49.075C885.675 49.075 886.075 40.275 886.075 24.575V0.0750122L883.375 0.175018C881.675 0.275018 881.275 0.475009 882.375 0.775009Z" fill="black"/>
<path d="M890.075 12.575C890.075 20.275 890.475 25.075 891.075 25.075C891.675 25.075 892.075 20.275 892.075 12.575C892.075 4.87501 891.675 0.0750122 891.075 0.0750122C890.475 0.0750122 890.075 4.87501 890.075 12.575Z" fill="black"/>
<path d="M896.075 12.575C896.075 20.275 896.475 25.075 897.075 25.075C897.675 25.075 898.075 20.475 898.075 13.175C898.075 2.67502 898.275 1.17501 899.875 0.775009C900.875 0.475009 900.475 0.275018 898.875 0.175018L896.075 0.0750122V12.575Z" fill="black"/>
<path d="M902.075 12.575C902.075 20.275 902.475 25.075 903.075 25.075C903.675 25.075 904.075 20.475 904.075 13.175C904.075 2.67502 904.275 1.17501 905.875 0.775009C906.875 0.475009 906.475 0.275018 904.875 0.175018L902.075 0.0750122V12.575Z" fill="black"/>
<path d="M909.075 12.775L909.575 25.575L909.875 13.375C910.075 2.87502 910.375 1.17501 911.875 0.775009C912.975 0.475009 912.675 0.275018 911.075 0.175018L908.575 0.0750122L909.075 12.775Z" fill="black"/>
<path d="M915.075 18.775C915.475 37.475 915.775 35.875 916.275 12.275C916.475 4.67498 916.175 0.0749836 915.575 0.0749836C914.975 0.0749836 914.775 6.67498 915.075 18.775Z" fill="black"/>
<path d="M919.375 0.774975C920.875 1.17497 921.075 2.67498 921.275 13.375C921.375 26.675 921.875 25.175 922.275 9.77498L922.575 0.0749779L920.075 0.174984C918.375 0.274984 918.175 0.474975 919.375 0.774975Z" fill="black"/>
<path d="M925.375 0.775009C926.875 1.17501 927.075 2.67502 927.075 13.175C927.075 20.475 927.475 25.075 928.075 25.075C928.675 25.075 929.075 20.275 929.075 12.575V0.0750122L926.375 0.175018C924.675 0.275018 924.275 0.475009 925.375 0.775009Z" fill="black"/>
<path d="M931.375 0.775009C932.875 1.17501 933.075 2.67502 933.075 13.175C933.075 20.475 933.475 25.075 934.075 25.075C934.675 25.075 935.075 20.275 935.075 12.575V0.0750122L932.375 0.175018C930.675 0.275018 930.275 0.475009 931.375 0.775009Z" fill="black"/>
<path d="M939.075 12.575C939.075 20.275 939.475 25.075 940.075 25.075C940.675 25.075 941.075 20.475 941.075 13.175C941.075 2.67502 941.275 1.17501 942.875 0.775009C943.875 0.475009 943.475 0.275018 941.875 0.175018L939.075 0.0750122V12.575Z" fill="black"/>
<path d="M945.075 24.475C945.075 39.775 945.475 49.175 946.075 49.575C946.775 49.975 947.075 41.775 947.075 25.675C947.075 3.27503 947.175 1.17502 948.875 0.775024C949.875 0.475024 949.475 0.275034 947.875 0.175034L945.075 0.0750275V24.475Z" fill="black"/>
<path d="M952.075 12.775L952.575 25.575L952.875 13.375C953.075 2.87502 953.375 1.17501 954.875 0.775009C955.975 0.475009 955.675 0.275018 954.075 0.175018L951.575 0.0750122L952.075 12.775Z" fill="black"/>
<path d="M957.875 8.77503C958.375 24.675 958.675 25.775 959.075 12.775C959.375 4.67502 959.175 0.0750294 958.575 0.0750294C957.975 0.0750294 957.675 3.47503 957.875 8.77503Z" fill="black"/>
<path d="M962.375 0.774975C963.875 1.17497 964.075 2.67498 964.275 13.375C964.375 26.675 964.875 25.175 965.275 9.77498L965.575 0.0749779L963.075 0.174984C961.375 0.274984 961.175 0.474975 962.375 0.774975Z" fill="black"/>
<path d="M968.375 0.775009C969.875 1.17501 970.075 2.67502 970.075 13.175C970.075 20.475 970.475 25.075 971.075 25.075C971.675 25.075 972.075 20.275 972.075 12.575V0.0750122L969.375 0.175018C967.675 0.275018 967.275 0.475009 968.375 0.775009Z" fill="black"/>
<path d="M976.075 18.575C976.075 30.275 976.475 37.075 977.075 37.075C977.675 37.075 978.075 30.275 978.075 18.575C978.075 6.87501 977.675 0.0750122 977.075 0.0750122C976.475 0.0750122 976.075 6.87501 976.075 18.575Z" fill="black"/>
<path d="M982.075 12.575C982.075 20.275 982.475 25.075 983.075 25.075C983.675 25.075 984.075 20.475 984.075 13.175C984.075 2.67502 984.275 1.17501 985.875 0.775009C986.875 0.475009 986.475 0.275018 984.875 0.175018L982.075 0.0750122V12.575Z" fill="black"/>
<path d="M988.075 12.575C988.075 20.275 988.475 25.075 989.075 25.075C989.675 25.075 990.075 20.475 990.075 13.175C990.075 2.67502 990.275 1.17501 991.875 0.775009C992.875 0.475009 992.475 0.275018 990.875 0.175018L988.075 0.0750122V12.575Z" fill="black"/>
<path d="M995.075 12.775L995.575 25.575L995.875 13.375C996.075 2.87502 996.375 1.17501 997.875 0.775009C998.975 0.475009 998.675 0.275018 997.075 0.175018L994.575 0.0750122L995.075 12.775Z" fill="black"/>
<path d="M1000.88 8.77503C1001.38 24.675 1001.68 25.775 1002.08 12.775C1002.38 4.67502 1002.18 0.0750294 1001.58 0.0750294C1000.98 0.0750294 1000.68 3.47503 1000.88 8.77503Z" fill="black"/>
<path d="M1005.28 0.775009C1006.88 1.17501 1007.08 3.47502 1007.28 25.875L1007.58 50.575L1008.08 25.275L1008.58 0.0750122L1006.08 0.175018C1004.38 0.275018 1004.18 0.475009 1005.28 0.775009Z" fill="black"/>
<path d="M1011.38 0.775009C1012.88 1.17501 1013.08 2.67502 1013.08 13.175C1013.08 20.475 1013.48 25.075 1014.08 25.075C1014.68 25.075 1015.08 20.275 1015.08 12.575V0.0750122L1012.38 0.175018C1010.68 0.275018 1010.28 0.475009 1011.38 0.775009Z" fill="black"/>
<path d="M1017.38 0.775009C1018.88 1.17501 1019.08 2.67502 1019.08 13.175C1019.08 20.475 1019.48 25.075 1020.08 25.075C1020.68 25.075 1021.08 20.275 1021.08 12.575V0.0750122L1018.38 0.175018C1016.68 0.275018 1016.28 0.475009 1017.38 0.775009Z" fill="black"/>
<path d="M1025.08 12.575C1025.08 20.275 1025.48 25.075 1026.08 25.075C1026.68 25.075 1027.08 20.475 1027.08 13.175C1027.08 2.67502 1027.28 1.17501 1028.88 0.775009C1029.88 0.475009 1029.48 0.275018 1027.88 0.175018L1025.08 0.0750122V12.575Z" fill="black"/>
<path d="M1031.08 12.575C1031.08 20.275 1031.48 25.075 1032.08 25.075C1032.68 25.075 1033.08 20.475 1033.08 13.175C1033.08 2.67502 1033.28 1.17501 1034.88 0.775009C1035.88 0.475009 1035.48 0.275018 1033.88 0.175018L1031.08 0.0750122V12.575Z" fill="black"/>
<path d="M1037.58 18.575C1037.58 28.775 1037.88 37.075 1038.38 37.075C1038.78 37.075 1039.08 28.975 1039.08 19.175C1039.08 2.87501 1039.28 1.17501 1040.88 0.775009C1041.98 0.475009 1041.78 0.275018 1040.08 0.175018L1037.58 0.0750122V18.575Z" fill="black"/>
<path d="M1043.88 8.77503C1044.38 24.675 1044.68 25.775 1045.08 12.775C1045.38 4.67502 1045.18 0.0750294 1044.58 0.0750294C1043.98 0.0750294 1043.68 3.47503 1043.88 8.77503Z" fill="black"/>
<path d="M1048.27 0.775009C1049.77 1.17501 1050.07 2.87502 1050.27 13.375L1050.58 25.575L1051.08 12.775L1051.58 0.0750122L1049.08 0.175018C1047.48 0.275018 1047.17 0.475009 1048.27 0.775009Z" fill="black"/>
<path d="M1054.38 0.775009C1055.88 1.17501 1056.08 2.67502 1056.08 13.175C1056.08 20.475 1056.48 25.075 1057.08 25.075C1057.68 25.075 1058.08 20.275 1058.08 12.575V0.0750122L1055.38 0.175018C1053.68 0.275018 1053.28 0.475009 1054.38 0.775009Z" fill="black"/>
<path d="M1060.38 0.775009C1061.88 1.17501 1062.08 2.67502 1062.08 13.175C1062.08 20.475 1062.48 25.075 1063.08 25.075C1063.68 25.075 1064.08 20.275 1064.08 12.575V0.0750122L1061.38 0.175018C1059.68 0.275018 1059.28 0.475009 1060.38 0.775009Z" fill="black"/>
<path d="M1068.08 24.575C1068.08 40.275 1068.48 49.075 1069.08 49.075C1069.68 49.075 1070.08 40.275 1070.08 24.575C1070.08 8.87501 1069.68 0.0750122 1069.08 0.0750122C1068.48 0.0750122 1068.08 8.87501 1068.08 24.575Z" fill="black"/>
<path d="M1074.08 12.575C1074.08 20.275 1074.48 25.075 1075.08 25.075C1075.68 25.075 1076.08 20.475 1076.08 13.175C1076.08 2.67502 1076.28 1.17501 1077.88 0.775009C1078.88 0.475009 1078.48 0.275018 1076.88 0.175018L1074.08 0.0750122V12.575Z" fill="black"/>
<path d="M1080.17 11.975C1080.07 19.275 1080.38 24.175 1081.08 24.575C1081.78 24.975 1082.08 21.275 1082.08 13.175C1082.08 2.67502 1082.28 1.17501 1083.88 0.775011C1084.98 0.475011 1084.58 0.27502 1082.98 0.17502L1080.27 0.0750141L1080.17 11.975Z" fill="black"/>
<path d="M1087.08 12.775L1087.58 25.575L1087.88 13.275C1088.18 1.07501 1088.18 1.07501 1090.58 1.07501C1092.98 1.07501 1092.98 1.07501 1093.28 13.275L1093.58 25.575L1094.08 12.775L1094.58 0.0750122H1090.58H1086.58L1087.08 12.775Z" fill="black"/>
<path d="M1097.38 0.775009C1098.88 1.17501 1099.08 2.87501 1099.08 19.175C1099.08 30.475 1099.48 37.075 1100.08 37.075C1100.68 37.075 1101.08 30.275 1101.08 18.575V0.0750122L1098.38 0.175018C1096.68 0.275018 1096.28 0.475009 1097.38 0.775009Z" fill="black"/>
<path d="M1103.38 0.775009C1104.88 1.17501 1105.08 2.67502 1105.08 13.175C1105.08 20.475 1105.48 25.075 1106.08 25.075C1106.68 25.075 1107.08 20.275 1107.08 12.575V0.0750122L1104.38 0.175018C1102.68 0.275018 1102.28 0.475009 1103.38 0.775009Z" fill="black"/>
<path d="M1111.08 12.575C1111.08 20.275 1111.48 25.075 1112.08 25.075C1112.68 25.075 1113.08 20.275 1113.08 12.575C1113.08 4.87501 1112.68 0.0750122 1112.08 0.0750122C1111.48 0.0750122 1111.08 4.87501 1111.08 12.575Z" fill="black"/>
<path d="M1117.08 12.575C1117.08 20.275 1117.48 25.075 1118.08 25.075C1118.68 25.075 1119.08 20.475 1119.08 13.175C1119.08 2.67502 1119.28 1.17501 1120.88 0.775009C1121.88 0.475009 1121.48 0.275018 1119.88 0.175018L1117.08 0.0750122V12.575Z" fill="black"/>
<path d="M1123.08 12.575C1123.08 20.275 1123.48 25.075 1124.08 25.075C1124.68 25.075 1125.08 20.475 1125.08 13.175C1125.08 2.67502 1125.28 1.17501 1126.88 0.775009C1127.88 0.475009 1127.48 0.275018 1125.88 0.175018L1123.08 0.0750122V12.575Z" fill="black"/>
<path d="M1130.08 25.275L1130.58 50.575L1130.88 25.875C1131.08 3.47502 1131.28 1.17501 1132.88 0.775009C1133.98 0.475009 1133.78 0.275018 1132.08 0.175018L1129.58 0.0750122L1130.08 25.275Z" fill="black"/>
<path d="M1135.88 8.77503C1136.38 24.675 1136.68 25.775 1137.08 12.775C1137.38 4.67502 1137.18 0.0750294 1136.58 0.0750294C1135.98 0.0750294 1135.68 3.47503 1135.88 8.77503Z" fill="black"/>
<path d="M1140.38 0.775009C1141.88 1.17501 1142.08 2.67502 1142.08 13.175C1142.08 20.475 1142.48 25.075 1143.08 25.075C1143.68 25.075 1144.08 20.275 1144.08 12.575V0.0750122L1141.38 0.175018C1139.68 0.275018 1139.28 0.475009 1140.38 0.775009Z" fill="black"/>
<path d="M1146.38 0.775009C1147.88 1.17501 1148.08 2.67502 1148.08 13.175C1148.08 20.475 1148.48 25.075 1149.08 25.075C1149.68 25.075 1150.08 20.275 1150.08 12.575V0.0750122L1147.38 0.175018C1145.68 0.275018 1145.28 0.475009 1146.38 0.775009Z" fill="black"/>
<path d="M1154.08 12.575C1154.08 20.275 1154.48 25.075 1155.08 25.075C1155.68 25.075 1156.08 20.275 1156.08 12.575C1156.08 4.87501 1155.68 0.0750122 1155.08 0.0750122C1154.48 0.0750122 1154.08 4.87501 1154.08 12.575Z" fill="black"/>
<path d="M1160.08 18.575C1160.08 30.275 1160.48 37.075 1161.08 37.075C1161.68 37.075 1162.08 30.275 1162.08 18.575C1162.08 6.87501 1161.68 0.0750122 1161.08 0.0750122C1160.48 0.0750122 1160.08 6.87501 1160.08 18.575Z" fill="black"/>
<path d="M1166.08 12.575C1166.08 20.275 1166.48 25.075 1167.08 25.075C1167.68 25.075 1168.08 20.475 1168.08 13.175C1168.08 2.67502 1168.28 1.17501 1169.88 0.775009C1170.88 0.475009 1170.48 0.275018 1168.88 0.175018L1166.08 0.0750122V12.575Z" fill="black"/>
<path d="M1173.08 12.775L1173.58 25.575L1173.88 13.375C1174.08 2.87502 1174.38 1.17501 1175.88 0.775009C1176.98 0.475009 1176.68 0.275018 1175.08 0.175018L1172.58 0.0750122L1173.08 12.775Z" fill="black"/>
<path d="M1178.88 8.77503C1179.38 24.675 1179.68 25.775 1180.08 12.775C1180.38 4.67502 1180.18 0.0750294 1179.58 0.0750294C1178.98 0.0750294 1178.68 3.47503 1178.88 8.77503Z" fill="black"/>
<path d="M1183.38 0.774975C1184.88 1.17497 1185.07 2.67498 1185.27 13.375C1185.37 26.675 1185.87 25.175 1186.27 9.77498L1186.58 0.0749779L1184.08 0.174984C1182.38 0.274984 1182.18 0.474975 1183.38 0.774975Z" fill="black"/>
<path d="M1189.38 0.775024C1190.98 1.17502 1191.08 3.27503 1191.08 25.675C1191.08 41.775 1191.38 49.975 1192.08 49.575C1192.68 49.175 1193.08 39.775 1193.08 24.475V0.0750275L1190.38 0.175034C1188.68 0.275034 1188.28 0.475024 1189.38 0.775024Z" fill="black"/>
<path d="M1197.08 12.575C1197.08 20.275 1197.48 25.075 1198.08 25.075C1198.68 25.075 1199.08 20.275 1199.08 12.575C1199.08 4.87501 1198.68 0.0750122 1198.08 0.0750122C1197.48 0.0750122 1197.08 4.87501 1197.08 12.575Z" fill="black"/>
<path d="M1203.08 12.575C1203.08 20.275 1203.48 25.075 1204.08 25.075C1204.68 25.075 1205.08 20.475 1205.08 13.175C1205.08 2.67502 1205.28 1.17501 1206.88 0.775009C1207.88 0.475009 1207.48 0.275018 1205.88 0.175018L1203.08 0.0750122V12.575Z" fill="black"/>
<path d="M1209.08 12.575C1209.08 20.275 1209.48 25.075 1210.08 25.075C1210.68 25.075 1211.08 20.475 1211.08 13.175C1211.08 2.67502 1211.28 1.17501 1212.88 0.775009C1213.88 0.475009 1213.48 0.275018 1211.88 0.175018L1209.08 0.0750122V12.575Z" fill="black"/>
<path d="M1216.08 12.775L1216.58 25.575L1216.88 13.375C1217.08 2.87502 1217.38 1.17501 1218.88 0.775009C1219.98 0.475009 1219.68 0.275018 1218.08 0.175018L1215.58 0.0750122L1216.08 12.775Z" fill="black"/>
<path d="M1222.08 18.775C1222.48 37.475 1222.78 35.875 1223.28 12.275C1223.48 4.67498 1223.18 0.0749836 1222.58 0.0749836C1221.98 0.0749836 1221.78 6.67498 1222.08 18.775Z" fill="black"/>
<path d="M1226.38 0.774975C1227.88 1.17497 1228.07 2.67498 1228.27 13.375C1228.37 26.675 1228.87 25.175 1229.27 9.77498L1229.58 0.0749779L1227.08 0.174984C1225.38 0.274984 1225.18 0.474975 1226.38 0.774975Z" fill="black"/>
<path d="M1232.38 0.775009C1233.88 1.17501 1234.08 2.67502 1234.08 13.175C1234.08 20.475 1234.48 25.075 1235.08 25.075C1235.68 25.075 1236.08 20.275 1236.08 12.575V0.0750122L1233.38 0.175018C1231.68 0.275018 1231.28 0.475009 1232.38 0.775009Z" fill="black"/>
<path d="M1240.08 12.575C1240.08 20.275 1240.48 25.075 1241.08 25.075C1241.68 25.075 1242.08 20.275 1242.08 12.575C1242.08 4.87501 1241.68 0.0750122 1241.08 0.0750122C1240.48 0.0750122 1240.08 4.87501 1240.08 12.575Z" fill="black"/>
<path d="M1246.08 12.575C1246.08 20.275 1246.48 25.075 1247.08 25.075C1247.68 25.075 1248.08 20.475 1248.08 13.175C1248.08 2.67502 1248.28 1.17501 1249.88 0.775009C1250.88 0.475009 1250.48 0.275018 1248.88 0.175018L1246.08 0.0750122V12.575Z" fill="black"/>
<path d="M1252.08 24.475C1252.08 39.775 1252.48 49.175 1253.08 49.575C1253.78 49.975 1254.08 41.775 1254.08 25.675V1.17503L1264.38 0.775024L1274.58 0.475021L1263.38 0.275024L1252.08 0.0750275V24.475Z" fill="black"/>
<path d="M2.07502 2.57505C1.37502 3.47505 0.975019 4.27505 1.17502 4.57505C1.47502 4.77505 2.17502 4.07505 2.87502 3.07505C4.27502 0.675047 3.87502 0.475047 2.07502 2.57505Z" fill="black"/>
<path d="M1277.58 73.075C1277.58 111.275 1277.68 126.975 1277.78 107.775C1277.98 88.675 1277.98 57.475 1277.78 38.275C1277.68 19.175 1277.58 34.875 1277.58 73.075Z" fill="black"/>
<path d="M1210.18 48.675C1207.78 51.775 1207.48 56.275 1209.48 57.975C1211.28 59.475 1217.28 58.975 1217.78 57.375C1218.08 56.575 1217.18 56.375 1214.68 56.775C1210.38 57.475 1208.98 55.175 1211.18 51.175C1212.38 49.175 1213.38 48.675 1215.38 48.875C1218.28 49.175 1219.08 47.675 1216.48 46.675C1213.68 45.575 1212.28 46.075 1210.18 48.675Z" fill="black"/>
<path d="M1221.08 52.575C1221.08 56.275 1221.48 59.075 1222.08 59.075C1222.68 59.075 1223.08 57.575 1223.08 55.775C1223.08 53.775 1223.88 51.675 1224.98 50.675C1226.68 49.075 1226.88 49.175 1227.48 52.175C1227.78 53.875 1228.08 56.375 1228.08 57.675C1228.08 62.475 1229.98 59.975 1230.28 54.875C1230.48 50.875 1230.98 49.475 1232.18 49.275C1233.48 49.075 1233.98 50.075 1234.58 53.975C1235.48 60.375 1237.08 61.675 1236.98 55.875C1236.78 47.775 1236.08 46.575 1231.08 46.475C1228.38 46.375 1225.88 46.975 1224.88 47.875C1223.28 49.275 1223.08 49.175 1223.08 47.775C1223.08 46.775 1222.68 46.075 1222.08 46.075C1221.48 46.075 1221.08 48.875 1221.08 52.575Z" fill="black"/>
<path d="M60.0751 62.175C61.4751 62.775 63.4751 63.975 64.5751 64.875C65.7751 65.775 65.3751 65.375 63.8751 63.775C62.2751 62.275 60.2751 61.075 59.2751 61.175C58.0751 61.175 58.3751 61.475 60.0751 62.175Z" fill="black"/>
<path d="M46.6751 65.175C45.2751 66.875 44.0751 68.775 44.0751 69.375C44.0751 70.075 44.9751 69.175 45.9751 67.375C47.0751 65.675 48.7751 63.775 49.7751 63.175C50.7751 62.575 51.0751 62.075 50.3751 62.075C49.7751 62.075 48.0751 63.475 46.6751 65.175Z" fill="black"/>
<path d="M84.7751 63.875C82.6751 66.175 82.6751 67.075 84.5751 67.075C85.7751 67.075 86.0751 68.475 86.0751 73.575C86.0751 78.675 85.7751 80.075 84.5751 80.075C83.7751 80.075 83.0751 80.475 83.0751 81.075C83.0751 81.575 84.8751 82.075 87.0751 82.075C89.2751 82.075 91.0751 81.575 91.0751 81.075C91.0751 80.475 90.6751 80.075 90.0751 80.075C89.4751 80.075 89.0751 76.375 89.0751 71.075C89.0751 61.575 88.1751 60.075 84.7751 63.875Z" fill="black"/>
<path d="M143.975 63.975C140.975 66.475 141.775 67.375 145.775 65.875C149.675 64.375 152.075 65.275 151.375 67.975C151.075 69.175 150.475 70.075 150.075 70.075C147.975 70.075 142.075 76.975 142.075 79.475C142.075 81.975 142.175 82.075 148.675 82.075C154.675 82.075 155.175 81.875 153.975 80.475C152.975 79.275 151.675 79.075 148.875 79.475C143.675 80.375 143.875 78.275 149.575 73.675C154.275 69.775 155.475 65.875 152.875 63.275C151.075 61.475 146.575 61.875 143.975 63.975Z" fill="black"/>
<path d="M205.875 63.175C202.775 64.975 203.875 66.175 207.975 65.475C210.375 65.075 212.075 65.275 212.575 65.975C213.475 67.575 211.275 70.075 208.975 70.075C206.375 70.075 206.575 72.875 209.175 73.275C211.875 73.675 213.575 76.275 212.775 78.475C212.075 80.275 206.075 80.775 206.075 79.075C206.075 78.475 205.375 78.075 204.575 78.075C202.375 78.075 202.775 79.775 205.275 81.475C208.475 83.675 211.375 83.475 213.875 80.775C216.475 78.075 216.575 76.275 214.575 73.375C213.575 71.975 213.375 70.975 214.075 70.575C214.575 70.275 215.075 68.675 215.075 67.075C215.075 62.775 210.075 60.675 205.875 63.175Z" fill="black"/>
<path d="M267.675 68.575C265.175 72.175 263.075 75.375 263.075 75.575C263.075 75.775 265.175 76.075 267.775 76.275C272.175 76.575 272.575 76.775 273.075 79.575C273.775 83.575 275.475 83.375 275.875 79.275C276.075 77.075 276.675 76.075 277.875 76.075C279.475 75.975 279.475 75.875 277.875 74.675C276.475 73.675 276.075 71.875 276.075 67.675C276.075 59.775 273.675 59.975 267.675 68.575ZM273.075 70.075C273.075 73.675 272.875 74.075 270.575 74.075C269.175 74.075 268.075 73.875 268.075 73.675C268.075 72.875 272.275 66.075 272.675 66.075C272.875 66.075 273.075 67.875 273.075 70.075Z" fill="black"/>
<path d="M326.075 68.075C326.075 74.475 326.675 75.275 329.575 72.075C333.075 68.175 337.975 71.175 336.675 76.475C335.775 80.275 331.675 81.975 329.175 79.675C327.875 78.475 327.075 78.275 326.575 79.075C324.675 82.075 331.775 84.375 336.075 82.075C339.575 80.175 340.575 72.875 337.775 69.275C337.275 68.675 335.075 68.075 332.975 68.075C330.175 68.075 329.075 67.675 329.075 66.575C329.075 65.575 330.075 65.075 332.475 65.075C336.475 65.075 339.075 64.275 339.075 62.975C339.075 62.475 336.175 62.075 332.575 62.075H326.075V68.075Z" fill="black"/>
<path d="M390.475 65.575C386.975 70.275 385.975 78.175 388.575 81.075C390.875 83.575 396.175 83.675 398.375 81.275C400.275 79.175 400.575 74.875 399.075 71.975C398.275 70.675 396.975 70.075 394.575 70.075C390.375 70.075 390.175 69.275 393.575 66.075C396.375 63.375 396.775 62.075 394.675 62.075C393.875 62.075 391.975 63.675 390.475 65.575ZM396.575 73.675C397.575 74.675 397.875 76.075 397.475 77.475C396.075 81.975 392.275 82.075 390.175 77.675C388.975 75.075 388.975 74.575 390.675 73.375C393.075 71.675 394.575 71.775 396.575 73.675Z" fill="black"/>
<path d="M448.075 63.575C448.075 64.675 449.275 65.075 453.075 65.075C455.875 65.075 458.075 65.175 458.075 65.275C457.975 65.475 456.275 69.175 454.075 73.575C451.975 77.975 450.575 81.975 451.075 82.475C452.075 83.475 454.075 82.375 454.075 80.775C454.075 78.675 459.075 68.675 461.275 66.375C464.275 63.175 462.775 62.075 454.975 62.075C449.475 62.075 448.075 62.375 448.075 63.575Z" fill="black"/>
<path d="M512.075 64.075C509.775 66.375 509.675 67.375 511.175 70.275C511.975 71.675 511.975 72.575 511.175 73.375C509.275 75.275 509.875 80.875 511.975 82.075C514.975 83.675 519.575 83.275 521.375 81.275C523.475 78.975 523.575 74.675 521.575 73.075C520.475 72.175 520.275 71.475 521.075 70.675C521.575 70.175 522.075 68.475 522.075 66.875C522.075 62.175 515.775 60.375 512.075 64.075ZM518.975 65.875C520.175 68.075 518.675 70.075 515.875 70.075C513.475 70.075 512.475 67.475 514.075 65.575C515.775 63.575 517.775 63.675 518.975 65.875ZM518.875 74.275C522.375 77.775 518.475 82.475 514.075 80.075C511.675 78.775 511.475 76.775 513.675 74.675C515.575 72.775 517.275 72.675 518.875 74.275Z" fill="black"/>
<path d="M573.075 64.075C568.775 68.375 571.675 75.075 577.875 75.075C582.075 75.075 581.175 77.475 575.875 80.175C571.575 82.375 571.475 84.575 575.875 82.975C586.775 78.775 588.575 62.075 578.075 62.075C576.375 62.075 574.175 62.975 573.075 64.075ZM580.875 65.275C584.375 68.775 579.375 75.175 575.575 72.075C572.575 69.575 574.375 64.075 578.075 64.075C578.975 64.075 580.175 64.575 580.875 65.275Z" fill="black"/>
<path d="M692.175 63.975C690.575 65.175 690.175 66.075 690.975 66.475C691.575 66.875 692.575 66.875 693.075 66.575C693.775 66.175 693.975 68.375 693.875 72.975C693.575 78.975 693.275 80.075 691.875 80.075C690.875 80.075 690.075 80.475 690.075 81.075C690.075 81.575 692.075 82.075 694.575 82.075C699.075 82.075 700.575 80.875 697.475 79.675C696.175 79.175 695.975 77.875 696.575 70.575C697.375 61.275 696.775 60.375 692.175 63.975Z" fill="black"/>
<path d="M704.775 63.875C702.475 66.375 702.675 67.375 705.175 66.775C706.675 66.375 707.075 66.575 706.675 67.775C706.375 68.575 706.075 71.675 706.075 74.675C706.075 78.775 705.675 80.075 704.575 80.075C703.775 80.075 703.075 80.475 703.075 81.075C703.075 81.575 704.875 82.075 707.075 82.075C709.275 82.075 711.075 81.575 711.075 81.075C711.075 80.475 710.675 80.075 710.075 80.075C709.475 80.075 709.075 76.375 709.075 71.075C709.075 61.575 708.175 60.075 704.775 63.875Z" fill="black"/>
<path d="M751.775 63.875C749.675 66.175 749.575 67.475 751.575 66.675C752.775 66.275 753.075 67.275 753.075 73.075C753.075 78.675 752.775 80.075 751.575 80.075C750.775 80.075 750.075 80.475 750.075 81.075C750.075 81.575 751.875 82.075 754.075 82.075C757.875 82.075 759.575 80.775 756.875 79.875C756.075 79.575 755.775 76.775 755.975 70.775C756.175 61.475 755.275 59.975 751.775 63.875Z" fill="black"/>
<path d="M763.975 63.975C761.075 66.275 762.175 67.875 765.475 66.175C770.675 63.375 773.975 66.675 769.575 70.375C763.575 75.275 762.075 77.075 762.075 79.575C762.075 81.975 762.275 82.075 768.575 82.075C772.175 82.075 775.075 81.675 775.075 81.175C775.075 79.675 771.375 78.875 768.075 79.575C763.675 80.575 764.175 77.675 769.075 74.275C771.175 72.775 773.375 70.375 773.975 68.875C776.075 63.175 769.175 59.775 763.975 63.975Z" fill="black"/>
<path d="M812.775 63.875C810.475 66.375 810.675 67.375 813.175 66.775C815.075 66.275 815.275 66.475 814.675 69.275C814.375 70.975 814.075 74.075 814.075 76.175C814.075 78.975 813.675 80.075 812.575 80.075C811.775 80.075 811.075 80.475 811.075 81.075C811.075 81.575 813.075 82.075 815.575 82.075C818.075 82.075 820.075 81.575 820.075 81.075C820.075 80.475 819.375 80.075 818.575 80.075C817.375 80.075 817.075 78.375 817.075 71.075C817.075 61.575 816.175 60.075 812.775 63.875Z" fill="black"/>
<path d="M825.875 63.175C822.775 64.975 823.875 66.175 827.975 65.475C830.375 65.075 832.075 65.275 832.575 65.975C833.475 67.575 831.275 70.075 828.975 70.075C827.875 70.075 827.075 70.775 827.075 71.575C827.075 72.375 827.875 73.075 828.975 73.075C832.975 73.075 834.575 79.175 830.675 79.875C829.675 80.075 827.775 79.675 826.475 78.975C825.175 78.275 823.775 78.075 823.375 78.475C822.175 79.675 826.975 83.075 829.675 83.075C834.675 83.075 838.075 75.975 834.575 73.075C833.475 72.175 833.275 71.475 834.075 70.675C834.575 70.175 835.075 68.475 835.075 66.875C835.075 62.775 830.075 60.675 825.875 63.175Z" fill="black"/>
<path d="M874.875 63.475C872.675 65.075 872.475 67.475 874.575 66.675C875.875 66.175 876.075 67.275 875.875 73.075C875.775 78.975 875.475 80.075 873.675 80.675C872.075 81.275 872.575 81.475 875.975 81.775C880.775 82.275 882.475 81.475 879.775 79.875C878.175 79.075 878.075 77.975 878.675 70.475C879.375 61.575 878.775 60.475 874.875 63.475Z" fill="black"/>
<path d="M887.975 68.275C885.575 71.775 883.475 74.875 883.275 75.275C883.075 75.675 885.075 76.075 887.775 76.275C892.275 76.575 892.575 76.775 893.075 79.575C893.775 83.575 895.475 83.375 895.875 79.275C896.075 77.075 896.675 76.075 897.875 76.075C899.475 75.975 899.475 75.875 897.875 74.675C896.475 73.675 896.075 71.875 896.075 67.675C896.075 59.975 893.875 60.075 887.975 68.275ZM893.075 70.075C893.075 73.675 892.875 74.075 890.575 74.075C889.175 74.075 888.075 73.875 888.075 73.575C888.075 72.975 892.475 66.075 892.875 66.075C892.975 66.075 893.075 67.875 893.075 70.075Z" fill="black"/>
<path d="M935.775 63.875C933.675 66.175 933.575 67.475 935.575 66.675C936.775 66.275 937.075 67.275 937.075 73.075C937.075 78.675 936.775 80.075 935.575 80.075C934.775 80.075 934.075 80.475 934.075 81.075C934.075 81.575 935.875 82.075 938.075 82.075C940.275 82.075 942.075 81.575 942.075 81.075C942.075 80.475 941.675 80.075 941.075 80.075C940.475 80.075 940.075 76.375 940.075 71.075C940.075 61.575 939.175 60.075 935.775 63.875Z" fill="black"/>
<path d="M946.275 68.075C945.975 74.475 946.675 75.275 949.575 72.075C953.075 68.175 957.975 71.175 956.675 76.475C955.775 80.275 951.675 81.975 949.175 79.675C947.875 78.475 947.075 78.275 946.575 79.075C944.675 82.175 951.775 84.375 956.075 82.075C958.975 80.475 960.475 74.775 958.875 71.375C957.775 69.075 956.775 68.475 953.275 68.275C947.975 67.875 947.175 65.075 952.475 65.075C956.475 65.075 959.075 64.275 959.075 62.975C959.075 62.475 956.275 62.075 952.775 62.075H946.475L946.275 68.075Z" fill="black"/>
<path d="M997.275 63.675C994.475 65.575 994.375 67.475 997.175 66.775C999.175 66.275 999.275 66.475 998.675 70.775C998.375 73.275 998.075 76.375 998.075 77.675C998.075 79.175 997.475 80.075 996.575 80.075C995.775 80.075 995.075 80.475 995.075 81.075C995.075 81.575 997.075 82.075 999.575 82.075C1002.08 82.075 1004.08 81.575 1004.08 81.075C1004.08 80.475 1003.38 80.075 1002.48 80.075C1000.98 80.075 1000.88 79.075 1001.48 71.075C1002.18 61.375 1001.78 60.475 997.275 63.675Z" fill="black"/>
<path d="M1012.98 63.375C1010.08 65.575 1007.08 71.475 1007.08 75.075C1007.08 80.175 1009.48 83.075 1013.48 83.075C1017.68 83.075 1020.08 80.475 1020.08 75.975C1020.08 71.575 1018.58 70.075 1014.38 70.075C1010.38 70.075 1010.28 69.175 1013.58 66.075C1017.18 62.675 1016.68 60.475 1012.98 63.375ZM1016.58 73.475C1018.18 74.675 1018.38 75.375 1017.58 77.675C1015.78 82.875 1010.08 81.575 1010.08 76.075C1010.08 72.175 1013.18 70.975 1016.58 73.475Z" fill="black"/>
<path d="M1058.78 63.875C1056.68 66.175 1056.58 67.475 1058.58 66.675C1059.78 66.275 1060.08 67.275 1060.08 73.075C1060.08 78.675 1059.78 80.075 1058.58 80.075C1057.78 80.075 1057.08 80.475 1057.08 81.075C1057.08 81.575 1058.88 82.075 1061.08 82.075C1065.08 82.075 1066.38 80.775 1063.58 79.675C1062.28 79.275 1062.18 77.675 1062.68 70.575C1063.28 63.375 1063.18 62.075 1061.88 62.075C1061.08 62.075 1059.68 62.875 1058.78 63.875Z" fill="black"/>
<path d="M1068.08 63.575C1068.08 64.675 1069.28 65.075 1073.18 65.075C1075.98 65.075 1078.08 65.375 1077.88 65.775C1074.68 71.975 1071.08 80.375 1071.08 81.575C1071.08 83.675 1072.98 83.475 1073.78 81.275C1075.48 76.275 1079.48 68.275 1081.28 66.375C1084.28 63.175 1082.78 62.075 1074.98 62.075C1069.48 62.075 1068.08 62.375 1068.08 63.575Z" fill="black"/>
<path d="M1119.78 63.875C1117.48 66.375 1117.68 67.375 1120.18 66.775C1121.98 66.275 1122.18 66.575 1121.68 68.375C1121.38 69.575 1121.08 72.675 1121.08 75.275C1121.08 78.875 1120.68 80.075 1119.58 80.075C1118.78 80.075 1118.08 80.475 1118.08 81.075C1118.08 81.575 1120.18 82.075 1122.88 82.075C1126.98 81.975 1127.38 81.875 1125.88 80.675C1124.38 79.575 1124.08 77.775 1124.08 70.675C1124.08 61.575 1123.18 60.075 1119.78 63.875Z" fill="black"/>
<path d="M1132.58 63.775C1131.38 64.975 1130.98 66.475 1131.38 69.275C1131.68 71.375 1131.48 73.375 1130.98 73.675C1129.38 74.575 1129.98 79.675 1131.88 81.375C1134.38 83.575 1139.38 83.475 1141.38 81.275C1143.48 78.975 1143.58 74.675 1141.58 73.075C1140.48 72.175 1140.28 71.475 1141.08 70.675C1142.48 69.275 1142.38 64.775 1140.88 63.275C1139.18 61.575 1134.48 61.775 1132.58 63.775ZM1138.98 65.475C1140.68 67.475 1139.18 70.075 1136.48 70.075C1133.58 70.075 1132.38 67.675 1134.08 65.575C1135.68 63.675 1137.48 63.675 1138.98 65.475ZM1139.48 74.675C1140.38 75.475 1141.08 76.575 1141.08 77.075C1141.08 78.375 1138.08 81.075 1136.58 81.075C1134.58 81.075 1131.97 78.075 1132.67 76.775C1135.07 72.675 1136.98 72.075 1139.48 74.675Z" fill="black"/>
<path d="M1181.38 63.775C1178.48 65.675 1178.38 67.475 1181.08 66.775C1183.08 66.275 1183.08 66.575 1182.68 72.875C1182.38 77.975 1181.88 79.675 1180.68 79.875C1177.28 80.575 1179.28 82.075 1183.58 82.075C1188.08 82.075 1189.58 80.875 1186.48 79.675C1185.18 79.175 1184.98 77.875 1185.58 70.575C1186.38 61.375 1185.88 60.575 1181.38 63.775Z" fill="black"/>
<path d="M1193.08 64.075C1188.78 68.375 1191.68 75.075 1197.88 75.075C1202.08 75.075 1201.18 77.475 1195.88 80.175C1191.58 82.375 1191.48 84.575 1195.88 82.975C1199.78 81.575 1201.58 79.975 1203.38 76.375C1207.08 69.275 1204.38 62.075 1198.08 62.075C1196.38 62.075 1194.18 62.975 1193.08 64.075ZM1200.88 65.275C1204.38 68.775 1199.38 75.175 1195.58 72.075C1192.58 69.575 1194.38 64.075 1198.08 64.075C1198.98 64.075 1200.18 64.575 1200.88 65.275Z" fill="black"/>
<path d="M22.4751 64.075C18.7751 65.575 17.0751 69.075 17.0751 75.375C17.0751 81.475 18.8751 86.375 21.5751 87.475C25.0751 88.775 28.7751 88.075 31.1751 85.475C33.2751 83.275 33.5751 81.975 33.5751 75.375C33.5751 68.375 33.3751 67.775 30.7751 65.475C27.7751 62.975 25.9751 62.675 22.4751 64.075ZM28.4751 67.375C30.9751 69.275 31.6751 76.675 29.7751 81.375C28.5751 84.275 27.5751 85.075 25.6751 85.075C22.0751 85.075 20.0751 81.575 20.0751 75.375C20.0751 67.775 23.9751 64.075 28.4751 67.375Z" fill="black"/>
<path d="M627.875 65.175C624.575 67.675 624.075 70.575 627.075 69.575C628.975 68.975 629.075 69.275 628.675 76.775C628.275 82.775 627.775 84.675 626.675 84.875C623.175 85.675 625.375 87.075 630.075 87.075C635.175 87.075 636.475 85.975 633.375 84.275C631.975 83.475 631.775 81.775 631.975 73.175C632.075 67.675 631.775 63.075 631.375 63.075C630.975 63.075 629.375 64.075 627.875 65.175Z" fill="black"/>
<path d="M643.375 64.075C637.675 66.375 636.175 80.275 641.075 85.575C644.475 89.175 649.175 88.975 652.475 84.975C654.675 82.375 655.075 80.975 655.075 75.375C655.075 69.575 654.775 68.675 652.175 65.975C649.175 62.975 647.175 62.575 643.375 64.075ZM650.475 68.275C652.375 70.975 652.575 78.575 650.775 82.075C649.975 83.575 648.475 84.675 646.875 84.875C643.275 85.275 641.075 81.875 641.075 75.975C641.075 67.975 646.975 63.175 650.475 68.275Z" fill="black"/>
<path d="M1240.48 65.475C1236.98 67.075 1235.68 68.575 1236.58 70.075C1236.98 70.775 1237.98 70.575 1239.38 69.575C1240.58 68.775 1242.78 68.075 1244.28 68.075C1246.58 68.075 1247.08 68.475 1247.08 70.575C1247.08 72.275 1245.88 73.875 1242.58 76.075C1237.58 79.475 1236.08 81.675 1236.08 85.475C1236.08 88.075 1236.18 88.075 1243.68 88.075C1249.28 88.075 1251.18 87.775 1250.88 86.775C1250.58 86.075 1248.18 85.475 1244.78 85.275C1241.68 85.075 1239.08 84.475 1239.08 83.975C1239.08 83.375 1240.28 81.975 1241.68 80.775C1251.08 72.975 1252.28 70.675 1249.38 67.275C1246.88 64.475 1244.18 63.875 1240.48 65.475Z" fill="black"/>
<path d="M1259.48 65.275C1256.98 66.475 1254.08 72.075 1254.08 75.875C1254.08 80.575 1256.08 85.975 1258.38 87.575C1263.98 91.475 1270.38 87.675 1271.58 79.575C1273.28 68.675 1267.18 61.475 1259.48 65.275ZM1265.48 67.675C1269.18 69.075 1269.38 81.175 1265.78 84.875C1263.08 87.575 1259.28 85.675 1257.98 80.875C1255.68 72.375 1259.58 65.475 1265.48 67.675Z" fill="black"/>
<path d="M68.275 73.075C68.275 74.475 68.475 74.975 68.775 74.275C68.975 73.675 68.975 72.475 68.775 71.775C68.475 71.175 68.275 71.675 68.275 73.075Z" fill="black"/>
<path d="M64.675 80.975L61.675 84.575L65.0751 81.375C66.9751 79.575 68.2751 77.975 67.9751 77.775C67.7751 77.575 66.275 78.975 64.675 80.975Z" fill="black"/>
<path d="M47.0751 81.575C48.3751 82.975 49.6751 84.075 49.8751 84.075C50.1751 84.075 49.3751 82.975 48.0751 81.575C46.7751 80.175 45.4751 79.075 45.2751 79.075C44.9751 79.075 45.7751 80.175 47.0751 81.575Z" fill="black"/>
<path d="M54.875 85.775C55.475 85.975 56.675 85.975 57.375 85.775C57.975 85.475 57.475 85.275 56.075 85.275C54.675 85.275 54.175 85.475 54.875 85.775Z" fill="black"/>
<path d="M1159.08 89.575C1157.68 94.575 1157.48 94.775 1154.98 92.475C1153.38 91.075 1152.97 91.475 1149.17 98.375C1142.57 110.475 1142.18 110.075 1161.08 110.075H1177.08V107.475C1177.08 106.075 1175.28 101.775 1172.98 97.875C1169.08 91.275 1168.78 90.975 1167.08 92.575C1165.08 94.375 1164.87 94.175 1163.17 88.775C1162.47 86.775 1161.57 85.075 1161.17 85.075C1160.67 85.075 1159.78 87.075 1159.08 89.575Z" fill="black"/>
<path d="M0.0750732 134.175C0.0750732 134.675 0.575073 134.875 1.07507 134.575C1.57507 134.275 2.07507 133.775 2.07507 133.475C2.07507 133.275 1.67507 133.075 1.07507 133.075C0.575073 133.075 0.0750732 133.575 0.0750732 134.175Z" fill="black"/>
<path d="M2.57512 144.075C3.57512 145.175 4.57512 146.075 4.87512 146.075C5.17512 146.075 4.57512 145.175 3.57512 144.075C2.57512 142.975 1.57512 142.075 1.27512 142.075C0.975124 142.075 1.57512 142.975 2.57512 144.075Z" fill="black"/>
</svg>
