<svg width="654" height="437" viewBox="0 0 654 437" fill="none" xmlns="http://www.w3.org/2000/svg">
<path d="M496.387 64.334H169.982V292.124H496.387V64.334Z" fill="#EDEDED" stroke="#9D9D9C" stroke-width="14" stroke-miterlimit="10"/>
<path d="M430.676 110.193H235.694V246.266H430.676V110.193Z" fill="#DADADA"/>
<path d="M593.38 49.2709C584.125 47.7929 574.882 50.3899 565.86 52.3029C557.217 54.1359 548.661 56.3419 540.233 58.9909C522.089 64.6929 504.014 73.1369 490.916 87.2839C490.223 88.0329 494.752 89.0049 495.531 88.7169C496.849 88.2279 498.211 87.8719 499.531 87.3839C499.664 87.3349 496.224 85.4669 494.916 85.9509C493.594 86.4399 492.238 86.7939 490.916 87.2839C492.454 87.7619 493.992 88.2389 495.531 88.7169C506.967 76.3649 522.092 68.5749 537.719 62.8429C545.979 59.8129 554.488 57.4869 563.04 55.4479C567.092 54.4819 571.168 53.6239 575.251 52.8009C581.478 51.5459 588.019 49.7109 594.399 50.7299C597.823 51.2769 595.187 49.5589 593.38 49.2709Z" fill="#DADADA"/>
<path d="M455.052 214.235C474.92 211.782 494.037 219.635 511.801 227.59C528.254 234.959 546.179 241.897 560.794 252.577C562.288 253.669 566.814 251.806 564.759 250.305C549.406 239.085 530.496 231.863 513.228 224.128C494.696 215.828 475.104 208.771 454.501 211.315C451.452 211.691 452.068 214.604 455.052 214.235Z" fill="#DADADA"/>
<path d="M34.5589 149.447C54.4269 146.994 73.5439 154.847 91.3079 162.802C107.761 170.171 125.686 177.109 140.301 187.789C141.795 188.881 146.321 187.018 144.266 185.517C128.913 174.297 110.003 167.075 92.7349 159.34C74.2029 151.04 54.6109 143.983 34.0079 146.527C30.9589 146.903 31.5749 149.816 34.5589 149.447Z" fill="#DADADA"/>
<path d="M603.77 52.9026C604.064 53.2986 604.385 53.5776 604.733 53.7396C605.087 53.9016 605.474 53.9826 605.894 53.9826C606.752 53.9826 607.409 53.6796 607.865 53.0736C608.321 52.4676 608.549 51.5646 608.549 50.3646C608.549 49.2486 608.345 48.4296 607.937 47.9076C607.535 47.3796 606.959 47.1156 606.209 47.1156C605.687 47.1156 605.231 47.2356 604.841 47.4756C604.457 47.7156 604.1 48.0546 603.77 48.4926V52.9026ZM603.77 47.2956C604.154 46.8516 604.586 46.4976 605.066 46.2336C605.552 45.9696 606.11 45.8376 606.74 45.8376C607.274 45.8376 607.754 45.9396 608.18 46.1436C608.612 46.3476 608.978 46.6446 609.278 47.0346C609.578 47.4186 609.806 47.8866 609.962 48.4386C610.124 48.9906 610.205 49.6116 610.205 50.3016C610.205 51.0396 610.115 51.7116 609.935 52.3176C609.755 52.9236 609.494 53.4426 609.152 53.8746C608.816 54.3006 608.405 54.6336 607.919 54.8736C607.433 55.1076 606.887 55.2246 606.281 55.2246C605.681 55.2246 605.174 55.1136 604.76 54.8916C604.352 54.6636 603.995 54.3426 603.689 53.9286L603.608 54.7566C603.56 54.9846 603.422 55.0986 603.194 55.0986H602.159V41.8416H603.77V47.2956ZM616.074 45.8376C616.74 45.8376 617.34 45.9486 617.874 46.1706C618.408 46.3926 618.864 46.7076 619.242 47.1156C619.62 47.5236 619.908 48.0186 620.106 48.6006C620.31 49.1766 620.412 49.8216 620.412 50.5356C620.412 51.2556 620.31 51.9036 620.106 52.4796C619.908 53.0556 619.62 53.5476 619.242 53.9556C618.864 54.3636 618.408 54.6786 617.874 54.9006C617.34 55.1166 616.74 55.2246 616.074 55.2246C615.402 55.2246 614.796 55.1166 614.256 54.9006C613.722 54.6786 613.266 54.3636 612.888 53.9556C612.51 53.5476 612.219 53.0556 612.015 52.4796C611.817 51.9036 611.718 51.2556 611.718 50.5356C611.718 49.8216 611.817 49.1766 612.015 48.6006C612.219 48.0186 612.51 47.5236 612.888 47.1156C613.266 46.7076 613.722 46.3926 614.256 46.1706C614.796 45.9486 615.402 45.8376 616.074 45.8376ZM616.074 53.9736C616.974 53.9736 617.646 53.6736 618.09 53.0736C618.534 52.4676 618.756 51.6246 618.756 50.5446C618.756 49.4586 618.534 48.6126 618.09 48.0066C617.646 47.4006 616.974 47.0976 616.074 47.0976C615.618 47.0976 615.219 47.1756 614.877 47.3316C614.541 47.4876 614.259 47.7126 614.031 48.0066C613.809 48.3006 613.641 48.6636 613.527 49.0956C613.419 49.5216 613.365 50.0046 613.365 50.5446C613.365 51.6246 613.587 52.4676 614.031 53.0736C614.481 53.6736 615.162 53.9736 616.074 53.9736ZM623.965 47.8086C624.253 47.1846 624.607 46.6986 625.027 46.3506C625.447 45.9966 625.96 45.8196 626.566 45.8196C626.758 45.8196 626.941 45.8406 627.115 45.8826C627.295 45.9246 627.454 45.9906 627.592 46.0806L627.475 47.2776C627.439 47.4276 627.349 47.5026 627.205 47.5026C627.121 47.5026 626.998 47.4846 626.836 47.4486C626.674 47.4126 626.491 47.3946 626.287 47.3946C625.999 47.3946 625.741 47.4366 625.513 47.5206C625.291 47.6046 625.09 47.7306 624.91 47.8986C624.736 48.0606 624.577 48.2646 624.433 48.5106C624.295 48.7506 624.169 49.0266 624.055 49.3386V55.0986H622.444V45.9816H623.362C623.536 45.9816 623.656 46.0146 623.722 46.0806C623.788 46.1466 623.833 46.2606 623.857 46.4226L623.965 47.8086ZM634.589 48.1506C634.289 47.7486 633.965 47.4696 633.617 47.3136C633.269 47.1516 632.879 47.0706 632.447 47.0706C631.601 47.0706 630.95 47.3736 630.494 47.9796C630.038 48.5856 629.81 49.4496 629.81 50.5716C629.81 51.1656 629.861 51.6756 629.963 52.1016C630.065 52.5216 630.215 52.8696 630.413 53.1456C630.611 53.4156 630.854 53.6136 631.142 53.7396C631.43 53.8656 631.757 53.9286 632.123 53.9286C632.651 53.9286 633.11 53.8086 633.5 53.5686C633.896 53.3286 634.259 52.9896 634.589 52.5516V48.1506ZM636.191 41.8416V55.0986H635.237C635.009 55.0986 634.865 54.9876 634.805 54.7656L634.661 53.6586C634.271 54.1266 633.827 54.5046 633.329 54.7926C632.831 55.0806 632.255 55.2246 631.601 55.2246C631.079 55.2246 630.605 55.1256 630.179 54.9276C629.753 54.7236 629.39 54.4266 629.09 54.0366C628.79 53.6466 628.559 53.1606 628.397 52.5786C628.235 51.9966 628.154 51.3276 628.154 50.5716C628.154 49.8996 628.244 49.2756 628.424 48.6996C628.604 48.1176 628.862 47.6136 629.198 47.1876C629.534 46.7616 629.945 46.4286 630.431 46.1886C630.923 45.9426 631.475 45.8196 632.087 45.8196C632.645 45.8196 633.122 45.9156 633.518 46.1076C633.92 46.2936 634.277 46.5546 634.589 46.8906V41.8416H636.191ZM644.823 49.5456C644.823 49.1736 644.769 48.8346 644.661 48.5286C644.559 48.2166 644.406 47.9496 644.202 47.7276C644.004 47.4996 643.761 47.3256 643.473 47.2056C643.185 47.0796 642.858 47.0166 642.492 47.0166C641.724 47.0166 641.115 47.2416 640.665 47.6916C640.221 48.1356 639.945 48.7536 639.837 49.5456H644.823ZM646.119 53.8206C645.921 54.0606 645.684 54.2706 645.408 54.4506C645.132 54.6246 644.835 54.7686 644.517 54.8826C644.205 54.9966 643.881 55.0806 643.545 55.1346C643.209 55.1946 642.876 55.2246 642.546 55.2246C641.916 55.2246 641.334 55.1196 640.8 54.9096C640.272 54.6936 639.813 54.3816 639.423 53.9736C639.039 53.5596 638.739 53.0496 638.523 52.4436C638.307 51.8376 638.199 51.1416 638.199 50.3556C638.199 49.7196 638.295 49.1256 638.487 48.5736C638.685 48.0216 638.967 47.5446 639.333 47.1426C639.699 46.7346 640.146 46.4166 640.674 46.1886C641.202 45.9546 641.796 45.8376 642.456 45.8376C643.002 45.8376 643.506 45.9306 643.968 46.1166C644.436 46.2966 644.838 46.5606 645.174 46.9086C645.516 47.2506 645.783 47.6766 645.975 48.1866C646.167 48.6906 646.263 49.2666 646.263 49.9146C646.263 50.1666 646.236 50.3346 646.182 50.4186C646.128 50.5026 646.026 50.5446 645.876 50.5446H639.783C639.801 51.1206 639.879 51.6216 640.017 52.0476C640.161 52.4736 640.359 52.8306 640.611 53.1186C640.863 53.4006 641.163 53.6136 641.511 53.7576C641.859 53.8956 642.249 53.9646 642.681 53.9646C643.083 53.9646 643.428 53.9196 643.716 53.8296C644.01 53.7336 644.262 53.6316 644.472 53.5236C644.682 53.4156 644.856 53.3166 644.994 53.2266C645.138 53.1306 645.261 53.0826 645.363 53.0826C645.495 53.0826 645.597 53.1336 645.669 53.2356L646.119 53.8206ZM649.752 47.8086C650.04 47.1846 650.394 46.6986 650.814 46.3506C651.234 45.9966 651.747 45.8196 652.353 45.8196C652.545 45.8196 652.728 45.8406 652.902 45.8826C653.082 45.9246 653.241 45.9906 653.379 46.0806L653.262 47.2776C653.226 47.4276 653.136 47.5026 652.992 47.5026C652.908 47.5026 652.785 47.4846 652.623 47.4486C652.461 47.4126 652.278 47.3946 652.074 47.3946C651.786 47.3946 651.528 47.4366 651.3 47.5206C651.078 47.6046 650.877 47.7306 650.697 47.8986C650.523 48.0606 650.364 48.2646 650.22 48.5106C650.082 48.7506 649.956 49.0266 649.842 49.3386V55.0986H648.231V45.9816H649.149C649.323 45.9816 649.443 46.0146 649.509 46.0806C649.575 46.1466 649.62 46.2606 649.644 46.4226L649.752 47.8086Z" fill="#9D9D9C"/>
<path d="M540.989 273.011C541.283 273.407 541.604 273.686 541.952 273.848C542.3 274.01 542.69 274.091 543.122 274.091C543.974 274.091 544.628 273.788 545.084 273.182C545.54 272.576 545.768 271.712 545.768 270.59C545.768 269.996 545.714 269.486 545.606 269.06C545.504 268.634 545.354 268.286 545.156 268.016C544.958 267.74 544.715 267.539 544.427 267.413C544.139 267.287 543.812 267.224 543.446 267.224C542.924 267.224 542.465 267.344 542.069 267.584C541.679 267.824 541.319 268.163 540.989 268.601V273.011ZM540.908 267.503C541.292 267.029 541.736 266.648 542.24 266.36C542.744 266.072 543.32 265.928 543.968 265.928C544.496 265.928 544.973 266.03 545.399 266.234C545.825 266.432 546.188 266.729 546.488 267.125C546.788 267.515 547.019 268.001 547.181 268.583C547.343 269.165 547.424 269.834 547.424 270.59C547.424 271.262 547.334 271.889 547.154 272.471C546.974 273.047 546.713 273.548 546.371 273.974C546.035 274.394 545.621 274.727 545.129 274.973C544.643 275.213 544.094 275.333 543.482 275.333C542.924 275.333 542.444 275.24 542.042 275.054C541.646 274.862 541.295 274.598 540.989 274.262V278.294H539.378V266.09H540.341C540.569 266.09 540.71 266.201 540.764 266.423L540.908 267.503ZM554.409 271.103C553.671 271.127 553.041 271.187 552.519 271.283C552.003 271.373 551.58 271.493 551.25 271.643C550.926 271.793 550.689 271.97 550.539 272.174C550.395 272.378 550.323 272.606 550.323 272.858C550.323 273.098 550.362 273.305 550.44 273.479C550.518 273.653 550.623 273.797 550.755 273.911C550.893 274.019 551.052 274.1 551.232 274.154C551.418 274.202 551.616 274.226 551.826 274.226C552.108 274.226 552.366 274.199 552.6 274.145C552.834 274.085 553.053 274.001 553.257 273.893C553.467 273.785 553.665 273.656 553.851 273.506C554.043 273.356 554.229 273.185 554.409 272.993V271.103ZM549.234 267.377C549.738 266.891 550.281 266.528 550.863 266.288C551.445 266.048 552.09 265.928 552.798 265.928C553.308 265.928 553.761 266.012 554.157 266.18C554.553 266.348 554.886 266.582 555.156 266.882C555.426 267.182 555.63 267.545 555.768 267.971C555.906 268.397 555.975 268.865 555.975 269.375V275.207H555.264C555.108 275.207 554.988 275.183 554.904 275.135C554.82 275.081 554.754 274.979 554.706 274.829L554.526 273.965C554.286 274.187 554.052 274.385 553.824 274.559C553.596 274.727 553.356 274.871 553.104 274.991C552.852 275.105 552.582 275.192 552.294 275.252C552.012 275.318 551.697 275.351 551.349 275.351C550.995 275.351 550.662 275.303 550.35 275.207C550.038 275.105 549.765 274.955 549.531 274.757C549.303 274.559 549.12 274.31 548.982 274.01C548.85 273.704 548.784 273.344 548.784 272.93C548.784 272.57 548.883 272.225 549.081 271.895C549.279 271.559 549.6 271.262 550.044 271.004C550.488 270.746 551.067 270.536 551.781 270.374C552.495 270.206 553.371 270.11 554.409 270.086V269.375C554.409 268.667 554.256 268.133 553.95 267.773C553.644 267.407 553.197 267.224 552.609 267.224C552.213 267.224 551.88 267.275 551.61 267.377C551.346 267.473 551.115 267.584 550.917 267.71C550.725 267.83 550.557 267.941 550.413 268.043C550.275 268.139 550.137 268.187 549.999 268.187C549.891 268.187 549.798 268.16 549.72 268.106C549.642 268.046 549.576 267.974 549.522 267.89L549.234 267.377ZM564.355 268.259C564.055 267.857 563.731 267.578 563.383 267.422C563.035 267.26 562.645 267.179 562.213 267.179C561.367 267.179 560.716 267.482 560.26 268.088C559.804 268.694 559.576 269.558 559.576 270.68C559.576 271.274 559.627 271.784 559.729 272.21C559.831 272.63 559.981 272.978 560.179 273.254C560.377 273.524 560.62 273.722 560.908 273.848C561.196 273.974 561.523 274.037 561.889 274.037C562.417 274.037 562.876 273.917 563.266 273.677C563.662 273.437 564.025 273.098 564.355 272.66V268.259ZM565.957 261.95V275.207H565.003C564.775 275.207 564.631 275.096 564.571 274.874L564.427 273.767C564.037 274.235 563.593 274.613 563.095 274.901C562.597 275.189 562.021 275.333 561.367 275.333C560.845 275.333 560.371 275.234 559.945 275.036C559.519 274.832 559.156 274.535 558.856 274.145C558.556 273.755 558.325 273.269 558.163 272.687C558.001 272.105 557.92 271.436 557.92 270.68C557.92 270.008 558.01 269.384 558.19 268.808C558.37 268.226 558.628 267.722 558.964 267.296C559.3 266.87 559.711 266.537 560.197 266.297C560.689 266.051 561.241 265.928 561.853 265.928C562.411 265.928 562.888 266.024 563.284 266.216C563.686 266.402 564.043 266.663 564.355 266.999V261.95H565.957ZM574.428 268.259C574.128 267.857 573.804 267.578 573.456 267.422C573.108 267.26 572.718 267.179 572.286 267.179C571.44 267.179 570.789 267.482 570.333 268.088C569.877 268.694 569.649 269.558 569.649 270.68C569.649 271.274 569.7 271.784 569.802 272.21C569.904 272.63 570.054 272.978 570.252 273.254C570.45 273.524 570.693 273.722 570.981 273.848C571.269 273.974 571.596 274.037 571.962 274.037C572.49 274.037 572.949 273.917 573.339 273.677C573.735 273.437 574.098 273.098 574.428 272.66V268.259ZM576.03 261.95V275.207H575.076C574.848 275.207 574.704 275.096 574.644 274.874L574.5 273.767C574.11 274.235 573.666 274.613 573.168 274.901C572.67 275.189 572.094 275.333 571.44 275.333C570.918 275.333 570.444 275.234 570.018 275.036C569.592 274.832 569.229 274.535 568.929 274.145C568.629 273.755 568.398 273.269 568.236 272.687C568.074 272.105 567.993 271.436 567.993 270.68C567.993 270.008 568.083 269.384 568.263 268.808C568.443 268.226 568.701 267.722 569.037 267.296C569.373 266.87 569.784 266.537 570.27 266.297C570.762 266.051 571.314 265.928 571.926 265.928C572.484 265.928 572.961 266.024 573.357 266.216C573.759 266.402 574.116 266.663 574.428 266.999V261.95H576.03ZM580.252 266.09V275.207H578.65V266.09H580.252ZM580.594 263.228C580.594 263.384 580.561 263.531 580.495 263.669C580.435 263.801 580.351 263.921 580.243 264.029C580.141 264.131 580.018 264.212 579.874 264.272C579.736 264.332 579.589 264.362 579.433 264.362C579.277 264.362 579.13 264.332 578.992 264.272C578.86 264.212 578.743 264.131 578.641 264.029C578.539 263.921 578.458 263.801 578.398 263.669C578.338 263.531 578.308 263.384 578.308 263.228C578.308 263.072 578.338 262.925 578.398 262.787C578.458 262.643 578.539 262.52 578.641 262.418C578.743 262.31 578.86 262.226 578.992 262.166C579.13 262.106 579.277 262.076 579.433 262.076C579.589 262.076 579.736 262.106 579.874 262.166C580.018 262.226 580.141 262.31 580.243 262.418C580.351 262.52 580.435 262.643 580.495 262.787C580.561 262.925 580.594 263.072 580.594 263.228ZM584.396 267.413C584.594 267.191 584.804 266.99 585.026 266.81C585.248 266.63 585.482 266.477 585.728 266.351C585.98 266.219 586.244 266.12 586.52 266.054C586.802 265.982 587.105 265.946 587.429 265.946C587.927 265.946 588.365 266.03 588.743 266.198C589.127 266.36 589.445 266.594 589.697 266.9C589.955 267.2 590.15 267.563 590.282 267.989C590.414 268.415 590.48 268.886 590.48 269.402V275.207H588.869V269.402C588.869 268.712 588.71 268.178 588.392 267.8C588.08 267.416 587.603 267.224 586.961 267.224C586.487 267.224 586.043 267.338 585.629 267.566C585.221 267.794 584.843 268.103 584.495 268.493V275.207H582.884V266.09H583.847C584.075 266.09 584.216 266.201 584.27 266.423L584.396 267.413ZM596.098 270.752C596.422 270.752 596.707 270.707 596.953 270.617C597.199 270.527 597.406 270.401 597.574 270.239C597.742 270.077 597.868 269.885 597.952 269.663C598.036 269.435 598.078 269.186 598.078 268.916C598.078 268.358 597.907 267.914 597.565 267.584C597.229 267.254 596.74 267.089 596.098 267.089C595.45 267.089 594.955 267.254 594.613 267.584C594.277 267.914 594.109 268.358 594.109 268.916C594.109 269.186 594.151 269.435 594.235 269.663C594.325 269.885 594.454 270.077 594.622 270.239C594.79 270.401 594.997 270.527 595.243 270.617C595.489 270.707 595.774 270.752 596.098 270.752ZM598.987 275.702C598.987 275.48 598.924 275.3 598.798 275.162C598.672 275.024 598.501 274.916 598.285 274.838C598.075 274.76 597.829 274.706 597.547 274.676C597.265 274.64 596.965 274.613 596.647 274.595C596.335 274.577 596.017 274.559 595.693 274.541C595.369 274.523 595.057 274.493 594.757 274.451C594.421 274.607 594.145 274.805 593.929 275.045C593.719 275.279 593.614 275.555 593.614 275.873C593.614 276.077 593.665 276.266 593.767 276.44C593.875 276.62 594.037 276.773 594.253 276.899C594.469 277.031 594.739 277.133 595.063 277.205C595.393 277.283 595.78 277.322 596.224 277.322C596.656 277.322 597.043 277.283 597.385 277.205C597.727 277.127 598.015 277.016 598.249 276.872C598.489 276.728 598.672 276.557 598.798 276.359C598.924 276.161 598.987 275.942 598.987 275.702ZM600.616 266.45V267.044C600.616 267.242 600.49 267.368 600.238 267.422L599.203 267.557C599.407 267.953 599.509 268.391 599.509 268.871C599.509 269.315 599.422 269.72 599.248 270.086C599.08 270.446 598.846 270.755 598.546 271.013C598.246 271.271 597.886 271.469 597.466 271.607C597.046 271.745 596.59 271.814 596.098 271.814C595.672 271.814 595.27 271.763 594.892 271.661C594.7 271.781 594.553 271.91 594.451 272.048C594.349 272.18 594.298 272.315 594.298 272.453C594.298 272.669 594.385 272.834 594.559 272.948C594.739 273.056 594.973 273.134 595.261 273.182C595.549 273.23 595.876 273.26 596.242 273.272C596.614 273.284 596.992 273.305 597.376 273.335C597.766 273.359 598.144 273.404 598.51 273.47C598.882 273.536 599.212 273.644 599.5 273.794C599.788 273.944 600.019 274.151 600.193 274.415C600.373 274.679 600.463 275.021 600.463 275.441C600.463 275.831 600.364 276.209 600.166 276.575C599.974 276.941 599.695 277.265 599.329 277.547C598.963 277.835 598.513 278.063 597.979 278.231C597.451 278.405 596.854 278.492 596.188 278.492C595.522 278.492 594.94 278.426 594.442 278.294C593.944 278.162 593.53 277.985 593.2 277.763C592.87 277.541 592.621 277.283 592.453 276.989C592.291 276.701 592.21 276.398 592.21 276.08C592.21 275.63 592.351 275.249 592.633 274.937C592.915 274.625 593.302 274.376 593.794 274.19C593.524 274.07 593.308 273.911 593.146 273.713C592.99 273.509 592.912 273.236 592.912 272.894C592.912 272.762 592.936 272.627 592.984 272.489C593.032 272.345 593.104 272.204 593.2 272.066C593.302 271.922 593.425 271.787 593.569 271.661C593.713 271.535 593.881 271.424 594.073 271.328C593.623 271.076 593.272 270.743 593.02 270.329C592.768 269.909 592.642 269.423 592.642 268.871C592.642 268.427 592.726 268.025 592.894 267.665C593.068 267.299 593.308 266.99 593.614 266.738C593.92 266.48 594.283 266.282 594.703 266.144C595.129 266.006 595.594 265.937 596.098 265.937C596.494 265.937 596.863 265.982 597.205 266.072C597.547 266.156 597.859 266.282 598.141 266.45H600.616Z" fill="#9D9D9C"/>
<path d="M1.269 128V118.883H2.232C2.46 118.883 2.601 118.994 2.655 119.216L2.772 120.152C3.108 119.738 3.486 119.399 3.906 119.135C4.326 118.871 4.812 118.739 5.364 118.739C5.976 118.739 6.471 118.91 6.849 119.252C7.233 119.594 7.509 120.056 7.677 120.638C7.809 120.308 7.977 120.023 8.181 119.783C8.391 119.543 8.625 119.345 8.883 119.189C9.141 119.033 9.414 118.919 9.702 118.847C9.996 118.775 10.293 118.739 10.593 118.739C11.073 118.739 11.499 118.817 11.871 118.973C12.249 119.123 12.567 119.345 12.825 119.639C13.089 119.933 13.29 120.296 13.428 120.728C13.566 121.154 13.635 121.643 13.635 122.195V128H12.024V122.195C12.024 121.481 11.868 120.941 11.556 120.575C11.244 120.203 10.794 120.017 10.206 120.017C9.942 120.017 9.69 120.065 9.45 120.161C9.216 120.251 9.009 120.386 8.829 120.566C8.649 120.746 8.505 120.974 8.397 121.25C8.295 121.52 8.244 121.835 8.244 122.195V128H6.633V122.195C6.633 121.463 6.486 120.917 6.192 120.557C5.898 120.197 5.469 120.017 4.905 120.017C4.509 120.017 4.143 120.125 3.807 120.341C3.471 120.551 3.162 120.839 2.88 121.205V128H1.269ZM21.0108 123.896C20.2728 123.92 19.6428 123.98 19.1208 124.076C18.6048 124.166 18.1818 124.286 17.8518 124.436C17.5278 124.586 17.2908 124.763 17.1408 124.967C16.9968 125.171 16.9248 125.399 16.9248 125.651C16.9248 125.891 16.9638 126.098 17.0418 126.272C17.1198 126.446 17.2248 126.59 17.3568 126.704C17.4948 126.812 17.6538 126.893 17.8338 126.947C18.0198 126.995 18.2178 127.019 18.4278 127.019C18.7098 127.019 18.9678 126.992 19.2018 126.938C19.4358 126.878 19.6548 126.794 19.8588 126.686C20.0688 126.578 20.2668 126.449 20.4528 126.299C20.6448 126.149 20.8308 125.978 21.0108 125.786V123.896ZM15.8358 120.17C16.3398 119.684 16.8828 119.321 17.4648 119.081C18.0468 118.841 18.6918 118.721 19.3998 118.721C19.9098 118.721 20.3628 118.805 20.7588 118.973C21.1548 119.141 21.4878 119.375 21.7578 119.675C22.0278 119.975 22.2318 120.338 22.3698 120.764C22.5078 121.19 22.5768 121.658 22.5768 122.168V128H21.8658C21.7098 128 21.5898 127.976 21.5058 127.928C21.4218 127.874 21.3558 127.772 21.3078 127.622L21.1278 126.758C20.8878 126.98 20.6538 127.178 20.4258 127.352C20.1978 127.52 19.9578 127.664 19.7058 127.784C19.4538 127.898 19.1838 127.985 18.8958 128.045C18.6138 128.111 18.2988 128.144 17.9508 128.144C17.5968 128.144 17.2638 128.096 16.9518 128C16.6398 127.898 16.3668 127.748 16.1328 127.55C15.9048 127.352 15.7218 127.103 15.5838 126.803C15.4518 126.497 15.3858 126.137 15.3858 125.723C15.3858 125.363 15.4848 125.018 15.6828 124.688C15.8808 124.352 16.2018 124.055 16.6458 123.797C17.0898 123.539 17.6688 123.329 18.3828 123.167C19.0968 122.999 19.9728 122.903 21.0108 122.879V122.168C21.0108 121.46 20.8578 120.926 20.5518 120.566C20.2458 120.2 19.7988 120.017 19.2108 120.017C18.8148 120.017 18.4818 120.068 18.2118 120.17C17.9478 120.266 17.7168 120.377 17.5188 120.503C17.3268 120.623 17.1588 120.734 17.0148 120.836C16.8768 120.932 16.7388 120.98 16.6008 120.98C16.4928 120.98 16.3998 120.953 16.3218 120.899C16.2438 120.839 16.1778 120.767 16.1238 120.683L15.8358 120.17ZM26.538 120.71C26.826 120.086 27.18 119.6 27.6 119.252C28.02 118.898 28.533 118.721 29.139 118.721C29.331 118.721 29.514 118.742 29.688 118.784C29.868 118.826 30.027 118.892 30.165 118.982L30.048 120.179C30.012 120.329 29.922 120.404 29.778 120.404C29.694 120.404 29.571 120.386 29.409 120.35C29.247 120.314 29.064 120.296 28.86 120.296C28.572 120.296 28.314 120.338 28.086 120.422C27.864 120.506 27.663 120.632 27.483 120.8C27.309 120.962 27.15 121.166 27.006 121.412C26.868 121.652 26.742 121.928 26.628 122.24V128H25.017V118.883H25.935C26.109 118.883 26.229 118.916 26.295 118.982C26.361 119.048 26.406 119.162 26.43 119.324L26.538 120.71ZM34.5398 123.545C34.8638 123.545 35.1488 123.5 35.3948 123.41C35.6408 123.32 35.8478 123.194 36.0158 123.032C36.1838 122.87 36.3098 122.678 36.3938 122.456C36.4778 122.228 36.5198 121.979 36.5198 121.709C36.5198 121.151 36.3488 120.707 36.0068 120.377C35.6708 120.047 35.1818 119.882 34.5398 119.882C33.8918 119.882 33.3968 120.047 33.0548 120.377C32.7188 120.707 32.5508 121.151 32.5508 121.709C32.5508 121.979 32.5928 122.228 32.6768 122.456C32.7668 122.678 32.8958 122.87 33.0638 123.032C33.2318 123.194 33.4388 123.32 33.6848 123.41C33.9308 123.5 34.2158 123.545 34.5398 123.545ZM37.4288 128.495C37.4288 128.273 37.3658 128.093 37.2398 127.955C37.1138 127.817 36.9428 127.709 36.7268 127.631C36.5168 127.553 36.2708 127.499 35.9888 127.469C35.7068 127.433 35.4068 127.406 35.0888 127.388C34.7768 127.37 34.4588 127.352 34.1348 127.334C33.8108 127.316 33.4988 127.286 33.1988 127.244C32.8628 127.4 32.5868 127.598 32.3708 127.838C32.1608 128.072 32.0558 128.348 32.0558 128.666C32.0558 128.87 32.1068 129.059 32.2088 129.233C32.3168 129.413 32.4788 129.566 32.6948 129.692C32.9108 129.824 33.1808 129.926 33.5048 129.998C33.8348 130.076 34.2218 130.115 34.6658 130.115C35.0978 130.115 35.4848 130.076 35.8268 129.998C36.1688 129.92 36.4568 129.809 36.6908 129.665C36.9308 129.521 37.1138 129.35 37.2398 129.152C37.3658 128.954 37.4288 128.735 37.4288 128.495ZM39.0578 119.243V119.837C39.0578 120.035 38.9318 120.161 38.6798 120.215L37.6448 120.35C37.8488 120.746 37.9508 121.184 37.9508 121.664C37.9508 122.108 37.8638 122.513 37.6898 122.879C37.5218 123.239 37.2878 123.548 36.9878 123.806C36.6878 124.064 36.3278 124.262 35.9078 124.4C35.4878 124.538 35.0318 124.607 34.5398 124.607C34.1138 124.607 33.7118 124.556 33.3338 124.454C33.1418 124.574 32.9948 124.703 32.8928 124.841C32.7908 124.973 32.7397 125.108 32.7397 125.246C32.7397 125.462 32.8268 125.627 33.0008 125.741C33.1808 125.849 33.4148 125.927 33.7028 125.975C33.9908 126.023 34.3178 126.053 34.6838 126.065C35.0558 126.077 35.4338 126.098 35.8178 126.128C36.2078 126.152 36.5858 126.197 36.9518 126.263C37.3238 126.329 37.6538 126.437 37.9418 126.587C38.2298 126.737 38.4608 126.944 38.6348 127.208C38.8148 127.472 38.9048 127.814 38.9048 128.234C38.9048 128.624 38.8058 129.002 38.6078 129.368C38.4158 129.734 38.1368 130.058 37.7708 130.34C37.4048 130.628 36.9548 130.856 36.4208 131.024C35.8928 131.198 35.2958 131.285 34.6298 131.285C33.9638 131.285 33.3818 131.219 32.8838 131.087C32.3858 130.955 31.9718 130.778 31.6418 130.556C31.3118 130.334 31.0628 130.076 30.8948 129.782C30.7328 129.494 30.6518 129.191 30.6518 128.873C30.6518 128.423 30.7928 128.042 31.0748 127.73C31.3568 127.418 31.7438 127.169 32.2358 126.983C31.9658 126.863 31.7498 126.704 31.5878 126.506C31.4318 126.302 31.3538 126.029 31.3538 125.687C31.3538 125.555 31.3778 125.42 31.4258 125.282C31.4738 125.138 31.5458 124.997 31.6418 124.859C31.7438 124.715 31.8668 124.58 32.0108 124.454C32.1548 124.328 32.3228 124.217 32.5148 124.121C32.0648 123.869 31.7138 123.536 31.4618 123.122C31.2098 122.702 31.0838 122.216 31.0838 121.664C31.0838 121.22 31.1678 120.818 31.3358 120.458C31.5098 120.092 31.7498 119.783 32.0558 119.531C32.3618 119.273 32.7248 119.075 33.1448 118.937C33.5708 118.799 34.0358 118.73 34.5398 118.73C34.9358 118.73 35.3048 118.775 35.6468 118.865C35.9888 118.949 36.3008 119.075 36.5828 119.243H39.0578ZM42.4063 118.883V128H40.8043V118.883H42.4063ZM42.7483 116.021C42.7483 116.177 42.7153 116.324 42.6493 116.462C42.5893 116.594 42.5053 116.714 42.3973 116.822C42.2953 116.924 42.1723 117.005 42.0283 117.065C41.8903 117.125 41.7433 117.155 41.5873 117.155C41.4313 117.155 41.2843 117.125 41.1463 117.065C41.0143 117.005 40.8973 116.924 40.7953 116.822C40.6933 116.714 40.6123 116.594 40.5523 116.462C40.4923 116.324 40.4623 116.177 40.4623 116.021C40.4623 115.865 40.4923 115.718 40.5523 115.58C40.6123 115.436 40.6933 115.313 40.7953 115.211C40.8973 115.103 41.0143 115.019 41.1463 114.959C41.2843 114.899 41.4313 114.869 41.5873 114.869C41.7433 114.869 41.8903 114.899 42.0283 114.959C42.1723 115.019 42.2953 115.103 42.3973 115.211C42.5053 115.313 42.5893 115.436 42.6493 115.58C42.7153 115.718 42.7483 115.865 42.7483 116.021ZM46.5505 120.206C46.7485 119.984 46.9585 119.783 47.1805 119.603C47.4025 119.423 47.6365 119.27 47.8825 119.144C48.1345 119.012 48.3985 118.913 48.6745 118.847C48.9565 118.775 49.2595 118.739 49.5835 118.739C50.0815 118.739 50.5195 118.823 50.8975 118.991C51.2815 119.153 51.5995 119.387 51.8515 119.693C52.1095 119.993 52.3045 120.356 52.4365 120.782C52.5685 121.208 52.6345 121.679 52.6345 122.195V128H51.0235V122.195C51.0235 121.505 50.8645 120.971 50.5465 120.593C50.2345 120.209 49.7575 120.017 49.1155 120.017C48.6415 120.017 48.1975 120.131 47.7835 120.359C47.3755 120.587 46.9975 120.896 46.6495 121.286V128H45.0385V118.883H46.0015C46.2295 118.883 46.3705 118.994 46.4245 119.216L46.5505 120.206Z" fill="#9D9D9C"/>
<path d="M285.625 341.513L282.673 350.63H281.404C281.248 350.63 281.14 350.528 281.08 350.324L279.064 344.141C279.016 344.003 278.977 343.865 278.947 343.727C278.917 343.583 278.887 343.442 278.857 343.304C278.827 343.442 278.797 343.583 278.767 343.727C278.737 343.865 278.698 344.006 278.65 344.15L276.598 350.324C276.544 350.528 276.424 350.63 276.238 350.63H275.032L272.08 341.513H273.34C273.466 341.513 273.571 341.546 273.655 341.612C273.745 341.678 273.805 341.756 273.835 341.846L275.581 347.714C275.683 348.146 275.764 348.554 275.824 348.938C275.878 348.74 275.932 348.539 275.986 348.335C276.046 348.131 276.109 347.924 276.175 347.714L278.101 341.81C278.131 341.72 278.182 341.645 278.254 341.585C278.332 341.525 278.425 341.495 278.533 341.495H279.235C279.355 341.495 279.454 341.525 279.532 341.585C279.61 341.645 279.664 341.72 279.694 341.81L281.575 347.714C281.641 347.924 281.701 348.131 281.755 348.335C281.809 348.539 281.86 348.74 281.908 348.938C281.938 348.74 281.974 348.542 282.016 348.344C282.064 348.14 282.115 347.93 282.169 347.714L283.951 341.846C283.981 341.75 284.038 341.672 284.122 341.612C284.206 341.546 284.305 341.513 284.419 341.513H285.625ZM288.877 341.513V350.63H287.275V341.513H288.877ZM289.219 338.651C289.219 338.807 289.186 338.954 289.12 339.092C289.06 339.224 288.976 339.344 288.868 339.452C288.766 339.554 288.643 339.635 288.499 339.695C288.361 339.755 288.214 339.785 288.058 339.785C287.902 339.785 287.755 339.755 287.617 339.695C287.485 339.635 287.368 339.554 287.266 339.452C287.164 339.344 287.083 339.224 287.023 339.092C286.963 338.954 286.933 338.807 286.933 338.651C286.933 338.495 286.963 338.348 287.023 338.21C287.083 338.066 287.164 337.943 287.266 337.841C287.368 337.733 287.485 337.649 287.617 337.589C287.755 337.529 287.902 337.499 288.058 337.499C288.214 337.499 288.361 337.529 288.499 337.589C288.643 337.649 288.766 337.733 288.868 337.841C288.976 337.943 289.06 338.066 289.12 338.21C289.186 338.348 289.219 338.495 289.219 338.651ZM297.449 343.682C297.149 343.28 296.825 343.001 296.477 342.845C296.129 342.683 295.739 342.602 295.307 342.602C294.461 342.602 293.81 342.905 293.354 343.511C292.898 344.117 292.67 344.981 292.67 346.103C292.67 346.697 292.721 347.207 292.823 347.633C292.925 348.053 293.075 348.401 293.273 348.677C293.471 348.947 293.714 349.145 294.002 349.271C294.29 349.397 294.617 349.46 294.983 349.46C295.511 349.46 295.97 349.34 296.36 349.1C296.756 348.86 297.119 348.521 297.449 348.083V343.682ZM299.051 337.373V350.63H298.097C297.869 350.63 297.725 350.519 297.665 350.297L297.521 349.19C297.131 349.658 296.687 350.036 296.189 350.324C295.691 350.612 295.115 350.756 294.461 350.756C293.939 350.756 293.465 350.657 293.039 350.459C292.613 350.255 292.25 349.958 291.95 349.568C291.65 349.178 291.419 348.692 291.257 348.11C291.095 347.528 291.014 346.859 291.014 346.103C291.014 345.431 291.104 344.807 291.284 344.231C291.464 343.649 291.722 343.145 292.058 342.719C292.394 342.293 292.805 341.96 293.291 341.72C293.783 341.474 294.335 341.351 294.947 341.351C295.505 341.351 295.982 341.447 296.378 341.639C296.78 341.825 297.137 342.086 297.449 342.422V337.373H299.051ZM304.381 350.774C303.661 350.774 303.106 350.573 302.716 350.171C302.332 349.769 302.14 349.19 302.14 348.434V342.854H301.042C300.946 342.854 300.865 342.827 300.799 342.773C300.733 342.713 300.7 342.623 300.7 342.503V341.864L302.194 341.675L302.562 338.858C302.581 338.768 302.62 338.696 302.68 338.642C302.746 338.582 302.83 338.552 302.932 338.552H303.742V341.693H306.379V342.854H303.742V348.326C303.742 348.71 303.835 348.995 304.021 349.181C304.207 349.367 304.447 349.46 304.741 349.46C304.909 349.46 305.053 349.439 305.173 349.397C305.299 349.349 305.407 349.298 305.497 349.244C305.587 349.19 305.662 349.142 305.722 349.1C305.788 349.052 305.845 349.028 305.893 349.028C305.977 349.028 306.052 349.079 306.118 349.181L306.586 349.946C306.31 350.204 305.977 350.408 305.587 350.558C305.197 350.702 304.795 350.774 304.381 350.774ZM309.644 342.728C310.034 342.314 310.466 341.984 310.94 341.738C311.414 341.492 311.96 341.369 312.578 341.369C313.076 341.369 313.514 341.453 313.892 341.621C314.276 341.783 314.594 342.017 314.846 342.323C315.104 342.623 315.299 342.986 315.431 343.412C315.563 343.838 315.629 344.309 315.629 344.825V350.63H314.018V344.825C314.018 344.135 313.859 343.601 313.541 343.223C313.229 342.839 312.752 342.647 312.11 342.647C311.636 342.647 311.192 342.761 310.778 342.989C310.37 343.217 309.992 343.526 309.644 343.916V350.63H308.033V337.373H309.644V342.728ZM317.926 349.64C317.926 349.484 317.953 349.337 318.007 349.199C318.067 349.061 318.145 348.941 318.241 348.839C318.343 348.737 318.463 348.656 318.601 348.596C318.739 348.536 318.886 348.506 319.042 348.506C319.198 348.506 319.345 348.536 319.483 348.596C319.621 348.656 319.741 348.737 319.843 348.839C319.945 348.941 320.026 349.061 320.086 349.199C320.146 349.337 320.176 349.484 320.176 349.64C320.176 349.802 320.146 349.952 320.086 350.09C320.026 350.222 319.945 350.339 319.843 350.441C319.741 350.543 319.621 350.621 319.483 350.675C319.345 350.735 319.198 350.765 319.042 350.765C318.886 350.765 318.739 350.735 318.601 350.675C318.463 350.621 318.343 350.543 318.241 350.441C318.145 350.339 318.067 350.222 318.007 350.09C317.953 349.952 317.926 349.802 317.926 349.64ZM317.926 342.89C317.926 342.734 317.953 342.587 318.007 342.449C318.067 342.311 318.145 342.191 318.241 342.089C318.343 341.987 318.463 341.906 318.601 341.846C318.739 341.786 318.886 341.756 319.042 341.756C319.198 341.756 319.345 341.786 319.483 341.846C319.621 341.906 319.741 341.987 319.843 342.089C319.945 342.191 320.026 342.311 320.086 342.449C320.146 342.587 320.176 342.734 320.176 342.89C320.176 343.052 320.146 343.202 320.086 343.34C320.026 343.472 319.945 343.589 319.843 343.691C319.741 343.793 319.621 343.874 319.483 343.934C319.345 343.988 319.198 344.015 319.042 344.015C318.886 344.015 318.739 343.988 318.601 343.934C318.463 343.874 318.343 343.793 318.241 343.691C318.145 343.589 318.067 343.472 318.007 343.34C317.953 343.202 317.926 343.052 317.926 342.89ZM330.184 349.109C330.358 349.109 330.496 349.16 330.598 349.262C330.7 349.364 330.751 349.496 330.751 349.658V350.63H322.147V350.081C322.147 349.967 322.171 349.85 322.219 349.73C322.267 349.61 322.342 349.499 322.444 349.397L326.575 345.248C326.917 344.9 327.229 344.567 327.511 344.249C327.793 343.925 328.033 343.601 328.231 343.277C328.429 342.953 328.582 342.626 328.69 342.296C328.798 341.96 328.852 341.603 328.852 341.225C328.852 340.847 328.792 340.517 328.672 340.235C328.552 339.947 328.387 339.71 328.177 339.524C327.973 339.338 327.73 339.2 327.448 339.11C327.166 339.014 326.863 338.966 326.539 338.966C326.209 338.966 325.906 339.014 325.63 339.11C325.354 339.206 325.108 339.341 324.892 339.515C324.682 339.683 324.505 339.884 324.361 340.118C324.217 340.352 324.115 340.61 324.055 340.892C323.983 341.102 323.884 341.243 323.758 341.315C323.638 341.381 323.467 341.399 323.245 341.369L322.408 341.225C322.492 340.637 322.654 340.118 322.894 339.668C323.14 339.212 323.446 338.831 323.812 338.525C324.184 338.219 324.607 337.988 325.081 337.832C325.555 337.67 326.068 337.589 326.62 337.589C327.166 337.589 327.676 337.67 328.15 337.832C328.624 337.994 329.035 338.231 329.383 338.543C329.731 338.849 330.004 339.224 330.202 339.668C330.4 340.112 330.499 340.616 330.499 341.18C330.499 341.66 330.427 342.107 330.283 342.521C330.139 342.929 329.944 343.319 329.698 343.691C329.452 344.063 329.167 344.426 328.843 344.78C328.525 345.134 328.186 345.491 327.826 345.851L324.424 349.325C324.664 349.259 324.907 349.208 325.153 349.172C325.399 349.13 325.636 349.109 325.864 349.109H330.184ZM341.642 344.186C341.642 345.314 341.519 346.292 341.273 347.12C341.033 347.942 340.703 348.623 340.283 349.163C339.863 349.703 339.365 350.105 338.789 350.369C338.219 350.633 337.607 350.765 336.953 350.765C336.293 350.765 335.678 350.633 335.108 350.369C334.544 350.105 334.052 349.703 333.632 349.163C333.212 348.623 332.882 347.942 332.642 347.12C332.402 346.292 332.282 345.314 332.282 344.186C332.282 343.058 332.402 342.08 332.642 341.252C332.882 340.424 333.212 339.74 333.632 339.2C334.052 338.654 334.544 338.249 335.108 337.985C335.678 337.721 336.293 337.589 336.953 337.589C337.607 337.589 338.219 337.721 338.789 337.985C339.365 338.249 339.863 338.654 340.283 339.2C340.703 339.74 341.033 340.424 341.273 341.252C341.519 342.08 341.642 343.058 341.642 344.186ZM339.977 344.186C339.977 343.202 339.893 342.377 339.725 341.711C339.563 341.039 339.341 340.499 339.059 340.091C338.783 339.683 338.462 339.392 338.096 339.218C337.73 339.038 337.349 338.948 336.953 338.948C336.557 338.948 336.176 339.038 335.81 339.218C335.444 339.392 335.123 339.683 334.847 340.091C334.571 340.499 334.349 341.039 334.181 341.711C334.019 342.377 333.938 343.202 333.938 344.186C333.938 345.17 334.019 345.995 334.181 346.661C334.349 347.327 334.571 347.864 334.847 348.272C335.123 348.68 335.444 348.974 335.81 349.154C336.176 349.328 336.557 349.415 336.953 349.415C337.349 349.415 337.73 349.328 338.096 349.154C338.462 348.974 338.783 348.68 339.059 348.272C339.341 347.864 339.563 347.327 339.725 346.661C339.893 345.995 339.977 345.17 339.977 344.186ZM352.084 344.186C352.084 345.314 351.961 346.292 351.715 347.12C351.475 347.942 351.145 348.623 350.725 349.163C350.305 349.703 349.807 350.105 349.231 350.369C348.661 350.633 348.049 350.765 347.395 350.765C346.735 350.765 346.12 350.633 345.55 350.369C344.986 350.105 344.494 349.703 344.074 349.163C343.654 348.623 343.324 347.942 343.084 347.12C342.844 346.292 342.724 345.314 342.724 344.186C342.724 343.058 342.844 342.08 343.084 341.252C343.324 340.424 343.654 339.74 344.074 339.2C344.494 338.654 344.986 338.249 345.55 337.985C346.12 337.721 346.735 337.589 347.395 337.589C348.049 337.589 348.661 337.721 349.231 337.985C349.807 338.249 350.305 338.654 350.725 339.2C351.145 339.74 351.475 340.424 351.715 341.252C351.961 342.08 352.084 343.058 352.084 344.186ZM350.419 344.186C350.419 343.202 350.335 342.377 350.167 341.711C350.005 341.039 349.783 340.499 349.501 340.091C349.225 339.683 348.904 339.392 348.538 339.218C348.172 339.038 347.791 338.948 347.395 338.948C346.999 338.948 346.618 339.038 346.252 339.218C345.886 339.392 345.565 339.683 345.289 340.091C345.013 340.499 344.791 341.039 344.623 341.711C344.461 342.377 344.38 343.202 344.38 344.186C344.38 345.17 344.461 345.995 344.623 346.661C344.791 347.327 345.013 347.864 345.289 348.272C345.565 348.68 345.886 348.974 346.252 349.154C346.618 349.328 346.999 349.415 347.395 349.415C347.791 349.415 348.172 349.328 348.538 349.154C348.904 348.974 349.225 348.68 349.501 348.272C349.783 347.864 350.005 347.327 350.167 346.661C350.335 345.995 350.419 345.17 350.419 344.186ZM355.505 348.434C355.799 348.83 356.12 349.109 356.468 349.271C356.816 349.433 357.206 349.514 357.638 349.514C358.49 349.514 359.144 349.211 359.6 348.605C360.056 347.999 360.284 347.135 360.284 346.013C360.284 345.419 360.23 344.909 360.122 344.483C360.02 344.057 359.87 343.709 359.672 343.439C359.474 343.163 359.231 342.962 358.943 342.836C358.655 342.71 358.328 342.647 357.962 342.647C357.44 342.647 356.981 342.767 356.585 343.007C356.195 343.247 355.835 343.586 355.505 344.024V348.434ZM355.424 342.926C355.808 342.452 356.252 342.071 356.756 341.783C357.26 341.495 357.836 341.351 358.484 341.351C359.012 341.351 359.489 341.453 359.915 341.657C360.341 341.855 360.704 342.152 361.004 342.548C361.304 342.938 361.535 343.424 361.697 344.006C361.859 344.588 361.94 345.257 361.94 346.013C361.94 346.685 361.85 347.312 361.67 347.894C361.49 348.47 361.229 348.971 360.887 349.397C360.551 349.817 360.137 350.15 359.645 350.396C359.159 350.636 358.61 350.756 357.998 350.756C357.44 350.756 356.96 350.663 356.558 350.477C356.162 350.285 355.811 350.021 355.505 349.685V353.717H353.894V341.513H354.857C355.085 341.513 355.226 341.624 355.28 341.846L355.424 342.926ZM371.12 350.63H369.581C369.449 350.63 369.344 350.597 369.266 350.531C369.194 350.459 369.134 350.381 369.086 350.297L366.791 346.724C366.767 346.808 366.74 346.892 366.71 346.976C366.686 347.054 366.65 347.126 366.602 347.192L364.478 350.297C364.418 350.381 364.352 350.459 364.28 350.531C364.214 350.597 364.121 350.63 364.001 350.63H362.57L365.765 345.95L362.696 341.513H364.235C364.367 341.513 364.463 341.534 364.523 341.576C364.583 341.618 364.637 341.678 364.685 341.756L366.926 345.176C366.974 345.002 367.049 344.834 367.151 344.672L369.113 341.792C369.167 341.708 369.224 341.642 369.284 341.594C369.35 341.54 369.428 341.513 369.518 341.513H370.994L367.925 345.869L371.12 350.63Z" fill="#9D9D9C"/>
<path d="M285.625 388.435L282.673 397.552H281.404C281.248 397.552 281.14 397.45 281.08 397.246L279.064 391.063C279.016 390.925 278.977 390.787 278.947 390.649C278.917 390.505 278.887 390.364 278.857 390.226C278.827 390.364 278.797 390.505 278.767 390.649C278.737 390.787 278.698 390.928 278.65 391.072L276.598 397.246C276.544 397.45 276.424 397.552 276.238 397.552H275.032L272.08 388.435H273.34C273.466 388.435 273.571 388.468 273.655 388.534C273.745 388.6 273.805 388.678 273.835 388.768L275.581 394.636C275.683 395.068 275.764 395.476 275.824 395.86C275.878 395.662 275.932 395.461 275.986 395.257C276.046 395.053 276.109 394.846 276.175 394.636L278.101 388.732C278.131 388.642 278.182 388.567 278.254 388.507C278.332 388.447 278.425 388.417 278.533 388.417H279.235C279.355 388.417 279.454 388.447 279.532 388.507C279.61 388.567 279.664 388.642 279.694 388.732L281.575 394.636C281.641 394.846 281.701 395.053 281.755 395.257C281.809 395.461 281.86 395.662 281.908 395.86C281.938 395.662 281.974 395.464 282.016 395.266C282.064 395.062 282.115 394.852 282.169 394.636L283.951 388.768C283.981 388.672 284.038 388.594 284.122 388.534C284.206 388.468 284.305 388.435 284.419 388.435H285.625ZM288.877 388.435V397.552H287.275V388.435H288.877ZM289.219 385.573C289.219 385.729 289.186 385.876 289.12 386.014C289.06 386.146 288.976 386.266 288.868 386.374C288.766 386.476 288.643 386.557 288.499 386.617C288.361 386.677 288.214 386.707 288.058 386.707C287.902 386.707 287.755 386.677 287.617 386.617C287.485 386.557 287.368 386.476 287.266 386.374C287.164 386.266 287.083 386.146 287.023 386.014C286.963 385.876 286.933 385.729 286.933 385.573C286.933 385.417 286.963 385.27 287.023 385.132C287.083 384.988 287.164 384.865 287.266 384.763C287.368 384.655 287.485 384.571 287.617 384.511C287.755 384.451 287.902 384.421 288.058 384.421C288.214 384.421 288.361 384.451 288.499 384.511C288.643 384.571 288.766 384.655 288.868 384.763C288.976 384.865 289.06 384.988 289.12 385.132C289.186 385.27 289.219 385.417 289.219 385.573ZM297.449 390.604C297.149 390.202 296.825 389.923 296.477 389.767C296.129 389.605 295.739 389.524 295.307 389.524C294.461 389.524 293.81 389.827 293.354 390.433C292.898 391.039 292.67 391.903 292.67 393.025C292.67 393.619 292.721 394.129 292.823 394.555C292.925 394.975 293.075 395.323 293.273 395.599C293.471 395.869 293.714 396.067 294.002 396.193C294.29 396.319 294.617 396.382 294.983 396.382C295.511 396.382 295.97 396.262 296.36 396.022C296.756 395.782 297.119 395.443 297.449 395.005V390.604ZM299.051 384.295V397.552H298.097C297.869 397.552 297.725 397.441 297.665 397.219L297.521 396.112C297.131 396.58 296.687 396.958 296.189 397.246C295.691 397.534 295.115 397.678 294.461 397.678C293.939 397.678 293.465 397.579 293.039 397.381C292.613 397.177 292.25 396.88 291.95 396.49C291.65 396.1 291.419 395.614 291.257 395.032C291.095 394.45 291.014 393.781 291.014 393.025C291.014 392.353 291.104 391.729 291.284 391.153C291.464 390.571 291.722 390.067 292.058 389.641C292.394 389.215 292.805 388.882 293.291 388.642C293.783 388.396 294.335 388.273 294.947 388.273C295.505 388.273 295.982 388.369 296.378 388.561C296.78 388.747 297.137 389.008 297.449 389.344V384.295H299.051ZM304.381 397.696C303.661 397.696 303.106 397.495 302.716 397.093C302.332 396.691 302.14 396.112 302.14 395.356V389.776H301.042C300.946 389.776 300.865 389.749 300.799 389.695C300.733 389.635 300.7 389.545 300.7 389.425V388.786L302.194 388.597L302.562 385.78C302.581 385.69 302.62 385.618 302.68 385.564C302.746 385.504 302.83 385.474 302.932 385.474H303.742V388.615H306.379V389.776H303.742V395.248C303.742 395.632 303.835 395.917 304.021 396.103C304.207 396.289 304.447 396.382 304.741 396.382C304.909 396.382 305.053 396.361 305.173 396.319C305.299 396.271 305.407 396.22 305.497 396.166C305.587 396.112 305.662 396.064 305.722 396.022C305.788 395.974 305.845 395.95 305.893 395.95C305.977 395.95 306.052 396.001 306.118 396.103L306.586 396.868C306.31 397.126 305.977 397.33 305.587 397.48C305.197 397.624 304.795 397.696 304.381 397.696ZM309.644 389.65C310.034 389.236 310.466 388.906 310.94 388.66C311.414 388.414 311.96 388.291 312.578 388.291C313.076 388.291 313.514 388.375 313.892 388.543C314.276 388.705 314.594 388.939 314.846 389.245C315.104 389.545 315.299 389.908 315.431 390.334C315.563 390.76 315.629 391.231 315.629 391.747V397.552H314.018V391.747C314.018 391.057 313.859 390.523 313.541 390.145C313.229 389.761 312.752 389.569 312.11 389.569C311.636 389.569 311.192 389.683 310.778 389.911C310.37 390.139 309.992 390.448 309.644 390.838V397.552H308.033V384.295H309.644V389.65ZM317.926 396.562C317.926 396.406 317.953 396.259 318.007 396.121C318.067 395.983 318.145 395.863 318.241 395.761C318.343 395.659 318.463 395.578 318.601 395.518C318.739 395.458 318.886 395.428 319.042 395.428C319.198 395.428 319.345 395.458 319.483 395.518C319.621 395.578 319.741 395.659 319.843 395.761C319.945 395.863 320.026 395.983 320.086 396.121C320.146 396.259 320.176 396.406 320.176 396.562C320.176 396.724 320.146 396.874 320.086 397.012C320.026 397.144 319.945 397.261 319.843 397.363C319.741 397.465 319.621 397.543 319.483 397.597C319.345 397.657 319.198 397.687 319.042 397.687C318.886 397.687 318.739 397.657 318.601 397.597C318.463 397.543 318.343 397.465 318.241 397.363C318.145 397.261 318.067 397.144 318.007 397.012C317.953 396.874 317.926 396.724 317.926 396.562ZM317.926 389.812C317.926 389.656 317.953 389.509 318.007 389.371C318.067 389.233 318.145 389.113 318.241 389.011C318.343 388.909 318.463 388.828 318.601 388.768C318.739 388.708 318.886 388.678 319.042 388.678C319.198 388.678 319.345 388.708 319.483 388.768C319.621 388.828 319.741 388.909 319.843 389.011C319.945 389.113 320.026 389.233 320.086 389.371C320.146 389.509 320.176 389.656 320.176 389.812C320.176 389.974 320.146 390.124 320.086 390.262C320.026 390.394 319.945 390.511 319.843 390.613C319.741 390.715 319.621 390.796 319.483 390.856C319.345 390.91 319.198 390.937 319.042 390.937C318.886 390.937 318.739 390.91 318.601 390.856C318.463 390.796 318.343 390.715 318.241 390.613C318.145 390.511 318.067 390.394 318.007 390.262C317.953 390.124 317.926 389.974 317.926 389.812ZM330.184 396.031C330.358 396.031 330.496 396.082 330.598 396.184C330.7 396.286 330.751 396.418 330.751 396.58V397.552H322.147V397.003C322.147 396.889 322.171 396.772 322.219 396.652C322.267 396.532 322.342 396.421 322.444 396.319L326.575 392.17C326.917 391.822 327.229 391.489 327.511 391.171C327.793 390.847 328.033 390.523 328.231 390.199C328.429 389.875 328.582 389.548 328.69 389.218C328.798 388.882 328.852 388.525 328.852 388.147C328.852 387.769 328.792 387.439 328.672 387.157C328.552 386.869 328.387 386.632 328.177 386.446C327.973 386.26 327.73 386.122 327.448 386.032C327.166 385.936 326.863 385.888 326.539 385.888C326.209 385.888 325.906 385.936 325.63 386.032C325.354 386.128 325.108 386.263 324.892 386.437C324.682 386.605 324.505 386.806 324.361 387.04C324.217 387.274 324.115 387.532 324.055 387.814C323.983 388.024 323.884 388.165 323.758 388.237C323.638 388.303 323.467 388.321 323.245 388.291L322.408 388.147C322.492 387.559 322.654 387.04 322.894 386.59C323.14 386.134 323.446 385.753 323.812 385.447C324.184 385.141 324.607 384.91 325.081 384.754C325.555 384.592 326.068 384.511 326.62 384.511C327.166 384.511 327.676 384.592 328.15 384.754C328.624 384.916 329.035 385.153 329.383 385.465C329.731 385.771 330.004 386.146 330.202 386.59C330.4 387.034 330.499 387.538 330.499 388.102C330.499 388.582 330.427 389.029 330.283 389.443C330.139 389.851 329.944 390.241 329.698 390.613C329.452 390.985 329.167 391.348 328.843 391.702C328.525 392.056 328.186 392.413 327.826 392.773L324.424 396.247C324.664 396.181 324.907 396.13 325.153 396.094C325.399 396.052 325.636 396.031 325.864 396.031H330.184ZM338.312 392.899V387.58C338.312 387.424 338.318 387.253 338.33 387.067C338.342 386.881 338.36 386.692 338.384 386.5L333.686 392.899H338.312ZM341.669 392.899V393.817C341.669 393.913 341.639 393.994 341.579 394.06C341.525 394.126 341.438 394.159 341.318 394.159H339.716V397.552H338.312V394.159H332.588C332.468 394.159 332.363 394.126 332.273 394.06C332.189 393.988 332.135 393.901 332.111 393.799L331.949 392.98L338.222 384.655H339.716V392.899H341.669ZM352.084 391.108C352.084 392.236 351.961 393.214 351.715 394.042C351.475 394.864 351.145 395.545 350.725 396.085C350.305 396.625 349.807 397.027 349.231 397.291C348.661 397.555 348.049 397.687 347.395 397.687C346.735 397.687 346.12 397.555 345.55 397.291C344.986 397.027 344.494 396.625 344.074 396.085C343.654 395.545 343.324 394.864 343.084 394.042C342.844 393.214 342.724 392.236 342.724 391.108C342.724 389.98 342.844 389.002 343.084 388.174C343.324 387.346 343.654 386.662 344.074 386.122C344.494 385.576 344.986 385.171 345.55 384.907C346.12 384.643 346.735 384.511 347.395 384.511C348.049 384.511 348.661 384.643 349.231 384.907C349.807 385.171 350.305 385.576 350.725 386.122C351.145 386.662 351.475 387.346 351.715 388.174C351.961 389.002 352.084 389.98 352.084 391.108ZM350.419 391.108C350.419 390.124 350.335 389.299 350.167 388.633C350.005 387.961 349.783 387.421 349.501 387.013C349.225 386.605 348.904 386.314 348.538 386.14C348.172 385.96 347.791 385.87 347.395 385.87C346.999 385.87 346.618 385.96 346.252 386.14C345.886 386.314 345.565 386.605 345.289 387.013C345.013 387.421 344.791 387.961 344.623 388.633C344.461 389.299 344.38 390.124 344.38 391.108C344.38 392.092 344.461 392.917 344.623 393.583C344.791 394.249 345.013 394.786 345.289 395.194C345.565 395.602 345.886 395.896 346.252 396.076C346.618 396.25 346.999 396.337 347.395 396.337C347.791 396.337 348.172 396.25 348.538 396.076C348.904 395.896 349.225 395.602 349.501 395.194C349.783 394.786 350.005 394.249 350.167 393.583C350.335 392.917 350.419 392.092 350.419 391.108ZM355.505 395.356C355.799 395.752 356.12 396.031 356.468 396.193C356.816 396.355 357.206 396.436 357.638 396.436C358.49 396.436 359.144 396.133 359.6 395.527C360.056 394.921 360.284 394.057 360.284 392.935C360.284 392.341 360.23 391.831 360.122 391.405C360.02 390.979 359.87 390.631 359.672 390.361C359.474 390.085 359.231 389.884 358.943 389.758C358.655 389.632 358.328 389.569 357.962 389.569C357.44 389.569 356.981 389.689 356.585 389.929C356.195 390.169 355.835 390.508 355.505 390.946V395.356ZM355.424 389.848C355.808 389.374 356.252 388.993 356.756 388.705C357.26 388.417 357.836 388.273 358.484 388.273C359.012 388.273 359.489 388.375 359.915 388.579C360.341 388.777 360.704 389.074 361.004 389.47C361.304 389.86 361.535 390.346 361.697 390.928C361.859 391.51 361.94 392.179 361.94 392.935C361.94 393.607 361.85 394.234 361.67 394.816C361.49 395.392 361.229 395.893 360.887 396.319C360.551 396.739 360.137 397.072 359.645 397.318C359.159 397.558 358.61 397.678 357.998 397.678C357.44 397.678 356.96 397.585 356.558 397.399C356.162 397.207 355.811 396.943 355.505 396.607V400.639H353.894V388.435H354.857C355.085 388.435 355.226 388.546 355.28 388.768L355.424 389.848ZM371.12 397.552H369.581C369.449 397.552 369.344 397.519 369.266 397.453C369.194 397.381 369.134 397.303 369.086 397.219L366.791 393.646C366.767 393.73 366.74 393.814 366.71 393.898C366.686 393.976 366.65 394.048 366.602 394.114L364.478 397.219C364.418 397.303 364.352 397.381 364.28 397.453C364.214 397.519 364.121 397.552 364.001 397.552H362.57L365.765 392.872L362.696 388.435H364.235C364.367 388.435 364.463 388.456 364.523 388.498C364.583 388.54 364.637 388.6 364.685 388.678L366.926 392.098C366.974 391.924 367.049 391.756 367.151 391.594L369.113 388.714C369.167 388.63 369.224 388.564 369.284 388.516C369.35 388.462 369.428 388.435 369.518 388.435H370.994L367.925 392.791L371.12 397.552Z" fill="#9D9D9C"/>
<path d="M164.084 342.602C164.756 342.458 165.374 342.386 165.938 342.386C166.61 342.386 167.204 342.485 167.72 342.683C168.236 342.881 168.665 343.154 169.007 343.502C169.355 343.85 169.616 344.261 169.79 344.735C169.97 345.209 170.06 345.725 170.06 346.283C170.06 346.967 169.94 347.585 169.7 348.137C169.466 348.689 169.139 349.163 168.719 349.559C168.305 349.949 167.816 350.249 167.252 350.459C166.688 350.669 166.079 350.774 165.425 350.774C165.047 350.774 164.684 350.735 164.336 350.657C163.988 350.585 163.661 350.486 163.355 350.36C163.055 350.234 162.776 350.09 162.518 349.928C162.26 349.766 162.032 349.595 161.834 349.415L162.329 348.731C162.437 348.575 162.578 348.497 162.752 348.497C162.872 348.497 163.007 348.545 163.157 348.641C163.307 348.731 163.49 348.833 163.706 348.947C163.922 349.061 164.174 349.166 164.462 349.262C164.756 349.352 165.104 349.397 165.506 349.397C165.956 349.397 166.361 349.325 166.721 349.181C167.081 349.037 167.39 348.833 167.648 348.569C167.906 348.299 168.104 347.978 168.242 347.606C168.38 347.234 168.449 346.817 168.449 346.355C168.449 345.953 168.389 345.59 168.269 345.266C168.155 344.942 167.978 344.666 167.738 344.438C167.504 344.21 167.21 344.033 166.856 343.907C166.502 343.781 166.088 343.718 165.614 343.718C165.29 343.718 164.951 343.745 164.597 343.799C164.249 343.853 163.892 343.94 163.526 344.06L162.518 343.763L163.553 337.733H169.664V338.435C169.664 338.663 169.592 338.852 169.448 339.002C169.31 339.146 169.07 339.218 168.728 339.218H164.678L164.084 342.602ZM174.148 348.434C174.442 348.83 174.763 349.109 175.111 349.271C175.459 349.433 175.849 349.514 176.281 349.514C177.133 349.514 177.787 349.211 178.243 348.605C178.699 347.999 178.927 347.135 178.927 346.013C178.927 345.419 178.873 344.909 178.765 344.483C178.663 344.057 178.513 343.709 178.315 343.439C178.117 343.163 177.874 342.962 177.586 342.836C177.298 342.71 176.971 342.647 176.605 342.647C176.083 342.647 175.624 342.767 175.228 343.007C174.838 343.247 174.478 343.586 174.148 344.024V348.434ZM174.067 342.926C174.451 342.452 174.895 342.071 175.399 341.783C175.903 341.495 176.479 341.351 177.127 341.351C177.655 341.351 178.132 341.453 178.558 341.657C178.984 341.855 179.347 342.152 179.647 342.548C179.947 342.938 180.178 343.424 180.34 344.006C180.502 344.588 180.583 345.257 180.583 346.013C180.583 346.685 180.493 347.312 180.313 347.894C180.133 348.47 179.872 348.971 179.53 349.397C179.194 349.817 178.78 350.15 178.288 350.396C177.802 350.636 177.253 350.756 176.641 350.756C176.083 350.756 175.603 350.663 175.201 350.477C174.805 350.285 174.454 350.021 174.148 349.685V353.717H172.537V341.513H173.5C173.728 341.513 173.869 341.624 173.923 341.846L174.067 342.926ZM189.763 350.63H188.224C188.092 350.63 187.987 350.597 187.909 350.531C187.837 350.459 187.777 350.381 187.729 350.297L185.434 346.724C185.41 346.808 185.383 346.892 185.353 346.976C185.329 347.054 185.293 347.126 185.245 347.192L183.121 350.297C183.061 350.381 182.995 350.459 182.923 350.531C182.857 350.597 182.764 350.63 182.644 350.63H181.213L184.408 345.95L181.339 341.513H182.878C183.01 341.513 183.106 341.534 183.166 341.576C183.226 341.618 183.28 341.678 183.328 341.756L185.569 345.176C185.617 345.002 185.692 344.834 185.794 344.672L187.756 341.792C187.81 341.708 187.867 341.642 187.927 341.594C187.993 341.54 188.071 341.513 188.161 341.513H189.637L186.568 345.869L189.763 350.63Z" fill="#9D9D9C"/>
<path d="M488.029 342.602C488.701 342.458 489.319 342.386 489.883 342.386C490.555 342.386 491.149 342.485 491.665 342.683C492.181 342.881 492.61 343.154 492.952 343.502C493.3 343.85 493.561 344.261 493.735 344.735C493.915 345.209 494.005 345.725 494.005 346.283C494.005 346.967 493.885 347.585 493.645 348.137C493.411 348.689 493.084 349.163 492.664 349.559C492.25 349.949 491.761 350.249 491.197 350.459C490.633 350.669 490.024 350.774 489.37 350.774C488.992 350.774 488.629 350.735 488.281 350.657C487.933 350.585 487.606 350.486 487.3 350.36C487 350.234 486.721 350.09 486.463 349.928C486.205 349.766 485.977 349.595 485.779 349.415L486.274 348.731C486.382 348.575 486.523 348.497 486.697 348.497C486.817 348.497 486.952 348.545 487.102 348.641C487.252 348.731 487.435 348.833 487.651 348.947C487.867 349.061 488.119 349.166 488.407 349.262C488.701 349.352 489.049 349.397 489.451 349.397C489.901 349.397 490.306 349.325 490.666 349.181C491.026 349.037 491.335 348.833 491.593 348.569C491.851 348.299 492.049 347.978 492.187 347.606C492.325 347.234 492.394 346.817 492.394 346.355C492.394 345.953 492.334 345.59 492.214 345.266C492.1 344.942 491.923 344.666 491.683 344.438C491.449 344.21 491.155 344.033 490.801 343.907C490.447 343.781 490.033 343.718 489.559 343.718C489.235 343.718 488.896 343.745 488.542 343.799C488.194 343.853 487.837 343.94 487.471 344.06L486.463 343.763L487.498 337.733H493.609V338.435C493.609 338.663 493.537 338.852 493.393 339.002C493.255 339.146 493.015 339.218 492.673 339.218H488.623L488.029 342.602ZM498.092 348.434C498.386 348.83 498.707 349.109 499.055 349.271C499.403 349.433 499.793 349.514 500.225 349.514C501.077 349.514 501.731 349.211 502.187 348.605C502.643 347.999 502.871 347.135 502.871 346.013C502.871 345.419 502.817 344.909 502.709 344.483C502.607 344.057 502.457 343.709 502.259 343.439C502.061 343.163 501.818 342.962 501.53 342.836C501.242 342.71 500.915 342.647 500.549 342.647C500.027 342.647 499.568 342.767 499.172 343.007C498.782 343.247 498.422 343.586 498.092 344.024V348.434ZM498.011 342.926C498.395 342.452 498.839 342.071 499.343 341.783C499.847 341.495 500.423 341.351 501.071 341.351C501.599 341.351 502.076 341.453 502.502 341.657C502.928 341.855 503.291 342.152 503.591 342.548C503.891 342.938 504.122 343.424 504.284 344.006C504.446 344.588 504.527 345.257 504.527 346.013C504.527 346.685 504.437 347.312 504.257 347.894C504.077 348.47 503.816 348.971 503.474 349.397C503.138 349.817 502.724 350.15 502.232 350.396C501.746 350.636 501.197 350.756 500.585 350.756C500.027 350.756 499.547 350.663 499.145 350.477C498.749 350.285 498.398 350.021 498.092 349.685V353.717H496.481V341.513H497.444C497.672 341.513 497.813 341.624 497.867 341.846L498.011 342.926ZM513.707 350.63H512.168C512.036 350.63 511.931 350.597 511.853 350.531C511.781 350.459 511.721 350.381 511.673 350.297L509.378 346.724C509.354 346.808 509.327 346.892 509.297 346.976C509.273 347.054 509.237 347.126 509.189 347.192L507.065 350.297C507.005 350.381 506.939 350.459 506.867 350.531C506.801 350.597 506.708 350.63 506.588 350.63H505.157L508.352 345.95L505.283 341.513H506.822C506.954 341.513 507.05 341.534 507.11 341.576C507.17 341.618 507.224 341.678 507.272 341.756L509.513 345.176C509.561 345.002 509.636 344.834 509.738 344.672L511.7 341.792C511.754 341.708 511.811 341.642 511.871 341.594C511.937 341.54 512.015 341.513 512.105 341.513H513.581L510.512 345.869L513.707 350.63Z" fill="#9D9D9C"/>
<path d="M208.766 349.406V350.63H201.854V349.406H204.617V340.613C204.617 340.349 204.626 340.082 204.644 339.812L202.349 341.783C202.271 341.849 202.193 341.891 202.115 341.909C202.037 341.921 201.965 341.921 201.899 341.909C201.833 341.897 201.77 341.873 201.71 341.837C201.656 341.801 201.614 341.762 201.584 341.72L201.08 341.027L204.923 337.706H206.228V349.406H208.766ZM213.304 342.602C213.976 342.458 214.594 342.386 215.158 342.386C215.83 342.386 216.424 342.485 216.94 342.683C217.456 342.881 217.885 343.154 218.227 343.502C218.575 343.85 218.836 344.261 219.01 344.735C219.19 345.209 219.28 345.725 219.28 346.283C219.28 346.967 219.16 347.585 218.92 348.137C218.686 348.689 218.359 349.163 217.939 349.559C217.525 349.949 217.036 350.249 216.472 350.459C215.908 350.669 215.299 350.774 214.645 350.774C214.267 350.774 213.904 350.735 213.556 350.657C213.208 350.585 212.881 350.486 212.575 350.36C212.275 350.234 211.996 350.09 211.738 349.928C211.48 349.766 211.252 349.595 211.054 349.415L211.549 348.731C211.657 348.575 211.798 348.497 211.972 348.497C212.092 348.497 212.227 348.545 212.377 348.641C212.527 348.731 212.71 348.833 212.926 348.947C213.142 349.061 213.394 349.166 213.682 349.262C213.976 349.352 214.324 349.397 214.726 349.397C215.176 349.397 215.581 349.325 215.941 349.181C216.301 349.037 216.61 348.833 216.868 348.569C217.126 348.299 217.324 347.978 217.462 347.606C217.6 347.234 217.669 346.817 217.669 346.355C217.669 345.953 217.609 345.59 217.489 345.266C217.375 344.942 217.198 344.666 216.958 344.438C216.724 344.21 216.43 344.033 216.076 343.907C215.722 343.781 215.308 343.718 214.834 343.718C214.51 343.718 214.171 343.745 213.817 343.799C213.469 343.853 213.112 343.94 212.746 344.06L211.738 343.763L212.773 337.733H218.884V338.435C218.884 338.663 218.812 338.852 218.668 339.002C218.53 339.146 218.29 339.218 217.948 339.218H213.898L213.304 342.602ZM223.367 348.434C223.661 348.83 223.982 349.109 224.33 349.271C224.678 349.433 225.068 349.514 225.5 349.514C226.352 349.514 227.006 349.211 227.462 348.605C227.918 347.999 228.146 347.135 228.146 346.013C228.146 345.419 228.092 344.909 227.984 344.483C227.882 344.057 227.732 343.709 227.534 343.439C227.336 343.163 227.093 342.962 226.805 342.836C226.517 342.71 226.19 342.647 225.824 342.647C225.302 342.647 224.843 342.767 224.447 343.007C224.057 343.247 223.697 343.586 223.367 344.024V348.434ZM223.286 342.926C223.67 342.452 224.114 342.071 224.618 341.783C225.122 341.495 225.698 341.351 226.346 341.351C226.874 341.351 227.351 341.453 227.777 341.657C228.203 341.855 228.566 342.152 228.866 342.548C229.166 342.938 229.397 343.424 229.559 344.006C229.721 344.588 229.802 345.257 229.802 346.013C229.802 346.685 229.712 347.312 229.532 347.894C229.352 348.47 229.091 348.971 228.749 349.397C228.413 349.817 227.999 350.15 227.507 350.396C227.021 350.636 226.472 350.756 225.86 350.756C225.302 350.756 224.822 350.663 224.42 350.477C224.024 350.285 223.673 350.021 223.367 349.685V353.717H221.756V341.513H222.719C222.947 341.513 223.088 341.624 223.142 341.846L223.286 342.926ZM238.983 350.63H237.444C237.312 350.63 237.207 350.597 237.129 350.531C237.057 350.459 236.997 350.381 236.949 350.297L234.654 346.724C234.63 346.808 234.603 346.892 234.573 346.976C234.549 347.054 234.513 347.126 234.465 347.192L232.341 350.297C232.281 350.381 232.215 350.459 232.143 350.531C232.077 350.597 231.984 350.63 231.864 350.63H230.433L233.628 345.95L230.559 341.513H232.098C232.23 341.513 232.326 341.534 232.386 341.576C232.446 341.618 232.5 341.678 232.548 341.756L234.789 345.176C234.837 345.002 234.912 344.834 235.014 344.672L236.976 341.792C237.03 341.708 237.087 341.642 237.147 341.594C237.213 341.54 237.291 341.513 237.381 341.513H238.857L235.788 345.869L238.983 350.63Z" fill="#9D9D9C"/>
<path d="M446.84 349.406V350.63H439.928V349.406H442.691V340.613C442.691 340.349 442.7 340.082 442.718 339.812L440.423 341.783C440.345 341.849 440.267 341.891 440.189 341.909C440.111 341.921 440.039 341.921 439.973 341.909C439.907 341.897 439.844 341.873 439.784 341.837C439.73 341.801 439.688 341.762 439.658 341.72L439.154 341.027L442.997 337.706H444.302V349.406H446.84ZM451.377 342.602C452.049 342.458 452.667 342.386 453.231 342.386C453.903 342.386 454.497 342.485 455.013 342.683C455.529 342.881 455.958 343.154 456.3 343.502C456.648 343.85 456.909 344.261 457.083 344.735C457.263 345.209 457.353 345.725 457.353 346.283C457.353 346.967 457.233 347.585 456.993 348.137C456.759 348.689 456.432 349.163 456.012 349.559C455.598 349.949 455.109 350.249 454.545 350.459C453.981 350.669 453.372 350.774 452.718 350.774C452.34 350.774 451.977 350.735 451.629 350.657C451.281 350.585 450.954 350.486 450.648 350.36C450.348 350.234 450.069 350.09 449.811 349.928C449.553 349.766 449.325 349.595 449.127 349.415L449.622 348.731C449.73 348.575 449.871 348.497 450.045 348.497C450.165 348.497 450.3 348.545 450.45 348.641C450.6 348.731 450.783 348.833 450.999 348.947C451.215 349.061 451.467 349.166 451.755 349.262C452.049 349.352 452.397 349.397 452.799 349.397C453.249 349.397 453.654 349.325 454.014 349.181C454.374 349.037 454.683 348.833 454.941 348.569C455.199 348.299 455.397 347.978 455.535 347.606C455.673 347.234 455.742 346.817 455.742 346.355C455.742 345.953 455.682 345.59 455.562 345.266C455.448 344.942 455.271 344.666 455.031 344.438C454.797 344.21 454.503 344.033 454.149 343.907C453.795 343.781 453.381 343.718 452.907 343.718C452.583 343.718 452.244 343.745 451.89 343.799C451.542 343.853 451.185 343.94 450.819 344.06L449.811 343.763L450.846 337.733H456.957V338.435C456.957 338.663 456.885 338.852 456.741 339.002C456.603 339.146 456.363 339.218 456.021 339.218H451.971L451.377 342.602ZM461.441 348.434C461.735 348.83 462.056 349.109 462.404 349.271C462.752 349.433 463.142 349.514 463.574 349.514C464.426 349.514 465.08 349.211 465.536 348.605C465.992 347.999 466.22 347.135 466.22 346.013C466.22 345.419 466.166 344.909 466.058 344.483C465.956 344.057 465.806 343.709 465.608 343.439C465.41 343.163 465.167 342.962 464.879 342.836C464.591 342.71 464.264 342.647 463.898 342.647C463.376 342.647 462.917 342.767 462.521 343.007C462.131 343.247 461.771 343.586 461.441 344.024V348.434ZM461.36 342.926C461.744 342.452 462.188 342.071 462.692 341.783C463.196 341.495 463.772 341.351 464.42 341.351C464.948 341.351 465.425 341.453 465.851 341.657C466.277 341.855 466.64 342.152 466.94 342.548C467.24 342.938 467.471 343.424 467.633 344.006C467.795 344.588 467.876 345.257 467.876 346.013C467.876 346.685 467.786 347.312 467.606 347.894C467.426 348.47 467.165 348.971 466.823 349.397C466.487 349.817 466.073 350.15 465.581 350.396C465.095 350.636 464.546 350.756 463.934 350.756C463.376 350.756 462.896 350.663 462.494 350.477C462.098 350.285 461.747 350.021 461.441 349.685V353.717H459.83V341.513H460.793C461.021 341.513 461.162 341.624 461.216 341.846L461.36 342.926ZM477.056 350.63H475.517C475.385 350.63 475.28 350.597 475.202 350.531C475.13 350.459 475.07 350.381 475.022 350.297L472.727 346.724C472.703 346.808 472.676 346.892 472.646 346.976C472.622 347.054 472.586 347.126 472.538 347.192L470.414 350.297C470.354 350.381 470.288 350.459 470.216 350.531C470.15 350.597 470.057 350.63 469.937 350.63H468.506L471.701 345.95L468.632 341.513H470.171C470.303 341.513 470.399 341.534 470.459 341.576C470.519 341.618 470.573 341.678 470.621 341.756L472.862 345.176C472.91 345.002 472.985 344.834 473.087 344.672L475.049 341.792C475.103 341.708 475.16 341.642 475.22 341.594C475.286 341.54 475.364 341.513 475.454 341.513H476.93L473.861 345.869L477.056 350.63Z" fill="#9D9D9C"/>
<path d="M243.996 319.88C243.988 319.85 243.992 319.821 244.007 319.797C242.43 319.353 240.853 318.907 239.277 318.463C239.882 319.903 239.883 321.858 240.218 323.385C240.68 325.488 241.199 327.922 242.681 329.571C243.402 330.374 244.824 330.756 245.845 330.897C246.301 330.96 247.754 330.988 247.025 330.176C245.644 328.638 245.257 325.998 244.83 324.052C244.525 322.659 244.538 320.889 243.986 319.575C243.614 318.688 239.806 317.109 239.256 318.241C239.241 318.265 239.237 318.293 239.245 318.323C239.189 319.717 243.966 320.64 243.996 319.88Z" fill="#C6C6C6"/>
<path d="M243.385 328.041C304.311 320.662 365.845 322.61 426.928 317.333C429.913 317.075 429.94 314.144 426.881 314.407C365.352 319.723 303.383 317.808 242.01 325.242C238.685 325.645 240.913 328.341 243.385 328.041Z" fill="#C6C6C6"/>
<path d="M424.526 308.806C424.526 316.402 424.526 323.996 424.526 331.591C424.526 333.764 429.282 335.233 429.282 332.792C429.282 332.737 429.282 332.684 429.282 332.63C429.282 330.457 424.526 328.988 424.526 331.429C424.526 331.484 424.526 331.537 424.526 331.591C424.526 333.764 429.282 335.233 429.282 332.792C429.282 325.196 429.282 317.602 429.282 310.007C429.282 307.834 424.526 306.365 424.526 308.806Z" fill="#C6C6C6"/>
<path d="M169.187 327.01C167.986 327.808 168.676 327.288 169.119 327.136C169.652 326.953 170.193 326.796 170.732 326.636C172.023 326.255 173.329 325.924 174.635 325.601C175.835 325.305 177.041 325.025 178.254 324.786C178.685 324.701 179.118 324.627 179.553 324.562C180.193 324.466 179.859 324.672 179.631 324.471C179.583 324.207 179.535 323.944 179.487 323.68C179.97 323.248 180.452 322.817 180.935 322.386C180.456 322.658 178.776 323.65 179.214 324.452C179.645 325.243 181.405 324.398 181.883 324.126C182.531 323.757 183.444 323.229 183.757 322.493C183.912 322.127 183.903 321.96 183.613 321.702C183.103 321.249 181.628 321.694 181.056 321.795C179.369 322.096 177.697 322.488 176.032 322.891C173.069 323.609 169.684 324.253 167.105 325.967C166.764 326.193 165.261 327.425 166.155 327.873C167.062 328.329 168.471 327.486 169.187 327.01Z" fill="#9D9D9C"/>
<path d="M192.358 326.023C204.077 326.022 216.27 326.435 227.758 323.771C228.927 323.5 232.725 320.947 229.627 321.666C218.757 324.186 207.167 323.722 196.082 323.723C194.958 323.723 191.127 326.023 192.358 326.023Z" fill="#9D9D9C"/>
<path d="M165.407 318.667C164.618 321.163 163.965 323.667 163.71 326.277C163.507 328.357 163.358 331.212 164.866 332.86C165.735 333.81 167.773 333.82 168.793 333.148C169.265 332.837 169.575 332.509 169.566 331.92C169.543 331.743 169.516 331.566 169.484 331.391C169.34 330.519 169.689 330.928 168.89 331.325C169.874 330.835 169.753 329.746 168.885 329.236C167.812 328.606 166.427 328.71 165.349 329.246C164.067 329.884 164.553 330.975 164.568 332.084C164.811 331.735 165.054 331.386 165.297 331.038C165.282 331.048 165.266 331.059 165.251 331.069C166.56 331.165 167.869 331.261 169.178 331.357C168.237 330.328 168.634 327.536 168.709 326.263C168.847 323.927 169.528 321.657 170.229 319.439C170.915 317.276 165.976 316.868 165.407 318.667Z" fill="#9D9D9C"/>
<path d="M177.839 316.49C177.891 319.41 178.368 322.273 179.051 325.107C179.466 326.83 179.91 329.085 181.072 330.493C181.98 331.595 186.176 329.371 185.828 328.948C184.655 327.525 184.256 325.294 183.807 323.562C183.078 320.752 182.646 317.847 182.595 314.945C182.583 314.28 177.815 315.125 177.839 316.49Z" fill="#9D9D9C"/>
<path d="M191.783 319.225C190.662 323.984 190.814 328.607 194.288 332.348C195.722 333.893 200.338 332.342 198.464 330.325C195.69 327.337 195.775 323.507 196.658 319.753C197.23 317.321 192.275 317.132 191.783 319.225Z" fill="#9D9D9C"/>
<path d="M228.484 318.674C227.496 324.523 229.765 329.833 234.361 333.497C235.25 334.205 236.569 334.651 237.704 334.648C238.648 334.646 238.835 334.07 238.103 333.487C234.049 330.256 232.355 325.373 233.21 320.302C233.446 318.91 228.661 317.626 228.484 318.674Z" fill="#9D9D9C"/>
<path d="M435.223 313.638C434.64 316.726 434.343 319.856 434.418 322.998C434.462 324.824 434.705 326.693 436.677 327.273C439.054 327.972 441.823 324.783 438.679 323.857C439.933 324.226 439.583 324.534 439.427 323.289C439.329 322.509 439.339 321.712 439.339 320.928C439.339 318.541 439.691 316.131 440.133 313.792C440.609 311.271 435.643 311.417 435.223 313.638Z" fill="#9D9D9C"/>
<path d="M441.53 322.403C453.876 320.487 466.432 321.155 478.757 319.077C481.956 318.538 477.966 316.691 476.316 316.97C464.401 318.979 452.234 318.255 440.291 320.109C436.966 320.624 439.237 322.76 441.53 322.403Z" fill="#9D9D9C"/>
<path d="M479.247 309.256C478.409 313.68 478.344 320.553 483.388 322.671C484.133 322.983 483.272 320.828 483.227 320.737C482.808 319.888 482.172 318.723 481.248 318.335C481.699 319.561 481.82 319.721 481.61 318.814C481.528 318.281 481.533 317.733 481.529 317.196C481.519 315.866 481.77 314.52 482.017 313.218C482.196 312.274 481.367 311.046 480.865 310.327C480.785 310.215 479.398 308.455 479.247 309.256Z" fill="#9D9D9C"/>
<path d="M486.978 310.998C486.253 314.119 485.715 318.297 487.035 321.343C487.433 322.262 491.708 319.799 491.14 318.489C489.905 315.635 490.519 311.538 491.197 308.619C491.411 307.7 489.324 308.659 489.162 308.751C488.316 309.228 487.212 309.988 486.978 310.998Z" fill="#9D9D9C"/>
<path d="M487.639 314.867C491.781 315.76 496.096 316.195 500.33 316.224C502.249 316.237 508.323 315.752 508.206 312.78C508.144 311.212 503.539 312.916 503.593 314.275C503.63 315.215 506.328 313.249 504.764 313.425C504.174 313.491 503.575 313.491 502.983 313.5C501.466 313.523 499.95 313.39 498.442 313.251C496.007 313.028 493.56 312.703 491.169 312.187C489.88 311.91 485.83 314.477 487.639 314.867Z" fill="#9D9D9C"/>
<path d="M502.619 308.296C501.798 311.428 502.718 315.506 503.87 318.441C504.536 320.138 509.006 321.468 507.929 318.724C506.986 316.322 506.387 312.875 507.053 310.337C507.517 308.567 503.177 306.172 502.619 308.296Z" fill="#9D9D9C"/>
<path d="M160.288 376.685C159.87 376.645 159.624 376.319 160.141 376.727C160.223 376.79 160.669 377.348 160.856 377.583C161.539 378.445 162.112 379.393 162.663 380.343C163.361 381.546 164.013 382.782 164.613 384.037C165.703 386.315 170.548 385.165 169.355 382.672C168.549 380.986 167.65 379.341 166.673 377.749C165.488 375.819 163.894 373.033 161.364 372.79C160.202 372.679 158.737 373.097 158.386 374.37C158.059 375.557 159.178 376.578 160.288 376.685Z" fill="#9D9D9C"/>
<path d="M165.235 379.581C182.619 379.564 200.033 378.635 217.401 377.997C248.978 376.838 280.551 375.563 312.124 374.258C369.745 371.875 427.389 369.618 484.976 366.493C488.38 366.308 491.785 366.122 495.186 365.887C496.225 365.816 499.15 366.01 499.806 364.919C501.021 362.898 496.327 361.306 495.302 363.009C495.718 362.317 497.086 362.373 495.672 362.51C494.898 362.585 494.121 362.638 493.345 362.693C490.657 362.881 487.967 363.031 485.278 363.181C475.841 363.708 466.401 364.164 456.961 364.618C427.151 366.05 397.337 367.359 367.521 368.645C306.622 371.273 245.712 373.939 184.786 375.871C178.072 376.084 171.35 376.349 164.632 376.355C161.325 376.357 162.598 379.584 165.235 379.581Z" fill="#9D9D9C"/>
<path d="M500.372 356.38C500.374 361.457 500.436 366.51 501.187 371.542C501.427 373.146 505.665 375.595 505.328 373.333C504.577 368.302 504.514 363.249 504.513 358.171C504.512 356.546 500.372 353.993 500.372 356.38Z" fill="#9D9D9C"/>
<path d="M236.232 16V17.8683" stroke="#9D9D9C" stroke-miterlimit="10"/>
<path d="M236.232 21.6274V433.252" stroke="#9D9D9C" stroke-miterlimit="10" stroke-dasharray="6.04 6.04"/>
<path d="M236.232 435.132V437" stroke="#9D9D9C" stroke-miterlimit="10"/>
<path d="M431.232 16V17.8683" stroke="#9D9D9C" stroke-miterlimit="10"/>
<path d="M431.232 21.6274V433.252" stroke="#9D9D9C" stroke-miterlimit="10" stroke-dasharray="6.04 6.04"/>
<path d="M431.232 435.132V437" stroke="#9D9D9C" stroke-miterlimit="10"/>
<path d="M88 0V1.86834" stroke="#9D9D9C" stroke-miterlimit="10"/>
<path d="M88 5.62744V417.252" stroke="#9D9D9C" stroke-miterlimit="10" stroke-dasharray="6.04 6.04"/>
<path d="M88 419.132V421" stroke="#9D9D9C" stroke-miterlimit="10"/>
</svg>
