<?xml version="1.0" encoding="UTF-8"?>
<svg width="894px" height="797px" viewBox="0 0 894 797" version="1.1" xmlns="http://www.w3.org/2000/svg" xmlns:xlink="http://www.w3.org/1999/xlink">
    <!-- Generator: Sketch 63.1 (92452) - https://sketch.com -->
    <title>noun_Tumbleweed_3884328</title>
    <desc>Created with Sketch.</desc>
    <g id="Page-1" stroke="none" stroke-width="1" fill="none" fill-rule="evenodd">
        <g id="noun_Tumbleweed_3884328" fill="#000000" fill-rule="nonzero">
            <path d="M875.414634,418.973242 C875.414634,462.084548 858.440925,503.889452 820.576497,543.081548 C782.712068,577.048032 735.707951,603.176097 701.760532,616.240129 C646.922395,642.368194 586.861577,654.125823 530.71777,667.189855 C530.71777,667.189855 530.71777,663.270645 526.80076,663.270645 C556.831169,654.125823 586.861577,646.287403 611.669306,625.384952 C615.586316,621.465742 615.586316,621.465742 620.808996,616.240129 C688.703833,590.112065 757.90434,552.226371 799.685778,488.212613 L799.685778,484.293403 C820.576497,458.165339 837.550206,429.424468 846.689895,394.151581 C855.829585,347.121065 846.689895,300.090548 820.576497,256.979242 C803.602787,230.851177 786.629078,219.093548 765.738359,213.867935 C756.59867,192.965484 739.62496,170.756629 727.873931,153.773387 C731.790941,149.854177 731.790941,149.854177 731.790941,144.628565 C782.712068,157.692597 825.799176,199.4975 842.772886,251.753629 C863.663605,311.848177 855.829585,375.861935 842.772886,417.666839 C842.772886,421.586048 842.772886,430.730871 851.912575,430.730871 C851.912575,430.730871 851.912575,430.730871 855.829585,430.730871 C859.746595,430.730871 864.969275,426.811661 864.969275,421.586048 C878.025974,374.555532 891.082673,306.622565 864.969275,242.608806 C844.078556,178.595048 791.851758,131.564532 733.096611,118.5005 C729.179601,118.5005 723.956921,118.5005 723.956921,122.41971 C697.843522,84.5340161 663.896104,45.3419194 616.891986,24.4394677 C612.974976,24.4394677 612.974976,24.4394677 607.752296,20.5202581 C602.529617,16.6010484 594.695597,11.3754355 586.861577,7.45622581 C569.887868,-1.68859677 548.997149,-1.68859677 526.80076,3.53701613 C492.853342,3.53701613 453.683244,12.6818387 419.735825,20.5202581 C410.596136,20.5202581 402.762116,24.4394677 389.705417,24.4394677 C389.705417,24.4394677 389.705417,24.4394677 385.788407,24.4394677 C338.784289,15.2946452 291.780171,11.3754355 248.693063,20.5202581 C244.776053,20.5202581 239.553373,24.4394677 239.553373,33.5842903 C239.553373,37.5035 243.470383,42.7291129 252.610073,42.7291129 C273.500792,38.8099032 299.614191,38.8099032 320.50491,42.7291129 C286.557491,51.8739355 252.610073,59.7123548 218.662654,76.6955968 L214.745645,76.6955968 C176.881216,93.6788387 137.711118,114.58129 107.68071,149.854177 C77.6503009,179.901452 56.7595819,213.867935 52.8425721,243.91521 C52.8425721,253.060032 52.8425721,260.898452 61.9822616,270.043274 C58.0652518,273.962484 52.8425721,279.188097 52.8425721,283.107306 C48.9255622,283.107306 43.7028825,287.026516 43.7028825,287.026516 C39.7858727,290.945726 39.7858727,296.171339 39.7858727,300.090548 C35.8688628,304.009758 30.6461831,309.235371 30.6461831,313.154581 C26.7291733,317.07379 30.6461831,326.218613 34.5631929,326.218613 L38.4802027,326.218613 C42.3972125,326.218613 42.3972125,326.218613 47.6198923,322.299403 C56.7595819,313.154581 60.6765917,305.316161 68.5106113,296.171339 C94.6240101,283.107306 119.431739,270.043274 145.545138,262.204855 C141.628128,266.124065 141.628128,266.124065 141.628128,270.043274 C120.737409,283.107306 103.7637,300.090548 81.5673107,317.07379 C60.6765917,334.057032 51.5369021,354.959484 51.5369021,371.942726 C42.3972125,375.861935 30.6461831,385.006758 25.4235033,392.845177 C21.5064935,388.925968 12.3668039,392.845177 12.3668039,396.764387 C-4.60690529,426.811661 -0.68989547,456.858935 8.44979411,481.680597 C12.3668039,490.825419 12.3668039,502.583048 17.5894837,511.727871 C17.5894837,524.791903 21.5064935,537.855935 21.5064935,545.694355 C25.4235033,575.741629 25.4235033,600.56329 38.4802027,630.610565 C47.6198923,651.513016 55.4539119,668.496258 68.5106113,685.4795 C64.5936015,685.4795 64.5936015,689.39871 64.5936015,689.39871 C64.5936015,693.317919 68.5106113,698.543532 81.5673107,698.543532 C111.597719,741.654839 154.684827,775.621323 200.383275,796.523774 L204.300285,796.523774 C208.217295,796.523774 213.439975,792.604565 213.439975,792.604565 C217.356984,788.685355 213.439975,779.540532 209.522965,779.540532 C171.658537,762.55729 136.405448,736.429226 111.597719,702.462742 C175.575546,711.607565 294.391511,719.445984 431.486855,719.445984 C636.477035,719.445984 798.380108,702.462742 798.380108,685.4795 C798.380108,672.415468 713.511562,659.351435 589.472917,655.432226 C627.337346,646.287403 666.507444,634.529774 704.371872,617.546532 C742.2363,600.56329 794.463098,579.660839 832.327526,540.468742 C868.886284,503.889452 893.694013,454.246129 892.388343,409.828419 C891.082673,409.828419 887.165664,408.522016 883.248654,408.522016 C879.331644,411.134823 875.414634,415.054032 875.414634,418.973242 Z M188.632246,641.06179 C171.658537,637.142581 158.601837,627.997758 141.628128,620.159339 C137.711118,620.159339 132.488438,620.159339 128.571429,620.159339 C115.514729,603.176097 102.45803,582.273645 90.7070003,565.290403 C124.654419,594.031274 154.684827,620.159339 188.632246,641.06179 Z M77.6503009,516.953484 C77.6503009,513.034274 73.7332911,507.808661 73.7332911,503.889452 C82.8729807,513.034274 90.7070003,520.872694 94.6240101,530.017516 C90.7070003,526.098306 81.5673107,522.179097 77.6503009,516.953484 Z M120.737409,522.179097 C107.68071,509.115065 94.6240101,492.131823 86.7899905,471.229371 C82.8729807,458.165339 82.8729807,445.101306 86.7899905,437.262887 C95.9296801,446.40771 107.68071,454.246129 116.820399,463.390952 C125.960089,480.374194 133.794108,497.357435 146.850808,510.421468 C167.741527,536.549532 189.937916,565.290403 210.828635,591.418468 C166.435857,569.209613 141.628128,547.000758 120.737409,522.179097 Z M158.601837,475.148581 C149.462148,466.003758 145.545138,458.165339 137.711118,445.101306 C128.571429,432.037274 128.571429,422.892452 128.571429,415.054032 C137.711118,435.956484 149.462148,458.165339 158.601837,475.148581 Z M269.583782,196.884694 C282.640481,192.965484 295.697181,192.965484 312.67089,192.965484 C291.780171,202.110306 265.666772,209.948726 244.776053,219.093548 C223.885334,223.012758 201.688945,228.238371 180.798226,232.157581 C193.854926,219.093548 210.828635,206.029516 223.885334,198.191097 C233.025024,198.191097 236.942034,194.271887 240.859043,194.271887 C249.998733,190.352677 253.915743,190.352677 261.749762,185.127065 L261.749762,189.046274 C256.527083,196.884694 260.444092,196.884694 269.583782,196.884694 Z M584.250238,192.965484 C584.250238,192.965484 584.250238,192.965484 580.333228,192.965484 C558.136839,178.595048 533.32911,166.837419 508.521381,158.999 C512.438391,158.999 520.272411,158.999 520.272411,155.07979 C524.18942,138.096548 524.18942,134.177339 516.355401,128.951726 C469.351283,111.968484 418.430155,119.806903 371.426037,128.951726 C350.535318,132.870935 333.561609,138.096548 311.36522,145.934968 C366.203358,119.806903 430.181185,108.049274 490.242002,108.049274 C507.215711,111.968484 524.18942,117.194097 541.16313,125.032516 C545.080139,125.032516 545.080139,128.951726 550.302819,128.951726 C559.442509,132.870935 567.276528,142.015758 576.416218,149.854177 C572.499208,153.773387 572.499208,158.999 572.499208,162.91821 C576.416218,172.063032 580.333228,185.127065 584.250238,192.965484 Z M640.394045,398.07079 C644.311055,385.006758 644.311055,371.942726 644.311055,364.104306 C644.311055,364.104306 644.311055,364.104306 648.228065,364.104306 C652.145074,373.249129 652.145074,377.168339 657.367754,385.006758 C661.284764,398.07079 670.424454,411.134823 674.341463,418.973242 C683.481153,435.956484 683.481153,452.939726 683.481153,466.003758 C662.590434,462.084548 640.394045,456.858935 619.503326,452.939726 C628.643016,439.875694 632.560025,426.811661 636.477035,415.054032 C640.394045,415.054032 645.616725,411.134823 645.616725,405.90921 C645.616725,400.683597 644.311055,398.07079 640.394045,398.07079 Z M542.468799,513.034274 C525.49509,513.034274 512.438391,513.034274 495.464682,513.034274 C469.351283,503.889452 444.543554,496.051032 422.347165,482.987 C413.207475,473.842177 409.290466,466.003758 401.456446,456.858935 C397.539436,447.714113 392.316756,439.875694 388.399747,426.811661 C426.264175,452.939726 469.351283,469.922968 512.438391,481.680597 C512.438391,485.599806 516.355401,494.744629 521.57808,494.744629 C525.49509,494.744629 530.71777,490.825419 534.63478,485.599806 C551.608489,489.519016 568.582198,494.744629 585.555908,494.744629 C581.638898,507.808661 572.499208,515.647081 568.582198,524.791903 C564.665188,524.791903 564.665188,524.791903 559.442509,524.791903 L555.525499,524.791903 C555.525499,524.791903 559.442509,520.872694 559.442509,515.647081 C550.302819,516.953484 546.385809,513.034274 542.468799,513.034274 Z M499.381691,563.984 C495.464682,563.984 490.242002,563.984 482.407982,563.984 C461.517263,560.06479 439.320874,554.839177 418.430155,547.000758 C422.347165,547.000758 431.486855,547.000758 435.403864,550.919968 C448.460564,550.919968 461.517263,550.919968 469.351283,550.919968 C478.490972,556.145581 491.547672,560.06479 499.381691,563.984 Z M286.557491,347.121065 C282.640481,347.121065 277.417802,351.040274 277.417802,360.185097 C268.278112,360.185097 260.444092,360.185097 251.304403,360.185097 C238.247704,347.121065 230.413684,334.057032 230.413684,330.137823 C230.413684,330.137823 230.413684,330.137823 230.413684,326.218613 C234.330694,326.218613 247.387393,322.299403 290.474501,339.282645 L290.474501,343.201855 C294.391511,347.121065 299.614191,352.346677 303.531201,360.185097 C303.531201,360.185097 303.531201,360.185097 299.614191,360.185097 L299.614191,356.265887 C299.614191,351.040274 290.474501,347.121065 286.557491,347.121065 Z M299.614191,405.90921 C290.474501,396.764387 286.557491,392.845177 278.723472,385.006758 C282.640481,385.006758 282.640481,385.006758 287.863161,385.006758 C290.474501,394.151581 294.391511,401.99 299.614191,405.90921 Z M269.583782,313.154581 C290.474501,313.154581 307.44821,309.235371 329.644599,309.235371 C333.561609,309.235371 333.561609,309.235371 338.784289,313.154581 C342.701299,322.299403 347.923978,326.218613 351.840988,334.057032 C351.840988,337.976242 351.840988,343.201855 351.840988,347.121065 C311.36522,330.137823 286.557491,317.07379 269.583782,313.154581 Z M260.444092,236.07679 C273.500792,236.07679 281.334812,232.157581 298.308521,232.157581 C324.42192,228.238371 349.229648,228.238371 375.343047,228.238371 C375.343047,228.238371 375.343047,232.157581 371.426037,232.157581 C358.369338,236.07679 341.395629,236.07679 328.338929,241.302403 C303.531201,239.996 282.640481,236.07679 260.444092,236.07679 Z M265.666772,256.979242 C261.749762,256.979242 252.610073,260.898452 248.693063,260.898452 C239.553373,260.898452 231.719354,256.979242 222.579664,256.979242 C231.719354,256.979242 239.553373,256.979242 243.470383,256.979242 C252.610073,256.979242 256.527083,256.979242 260.444092,256.979242 L265.666772,256.979242 Z M533.32911,290.945726 C542.468799,290.945726 550.302819,294.864935 559.442509,294.864935 C563.359519,298.784145 563.359519,304.009758 568.582198,307.928968 C517.661071,298.784145 466.739943,290.945726 410.596136,290.945726 C406.679126,290.945726 401.456446,287.026516 401.456446,287.026516 C392.316756,283.107306 388.399747,283.107306 380.565727,277.881694 C380.565727,273.962484 380.565727,268.736871 384.482737,268.736871 C431.486855,270.043274 482.407982,277.881694 533.32911,290.945726 Z M405.373456,249.140823 C426.264175,245.221613 456.294583,239.996 486.324992,236.07679 C495.464682,236.07679 503.298701,236.07679 512.438391,236.07679 C516.355401,236.07679 516.355401,236.07679 521.57808,239.996 C525.49509,243.91521 534.63478,253.060032 538.55179,260.898452 C542.468799,264.817661 542.468799,270.043274 547.691479,270.043274 L543.774469,270.043274 C495.464682,260.898452 452.377574,253.060032 405.373456,249.140823 Z M580.333228,249.140823 C589.472917,253.060032 597.306937,258.285645 606.446627,266.124065 L597.306937,279.188097 C593.389927,279.188097 593.389927,279.188097 593.389927,279.188097 C593.389927,279.188097 593.389927,279.188097 593.389927,275.268887 C593.389927,266.124065 584.250238,256.979242 580.333228,249.140823 Z M559.442509,256.979242 C568.582198,260.898452 572.499208,270.043274 572.499208,277.881694 C567.276528,270.043274 563.359519,266.124065 559.442509,256.979242 Z M576.416218,330.137823 C585.555908,347.121065 589.472917,364.104306 593.389927,381.087548 C555.525499,364.104306 520.272411,347.121065 486.324992,330.137823 C477.185303,326.218613 469.351283,320.993 460.211593,317.07379 C495.464682,317.07379 538.55179,320.993 576.416218,330.137823 Z M329.644599,206.029516 C342.701299,202.110306 350.535318,202.110306 363.592018,196.884694 C372.731707,196.884694 380.565727,200.803903 389.705417,200.803903 C367.509028,206.029516 350.535318,206.029516 329.644599,206.029516 Z M358.369338,266.124065 L358.369338,270.043274 C345.312639,266.124065 332.255939,266.124065 315.28223,266.124065 C319.19924,266.124065 324.42192,262.204855 328.338929,262.204855 C337.478619,260.898452 346.618309,260.898452 358.369338,266.124065 Z M303.531201,270.043274 C303.531201,270.043274 299.614191,273.962484 299.614191,279.188097 C299.614191,279.188097 299.614191,280.4945 299.614191,280.4945 C295.697181,279.188097 289.168831,279.188097 286.557491,279.188097 C290.474501,270.043274 294.391511,270.043274 303.531201,270.043274 Z M346.618309,398.07079 C350.535318,401.99 355.757998,407.215613 359.675008,411.134823 C363.592018,432.037274 372.731707,449.020516 385.788407,466.003758 C376.648717,456.858935 364.897688,449.020516 355.757998,439.875694 C342.701299,426.811661 325.727589,409.828419 317.89357,392.845177 C324.42192,394.151581 333.561609,394.151581 346.618309,398.07079 Z M367.509028,324.91221 C401.456446,337.976242 435.403864,354.959484 469.351283,371.942726 C448.460564,368.023516 422.347165,368.023516 401.456446,362.797903 C393.622426,354.959484 380.565727,341.895452 367.509028,324.91221 Z M422.347165,415.054032 C448.460564,432.037274 469.351283,449.020516 495.464682,462.084548 C457.600253,449.020516 418.430155,432.037274 384.482737,407.215613 C397.539436,411.134823 410.596136,411.134823 422.347165,415.054032 Z M546.385809,428.118065 C520.272411,418.973242 499.381691,407.215613 478.490972,394.151581 C491.547672,394.151581 508.521381,398.07079 521.57808,398.07079 C530.71777,401.99 538.55179,407.215613 542.468799,411.134823 C542.468799,411.134823 546.385809,411.134823 546.385809,415.054032 C542.468799,418.973242 542.468799,422.892452 546.385809,428.118065 Z M542.468799,458.165339 C545.080139,455.552532 546.385809,451.633323 545.080139,450.326919 C558.136839,454.246129 573.804878,458.165339 585.555908,462.084548 C585.555908,466.003758 585.555908,471.229371 585.555908,471.229371 C572.499208,469.922968 559.442509,466.003758 542.468799,458.165339 Z M555.525499,432.037274 C559.442509,428.118065 559.442509,428.118065 563.359519,428.118065 C567.276528,432.037274 576.416218,437.262887 580.333228,441.182097 C572.499208,435.956484 563.359519,435.956484 555.525499,432.037274 Z M567.276528,405.90921 C567.276528,401.99 563.359519,396.764387 558.136839,392.845177 C548.997149,383.700355 537.24612,383.700355 528.10643,379.781145 C528.10643,379.781145 528.10643,379.781145 524.18942,379.781145 C477.185303,353.653081 430.181185,328.831419 383.177067,306.622565 C392.316756,306.622565 396.233766,306.622565 404.067786,306.622565 C430.181185,319.686597 451.071904,327.525016 477.185303,340.589048 C515.049731,361.4915 558.136839,378.474742 596.001267,395.457984 C596.001267,399.377194 596.001267,404.602806 596.001267,404.602806 C596.001267,408.522016 596.001267,417.666839 596.001267,421.586048 C589.472917,418.973242 576.416218,411.134823 567.276528,405.90921 Z M593.389927,313.154581 L589.472917,313.154581 C589.472917,309.235371 585.555908,309.235371 585.555908,304.009758 C598.612607,307.928968 606.446627,313.154581 619.503326,317.07379 C623.420336,320.993 628.643016,320.993 628.643016,326.218613 L628.643016,330.137823 C619.503326,317.07379 606.446627,313.154581 593.389927,313.154581 Z M614.280646,287.026516 L618.197656,277.881694 C618.197656,281.800903 618.197656,287.026516 622.114666,290.945726 C623.420336,290.945726 619.503326,290.945726 614.280646,287.026516 Z M627.337346,347.121065 C623.420336,347.121065 623.420336,351.040274 623.420336,356.265887 C623.420336,361.4915 627.337346,360.185097 627.337346,365.41071 C627.337346,374.555532 627.337346,382.393952 623.420336,391.538774 C619.503326,391.538774 614.280646,391.538774 614.280646,387.619565 C610.363636,370.636323 605.140957,353.653081 601.223947,336.669839 C610.363636,337.976242 623.420336,341.895452 627.337346,347.121065 Z M627.337346,223.012758 L623.420336,219.093548 C619.503326,206.029516 610.363636,192.965484 606.446627,175.982242 C615.586316,192.965484 627.337346,206.029516 632.560025,223.012758 C627.337346,223.012758 627.337346,223.012758 627.337346,223.012758 Z M610.363636,239.996 C597.306937,230.851177 580.333228,223.012758 563.359519,219.093548 C563.359519,219.093548 567.276528,215.174339 567.276528,209.948726 C567.276528,206.029516 563.359519,200.803903 558.136839,200.803903 C541.16313,200.803903 524.18942,200.803903 511.132721,200.803903 C501.993031,191.659081 490.242002,187.739871 481.102312,179.901452 L485.019322,179.901452 C488.936332,179.901452 494.159012,175.982242 494.159012,170.756629 C494.159012,165.531016 494.159012,166.837419 490.242002,161.611806 C520.272411,172.063032 546.385809,179.901452 572.499208,196.884694 C585.555908,209.948726 593.389927,217.787145 606.446627,226.931968 C606.446627,232.157581 610.363636,236.07679 610.363636,239.996 Z M465.434273,149.854177 C475.879633,151.160581 486.324992,152.466984 496.770352,155.07979 C486.324992,152.466984 475.879633,151.160581 465.434273,149.854177 Z M375.343047,158.999 C385.788407,156.386194 397.539436,155.07979 409.290466,152.466984 C406.679126,155.07979 405.373456,157.692597 405.373456,162.91821 C405.373456,166.837419 409.290466,172.063032 418.430155,172.063032 C435.403864,168.143823 456.294583,172.063032 473.268293,172.063032 C435.403864,172.063032 396.233766,175.982242 358.369338,185.127065 C337.478619,179.901452 311.36522,175.982242 290.474501,179.901452 C316.5879,172.063032 346.618309,162.91821 375.343047,158.999 Z M247.387393,283.107306 C256.527083,287.026516 264.361102,287.026516 277.417802,292.252129 C256.527083,292.252129 230.413684,296.171339 209.522965,296.171339 C222.579664,290.945726 235.636364,287.026516 247.387393,283.107306 Z M195.160596,390.232371 C202.994615,405.90921 214.745645,420.279645 222.579664,432.037274 C213.439975,428.118065 201.688945,422.892452 192.549256,418.973242 C188.632246,409.828419 188.632246,401.99 192.549256,398.07079 C195.160596,395.457984 196.466265,392.845177 195.160596,390.232371 Z M218.662654,317.07379 C214.745645,320.993 214.745645,326.218613 214.745645,330.137823 C214.745645,334.057032 214.745645,339.282645 218.662654,343.201855 C214.745645,343.201855 209.522965,347.121065 209.522965,352.346677 L209.522965,356.265887 C205.605955,356.265887 200.383275,356.265887 200.383275,356.265887 C191.243586,343.201855 187.326576,335.363435 179.492556,322.299403 C192.549256,320.993 205.605955,317.07379 218.662654,317.07379 Z M179.492556,449.020516 C179.492556,452.939726 183.409566,452.939726 183.409566,458.165339 C179.492556,458.165339 179.492556,462.084548 174.269876,462.084548 C174.269876,462.084548 172.964207,463.390952 172.964207,464.697355 C167.741527,451.633323 159.907507,439.875694 154.684827,428.118065 L163.824517,432.037274 C167.741527,432.037274 172.964207,435.956484 172.964207,435.956484 C171.658537,441.182097 175.575546,445.101306 179.492556,449.020516 Z M171.658537,411.134823 L145.545138,398.07079 C145.545138,398.07079 145.545138,398.07079 145.545138,394.151581 C149.462148,390.232371 162.518847,390.232371 179.492556,385.006758 C171.658537,394.151581 171.658537,401.99 171.658537,411.134823 Z M196.466265,505.195855 C191.243586,494.744629 186.020906,485.599806 180.798226,475.148581 C188.632246,479.06779 196.466265,482.987 201.688945,486.90621 C210.828635,499.970242 218.662654,510.421468 226.496674,520.872694 C218.662654,515.647081 208.217295,510.421468 196.466265,505.195855 Z M222.579664,469.922968 C218.662654,460.778145 213.439975,456.858935 209.522965,449.020516 C218.662654,452.939726 230.413684,458.165339 239.553373,462.084548 C243.470383,471.229371 248.693063,479.06779 252.610073,482.987 C243.470383,482.987 235.636364,475.148581 222.579664,469.922968 Z M269.583782,513.034274 C278.723472,526.098306 282.640481,533.936726 286.557491,547.000758 C273.500792,533.936726 260.444092,520.872694 248.693063,503.889452 C256.527083,509.115065 260.444092,509.115065 269.583782,513.034274 Z M282.640481,496.051032 C278.723472,486.90621 273.500792,482.987 269.583782,475.148581 C273.500792,475.148581 273.500792,475.148581 278.723472,479.06779 C287.863161,488.212613 299.614191,496.051032 308.75388,505.195855 C299.614191,505.195855 290.474501,499.970242 282.640481,496.051032 Z M290.474501,462.084548 C277.417802,449.020516 264.361102,435.956484 256.527083,418.973242 C247.387393,409.828419 243.470383,398.07079 235.636364,385.006758 C239.553373,385.006758 248.693063,385.006758 252.610073,385.006758 C261.749762,394.151581 273.500792,405.90921 286.557491,418.973242 C290.474501,422.892452 295.697181,428.118065 299.614191,432.037274 C299.614191,432.037274 295.697181,432.037274 295.697181,435.956484 C291.780171,439.875694 295.697181,449.020516 299.614191,449.020516 C308.75388,452.939726 316.5879,458.165339 320.50491,462.084548 C324.42192,466.003758 329.644599,475.148581 333.561609,479.06779 C316.5879,469.922968 303.531201,466.003758 290.474501,462.084548 Z M350.535318,505.195855 C354.452328,509.115065 354.452328,514.340677 359.675008,518.259887 C350.535318,514.340677 342.701299,505.195855 333.561609,501.276645 C337.478619,499.970242 341.395629,499.970242 350.535318,505.195855 Z M354.452328,475.148581 C363.592018,479.06779 371.426037,484.293403 380.565727,488.212613 L384.482737,492.131823 C375.343047,492.131823 367.509028,488.212613 363.592018,482.987 C358.369338,482.987 358.369338,479.06779 354.452328,475.148581 Z M422.347165,522.179097 C426.264175,522.179097 426.264175,526.098306 431.486855,526.098306 C414.513145,526.098306 397.539436,522.179097 384.482737,522.179097 C384.482737,518.259887 380.565727,518.259887 380.565727,513.034274 C393.622426,516.953484 410.596136,516.953484 422.347165,522.179097 Z M410.596136,597.950484 L414.513145,597.950484 C452.377574,597.950484 491.547672,597.950484 525.49509,588.805661 C538.55179,588.805661 551.608489,584.886452 563.359519,579.660839 C542.468799,600.56329 516.355401,613.627323 490.242002,626.691355 C452.377574,617.546532 413.207475,609.708113 375.343047,592.724871 C384.482737,592.724871 392.316756,592.724871 401.456446,592.724871 C405.373456,597.950484 410.596136,597.950484 410.596136,597.950484 Z M593.389927,603.176097 C576.416218,616.240129 555.525499,624.078548 529.4121,633.223371 C555.525499,620.159339 576.416218,603.176097 593.389927,582.273645 C593.389927,582.273645 593.389927,582.273645 597.306937,582.273645 C597.306937,582.273645 597.306937,582.273645 597.306937,586.192855 C597.306937,590.112065 601.223947,595.337677 606.446627,595.337677 C602.529617,597.950484 597.306937,603.176097 593.389927,603.176097 Z M670.424454,560.06479 C670.424454,556.145581 674.341463,547.000758 679.564143,543.081548 C683.481153,543.081548 683.481153,543.081548 688.703833,543.081548 C683.481153,550.919968 678.258473,556.145581 670.424454,560.06479 Z M661.284764,526.098306 C635.171365,526.098306 610.363636,530.017516 588.167247,530.017516 C592.084257,520.872694 597.306937,513.034274 601.223947,503.889452 C610.363636,503.889452 622.114666,503.889452 631.254355,503.889452 C640.394045,503.889452 648.228065,503.889452 657.367754,503.889452 C661.284764,503.889452 666.507444,499.970242 666.507444,490.825419 C666.507444,481.680597 662.590434,481.680597 653.450744,481.680597 C644.311055,481.680597 632.560025,481.680597 623.420336,481.680597 C619.503326,481.680597 614.280646,481.680597 610.363636,477.761387 C614.280646,477.761387 614.280646,473.842177 619.503326,468.616565 C640.394045,472.535774 662.590434,477.761387 687.398163,481.680597 C683.481153,496.051032 674.341463,513.034274 661.284764,526.098306 Z M695.232182,330.137823 C695.232182,326.218613 695.232182,326.218613 695.232182,320.993 C686.092493,300.090548 674.341463,283.107306 661.284764,266.124065 C661.284764,249.140823 657.367754,232.157581 648.228065,215.174339 C639.088375,194.271887 622.114666,172.063032 605.140957,151.160581 C669.118784,198.191097 720.039911,266.124065 733.096611,334.057032 C737.013621,364.104306 737.013621,388.925968 733.096611,418.973242 C729.179601,428.118065 729.179601,435.956484 729.179601,445.101306 C725.262591,454.246129 725.262591,462.084548 720.039911,466.003758 C716.122901,466.003758 710.900222,466.003758 706.983212,466.003758 C706.983212,456.858935 706.983212,449.020516 706.983212,439.875694 C706.983212,439.875694 706.983212,439.875694 710.900222,439.875694 C714.817232,439.875694 720.039911,435.956484 720.039911,430.730871 C730.485271,401.99 721.345581,368.023516 695.232182,330.137823 Z M631.254355,64.9379677 C652.145074,78.002 674.341463,98.9044516 691.315173,119.806903 C670.424454,101.517258 646.922395,87.1468226 620.808996,76.6955968 C622.114666,76.6955968 623.420336,76.6955968 623.420336,76.6955968 C627.337346,78.002 631.254355,74.0827903 631.254355,64.9379677 Z M469.351283,47.9547258 C473.268293,47.9547258 473.268293,47.9547258 473.268293,44.0355161 C482.407982,44.0355161 494.159012,40.1163065 503.298701,40.1163065 C533.32911,40.1163065 567.276528,40.1163065 597.306937,49.261129 C601.223947,53.1803387 610.363636,62.3251613 610.363636,70.1635806 C610.363636,72.7763871 612.974976,75.3891935 616.891986,76.6955968 C596.001267,68.8571774 573.804878,63.6315645 550.302819,61.0187581 C546.385809,61.0187581 541.16313,64.9379677 537.24612,70.1635806 C537.24612,74.0827903 541.16313,79.3084032 546.385809,83.2276129 C648.228065,92.3724355 738.31929,168.143823 764.432689,266.124065 C764.432689,270.043274 768.349699,275.268887 773.572379,275.268887 C773.572379,275.268887 773.572379,275.268887 777.489389,275.268887 C781.406398,275.268887 786.629078,266.124065 786.629078,262.204855 C786.629078,258.285645 782.712068,249.140823 782.712068,245.221613 C795.768768,254.366435 803.602787,262.204855 808.825467,275.268887 C829.716186,309.235371 838.855876,352.346677 829.716186,394.151581 C820.576497,435.956484 795.768768,471.229371 761.821349,496.051032 C757.90434,499.970242 757.90434,505.195855 757.90434,509.115065 C744.84764,522.179097 731.790941,535.243129 714.817232,543.081548 C731.790941,526.098306 744.84764,505.195855 752.68166,482.987 C756.59867,482.987 761.821349,479.06779 761.821349,473.842177 C761.821349,473.842177 761.821349,473.842177 761.821349,469.922968 C782.712068,422.892452 795.768768,375.861935 791.851758,324.91221 C791.851758,320.993 787.934748,315.767387 778.795059,315.767387 C774.878049,315.767387 772.266709,318.380194 770.961039,324.91221 C769.655369,305.316161 764.432689,285.720113 753.98733,264.817661 C737.013621,230.851177 710.900222,200.803903 673.035793,174.675839 L669.118784,174.675839 C639.088375,144.628565 609.057966,123.726113 571.193538,106.742871 C567.276528,106.742871 562.053849,106.742871 558.136839,110.662081 C524.18942,89.759629 490.242002,67.5507742 451.071904,55.7931452 C452.377574,47.9547258 461.517263,47.9547258 469.351283,47.9547258 Z M769.655369,351.040274 C769.655369,386.313161 761.821349,421.586048 747.45898,458.165339 C747.45898,454.246129 747.45898,454.246129 747.45898,449.020516 C751.37599,439.875694 751.37599,432.037274 756.59867,422.892452 C761.821349,400.683597 768.349699,377.168339 769.655369,351.040274 Z M350.535318,78.002 C367.509028,68.8571774 384.482737,64.9379677 401.456446,61.0187581 C427.569845,64.9379677 452.377574,74.0827903 478.490972,87.1468226 C469.351283,87.1468226 465.434273,87.1468226 457.600253,87.1468226 C419.735825,83.2276129 380.565727,87.1468226 346.618309,91.0660323 C350.535318,91.0660323 354.452328,81.9212097 350.535318,78.002 Z M320.50491,98.9044516 L320.50491,102.823661 C320.50491,111.968484 329.644599,111.968484 333.561609,111.968484 C334.867279,111.968484 337.478619,111.968484 338.784289,111.968484 C291.780171,128.951726 248.693063,148.547774 209.522965,175.982242 C200.383275,179.901452 188.632246,185.127065 175.575546,189.046274 C179.492556,185.127065 184.715236,179.901452 188.632246,175.982242 C230.413684,145.934968 273.500792,121.113306 320.50491,98.9044516 Z M77.6503009,253.060032 C81.5673107,226.931968 98.54102,198.191097 124.654419,172.063032 C154.684827,142.015758 192.549256,121.113306 231.719354,104.130065 C252.610073,94.9852419 274.806462,91.0660323 295.697181,83.2276129 C252.610073,104.130065 214.745645,130.258129 180.798226,164.224613 C176.881216,164.224613 176.881216,168.143823 171.658537,173.369435 C137.711118,199.4975 103.7637,233.463984 73.7332911,267.430468 C77.6503009,256.979242 77.6503009,253.060032 77.6503009,253.060032 Z M98.54102,260.898452 C107.68071,251.753629 115.514729,239.996 128.571429,230.851177 L132.488438,230.851177 C136.405448,230.851177 136.405448,230.851177 141.628128,226.931968 C146.850808,223.012758 150.767818,217.787145 150.767818,213.867935 C150.767818,217.787145 150.767818,223.012758 150.767818,226.931968 C150.767818,230.851177 154.684827,236.07679 154.684827,236.07679 C137.711118,243.91521 115.514729,253.060032 98.54102,260.898452 Z M171.658537,277.881694 C184.715236,277.881694 192.549256,277.881694 205.605955,277.881694 C179.492556,287.026516 158.601837,294.864935 132.488438,307.928968 C145.545138,294.864935 158.601837,287.026516 171.658537,277.881694 Z M43.7028825,418.973242 C43.7028825,409.828419 52.8425721,398.07079 64.5936015,392.845177 L68.5106113,392.845177 L72.4276212,392.845177 C76.344631,388.925968 76.344631,383.700355 76.344631,379.781145 C67.2049414,366.717113 80.2616408,349.733871 97.23535,336.669839 C101.15236,332.750629 110.292049,323.605806 118.126069,319.686597 C118.126069,319.686597 118.126069,319.686597 118.126069,323.605806 C118.126069,327.525016 127.265759,332.750629 131.182768,332.750629 C140.322458,332.750629 152.073487,328.831419 161.213177,328.831419 C165.130187,337.976242 174.269876,349.733871 178.186886,358.878694 C165.130187,358.878694 148.156478,358.878694 135.099778,358.878694 L135.099778,354.959484 C139.016788,351.040274 135.099778,345.814661 131.182768,341.895452 C127.265759,337.976242 122.043079,337.976242 118.126069,341.895452 C114.209059,345.814661 114.209059,351.040274 108.986379,358.878694 C105.06937,358.878694 105.06937,358.878694 99.8466899,358.878694 C95.9296801,358.878694 90.7070003,362.797903 90.7070003,368.023516 C90.7070003,371.942726 94.6240101,377.168339 99.8466899,377.168339 C99.8466899,381.087548 99.8466899,381.087548 99.8466899,386.313161 C95.9296801,386.313161 95.9296801,390.232371 95.9296801,390.232371 C95.9296801,394.151581 95.9296801,399.377194 99.8466899,403.296403 C99.8466899,407.215613 99.8466899,416.360435 99.8466899,420.279645 L99.8466899,424.198855 C99.8466899,428.118065 99.8466899,428.118065 99.8466899,433.343677 C95.9296801,429.424468 90.7070003,424.198855 86.7899905,420.279645 C86.7899905,416.360435 86.7899905,411.134823 82.8729807,411.134823 C78.9559709,407.215613 69.8162813,407.215613 69.8162813,411.134823 C56.7595819,428.118065 52.8425721,454.246129 60.6765917,479.06779 C56.7595819,479.06779 56.7595819,479.06779 51.5369021,482.987 C51.5369021,479.06779 47.6198923,469.922968 42.3972125,466.003758 C43.7028825,449.020516 38.4802027,435.956484 43.7028825,418.973242 Z M85.4843206,692.011516 C72.4276212,675.028274 64.5936015,654.125823 55.4539119,637.142581 C42.3972125,611.014516 42.3972125,586.192855 38.4802027,556.145581 C38.4802027,543.081548 38.4802027,530.017516 34.5631929,518.259887 C34.5631929,505.195855 30.6461831,497.357435 25.4235033,484.293403 C21.5064935,467.310161 16.2838137,454.246129 16.2838137,441.182097 C16.2838137,454.246129 20.2008236,462.084548 25.4235033,471.229371 C51.5369021,548.307161 93.3183402,620.159339 149.462148,680.253887 C124.654419,684.173097 102.45803,688.092306 85.4843206,692.011516 Z M179.492556,678.947484 C170.352867,669.802661 162.518847,658.045032 153.379157,648.90021 C174.269876,661.964242 200.383275,669.802661 226.496674,675.028274 C209.522965,675.028274 192.549256,678.947484 179.492556,678.947484 Z M260.444092,658.045032 C239.553373,648.90021 217.356984,637.142581 196.466265,620.159339 C222.579664,633.223371 247.387393,646.287403 273.500792,654.125823 C265.666772,654.125823 260.444092,654.125823 260.444092,658.045032 Z M316.5879,644.981 C312.67089,644.981 307.44821,644.981 307.44821,641.06179 C298.308521,631.916968 290.474501,624.078548 281.334812,614.933726 C298.308521,627.997758 311.36522,635.836177 328.338929,644.981 C324.42192,644.981 320.50491,644.981 316.5879,644.981 Z M230.413684,550.919968 C230.413684,547.000758 226.496674,547.000758 226.496674,541.775145 C247.387393,554.839177 273.500792,567.90321 294.391511,579.660839 C303.531201,588.805661 311.36522,596.644081 320.50491,600.56329 C324.42192,609.708113 329.644599,617.546532 333.561609,626.691355 C299.614191,607.095306 260.444092,580.967242 230.413684,550.919968 Z M320.50491,560.06479 C311.36522,547.000758 307.44821,539.162339 299.614191,526.098306 C316.5879,530.017516 333.561609,535.243129 354.452328,539.162339 C363.592018,543.081548 371.426037,548.307161 380.565727,552.226371 C384.482737,556.145581 389.705417,565.290403 389.705417,569.209613 C376.648717,569.209613 363.592018,569.209613 351.840988,565.290403 C337.478619,563.984 329.644599,560.06479 320.50491,560.06479 Z M380.565727,650.206613 C376.648717,650.206613 371.426037,646.287403 367.509028,646.287403 L367.509028,642.368194 C367.509028,638.448984 363.592018,638.448984 363.592018,633.223371 L367.509028,633.223371 C371.426037,633.223371 376.648717,633.223371 376.648717,629.304161 C380.565727,625.384952 377.954387,620.159339 375.343047,617.546532 C404.067786,629.304161 432.792525,638.448984 462.822933,642.368194 C435.403864,644.981 405.373456,650.206613 380.565727,650.206613 Z" id="Shape"></path>
            <path d="M892.388343,405.90921 C892.388343,407.215613 892.388343,409.828419 892.388343,411.134823 C893.694013,412.441226 893.694013,411.134823 892.388343,405.90921 Z" id="Path"></path>
        </g>
    </g>
</svg>