<svg xmlns="https://www.w3.org/2000/svg" viewBox="0 0 804.667 804.667"><path fill="#042F41" d="M0 0h201.167v268.222H0z"/><path fill="#325968" d="M0 268.222h201.167v268.222H0z"/><path fill="#65828E" d="M0 536.444h201.167v268.222H0z"/><path fill="#00AAAE" d="M201.167 0h201.167v268.222H201.167z"/><path fill="#30B7BB" d="M201.167 268.222h201.167v268.222H201.167z"/><path fill="#6AC4CA" d="M201.167 536.444h201.167v268.222H201.167z"/><path fill="#E4AE00" d="M402.333 0H603.5v268.222H402.333z"/><path fill="#EABE35" d="M402.333 268.222H603.5v268.222H402.333z"/><path fill="#EFCE6A" d="M402.333 536.444H603.5v268.222H402.333z"/><path fill="#DA265E" d="M603.5 0h201.167v268.222H603.5z"/><path fill="#E14E7D" d="M603.5 268.222h201.167v268.222H603.5z"/><path fill="#EA7B9F" d="M603.5 536.444h201.167v268.222H603.5z"/></svg>